<svg width="28" height="38" viewBox="0 0 28 38" fill="none" xmlns="http://www.w3.org/2000/svg">
<path d="M20.9998 28.4999C21.3517 28.4999 21.6362 28.2162 21.6362 27.8666C21.6362 27.517 21.3517 27.2333 20.9998 27.2333H20.331C20.352 27.025 20.3634 26.8134 20.3634 26.6C20.3634 25.6734 20.1579 24.795 19.7964 24.0002L20.38 23.6652C20.6848 23.4904 20.7892 23.1027 20.6135 22.8C20.4366 22.4967 20.0471 22.3934 19.7436 22.5682L19.1576 22.9045C18.7566 22.3516 18.2686 21.8665 17.7124 21.4668L18.051 20.8835C18.2272 20.5802 18.1222 20.1932 17.8181 20.0178C17.5145 19.843 17.1244 19.9468 16.9488 20.2502L16.6115 20.831C15.998 20.5548 15.3349 20.368 14.6362 20.299V19.6333C14.6362 19.2837 14.3518 19 13.9999 19C13.648 19 13.3635 19.2837 13.3635 19.6333V20.299C12.6648 20.368 12.0018 20.5548 11.3876 20.831L11.051 20.2502C10.8747 19.9468 10.4853 19.843 10.1817 20.0178C9.87752 20.1932 9.77252 20.5808 9.94881 20.8835L10.2874 21.4668C9.7312 21.8665 9.24312 22.3516 8.84281 22.9045L8.25606 22.5682C7.95128 22.3934 7.56245 22.4967 7.38616 22.8C7.21053 23.1027 7.31486 23.4903 7.61972 23.6652L8.20326 24.0009C7.92577 24.6114 7.73807 25.2713 7.66872 25.9667H6.99986C6.64795 25.9667 6.36353 26.2504 6.36353 26.6C6.36353 26.9496 6.64795 27.2333 6.99986 27.2333H7.66872C7.73807 27.9287 7.92577 28.5886 8.20326 29.1991L7.61972 29.5348C7.31494 29.7096 7.21053 30.0972 7.38616 30.4C7.5045 30.6033 7.71831 30.7167 7.93852 30.7167C8.04673 30.7167 8.15553 30.6894 8.25606 30.6318L8.84213 30.2949C9.24304 30.8484 9.73113 31.3336 10.2873 31.7332L9.94874 32.3165C9.77244 32.6198 9.87744 33.0074 10.1816 33.1822C10.2816 33.2392 10.391 33.2664 10.4992 33.2664C10.7194 33.2664 10.9332 33.153 11.0509 32.9498L11.3875 32.369C12.0016 32.6451 12.6646 32.832 13.3634 32.901V33.5667C13.3634 33.9162 13.6478 34.2 13.9997 34.2C14.3516 34.2 14.6361 33.9162 14.6361 33.5667V32.901C15.3348 32.832 15.9979 32.6451 16.6113 32.369L16.9486 32.9498C17.0664 33.153 17.2802 33.2664 17.5003 33.2664C17.6085 33.2664 17.7179 33.2392 17.8178 33.1822C18.122 33.0068 18.227 32.6198 18.0507 32.3165L17.7122 31.7332C18.2683 31.3335 18.7564 30.8484 19.1573 30.2955L19.7434 30.6318C19.8439 30.6894 19.9534 30.7166 20.0609 30.7166C20.2812 30.7166 20.495 30.6033 20.6133 30.3999C20.7889 30.0966 20.6846 29.7096 20.3797 29.5347L19.7962 29.1997C19.8999 28.9724 19.9935 28.7399 20.0698 28.4999H20.9998ZM14.0011 31.6666C14.0004 31.6666 14.0004 31.6659 13.9998 31.6659C13.9992 31.6659 13.9991 31.6666 13.9985 31.6666C11.1928 31.6659 8.91022 29.3948 8.90888 26.6024C8.90888 26.6012 8.90955 26.6005 8.90955 26.5999C8.90955 26.5986 8.90888 26.5986 8.90888 26.5974C8.91015 23.8051 11.1934 21.5333 13.9998 21.5333C16.8068 21.5333 19.0907 23.8063 19.0907 26.6C19.0907 29.3936 16.8074 31.6659 14.0011 31.6666Z" fill="white"/>
<path d="M24.8182 0H3.18177C1.42734 0 0 1.42054 0 3.16669V34.8333C0 36.5794 1.42734 38 3.18184 38H22.2727C22.6246 38 22.9091 37.7163 22.9091 37.3667C22.9091 37.0171 22.6246 36.7334 22.2727 36.7334H3.18184C2.12931 36.7334 1.27275 35.8809 1.27275 34.8334V3.16669C1.27275 2.11916 2.12931 1.26669 3.18184 1.26669H24.8182C25.8707 1.26669 26.7272 2.11916 26.7272 3.16669V34.8333C26.7272 35.8808 25.8707 36.7333 24.8182 36.7333C24.4662 36.7333 24.1818 37.0171 24.1818 37.3666C24.1818 37.7162 24.4662 37.9999 24.8182 37.9999C26.5726 37.9999 28 36.5794 28 34.8332V3.16669C27.9999 1.42054 26.5726 0 24.8182 0Z" fill="white"/>
<path d="M15.909 15.8332C15.909 14.7857 15.0524 13.9332 13.9999 13.9332C12.9474 13.9332 12.0908 14.7857 12.0908 15.8332C12.0908 16.8807 12.9474 17.7332 13.9999 17.7332C15.0524 17.7332 15.909 16.8807 15.909 15.8332ZM13.3636 15.8332C13.3636 15.4842 13.6487 15.1999 13.9999 15.1999C14.3512 15.1999 14.6362 15.4842 14.6362 15.8332C14.6362 16.1822 14.3512 16.4665 13.9999 16.4665C13.6487 16.4665 13.3636 16.1822 13.3636 15.8332Z" fill="white"/>
<path d="M21.6362 4.43336C21.6362 4.08379 21.3518 3.80005 20.9999 3.80005H6.99986C6.64795 3.80005 6.36353 4.08379 6.36353 4.43336V12.0333C6.36353 12.3829 6.64795 12.6666 6.99986 12.6666H13.9999C14.2309 12.6666 14.444 12.5419 14.5567 12.3405C14.6687 12.139 14.6624 11.8927 14.5396 11.6977L11.3577 6.63104C11.1719 6.33402 10.7799 6.24347 10.4808 6.42961C10.183 6.61516 10.092 7.00533 10.2784 7.30235L12.8512 11.4H7.6362V5.06674H20.3635V11.4H16.5453C16.1934 11.4 15.909 11.6838 15.909 12.0333C15.909 12.3829 16.1934 12.6666 16.5453 12.6666H20.9998C21.3517 12.6666 21.6362 12.3829 21.6362 12.0333V4.43336H21.6362Z" fill="white"/>
<path d="M8.27261 17.7332C9.32515 17.7332 10.1817 16.8807 10.1817 15.8332C10.1817 14.7857 9.32515 13.9332 8.27261 13.9332C7.22008 13.9332 6.36353 14.7857 6.36353 15.8332C6.36353 16.8807 7.22008 17.7332 8.27261 17.7332ZM8.27261 15.1999C8.62386 15.1999 8.90895 15.4842 8.90895 15.8332C8.90895 16.1822 8.62386 16.4665 8.27261 16.4665C7.92137 16.4665 7.63628 16.1822 7.63628 15.8332C7.63628 15.4842 7.92137 15.1999 8.27261 15.1999Z" fill="white"/>
<path d="M19.7272 13.9332C18.6747 13.9332 17.8181 14.7857 17.8181 15.8332C17.8181 16.8807 18.6747 17.7332 19.7272 17.7332C20.7797 17.7332 21.6363 16.8807 21.6363 15.8332C21.6363 14.7857 20.7797 13.9332 19.7272 13.9332ZM19.7272 16.4666C19.376 16.4666 19.0909 16.1823 19.0909 15.8333C19.0909 15.4843 19.376 15.2 19.7272 15.2C20.0784 15.2 20.3635 15.4843 20.3635 15.8333C20.3635 16.1822 20.0784 16.4666 19.7272 16.4666Z" fill="white"/>
</svg>
