<svg width="44" height="60" viewBox="0 0 44 60" xmlns="http://www.w3.org/2000/svg">
<path d="M32.9999 44.9999C33.5529 44.9999 33.9998 44.5519 33.9998 44C33.9998 43.448 33.5529 43 32.9999 43H31.9488C31.9819 42.6711 31.9998 42.337 31.9998 42C31.9998 40.5371 31.6768 39.15 31.1088 37.8951L32.0258 37.3661C32.5048 37.0901 32.6688 36.4781 32.3928 36C32.1149 35.5211 31.5028 35.3581 31.0259 35.6341L30.1049 36.165C29.4749 35.292 28.7079 34.5261 27.8339 33.895L28.3659 32.974C28.643 32.4951 28.478 31.8841 28 31.607C27.523 31.3311 26.91 31.495 26.6339 31.9741L26.1039 32.8911C25.1399 32.455 24.0979 32.1601 22.9999 32.0511V31C22.9999 30.4481 22.553 30.0001 22 30.0001C21.447 30.0001 21 30.4481 21 31V32.0511C19.902 32.1601 18.8601 32.455 17.895 32.8911L17.366 31.9741C17.089 31.495 16.4771 31.3311 16 31.607C15.522 31.8841 15.357 32.496 15.634 32.974L16.166 33.895C15.2921 34.5261 14.5251 35.292 13.896 36.165L12.974 35.6341C12.495 35.3581 11.884 35.5211 11.607 36C11.331 36.4781 11.495 37.09 11.974 37.3661L12.891 37.8961C12.455 38.8601 12.16 39.9022 12.051 41.0001H11C10.447 41.0001 10 41.4481 10 42C10 42.552 10.447 43 11 43H12.051C12.16 44.098 12.455 45.14 12.891 46.1039L11.974 46.634C11.4951 46.91 11.331 47.522 11.607 48C11.793 48.321 12.1289 48.5001 12.475 48.5001C12.645 48.5001 12.816 48.4571 12.974 48.3661L13.895 47.8341C14.525 48.7081 15.2919 49.4741 16.1659 50.1051L15.6339 51.026C15.3569 51.505 15.5219 52.1171 15.9999 52.393C16.1569 52.483 16.3288 52.526 16.4989 52.526C16.8449 52.526 17.1809 52.347 17.3658 52.026L17.8948 51.109C18.8598 51.5449 19.9017 51.84 20.9998 51.949V53.0001C20.9998 53.552 21.4467 54 21.9997 54C22.5527 54 22.9997 53.552 22.9997 53.0001V51.949C24.0977 51.84 25.1397 51.5449 26.1036 51.109L26.6337 52.026C26.8187 52.347 27.1547 52.526 27.5006 52.526C27.6707 52.526 27.8426 52.483 27.9996 52.393C28.4776 52.116 28.6426 51.505 28.3656 51.026L27.8336 50.1051C28.7075 49.474 29.4745 48.7081 30.1045 47.835L31.0255 48.366C31.1835 48.4571 31.3555 48.4999 31.5245 48.4999C31.8705 48.4999 32.2065 48.321 32.3925 47.9999C32.6685 47.521 32.5045 46.9099 32.0255 46.6339L31.1085 46.1049C31.2715 45.7459 31.4184 45.3789 31.5384 44.9999H32.9999ZM22.0019 49.9999C22.0008 49.9999 22.0008 49.9989 21.9999 49.9989C21.9989 49.9989 21.9988 49.9999 21.9979 49.9999C17.5889 49.9989 14.0019 46.413 13.9998 42.0039C13.9998 42.0019 14.0009 42.0009 14.0009 41.9999C14.0009 41.9979 13.9998 41.9979 13.9998 41.9959C14.0018 37.587 17.5899 34 21.9999 34C26.4109 34 29.9999 37.589 29.9999 42C29.9999 46.411 26.4118 49.9989 22.0019 49.9999Z" fill="#fff"/>
<path d="M38.9999 0H4.99991C2.24296 0 0 2.24296 0 5.00003V55C0 57.7569 2.24296 60 5.00003 60H35C35.553 60 35.9999 59.552 35.9999 59C35.9999 58.4481 35.553 58.0001 35 58.0001H5.00003C3.34605 58.0001 2.00004 56.6541 2.00004 55.0001V5.00003C2.00004 3.34605 3.34605 2.00004 5.00003 2.00004H38.9999C40.6539 2.00004 41.9999 3.34605 41.9999 5.00003V55C41.9999 56.654 40.6539 58 38.9999 58C38.4469 58 38 58.448 38 58.9999C38 59.5519 38.4469 59.9999 38.9999 59.9999C41.7569 59.9999 44 57.7569 44 54.9999V5.00003C43.9998 2.24296 41.7569 0 38.9999 0Z" fill="#fff"/>
<path d="M25 24.9999C25 23.346 23.654 21.9999 22 21.9999C20.346 21.9999 19 23.346 19 24.9999C19 26.6539 20.346 27.9999 22 27.9999C23.654 27.9999 25 26.6539 25 24.9999ZM21 24.9999C21 24.4489 21.448 24 22 24C22.5519 24 23 24.4489 23 24.9999C23 25.5509 22.5519 25.9999 22 25.9999C21.448 25.9999 21 25.5509 21 24.9999Z" fill="#fff"/>
<path d="M34 6.99993C34 6.44798 33.553 5.99997 33 5.99997H11C10.447 5.99997 10 6.44798 10 6.99993V18.9999C10 19.5519 10.447 19.9999 11 19.9999H22C22.363 19.9999 22.6979 19.8029 22.875 19.4848C23.051 19.1668 23.0411 18.7778 22.8481 18.4699L17.848 10.47C17.556 10.001 16.9401 9.85801 16.47 10.1519C16.002 10.4449 15.859 11.0609 16.152 11.5299L20.1949 17.9999H11.9999V8H31.9999V17.9999H25.9999C25.4469 17.9999 25 18.448 25 18.9999C25 19.5519 25.4469 19.9999 25.9999 19.9999H32.9999C33.5529 19.9999 33.9998 19.5519 33.9998 18.9999V6.99993H34Z" fill="#fff"/>
<path d="M13 27.9999C14.654 27.9999 16 26.6539 16 24.9999C16 23.346 14.654 21.9999 13 21.9999C11.346 21.9999 10 23.346 10 24.9999C10 26.6539 11.346 27.9999 13 27.9999ZM13 24C13.5519 24 14 24.4489 14 24.9999C14 25.5509 13.5519 25.9999 13 25.9999C12.448 25.9999 12 25.5509 12 24.9999C12 24.4489 12.448 24 13 24Z" fill="#fff"/>
<path d="M31 21.9999C29.346 21.9999 28 23.346 28 24.9999C28 26.6539 29.346 27.9999 31 27.9999C32.654 27.9999 34 26.6539 34 24.9999C34 23.346 32.654 21.9999 31 21.9999ZM31 26C30.448 26 30 25.5511 30 25.0001C30 24.449 30.448 24.0001 31 24.0001C31.5519 24.0001 32 24.449 32 25.0001C32 25.5509 31.5519 26 31 26Z" fill="#fff"/>
</svg>
