<svg width="59" height="59" viewBox="0 0 59 59" fill="none" xmlns="http://www.w3.org/2000/svg">
<path d="M10.3711 52.0861C9.74145 52.0861 9.21887 52.6089 9.21875 53.2383C9.21863 53.8683 9.74122 54.3907 10.3711 54.3907C11.0005 54.3907 11.5233 53.8678 11.5234 53.2385C11.5236 52.6088 11.0004 52.0861 10.3711 52.0861Z" fill="white"/>
<path d="M10.3711 52.0861C9.74145 52.0861 9.21887 52.6089 9.21875 53.2383C9.21863 53.8683 9.74122 54.3907 10.3711 54.3907C11.0005 54.3907 11.5233 53.8678 11.5234 53.2385C11.5236 52.6088 11.0004 52.0861 10.3711 52.0861Z" fill="url(#paint0_linear)"/>
<path d="M57.8477 47.4766H56.6953V44.0195C56.6953 40.8425 54.1106 38.2578 50.9336 38.2578H42.772L38.4489 27.2076C37.8407 25.5455 36.25 24.4297 34.4854 24.4297H8.84274C7.08046 24.4297 5.49149 25.5425 4.88156 27.2012L0.225398 38.7275C0.0843516 38.9188 0 39.1543 0 39.4102V53.2383C0 53.8747 0.515904 54.3906 1.15234 54.3906H4.7253C5.26068 57.0174 7.58853 59 10.3711 59C13.1537 59 15.4815 57.0174 16.0169 54.3906H40.6784C41.2138 57.0174 43.5417 59 46.3242 59C49.1068 59 51.4346 57.0174 51.97 54.3906H57.8477C58.4841 54.3906 59 53.8747 59 53.2383V48.6289C59 47.9925 58.4841 47.4766 57.8477 47.4766ZM49.7812 40.5625C49.7812 40.5625 50.9335 40.5625 50.9336 40.5625C52.3513 40.5625 53.7084 41.5193 54.1879 42.854C54.1894 42.8584 54.1908 42.8628 54.1924 42.8672H50.9336C50.2982 42.8672 49.7812 42.3502 49.7812 41.7148V40.5625ZM22.8164 26.7344H34.4854C35.2879 26.7344 36.012 27.2456 36.2871 28.0063C36.2904 28.0158 36.294 28.0251 36.2977 28.0344L40.2972 38.2578H22.8164V26.7344ZM2.30469 40.5625H4.60938V42.8672H2.30469V40.5625ZM4.7253 52.0859H2.30469V49.7812H5.76483C5.26056 50.4516 4.89873 51.2348 4.7253 52.0859ZM10.3711 56.6953C8.46489 56.6953 6.91406 55.1445 6.91406 53.2383C6.91406 51.3321 8.46489 49.7812 10.3711 49.7812C12.2773 49.7812 13.8281 51.3321 13.8281 53.2383C13.8281 55.1445 12.2773 56.6953 10.3711 56.6953ZM20.5117 52.0859H16.0169C15.4815 49.4592 13.1537 47.4766 10.3711 47.4766H2.30469V45.1719H5.76172C6.39816 45.1719 6.91406 44.656 6.91406 44.0195V40.5625H20.5117V52.0859ZM20.5117 38.2578H2.90079L7.02584 28.0462C7.03114 28.0331 7.03621 28.0198 7.04105 28.0063C7.31623 27.2456 8.04025 26.7344 8.84274 26.7344H20.5117V38.2578ZM46.3242 56.6953C44.418 56.6953 42.8672 55.1445 42.8672 53.2383C42.8672 51.3321 44.418 49.7812 46.3242 49.7812C48.2304 49.7812 49.7812 51.3321 49.7812 53.2383C49.7812 55.1445 48.2304 56.6953 46.3242 56.6953ZM46.3242 47.4766C43.5418 47.4766 41.2138 49.4592 40.6784 52.0859H22.8164V40.5625H47.4766V41.7148C47.4766 43.621 49.0274 45.1719 50.9336 45.1719H54.3906V47.4766H46.3242ZM56.6953 52.0859H51.97C51.7966 51.2348 51.4349 50.4516 50.9305 49.7812H56.6953V52.0859Z" fill="white"/>
<path d="M57.8477 47.4766H56.6953V44.0195C56.6953 40.8425 54.1106 38.2578 50.9336 38.2578H42.772L38.4489 27.2076C37.8407 25.5455 36.25 24.4297 34.4854 24.4297H8.84274C7.08046 24.4297 5.49149 25.5425 4.88156 27.2012L0.225398 38.7275C0.0843516 38.9188 0 39.1543 0 39.4102V53.2383C0 53.8747 0.515904 54.3906 1.15234 54.3906H4.7253C5.26068 57.0174 7.58853 59 10.3711 59C13.1537 59 15.4815 57.0174 16.0169 54.3906H40.6784C41.2138 57.0174 43.5417 59 46.3242 59C49.1068 59 51.4346 57.0174 51.97 54.3906H57.8477C58.4841 54.3906 59 53.8747 59 53.2383V48.6289C59 47.9925 58.4841 47.4766 57.8477 47.4766ZM49.7812 40.5625C49.7812 40.5625 50.9335 40.5625 50.9336 40.5625C52.3513 40.5625 53.7084 41.5193 54.1879 42.854C54.1894 42.8584 54.1908 42.8628 54.1924 42.8672H50.9336C50.2982 42.8672 49.7812 42.3502 49.7812 41.7148V40.5625ZM22.8164 26.7344H34.4854C35.2879 26.7344 36.012 27.2456 36.2871 28.0063C36.2904 28.0158 36.294 28.0251 36.2977 28.0344L40.2972 38.2578H22.8164V26.7344ZM2.30469 40.5625H4.60938V42.8672H2.30469V40.5625ZM4.7253 52.0859H2.30469V49.7812H5.76483C5.26056 50.4516 4.89873 51.2348 4.7253 52.0859ZM10.3711 56.6953C8.46489 56.6953 6.91406 55.1445 6.91406 53.2383C6.91406 51.3321 8.46489 49.7812 10.3711 49.7812C12.2773 49.7812 13.8281 51.3321 13.8281 53.2383C13.8281 55.1445 12.2773 56.6953 10.3711 56.6953ZM20.5117 52.0859H16.0169C15.4815 49.4592 13.1537 47.4766 10.3711 47.4766H2.30469V45.1719H5.76172C6.39816 45.1719 6.91406 44.656 6.91406 44.0195V40.5625H20.5117V52.0859ZM20.5117 38.2578H2.90079L7.02584 28.0462C7.03114 28.0331 7.03621 28.0198 7.04105 28.0063C7.31623 27.2456 8.04025 26.7344 8.84274 26.7344H20.5117V38.2578ZM46.3242 56.6953C44.418 56.6953 42.8672 55.1445 42.8672 53.2383C42.8672 51.3321 44.418 49.7812 46.3242 49.7812C48.2304 49.7812 49.7812 51.3321 49.7812 53.2383C49.7812 55.1445 48.2304 56.6953 46.3242 56.6953ZM46.3242 47.4766C43.5418 47.4766 41.2138 49.4592 40.6784 52.0859H22.8164V40.5625H47.4766V41.7148C47.4766 43.621 49.0274 45.1719 50.9336 45.1719H54.3906V47.4766H46.3242ZM56.6953 52.0859H51.97C51.7966 51.2348 51.4349 50.4516 50.9305 49.7812H56.6953V52.0859Z" fill="url(#paint1_linear)"/>
<path d="M46.3242 52.0861C45.7179 52.0861 45.172 52.5961 45.1719 53.2383C45.1718 53.8402 45.6885 54.3906 46.324 54.3907C46.9223 54.3909 47.4763 53.8705 47.4766 53.2386C47.4767 52.6401 46.9581 52.0861 46.3242 52.0861Z" fill="white"/>
<path d="M46.3242 52.0861C45.7179 52.0861 45.172 52.5961 45.1719 53.2383C45.1718 53.8402 45.6885 54.3906 46.324 54.3907C46.9223 54.3909 47.4763 53.8705 47.4766 53.2386C47.4767 52.6401 46.9581 52.0861 46.3242 52.0861Z" fill="url(#paint2_linear)"/>
<path d="M33.1875 42.8672C32.5526 42.8672 32.0352 43.3846 32.0352 44.0195C32.0352 44.6545 32.5526 45.1719 33.1875 45.1719C33.8224 45.1719 34.3398 44.6545 34.3398 44.0195C34.3398 43.3846 33.8224 42.8672 33.1875 42.8672Z" fill="white"/>
<path d="M33.1875 42.8672C32.5526 42.8672 32.0352 43.3846 32.0352 44.0195C32.0352 44.6545 32.5526 45.1719 33.1875 45.1719C33.8224 45.1719 34.3398 44.6545 34.3398 44.0195C34.3398 43.3846 33.8224 42.8672 33.1875 42.8672Z" fill="url(#paint3_linear)"/>
<path d="M28.5781 42.8672H26.2734C25.6385 42.8672 25.1211 43.3846 25.1211 44.0195C25.1211 44.6545 25.6385 45.1719 26.2734 45.1719H28.5781C29.2131 45.1719 29.7305 44.6545 29.7305 44.0195C29.7305 43.3846 29.2131 42.8672 28.5781 42.8672Z" fill="white"/>
<path d="M28.5781 42.8672H26.2734C25.6385 42.8672 25.1211 43.3846 25.1211 44.0195C25.1211 44.6545 25.6385 45.1719 26.2734 45.1719H28.5781C29.2131 45.1719 29.7305 44.6545 29.7305 44.0195C29.7305 43.3846 29.2131 42.8672 28.5781 42.8672Z" fill="url(#paint4_linear)"/>
<path d="M58.6624 0.337637C58.4446 0.119844 58.1553 0 57.8476 0C57.54 0 57.2507 0.119844 57.0329 0.337637C57.0329 0.337637 43.2053 14.1653 43.1806 14.19C42.9602 14.4103 42.8505 14.7076 42.8506 15.0047C42.8507 15.3022 42.9609 15.5995 43.1806 15.8194C43.6253 16.2643 44.3655 16.264 44.81 15.8194L58.6624 1.96705C59.1118 1.51764 59.1118 0.787051 58.6624 0.337637Z" fill="white"/>
<path d="M58.6624 0.337637C58.4446 0.119844 58.1553 0 57.8476 0C57.54 0 57.2507 0.119844 57.0329 0.337637C57.0329 0.337637 43.2053 14.1653 43.1806 14.19C42.9602 14.4103 42.8505 14.7076 42.8506 15.0047C42.8507 15.3022 42.9609 15.5995 43.1806 15.8194C43.6253 16.2643 44.3655 16.264 44.81 15.8194L58.6624 1.96705C59.1118 1.51764 59.1118 0.787051 58.6624 0.337637Z" fill="url(#paint5_linear)"/>
<path d="M58.6623 14.6268C58.4399 14.4044 58.1438 14.2935 57.8475 14.2935C57.5512 14.2935 57.255 14.4048 57.0329 14.6268C57.0329 14.6268 46.4526 25.206 46.4394 25.2192C45.9948 25.6636 45.9974 26.4053 46.4394 26.8497C46.8818 27.2944 47.6279 27.2895 48.07 26.8497L58.6623 16.2562C59.1117 15.8068 59.1117 15.0764 58.6623 14.6268Z" fill="white"/>
<path d="M58.6623 14.6268C58.4399 14.4044 58.1438 14.2935 57.8475 14.2935C57.5512 14.2935 57.255 14.4048 57.0329 14.6268C57.0329 14.6268 46.4526 25.206 46.4394 25.2192C45.9948 25.6636 45.9974 26.4053 46.4394 26.8497C46.8818 27.2944 47.6279 27.2895 48.07 26.8497L58.6623 16.2562C59.1117 15.8068 59.1117 15.0764 58.6623 14.6268Z" fill="url(#paint6_linear)"/>
<path d="M43.9954 28.1414C43.3666 28.1414 42.843 28.6652 42.843 29.2937C42.843 29.92 43.3706 30.446 43.9954 30.446C44.6113 30.446 45.1477 29.9276 45.1477 29.2938C45.1477 28.6722 44.6145 28.1414 43.9954 28.1414Z" fill="white"/>
<path d="M43.9954 28.1414C43.3666 28.1414 42.843 28.6652 42.843 29.2937C42.843 29.92 43.3706 30.446 43.9954 30.446C44.6113 30.446 45.1477 29.9276 45.1477 29.2938C45.1477 28.6722 44.6145 28.1414 43.9954 28.1414Z" fill="url(#paint7_linear)"/>
<path d="M44.8342 0.337637C44.6164 0.119844 44.3271 0 44.0195 0C43.7118 0 43.4226 0.119844 43.2048 0.337637L29.3524 14.19C28.903 14.6394 28.903 15.3698 29.3524 15.8194C29.7957 16.2627 30.5404 16.2608 30.9819 15.8194L44.8342 1.96705C45.2836 1.51764 45.2836 0.787051 44.8342 0.337637Z" fill="white"/>
<path d="M44.8342 0.337637C44.6164 0.119844 44.3271 0 44.0195 0C43.7118 0 43.4226 0.119844 43.2048 0.337637L29.3524 14.19C28.903 14.6394 28.903 15.3698 29.3524 15.8194C29.7957 16.2627 30.5404 16.2608 30.9819 15.8194L44.8342 1.96705C45.2836 1.51764 45.2836 0.787051 44.8342 0.337637Z" fill="url(#paint8_linear)"/>
<path d="M32.2737 0.337637C32.0559 0.119844 31.7667 0 31.459 0C31.1513 0 30.8621 0.119844 30.6443 0.337637L11.5811 19.4009C11.5811 19.4009 7.83482 15.6546 7.82906 15.6488C7.38345 15.2032 6.64491 15.2036 6.19965 15.6487C5.75369 16.0947 5.75323 16.8319 6.19953 17.2782C6.19965 17.2782 10.764 21.8426 10.7664 21.845C11.1946 22.2732 11.9399 22.301 12.3958 21.845L32.2737 1.96705C32.7231 1.51764 32.7231 0.787051 32.2737 0.337637Z" fill="white"/>
<path d="M32.2737 0.337637C32.0559 0.119844 31.7667 0 31.459 0C31.1513 0 30.8621 0.119844 30.6443 0.337637L11.5811 19.4009C11.5811 19.4009 7.83482 15.6546 7.82906 15.6488C7.38345 15.2032 6.64491 15.2036 6.19965 15.6487C5.75369 16.0947 5.75323 16.8319 6.19953 17.2782C6.19965 17.2782 10.764 21.8426 10.7664 21.845C11.1946 22.2732 11.9399 22.301 12.3958 21.845L32.2737 1.96705C32.7231 1.51764 32.7231 0.787051 32.2737 0.337637Z" fill="url(#paint9_linear)"/>
<path d="M40.7319 19.4159C41.3684 19.4159 41.8843 18.9 41.8843 18.2635C41.8843 17.6271 41.3684 17.1112 40.7319 17.1112C40.0955 17.1112 39.5796 17.6271 39.5796 18.2635C39.5796 18.9 40.0955 19.4159 40.7319 19.4159Z" fill="white"/>
<path d="M40.7319 19.4159C41.3684 19.4159 41.8843 18.9 41.8843 18.2635C41.8843 17.6271 41.3684 17.1112 40.7319 17.1112C40.0955 17.1112 39.5796 17.6271 39.5796 18.2635C39.5796 18.9 40.0955 19.4159 40.7319 19.4159Z" fill="url(#paint10_linear)"/>
<path d="M26.9084 19.4159C27.5449 19.4159 28.0608 18.9 28.0608 18.2635C28.0608 17.6271 27.5449 17.1112 26.9084 17.1112C26.272 17.1112 25.7561 17.6271 25.7561 18.2635C25.7561 18.9 26.272 19.4159 26.9084 19.4159Z" fill="white"/>
<path d="M26.9084 19.4159C27.5449 19.4159 28.0608 18.9 28.0608 18.2635C28.0608 17.6271 27.5449 17.1112 26.9084 17.1112C26.272 17.1112 25.7561 17.6271 25.7561 18.2635C25.7561 18.9 26.272 19.4159 26.9084 19.4159Z" fill="url(#paint11_linear)"/>
<path d="M3.75439 14.3556C4.39082 14.3556 4.90674 13.8397 4.90674 13.2032C4.90674 12.5668 4.39082 12.0509 3.75439 12.0509C3.11797 12.0509 2.60205 12.5668 2.60205 13.2032C2.60205 13.8397 3.11797 14.3556 3.75439 14.3556Z" fill="white"/>
<path d="M3.75439 14.3556C4.39082 14.3556 4.90674 13.8397 4.90674 13.2032C4.90674 12.5668 4.39082 12.0509 3.75439 12.0509C3.11797 12.0509 2.60205 12.5668 2.60205 13.2032C2.60205 13.8397 3.11797 14.3556 3.75439 14.3556Z" fill="url(#paint12_linear)"/>
<defs>
<linearGradient id="paint0_linear" x1="10.3711" y1="52.0861" x2="10.3711" y2="54.3907" gradientUnits="userSpaceOnUse">
<stop stop-color="#5791BE"/>
<stop offset="1" stop-color="#366E9A"/>
</linearGradient>
<linearGradient id="paint1_linear" x1="29.5" y1="24.4297" x2="29.5" y2="59" gradientUnits="userSpaceOnUse">
<stop stop-color="#5791BE"/>
<stop offset="1" stop-color="#366E9A"/>
</linearGradient>
<linearGradient id="paint2_linear" x1="46.3242" y1="52.0861" x2="46.3242" y2="54.3907" gradientUnits="userSpaceOnUse">
<stop stop-color="#5791BE"/>
<stop offset="1" stop-color="#366E9A"/>
</linearGradient>
<linearGradient id="paint3_linear" x1="33.1875" y1="42.8672" x2="33.1875" y2="45.1719" gradientUnits="userSpaceOnUse">
<stop stop-color="#5791BE"/>
<stop offset="1" stop-color="#366E9A"/>
</linearGradient>
<linearGradient id="paint4_linear" x1="27.4258" y1="42.8672" x2="27.4258" y2="45.1719" gradientUnits="userSpaceOnUse">
<stop stop-color="#5791BE"/>
<stop offset="1" stop-color="#366E9A"/>
</linearGradient>
<linearGradient id="paint5_linear" x1="50.925" y1="0" x2="50.925" y2="16.1529" gradientUnits="userSpaceOnUse">
<stop stop-color="#5791BE"/>
<stop offset="1" stop-color="#366E9A"/>
</linearGradient>
<linearGradient id="paint6_linear" x1="52.5532" y1="14.2935" x2="52.5532" y2="27.1814" gradientUnits="userSpaceOnUse">
<stop stop-color="#5791BE"/>
<stop offset="1" stop-color="#366E9A"/>
</linearGradient>
<linearGradient id="paint7_linear" x1="43.9954" y1="28.1414" x2="43.9954" y2="30.446" gradientUnits="userSpaceOnUse">
<stop stop-color="#5791BE"/>
<stop offset="1" stop-color="#366E9A"/>
</linearGradient>
<linearGradient id="paint8_linear" x1="37.0933" y1="0" x2="37.0933" y2="16.1512" gradientUnits="userSpaceOnUse">
<stop stop-color="#5791BE"/>
<stop offset="1" stop-color="#366E9A"/>
</linearGradient>
<linearGradient id="paint9_linear" x1="19.2379" y1="0" x2="19.2379" y2="22.1766" gradientUnits="userSpaceOnUse">
<stop stop-color="#5791BE"/>
<stop offset="1" stop-color="#366E9A"/>
</linearGradient>
<linearGradient id="paint10_linear" x1="40.7319" y1="17.1112" x2="40.7319" y2="19.4159" gradientUnits="userSpaceOnUse">
<stop stop-color="#5791BE"/>
<stop offset="1" stop-color="#366E9A"/>
</linearGradient>
<linearGradient id="paint11_linear" x1="26.9084" y1="17.1112" x2="26.9084" y2="19.4159" gradientUnits="userSpaceOnUse">
<stop stop-color="#5791BE"/>
<stop offset="1" stop-color="#366E9A"/>
</linearGradient>
<linearGradient id="paint12_linear" x1="3.75439" y1="12.0509" x2="3.75439" y2="14.3556" gradientUnits="userSpaceOnUse">
<stop stop-color="#5791BE"/>
<stop offset="1" stop-color="#366E9A"/>
</linearGradient>
</defs>
</svg>
