<svg width="66" height="48" viewBox="0 0 66 48" fill="none" xmlns="http://www.w3.org/2000/svg">
<path d="M53.4316 15.3464H49.2764L50.5284 1.04513C50.5307 1.01922 50.5311 0.993697 50.5312 0.968175C50.5312 0.965995 50.5314 0.963943 50.5314 0.961762C50.5314 0.961378 50.5314 0.961122 50.5314 0.960737C50.5314 0.571492 50.2954 0.228417 49.9485 0.0792603C49.9456 0.0779777 49.9427 0.076439 49.9398 0.0751565C49.9182 0.0661789 49.8959 0.0584833 49.8735 0.0510447C49.8651 0.0483514 49.8571 0.0450166 49.8488 0.0424516C49.8305 0.0369368 49.8116 0.0325763 49.7929 0.0280874C49.7798 0.0250094 49.7672 0.0212903 49.7539 0.0187253C49.7375 0.015519 49.7205 0.0134673 49.7037 0.0110305C49.688 0.00872193 49.6725 0.00602825 49.6567 0.00461747C49.654 0.00436097 49.6515 0.00384755 49.6488 0.00359104C49.6318 0.00205202 49.6151 0.0023086 49.5982 0.00166734C49.5868 0.00128258 49.5757 0 49.5644 0H49.5523C49.5512 0 49.5502 0 49.5493 0H29.7787C29.2451 0 28.8119 0.430927 28.8119 0.96189C28.8119 1.49157 29.2451 1.92378 29.7787 1.92378H48.5106L46.5865 23.903C46.5863 23.9046 46.5863 23.9063 46.586 23.908L46.1005 29.4537H12.5063L13.0682 23.6826H19.4647C19.9987 23.6826 20.4315 23.252 20.4315 22.7208C20.4315 22.1895 19.9987 21.7589 19.4647 21.7589H13.2556L14.4421 9.57556H24.6225C25.1565 9.57556 25.5893 9.14489 25.5893 8.61367C25.5893 8.08245 25.1565 7.65178 24.6225 7.65178H14.6295L15.1874 1.92378H25.9115C26.4439 1.92378 26.8783 1.49157 26.8783 0.96189C26.8783 0.430927 26.4439 0 25.9115 0H14.3099C14.3094 0 14.309 0.000128182 14.3085 0.000128182C13.8544 -7.04571e-08 13.4604 0.318066 13.3652 0.758997C13.3645 0.762203 13.3634 0.765281 13.3627 0.768487C13.3578 0.79247 13.3546 0.816966 13.3514 0.841591C13.3505 0.849414 13.3488 0.856853 13.348 0.864676C13.3479 0.866215 13.3475 0.867625 13.3474 0.869164L12.6869 7.65178H0.966801C0.43274 7.65178 0 8.08245 0 8.61367C0 9.14489 0.43274 9.57556 0.966801 9.57556H12.4994L11.313 21.7589H7.86357C7.32951 21.7589 6.89677 22.1895 6.89677 22.7208C6.89677 23.252 7.32951 23.6826 7.86357 23.6826H11.1257L10.4796 30.316C10.4795 30.317 10.4795 30.318 10.4793 30.3189L9.48045 40.5764C9.48032 40.5775 9.48019 40.5788 9.48006 40.5798L9.47967 40.5836C9.47838 40.5969 9.47851 40.61 9.47774 40.6233C9.47684 40.641 9.47503 40.6583 9.47503 40.6763C9.47503 40.6771 9.47516 40.6778 9.47516 40.6787C9.47516 40.7035 9.47697 40.7279 9.47877 40.7522C9.47954 40.76 9.47929 40.768 9.48019 40.7757C9.48277 40.8006 9.48702 40.8251 9.49153 40.8494C9.49282 40.8566 9.49347 40.8639 9.49488 40.871C9.49862 40.8895 9.50391 40.9073 9.50881 40.9254C9.51216 40.9381 9.51487 40.951 9.51873 40.9635C9.51989 40.9669 9.52144 40.9702 9.52247 40.9738C9.56926 41.117 9.64867 41.2455 9.75231 41.3504C9.75425 41.3523 9.75579 41.3545 9.75773 41.3563C9.76804 41.3665 9.77925 41.3758 9.79008 41.3855C9.85673 41.4463 9.93201 41.4979 10.0144 41.5383C10.0315 41.5467 10.0484 41.5556 10.0659 41.5629C10.0712 41.5652 10.0769 41.5667 10.0823 41.5688C10.1065 41.5784 10.1309 41.5877 10.156 41.5955C10.1584 41.5961 10.1606 41.5965 10.1629 41.5973C10.1915 41.6057 10.2204 41.6132 10.2499 41.6192C10.2538 41.62 10.2578 41.6202 10.2615 41.621C10.2896 41.6263 10.3178 41.6307 10.3466 41.6336C10.3472 41.6336 10.3477 41.6337 10.3484 41.6338C10.3801 41.6369 10.4115 41.6384 10.4427 41.6384C10.4431 41.6384 10.4436 41.6383 10.4442 41.6383H14.7481C15.2234 45.2233 18.3126 48 22.0438 48C25.7748 48 28.864 45.2233 29.3393 41.6383H44.8467C45.3221 45.2233 48.4112 48 52.1423 48C55.8732 48 58.9627 45.2233 59.4381 41.6383H63.7431C63.7437 41.6383 63.7445 41.6384 63.7452 41.6384C63.7774 41.6384 63.8091 41.6365 63.8406 41.6334C63.8462 41.6329 63.8516 41.6318 63.8573 41.6311C63.8825 41.6282 63.9075 41.6247 63.9319 41.6198C63.9425 41.6178 63.9527 41.615 63.9631 41.6125C63.9821 41.6082 64.0012 41.6036 64.0197 41.598C64.0324 41.5943 64.0446 41.59 64.057 41.5857C64.0728 41.5803 64.0887 41.5747 64.1043 41.5684C64.1177 41.5632 64.1305 41.5574 64.1435 41.5516C64.1577 41.5451 64.1718 41.5384 64.1856 41.5313C64.1988 41.5247 64.2114 41.5178 64.2241 41.5106C64.2373 41.5029 64.2505 41.4949 64.2635 41.4867C64.2756 41.479 64.2877 41.4712 64.2993 41.463C64.3125 41.4539 64.325 41.4443 64.3377 41.4345C64.3483 41.4262 64.359 41.418 64.3693 41.4093C64.3826 41.3981 64.3951 41.3864 64.4077 41.3745C64.4165 41.3662 64.4257 41.358 64.4342 41.3492C64.4476 41.3356 64.4603 41.3213 64.4731 41.3068C64.4799 41.299 64.487 41.2914 64.4936 41.2834C64.5078 41.266 64.5207 41.248 64.5336 41.23C64.5379 41.2237 64.5428 41.2178 64.5471 41.2114C64.5628 41.1879 64.5776 41.1638 64.5913 41.1389C64.5923 41.1374 64.5934 41.1359 64.594 41.1343C64.6086 41.1076 64.622 41.0803 64.634 41.0521C64.6373 41.044 64.6399 41.0357 64.6431 41.0276C64.651 41.0077 64.6587 40.9878 64.6653 40.9672C64.6696 40.9538 64.6727 40.9401 64.6764 40.9266C64.6806 40.9106 64.6852 40.8947 64.6888 40.8784C64.692 40.8639 64.694 40.849 64.6965 40.8343C64.6987 40.8213 64.7015 40.8086 64.7032 40.7954C64.7442 40.4687 65.5013 34.4255 65.8394 30.518C65.8398 30.5142 65.8399 30.5104 65.8403 30.5067C65.9376 29.3802 66 28.4317 66 27.851C66 20.956 60.3619 15.3464 53.4316 15.3464ZM49.1079 17.2704H53.0632L52.558 23.0413H48.6027L49.1079 17.2704ZM22.0441 46.0761C19.0513 46.0761 16.6165 43.6537 16.6165 40.6762C16.6165 37.6987 19.0514 35.2762 22.0441 35.2762C25.0368 35.2762 27.4716 37.6987 27.4716 40.6762C27.4716 43.6537 25.0368 46.0761 22.0441 46.0761ZM52.1423 46.0761C49.1496 46.0761 46.7149 43.6537 46.7149 40.6762C46.7149 37.6987 49.1497 35.2762 52.1423 35.2762C55.1351 35.2762 57.5699 37.6987 57.5699 40.6762C57.5699 43.6537 55.1351 46.0761 52.1423 46.0761ZM62.8888 39.7139H59.4384C58.9632 36.1286 55.8739 33.3518 52.1425 33.3518C48.4114 33.3518 45.3221 36.1287 44.8469 39.7139H29.3397C28.8645 36.1286 25.7753 33.3518 22.0441 33.3518C18.3129 33.3518 15.2234 36.1287 14.7482 39.7139H11.507L12.319 31.377H46.9865V31.3775C46.987 31.3775 46.9874 31.3775 46.9879 31.3775C47.0203 31.3775 47.0524 31.3757 47.0841 31.3725C47.09 31.372 47.0958 31.3707 47.1018 31.3699C47.127 31.367 47.1522 31.3634 47.1769 31.3585C47.1876 31.3563 47.198 31.3534 47.2086 31.3508C47.228 31.3462 47.2473 31.3417 47.2661 31.3361C47.279 31.3322 47.2912 31.3276 47.3038 31.3233C47.32 31.3176 47.3362 31.3121 47.352 31.3057C47.3655 31.3002 47.3785 31.294 47.3917 31.2879C47.406 31.2813 47.4203 31.2748 47.4341 31.2676C47.4472 31.2607 47.4601 31.2532 47.4731 31.2458C47.4864 31.2381 47.4996 31.2303 47.5125 31.2221C47.525 31.214 47.5368 31.2055 47.5488 31.1971C47.5616 31.1881 47.5739 31.1788 47.5863 31.1692C47.5974 31.1604 47.6084 31.1513 47.6192 31.1419C47.6314 31.1314 47.6434 31.1206 47.655 31.1095C47.6648 31.1001 47.6746 31.0905 47.6842 31.0806C47.6958 31.0685 47.707 31.0561 47.7181 31.0434C47.7267 31.0334 47.7352 31.0234 47.7435 31.0131C47.7542 30.9997 47.7643 30.9858 47.7744 30.9718C47.782 30.9613 47.7893 30.9508 47.7966 30.94C47.806 30.9255 47.815 30.9107 47.8236 30.8955C47.8302 30.8843 47.8369 30.873 47.8428 30.8614C47.851 30.8463 47.8579 30.8309 47.8653 30.8154C47.8709 30.8029 47.8767 30.7908 47.8819 30.7779C47.8882 30.7628 47.8935 30.7473 47.899 30.7318C47.9038 30.718 47.9088 30.7043 47.9131 30.6902C47.9173 30.6753 47.9208 30.6601 47.9247 30.6449C47.9284 30.6297 47.9326 30.6145 47.9355 30.599C47.9385 30.5839 47.9403 30.5685 47.9426 30.5531C47.9449 30.5372 47.9476 30.5216 47.9492 30.5054C47.9494 30.5031 47.95 30.5009 47.9501 30.4986L48.4347 24.9645H53.4313C56.3935 24.9645 57.7295 26.4915 59.1437 28.1082C60.3107 29.4422 61.6136 30.9305 63.8282 31.2936C63.5469 34.2524 63.0923 38.0507 62.8888 39.7139ZM63.9934 29.366C62.5568 29.0746 61.6729 28.0698 60.602 26.8457C59.2628 25.315 57.6279 23.447 54.4938 23.099L54.9939 17.3856C60.1198 18.1398 64.0664 22.545 64.0664 27.8512C64.0664 28.2117 64.0393 28.7355 63.9934 29.366Z" fill="#C4C4C4"/>
<path d="M53.4316 15.3464H49.2764L50.5284 1.04513C50.5307 1.01922 50.5311 0.993697 50.5312 0.968175C50.5312 0.965995 50.5314 0.963943 50.5314 0.961762C50.5314 0.961378 50.5314 0.961122 50.5314 0.960737C50.5314 0.571492 50.2954 0.228417 49.9485 0.0792603C49.9456 0.0779777 49.9427 0.076439 49.9398 0.0751565C49.9182 0.0661789 49.8959 0.0584833 49.8735 0.0510447C49.8651 0.0483514 49.8571 0.0450166 49.8488 0.0424516C49.8305 0.0369368 49.8116 0.0325763 49.7929 0.0280874C49.7798 0.0250094 49.7672 0.0212903 49.7539 0.0187253C49.7375 0.015519 49.7205 0.0134673 49.7037 0.0110305C49.688 0.00872193 49.6725 0.00602825 49.6567 0.00461747C49.654 0.00436097 49.6515 0.00384755 49.6488 0.00359104C49.6318 0.00205202 49.6151 0.0023086 49.5982 0.00166734C49.5868 0.00128258 49.5757 0 49.5644 0H49.5523C49.5512 0 49.5502 0 49.5493 0H29.7787C29.2451 0 28.8119 0.430927 28.8119 0.96189C28.8119 1.49157 29.2451 1.92378 29.7787 1.92378H48.5106L46.5865 23.903C46.5863 23.9046 46.5863 23.9063 46.586 23.908L46.1005 29.4537H12.5063L13.0682 23.6826H19.4647C19.9987 23.6826 20.4315 23.252 20.4315 22.7208C20.4315 22.1895 19.9987 21.7589 19.4647 21.7589H13.2556L14.4421 9.57556H24.6225C25.1565 9.57556 25.5893 9.14489 25.5893 8.61367C25.5893 8.08245 25.1565 7.65178 24.6225 7.65178H14.6295L15.1874 1.92378H25.9115C26.4439 1.92378 26.8783 1.49157 26.8783 0.96189C26.8783 0.430927 26.4439 0 25.9115 0H14.3099C14.3094 0 14.309 0.000128182 14.3085 0.000128182C13.8544 -7.04571e-08 13.4604 0.318066 13.3652 0.758997C13.3645 0.762203 13.3634 0.765281 13.3627 0.768487C13.3578 0.79247 13.3546 0.816966 13.3514 0.841591C13.3505 0.849414 13.3488 0.856853 13.348 0.864676C13.3479 0.866215 13.3475 0.867625 13.3474 0.869164L12.6869 7.65178H0.966801C0.43274 7.65178 0 8.08245 0 8.61367C0 9.14489 0.43274 9.57556 0.966801 9.57556H12.4994L11.313 21.7589H7.86357C7.32951 21.7589 6.89677 22.1895 6.89677 22.7208C6.89677 23.252 7.32951 23.6826 7.86357 23.6826H11.1257L10.4796 30.316C10.4795 30.317 10.4795 30.318 10.4793 30.3189L9.48045 40.5764C9.48032 40.5775 9.48019 40.5788 9.48006 40.5798L9.47967 40.5836C9.47838 40.5969 9.47851 40.61 9.47774 40.6233C9.47684 40.641 9.47503 40.6583 9.47503 40.6763C9.47503 40.6771 9.47516 40.6778 9.47516 40.6787C9.47516 40.7035 9.47697 40.7279 9.47877 40.7522C9.47954 40.76 9.47929 40.768 9.48019 40.7757C9.48277 40.8006 9.48702 40.8251 9.49153 40.8494C9.49282 40.8566 9.49347 40.8639 9.49488 40.871C9.49862 40.8895 9.50391 40.9073 9.50881 40.9254C9.51216 40.9381 9.51487 40.951 9.51873 40.9635C9.51989 40.9669 9.52144 40.9702 9.52247 40.9738C9.56926 41.117 9.64867 41.2455 9.75231 41.3504C9.75425 41.3523 9.75579 41.3545 9.75773 41.3563C9.76804 41.3665 9.77925 41.3758 9.79008 41.3855C9.85673 41.4463 9.93201 41.4979 10.0144 41.5383C10.0315 41.5467 10.0484 41.5556 10.0659 41.5629C10.0712 41.5652 10.0769 41.5667 10.0823 41.5688C10.1065 41.5784 10.1309 41.5877 10.156 41.5955C10.1584 41.5961 10.1606 41.5965 10.1629 41.5973C10.1915 41.6057 10.2204 41.6132 10.2499 41.6192C10.2538 41.62 10.2578 41.6202 10.2615 41.621C10.2896 41.6263 10.3178 41.6307 10.3466 41.6336C10.3472 41.6336 10.3477 41.6337 10.3484 41.6338C10.3801 41.6369 10.4115 41.6384 10.4427 41.6384C10.4431 41.6384 10.4436 41.6383 10.4442 41.6383H14.7481C15.2234 45.2233 18.3126 48 22.0438 48C25.7748 48 28.864 45.2233 29.3393 41.6383H44.8467C45.3221 45.2233 48.4112 48 52.1423 48C55.8732 48 58.9627 45.2233 59.4381 41.6383H63.7431C63.7437 41.6383 63.7445 41.6384 63.7452 41.6384C63.7774 41.6384 63.8091 41.6365 63.8406 41.6334C63.8462 41.6329 63.8516 41.6318 63.8573 41.6311C63.8825 41.6282 63.9075 41.6247 63.9319 41.6198C63.9425 41.6178 63.9527 41.615 63.9631 41.6125C63.9821 41.6082 64.0012 41.6036 64.0197 41.598C64.0324 41.5943 64.0446 41.59 64.057 41.5857C64.0728 41.5803 64.0887 41.5747 64.1043 41.5684C64.1177 41.5632 64.1305 41.5574 64.1435 41.5516C64.1577 41.5451 64.1718 41.5384 64.1856 41.5313C64.1988 41.5247 64.2114 41.5178 64.2241 41.5106C64.2373 41.5029 64.2505 41.4949 64.2635 41.4867C64.2756 41.479 64.2877 41.4712 64.2993 41.463C64.3125 41.4539 64.325 41.4443 64.3377 41.4345C64.3483 41.4262 64.359 41.418 64.3693 41.4093C64.3826 41.3981 64.3951 41.3864 64.4077 41.3745C64.4165 41.3662 64.4257 41.358 64.4342 41.3492C64.4476 41.3356 64.4603 41.3213 64.4731 41.3068C64.4799 41.299 64.487 41.2914 64.4936 41.2834C64.5078 41.266 64.5207 41.248 64.5336 41.23C64.5379 41.2237 64.5428 41.2178 64.5471 41.2114C64.5628 41.1879 64.5776 41.1638 64.5913 41.1389C64.5923 41.1374 64.5934 41.1359 64.594 41.1343C64.6086 41.1076 64.622 41.0803 64.634 41.0521C64.6373 41.044 64.6399 41.0357 64.6431 41.0276C64.651 41.0077 64.6587 40.9878 64.6653 40.9672C64.6696 40.9538 64.6727 40.9401 64.6764 40.9266C64.6806 40.9106 64.6852 40.8947 64.6888 40.8784C64.692 40.8639 64.694 40.849 64.6965 40.8343C64.6987 40.8213 64.7015 40.8086 64.7032 40.7954C64.7442 40.4687 65.5013 34.4255 65.8394 30.518C65.8398 30.5142 65.8399 30.5104 65.8403 30.5067C65.9376 29.3802 66 28.4317 66 27.851C66 20.956 60.3619 15.3464 53.4316 15.3464ZM49.1079 17.2704H53.0632L52.558 23.0413H48.6027L49.1079 17.2704ZM22.0441 46.0761C19.0513 46.0761 16.6165 43.6537 16.6165 40.6762C16.6165 37.6987 19.0514 35.2762 22.0441 35.2762C25.0368 35.2762 27.4716 37.6987 27.4716 40.6762C27.4716 43.6537 25.0368 46.0761 22.0441 46.0761ZM52.1423 46.0761C49.1496 46.0761 46.7149 43.6537 46.7149 40.6762C46.7149 37.6987 49.1497 35.2762 52.1423 35.2762C55.1351 35.2762 57.5699 37.6987 57.5699 40.6762C57.5699 43.6537 55.1351 46.0761 52.1423 46.0761ZM62.8888 39.7139H59.4384C58.9632 36.1286 55.8739 33.3518 52.1425 33.3518C48.4114 33.3518 45.3221 36.1287 44.8469 39.7139H29.3397C28.8645 36.1286 25.7753 33.3518 22.0441 33.3518C18.3129 33.3518 15.2234 36.1287 14.7482 39.7139H11.507L12.319 31.377H46.9865V31.3775C46.987 31.3775 46.9874 31.3775 46.9879 31.3775C47.0203 31.3775 47.0524 31.3757 47.0841 31.3725C47.09 31.372 47.0958 31.3707 47.1018 31.3699C47.127 31.367 47.1522 31.3634 47.1769 31.3585C47.1876 31.3563 47.198 31.3534 47.2086 31.3508C47.228 31.3462 47.2473 31.3417 47.2661 31.3361C47.279 31.3322 47.2912 31.3276 47.3038 31.3233C47.32 31.3176 47.3362 31.3121 47.352 31.3057C47.3655 31.3002 47.3785 31.294 47.3917 31.2879C47.406 31.2813 47.4203 31.2748 47.4341 31.2676C47.4472 31.2607 47.4601 31.2532 47.4731 31.2458C47.4864 31.2381 47.4996 31.2303 47.5125 31.2221C47.525 31.214 47.5368 31.2055 47.5488 31.1971C47.5616 31.1881 47.5739 31.1788 47.5863 31.1692C47.5974 31.1604 47.6084 31.1513 47.6192 31.1419C47.6314 31.1314 47.6434 31.1206 47.655 31.1095C47.6648 31.1001 47.6746 31.0905 47.6842 31.0806C47.6958 31.0685 47.707 31.0561 47.7181 31.0434C47.7267 31.0334 47.7352 31.0234 47.7435 31.0131C47.7542 30.9997 47.7643 30.9858 47.7744 30.9718C47.782 30.9613 47.7893 30.9508 47.7966 30.94C47.806 30.9255 47.815 30.9107 47.8236 30.8955C47.8302 30.8843 47.8369 30.873 47.8428 30.8614C47.851 30.8463 47.8579 30.8309 47.8653 30.8154C47.8709 30.8029 47.8767 30.7908 47.8819 30.7779C47.8882 30.7628 47.8935 30.7473 47.899 30.7318C47.9038 30.718 47.9088 30.7043 47.9131 30.6902C47.9173 30.6753 47.9208 30.6601 47.9247 30.6449C47.9284 30.6297 47.9326 30.6145 47.9355 30.599C47.9385 30.5839 47.9403 30.5685 47.9426 30.5531C47.9449 30.5372 47.9476 30.5216 47.9492 30.5054C47.9494 30.5031 47.95 30.5009 47.9501 30.4986L48.4347 24.9645H53.4313C56.3935 24.9645 57.7295 26.4915 59.1437 28.1082C60.3107 29.4422 61.6136 30.9305 63.8282 31.2936C63.5469 34.2524 63.0923 38.0507 62.8888 39.7139ZM63.9934 29.366C62.5568 29.0746 61.6729 28.0698 60.602 26.8457C59.2628 25.315 57.6279 23.447 54.4938 23.099L54.9939 17.3856C60.1198 18.1398 64.0664 22.545 64.0664 27.8512C64.0664 28.2117 64.0393 28.7355 63.9934 29.366Z" fill="url(#paint0_linear)"/>
<path d="M22.0442 37.1492C20.0896 37.1492 18.4993 38.7313 18.4993 40.6761C18.4993 42.6209 20.0896 44.203 22.0442 44.203C23.9988 44.203 25.5891 42.6209 25.5891 40.6761C25.5891 38.7314 23.9988 37.1492 22.0442 37.1492ZM22.0442 42.2793C21.1556 42.2793 20.4329 41.5601 20.4329 40.6761C20.4329 39.7921 21.1556 39.073 22.0442 39.073C22.9328 39.073 23.6555 39.7921 23.6555 40.6761C23.6555 41.5601 22.9326 42.2793 22.0442 42.2793Z" fill="#C4C4C4"/>
<path d="M22.0442 37.1492C20.0896 37.1492 18.4993 38.7313 18.4993 40.6761C18.4993 42.6209 20.0896 44.203 22.0442 44.203C23.9988 44.203 25.5891 42.6209 25.5891 40.6761C25.5891 38.7314 23.9988 37.1492 22.0442 37.1492ZM22.0442 42.2793C21.1556 42.2793 20.4329 41.5601 20.4329 40.6761C20.4329 39.7921 21.1556 39.073 22.0442 39.073C22.9328 39.073 23.6555 39.7921 23.6555 40.6761C23.6555 41.5601 22.9326 42.2793 22.0442 42.2793Z" fill="url(#paint1_linear)"/>
<path d="M52.1423 37.1492C50.1877 37.1492 48.5974 38.7313 48.5974 40.6761C48.5974 42.6209 50.1877 44.203 52.1423 44.203C54.097 44.203 55.6873 42.6209 55.6873 40.6761C55.6873 38.7314 54.097 37.1492 52.1423 37.1492ZM52.1423 42.2793C51.2538 42.2793 50.531 41.5601 50.531 40.6761C50.531 39.7921 51.2538 39.073 52.1423 39.073C53.0309 39.073 53.7537 39.7921 53.7537 40.6761C53.7537 41.5601 53.0309 42.2793 52.1423 42.2793Z" fill="#C4C4C4"/>
<path d="M52.1423 37.1492C50.1877 37.1492 48.5974 38.7313 48.5974 40.6761C48.5974 42.6209 50.1877 44.203 52.1423 44.203C54.097 44.203 55.6873 42.6209 55.6873 40.6761C55.6873 38.7314 54.097 37.1492 52.1423 37.1492ZM52.1423 42.2793C51.2538 42.2793 50.531 41.5601 50.531 40.6761C50.531 39.7921 51.2538 39.073 52.1423 39.073C53.0309 39.073 53.7537 39.7921 53.7537 40.6761C53.7537 41.5601 53.0309 42.2793 52.1423 42.2793Z" fill="url(#paint2_linear)"/>
<path d="M9.15228 15.3467H4.42579C3.89172 15.3467 3.45898 15.7774 3.45898 16.3086C3.45898 16.8398 3.89172 17.2705 4.42579 17.2705H9.15228C9.68634 17.2705 10.1191 16.8398 10.1191 16.3086C10.1191 15.7774 9.68634 15.3467 9.15228 15.3467Z" fill="#C4C4C4"/>
<path d="M9.15228 15.3467H4.42579C3.89172 15.3467 3.45898 15.7774 3.45898 16.3086C3.45898 16.8398 3.89172 17.2705 4.42579 17.2705H9.15228C9.68634 17.2705 10.1191 16.8398 10.1191 16.3086C10.1191 15.7774 9.68634 15.3467 9.15228 15.3467Z" fill="url(#paint3_linear)"/>
<defs>
<linearGradient id="paint0_linear" x1="33" y1="0" x2="33" y2="48" gradientUnits="userSpaceOnUse">
<stop stop-color="#5791BE"/>
<stop offset="1" stop-color="#366E9A"/>
</linearGradient>
<linearGradient id="paint1_linear" x1="22.0442" y1="37.1492" x2="22.0442" y2="44.203" gradientUnits="userSpaceOnUse">
<stop stop-color="#A5D8FE"/>
<stop offset="1" stop-color="#40A9FA"/>
</linearGradient>
<linearGradient id="paint2_linear" x1="52.1423" y1="37.1492" x2="52.1423" y2="44.203" gradientUnits="userSpaceOnUse">
<stop stop-color="#A5D8FE"/>
<stop offset="1" stop-color="#40A9FA"/>
</linearGradient>
<linearGradient id="paint3_linear" x1="6.78903" y1="15.3467" x2="6.78903" y2="17.2705" gradientUnits="userSpaceOnUse">
<stop stop-color="#A5D8FE"/>
<stop offset="1" stop-color="#40A9FA"/>
</linearGradient>
</defs>
</svg>
