<svg width="40" height="39" viewBox="0 0 40 39" fill="none" xmlns="http://www.w3.org/2000/svg">
<path d="M20.6526 36.3234C16.1642 36.1843 11.9425 34.3607 8.76546 31.1886C4.27405 26.7043 2.58107 20.1508 4.24241 14.1084L5.31616 16.7789C5.41124 17.0155 5.63889 17.1592 5.87936 17.1592C5.95468 17.1592 6.03116 17.1452 6.10522 17.1155C6.41624 16.9908 6.5671 16.6381 6.44226 16.3275L4.74772 12.1128C4.67663 11.9359 4.52624 11.8027 4.3417 11.7534C4.19069 11.7129 4.0317 11.7334 3.89647 11.8064C3.88928 11.8102 3.88201 11.8138 3.87498 11.8179C3.86873 11.8216 3.8628 11.8256 3.8567 11.8295C3.84131 11.8392 3.82647 11.8495 3.81201 11.8606C3.81139 11.861 3.81061 11.8614 3.81006 11.862L0.232161 14.6662C-0.0315112 14.8728 -0.0773707 15.2536 0.129505 15.5167C0.33638 15.7799 0.717866 15.8258 0.981382 15.6192L3.00686 14.0317C1.34255 20.4224 3.16647 27.3121 7.90718 32.0453C11.3034 35.4362 15.8165 37.3856 20.6148 37.5342C20.6212 37.5345 20.6276 37.5346 20.6339 37.5346C20.9603 37.5346 21.2298 37.2756 21.24 36.9475C21.2507 36.6133 20.9875 36.3338 20.6526 36.3234Z" fill="white"/>
<path d="M37.773 9.89402C37.6144 9.5994 37.2469 9.48856 36.9514 9.64691C36.6562 9.80525 36.5454 10.1725 36.7039 10.4673C40.3427 17.2322 39.082 25.7531 33.638 31.1885C31.4002 33.4229 28.6588 34.9866 25.6366 35.7673L27.416 33.5038C27.6229 33.2406 27.5769 32.8598 27.3133 32.6533C27.0495 32.4466 26.6682 32.4925 26.4614 32.7558L23.6529 36.3284C23.6506 36.3313 23.6488 36.3346 23.6465 36.3375C23.6381 36.3485 23.6305 36.3599 23.623 36.3714C23.6184 36.3784 23.6135 36.3853 23.6092 36.3924C23.6006 36.4067 23.593 36.4216 23.5856 36.4366C23.5808 36.4464 23.5764 36.4564 23.5721 36.4665C23.5664 36.4797 23.5609 36.4931 23.5563 36.5068C23.5531 36.5162 23.5505 36.5258 23.5477 36.5354C23.5446 36.5464 23.5415 36.5573 23.5389 36.5686C23.5365 36.5792 23.5346 36.5898 23.5327 36.6005C23.531 36.6106 23.5295 36.6208 23.5283 36.631C23.5269 36.6428 23.5258 36.6546 23.5251 36.6665C23.5246 36.6753 23.5245 36.684 23.5243 36.6928C23.5241 36.7063 23.524 36.7198 23.5247 36.7333C23.525 36.7392 23.5257 36.7451 23.5263 36.751C23.5291 36.7873 23.5344 36.8236 23.544 36.8594C23.5468 36.87 23.5508 36.8798 23.5541 36.89C23.5565 36.8973 23.5588 36.9045 23.5613 36.9118C23.5657 36.9235 23.5705 36.9351 23.5756 36.9465C23.5788 36.9538 23.5822 36.961 23.5857 36.9682C23.5912 36.9796 23.5968 36.9907 23.6031 37.0016C23.6062 37.0071 23.6097 37.0123 23.613 37.0176C23.6266 37.0399 23.6416 37.0611 23.6578 37.0814C23.6608 37.0851 23.6636 37.0889 23.6666 37.0925C23.6756 37.1031 23.6851 37.1132 23.6947 37.1232C23.6987 37.1272 23.7026 37.1313 23.7066 37.1351C23.7168 37.145 23.7272 37.1548 23.7381 37.164C23.7402 37.1657 23.7423 37.1673 23.7444 37.169C23.7674 37.188 23.792 37.2053 23.8177 37.2209C23.8206 37.2226 23.8233 37.2245 23.8262 37.2261C23.8379 37.2328 23.8499 37.2391 23.8621 37.245C23.8686 37.2482 23.8751 37.2512 23.8816 37.2542C23.8891 37.2576 23.8963 37.2616 23.904 37.2647L28.1252 38.9562C28.1993 38.9859 28.2757 39 28.351 39C28.5916 39 28.8192 38.8562 28.9142 38.6197C29.0391 38.3091 28.8882 37.9564 28.5772 37.8318L26.1882 36.8745C29.3221 36.0196 32.1646 34.3729 34.4959 32.0453C37.41 29.1357 39.2513 25.4494 39.8206 21.3851C40.3715 17.4538 39.6442 13.3729 37.773 9.89402Z" fill="white"/>
<path d="M35.8911 7.18866L35.2478 2.69297C35.2003 2.36161 34.8918 2.13213 34.5613 2.17893C34.2295 2.22628 33.999 2.53314 34.0464 2.86434L34.4115 5.41566C30.8702 1.92292 26.1842 0 21.2019 0C16.1799 0 11.4585 1.95257 7.90745 5.49795C6.88401 6.51986 5.98112 7.65449 5.22393 8.8704C5.0469 9.15457 5.13424 9.52804 5.41885 9.7048C5.51854 9.76673 5.62924 9.79622 5.73869 9.79622C5.94143 9.79622 6.13955 9.69474 6.25455 9.51018C6.96284 8.37282 7.80768 7.31112 8.76565 6.35481C15.6231 -0.491886 26.7808 -0.491886 33.6381 6.35481C33.6656 6.38219 33.6923 6.41058 33.7196 6.4382L30.8732 6.03227C30.542 5.98617 30.2341 6.21503 30.1867 6.54631C30.1393 6.87759 30.3698 7.18437 30.7016 7.23172L35.2045 7.87392C35.2332 7.87805 35.2618 7.88 35.2904 7.88C35.4502 7.88 35.6049 7.81697 35.7195 7.70254C35.8545 7.56783 35.9181 7.37743 35.8911 7.18866Z" fill="white"/>
<path d="M27.169 16.6251C27.057 16.4531 26.8656 16.3494 26.6601 16.3494H22.1165L23.6232 4.31412C23.6605 4.01615 23.4735 3.73581 23.1837 3.65531C22.8939 3.57481 22.5888 3.71849 22.4667 3.99298L15.1888 20.3424C15.1053 20.5297 15.1226 20.7467 15.2344 20.9187C15.3463 21.0907 15.5378 21.1943 15.7432 21.1943H20.2869L18.7802 33.2292C18.7428 33.5272 18.9299 33.8075 19.2196 33.888C19.2738 33.9032 19.3285 33.9103 19.3823 33.9103C19.617 33.9103 19.8374 33.7736 19.9368 33.5504L27.2146 17.2014C27.298 17.0139 27.2808 16.797 27.169 16.6251ZM20.4928 29.3178L21.5763 20.6636C21.5978 20.4911 21.5443 20.3178 21.4291 20.1874C21.3139 20.0572 21.1482 19.9825 20.9742 19.9825H16.6768L21.9104 8.22534L20.8268 16.8801C20.8053 17.0525 20.8589 17.2258 20.974 17.3563C21.0893 17.4865 21.2549 17.5611 21.4289 17.5611H25.7262L20.4928 29.3178Z" fill="white"/>
</svg>
