<svg width="341" height="146" viewBox="0 0 341 146" fill="none" xmlns="http://www.w3.org/2000/svg">
<path d="M174.03 0.0706747C174.007 0.306255 173.89 0.447603 173.82 0.612509C172.606 3.06254 171.393 5.48901 170.18 7.93904C169.736 8.81069 169.736 8.83425 168.803 8.9756C165.022 9.61166 161.382 10.7896 157.928 12.4386C154.685 13.9934 151.675 15.9488 148.944 18.3281C147.451 19.6238 146.074 20.9902 144.767 22.4743C142.667 24.8537 140.894 27.4451 139.377 30.2249C137.65 33.4288 136.367 36.7976 135.526 40.3548C135.106 42.1924 134.803 44.077 134.593 45.9617C134.336 48.2939 134.313 50.6261 134.453 52.9584C134.616 55.7382 135.06 58.4709 135.783 61.1566C136.46 63.6066 137.3 65.9859 138.397 68.2711C139.097 69.7317 139.844 71.1687 140.73 72.5115C141.944 74.4197 143.297 76.2337 144.814 77.9298C145.911 79.1549 147.078 80.3328 148.314 81.4164C149.458 82.4294 150.671 83.3953 151.931 84.267C154.031 85.7275 156.225 86.9997 158.535 88.0362C161.219 89.2377 163.996 90.1565 166.866 90.7454C167.566 90.8867 168.243 91.0045 168.943 91.1459C169.456 91.2401 169.479 91.2401 169.69 90.7454C170.39 89.167 171.09 87.5886 171.79 86.0102C173.166 82.877 174.567 79.7203 175.943 76.587C177.88 72.2288 179.794 67.8706 181.731 63.5124C182.081 62.7114 182.431 61.934 182.781 61.1566C182.851 61.0152 182.897 60.8739 182.944 60.7325C183.177 60.0258 182.757 59.4133 182.034 59.4133C181.404 59.4133 180.774 59.4839 180.144 59.5311C178.557 59.6488 176.947 59.7666 175.36 59.908C173.96 60.0258 172.536 60.12 171.136 60.2378C169.199 60.4027 167.286 60.5441 165.349 60.709C163.949 60.8032 162.572 60.9445 161.172 61.0388C159.609 61.1566 158.022 61.3215 156.458 61.4393C155.198 61.5335 153.938 61.6042 152.678 61.6984C151.371 61.7926 150.088 61.9104 148.781 62.0282C148.618 62.0518 148.454 62.0753 148.268 62.0046C148.268 61.7455 148.384 61.5335 148.501 61.3215C149.458 59.3426 150.438 57.3637 151.395 55.4084C151.535 55.1022 151.675 54.7959 151.815 54.4896C152.118 53.8771 152.585 53.5944 153.285 53.5473C154.685 53.4766 156.062 53.406 157.462 53.2882C158.559 53.194 159.655 53.1468 160.752 53.0526C162.432 52.9348 164.136 52.817 165.816 52.6992C166.936 52.6286 168.033 52.5579 169.153 52.4872C170.973 52.3694 172.793 52.1574 174.59 52.1103C176.107 52.0632 177.6 51.8747 179.094 51.804C180.937 51.7334 182.757 51.5449 184.601 51.4035C185.534 51.3329 186.468 51.3093 187.378 51.2386C188.661 51.1444 189.921 51.0031 191.205 50.9559C192.395 50.9088 193.258 51.8747 192.768 53.1468C192.698 53.3117 192.628 53.4531 192.535 53.5944C189.431 59.8609 186.304 66.1037 183.201 72.3702C180.937 76.9169 178.72 81.4635 176.433 85.9867C174.31 90.2036 172.233 94.4676 170.11 98.708C170.04 98.8258 169.993 98.9436 169.946 99.0614C169.69 99.5325 169.316 99.7446 168.803 99.6503C167.823 99.4854 166.866 99.3205 165.886 99.132C162.409 98.4489 159.049 97.3652 155.782 95.9282C152.981 94.7031 150.298 93.219 147.754 91.4757C145.561 89.968 143.484 88.2718 141.547 86.4343C139.704 84.6674 138 82.7828 136.437 80.7568C134.733 78.5659 133.24 76.2337 131.933 73.7601C131.209 72.4173 130.579 71.0509 129.973 69.6374C129.319 68.1297 128.783 66.5513 128.269 64.9729C127.709 63.2061 127.266 61.3921 126.916 59.5782C126.636 58.0705 126.402 56.5392 126.262 55.0079C126.146 53.6651 126.099 52.2987 126.029 50.9559C125.959 49.5425 126.029 48.129 126.099 46.7391C126.192 44.878 126.449 43.0169 126.776 41.1558C127.196 38.7529 127.802 36.3735 128.573 34.0649C129.203 32.1567 129.973 30.2956 130.813 28.4816C132.33 25.2306 134.196 22.1916 136.367 19.3647C137.347 18.0925 138.397 16.8675 139.494 15.6896C141.337 13.7108 143.321 11.8968 145.444 10.2477C146.868 9.1405 148.338 8.12751 149.878 7.20875C152.071 5.86594 154.335 4.7116 156.692 3.72216C159.352 2.61494 162.082 1.74329 164.882 1.13078C166.983 0.659625 169.129 0.329813 171.276 0.141349C172.046 0.0706754 172.793 0 173.563 0C173.773 0.047116 173.89 0.0706747 174.03 0.0706747Z" fill="#1965A4"/>
<path d="M200.213 38.1877C200.003 38.6353 199.839 39.0122 199.653 39.3656C198.649 41.4151 197.623 43.4882 196.642 45.5613C196.292 46.3152 195.732 46.645 194.939 46.6686C193.516 46.6921 192.115 46.857 190.715 46.9277C189.595 46.9748 188.498 47.069 187.378 47.1633C186.118 47.2575 184.858 47.3282 183.598 47.446C182.758 47.5166 181.918 47.5402 181.101 47.6109C179.701 47.7051 178.324 47.7758 176.924 47.8936C176.201 47.9407 175.477 47.9878 174.754 48.0349C173.237 48.1527 171.72 48.2234 170.203 48.3412C169.317 48.4119 168.43 48.459 167.52 48.5061C166.213 48.6003 164.93 48.671 163.623 48.7888C162.829 48.8595 162.036 48.9066 161.219 48.9301C159.796 49.0008 158.396 49.1422 156.996 49.1893C156.272 49.2128 155.806 48.7652 155.572 48.1998C155.409 47.7758 155.502 47.3753 155.666 46.9984C155.829 46.6214 156.016 46.2445 156.202 45.8911C159.633 38.9651 163.039 32.039 166.516 25.1366C170.483 17.2446 174.38 9.30558 178.324 1.41365C178.698 0.659796 179.048 0.518448 179.911 0.636238C181.941 0.942492 183.948 1.34298 185.908 1.90837C187.425 2.33242 188.895 2.80357 190.365 3.36897C192.139 4.05215 193.842 4.80601 195.522 5.67765C197.903 6.92622 200.143 8.3397 202.29 9.94165C204.763 11.8027 207.05 13.8758 209.15 16.1374C210.574 17.6687 211.88 19.3177 213.094 21.0375C214.821 23.4875 216.314 26.0553 217.598 28.7645C218.904 31.5208 219.931 34.3948 220.701 37.3396C221.168 39.1064 221.518 40.8733 221.798 42.6873C222.008 44.1479 222.125 45.632 222.265 47.1162C222.428 48.9772 222.405 50.8383 222.311 52.6994C222.218 54.7961 221.961 56.8927 221.588 58.9658C221.098 61.6514 220.421 64.2899 219.534 66.8578C218.788 69.0251 217.878 71.1453 216.828 73.1713C215.614 75.5507 214.214 77.8122 212.627 79.956C211.577 81.3695 210.457 82.7359 209.29 84.0315C207.47 86.0575 205.463 87.8951 203.363 89.5912C201.496 91.0754 199.536 92.4182 197.483 93.5961C195.102 94.9624 192.629 96.1404 190.062 97.1062C188.358 97.7423 186.608 98.2841 184.835 98.7553C182.805 99.2736 180.774 99.6505 178.698 99.9096C177.507 100.075 176.294 100.216 175.081 100.192C174.871 100.192 174.637 100.216 174.427 100.239C174.357 100.027 174.474 99.8861 174.567 99.7447C175.874 97.1062 177.181 94.4913 178.464 91.8528C178.628 91.523 178.814 91.3816 179.188 91.3345C181.778 90.934 184.275 90.2509 186.748 89.3792C189.595 88.3427 192.302 86.9998 194.869 85.3743C196.502 84.3378 198.043 83.1363 199.536 81.8878C200.353 81.2046 201.1 80.4743 201.846 79.744C203.806 77.7887 205.533 75.6684 207.073 73.3598C209.43 69.8025 211.204 65.9626 212.417 61.8399C213.024 59.8139 213.444 57.7644 213.701 55.6677C213.841 54.4898 213.957 53.3119 214.004 52.134C214.027 51.1917 214.074 50.2494 214.074 49.3071C214.051 47.87 213.934 46.4565 213.794 45.0431C213.584 42.7815 213.094 40.5906 212.487 38.4233C212.09 36.9391 211.554 35.4785 210.97 34.065C209.687 30.9083 208.03 27.9871 206.023 25.2308C205.113 23.9822 204.133 22.8043 203.083 21.6735C202.22 20.7312 201.286 19.8596 200.376 18.9879C199.513 18.1634 198.556 17.4331 197.623 16.7028C196.129 15.572 194.566 14.559 192.932 13.6403C191.532 12.8628 190.109 12.2032 188.638 11.5907C186.492 10.6955 184.275 10.0359 182.034 9.5176C181.171 9.30558 180.284 9.18779 179.398 9.02289C179.094 8.95221 178.931 9.07 178.814 9.37626C177.834 11.6143 176.854 13.8523 175.874 16.0903C175.197 17.6216 174.521 19.1528 173.844 20.6605C172.467 23.7702 171.09 26.8798 169.713 29.9895C168.85 31.9448 167.963 33.9001 167.1 35.8554C166.586 36.9862 166.073 38.117 165.583 39.2478C165.186 40.1666 165.77 40.8733 166.61 40.8026C167.893 40.6848 169.153 40.567 170.437 40.4728C171.114 40.4257 171.814 40.3786 172.49 40.3315C173.704 40.2372 174.941 40.1194 176.154 40.0252C176.737 39.9781 177.297 39.9545 177.881 39.9074C179.188 39.8132 180.471 39.719 181.778 39.6012C182.478 39.5305 183.178 39.4834 183.901 39.4363C185.115 39.342 186.305 39.2242 187.518 39.13C188.242 39.0829 188.965 39.0358 189.689 38.9887C190.855 38.8944 192.022 38.7766 193.189 38.6824C193.842 38.6353 194.496 38.5882 195.126 38.5411C196.549 38.4233 197.973 38.3055 199.396 38.2112C199.606 38.1641 199.863 38.1877 200.213 38.1877Z" fill="#8AB5DC"/>
<path d="M9.95508 141.688V124.666C9.95508 124.311 10.0827 124.01 10.3379 123.764C10.5931 123.518 10.8984 123.395 11.2539 123.395H27.0176C27.373 123.395 27.6738 123.522 27.9199 123.777C28.1751 124.033 28.3027 124.338 28.3027 124.693V125.979C28.3027 126.334 28.1751 126.639 27.9199 126.895C27.6738 127.141 27.373 127.264 27.0176 127.264H15.1094V131.242H25.3633C25.7188 131.242 26.0195 131.37 26.2656 131.625C26.5208 131.871 26.6484 132.172 26.6484 132.527V133.812C26.6484 134.168 26.5208 134.473 26.2656 134.729C26.0195 134.975 25.7188 135.098 25.3633 135.098H15.1094V139.131H26.9902C27.3366 139.131 27.6328 139.254 27.8789 139.5C28.125 139.746 28.248 140.047 28.248 140.402V141.715C28.248 142.07 28.1204 142.376 27.8652 142.631C27.61 142.877 27.3047 143 26.9492 143H11.2539C10.8984 143 10.5931 142.877 10.3379 142.631C10.0827 142.376 9.95508 142.061 9.95508 141.688ZM30.8184 141.715V124.693C30.8184 124.338 30.946 124.033 31.2012 123.777C31.4564 123.522 31.7708 123.395 32.1445 123.395H34.6875C35.043 123.395 35.3438 123.522 35.5898 123.777C35.8451 124.033 35.9727 124.338 35.9727 124.693V130.846H45.3789V124.693C45.3789 124.338 45.5065 124.033 45.7617 123.777C46.0169 123.522 46.3223 123.395 46.6777 123.395H49.2207C49.5944 123.395 49.9043 123.522 50.1504 123.777C50.4056 124.033 50.5332 124.338 50.5332 124.693V141.715C50.5332 142.07 50.401 142.376 50.1367 142.631C49.8815 142.877 49.5762 143 49.2207 143H46.6777C46.3223 143 46.0169 142.882 45.7617 142.645C45.5065 142.398 45.3789 142.098 45.3789 141.742V134.715H35.9727V141.742C35.9727 142.098 35.8451 142.398 35.5898 142.645C35.3438 142.882 35.043 143 34.6875 143H32.1445C31.7891 143 31.4792 142.877 31.2148 142.631C30.9505 142.376 30.8184 142.07 30.8184 141.715ZM54.4707 141.688V124.666C54.4707 124.311 54.5983 124.01 54.8535 123.764C55.1087 123.518 55.4141 123.395 55.7695 123.395H71.5332C71.8887 123.395 72.1895 123.522 72.4355 123.777C72.6908 124.033 72.8184 124.338 72.8184 124.693V125.979C72.8184 126.334 72.6908 126.639 72.4355 126.895C72.1895 127.141 71.8887 127.264 71.5332 127.264H59.625V131.242H69.8789C70.2344 131.242 70.5352 131.37 70.7812 131.625C71.0365 131.871 71.1641 132.172 71.1641 132.527V133.812C71.1641 134.168 71.0365 134.473 70.7812 134.729C70.5352 134.975 70.2344 135.098 69.8789 135.098H59.625V139.131H71.5059C71.8522 139.131 72.1484 139.254 72.3945 139.5C72.6406 139.746 72.7637 140.047 72.7637 140.402V141.715C72.7637 142.07 72.6361 142.376 72.3809 142.631C72.1257 142.877 71.8203 143 71.4648 143H55.7695C55.4141 143 55.1087 142.877 54.8535 142.631C54.5983 142.376 54.4707 142.061 54.4707 141.688ZM75.334 141.715V124.693C75.334 124.338 75.457 124.033 75.7031 123.777C75.9492 123.522 76.25 123.395 76.6055 123.395H87.0371C92.5514 123.395 95.3086 125.938 95.3086 131.023C95.3086 136.1 92.5514 138.639 87.0371 138.639H80.4883V141.715C80.4883 142.07 80.3607 142.376 80.1055 142.631C79.8594 142.877 79.5586 143 79.2031 143H76.6328C76.2773 143 75.972 142.877 75.7168 142.631C75.4616 142.376 75.334 142.07 75.334 141.715ZM80.4883 134.77H85.4785C87.0098 134.77 88.1719 134.514 88.9648 134.004C89.7578 133.484 90.1543 132.491 90.1543 131.023C90.1543 129.547 89.7578 128.553 88.9648 128.043C88.1719 127.523 87.0098 127.264 85.4785 127.264H80.4883V134.77ZM97.8379 141.742V124.693C97.8379 124.32 97.9609 124.01 98.207 123.764C98.4531 123.518 98.763 123.395 99.1367 123.395H112.344C112.717 123.395 113.023 123.518 113.26 123.764C113.506 124.01 113.629 124.32 113.629 124.693V125.979C113.629 126.352 113.506 126.662 113.26 126.908C113.023 127.145 112.717 127.264 112.344 127.264H102.992V141.742C102.992 142.098 102.865 142.398 102.609 142.645C102.363 142.882 102.062 143 101.707 143H99.1367C98.7812 143 98.4759 142.882 98.2207 142.645C97.9655 142.398 97.8379 142.098 97.8379 141.742ZM133.562 140.977C131.703 142.608 128.969 143.424 125.359 143.424C121.759 143.424 119.025 142.608 117.156 140.977C115.288 139.336 114.354 136.743 114.354 133.197C114.354 129.652 115.288 127.063 117.156 125.432C119.025 123.8 121.759 122.984 125.359 122.984C128.969 122.984 131.703 123.8 133.562 125.432C135.431 127.063 136.365 129.652 136.365 133.197C136.365 136.743 135.431 139.336 133.562 140.977ZM129.83 128.316C128.91 127.223 127.419 126.676 125.359 126.676C123.309 126.676 121.818 127.223 120.889 128.316C119.968 129.41 119.508 131.042 119.508 133.211C119.508 135.371 119.968 136.998 120.889 138.092C121.818 139.176 123.309 139.719 125.359 139.719C127.419 139.719 128.91 139.176 129.83 138.092C130.751 136.998 131.211 135.371 131.211 133.211C131.211 131.042 130.751 129.41 129.83 128.316ZM139.182 141.715V124.693C139.182 124.338 139.309 124.033 139.564 123.777C139.82 123.522 140.134 123.395 140.508 123.395H143.105C143.461 123.395 143.762 123.522 144.008 123.777C144.263 124.033 144.391 124.338 144.391 124.693V130.818H146.947C147.713 125.596 151.126 122.984 157.188 122.984C164.115 122.984 167.578 126.393 167.578 133.211C167.578 140.02 164.115 143.424 157.188 143.424C150.807 143.424 147.367 140.521 146.865 134.715H144.391V141.742C144.391 142.098 144.263 142.398 144.008 142.645C143.762 142.882 143.461 143 143.105 143H140.508C140.152 143 139.842 142.877 139.578 142.631C139.314 142.376 139.182 142.07 139.182 141.715ZM157.188 126.676C153.697 126.676 151.951 128.85 151.951 133.197C151.951 137.545 153.697 139.719 157.188 139.719C160.678 139.719 162.424 137.545 162.424 133.197C162.424 128.85 160.678 126.676 157.188 126.676ZM170.381 141.742V124.693C170.381 124.32 170.504 124.01 170.75 123.764C170.996 123.518 171.306 123.395 171.68 123.395H184.887C185.26 123.395 185.566 123.518 185.803 123.764C186.049 124.01 186.172 124.32 186.172 124.693V125.979C186.172 126.352 186.049 126.662 185.803 126.908C185.566 127.145 185.26 127.264 184.887 127.264H175.535V141.742C175.535 142.098 175.408 142.398 175.152 142.645C174.906 142.882 174.605 143 174.25 143H171.68C171.324 143 171.019 142.882 170.764 142.645C170.508 142.398 170.381 142.098 170.381 141.742ZM196.631 141.742L200.062 128.727C200.992 125.181 204.018 123.404 209.141 123.395H216.51C216.847 123.395 217.125 123.522 217.344 123.777C217.572 124.033 217.686 124.329 217.686 124.666V141.742C217.686 142.098 217.558 142.398 217.303 142.645C217.048 142.882 216.742 143 216.387 143H213.816C213.443 143 213.133 142.882 212.887 142.645C212.65 142.398 212.531 142.089 212.531 141.715V138.27H202.811L201.895 141.715C201.803 142.089 201.598 142.398 201.279 142.645C200.96 142.882 200.623 143 200.268 143H197.574C197.219 143 196.964 142.9 196.809 142.699C196.654 142.49 196.576 142.307 196.576 142.152C196.585 141.997 196.604 141.861 196.631 141.742ZM203.822 134.4H212.531V127.264H208.635C207.76 127.264 206.994 127.514 206.338 128.016C205.691 128.508 205.253 129.173 205.025 130.012L203.822 134.4ZM219.982 141.852L223.455 128.727C224.385 125.181 227.406 123.404 232.52 123.395H239.355C239.674 123.395 239.943 123.527 240.162 123.791C240.39 124.055 240.504 124.356 240.504 124.693V141.715C240.504 142.07 240.381 142.376 240.135 142.631C239.898 142.877 239.602 143 239.246 143H236.635C236.279 143 235.974 142.877 235.719 142.631C235.473 142.376 235.35 142.07 235.35 141.715V127.264H232.014C231.139 127.264 230.373 127.514 229.717 128.016C229.07 128.508 228.632 129.173 228.404 130.012L225.273 141.715C225.182 142.089 224.977 142.398 224.658 142.645C224.339 142.882 224.002 143 223.646 143H220.871C220.552 143 220.315 142.9 220.16 142.699C220.014 142.499 219.941 142.33 219.941 142.193C219.951 142.057 219.964 141.943 219.982 141.852ZM244.428 141.688V124.693C244.428 124.32 244.551 124.01 244.797 123.764C245.043 123.518 245.353 123.395 245.727 123.395H248.297C248.652 123.395 248.953 123.522 249.199 123.777C249.454 124.033 249.582 124.338 249.582 124.693V130.066H256.336C258.487 130.066 260.264 130.636 261.668 131.775C263.081 132.915 263.787 134.501 263.787 136.533C263.787 138.566 263.081 140.152 261.668 141.291C260.255 142.43 258.478 143 256.336 143H245.658C245.321 143 245.029 142.872 244.783 142.617C244.546 142.353 244.428 142.043 244.428 141.688ZM249.582 139.131H256.336C257.867 139.131 258.633 138.265 258.633 136.533C258.633 134.792 257.867 133.922 256.336 133.922H249.582V139.131ZM265.209 142.221C265.209 142.075 265.268 141.906 265.387 141.715L269.16 135.494C266.581 134.373 265.296 132.468 265.305 129.779C265.305 127.747 266.007 126.174 267.41 125.062C268.823 123.951 270.591 123.395 272.715 123.395H283.42C283.757 123.395 284.044 123.518 284.281 123.764C284.527 124.01 284.65 124.311 284.65 124.666V141.742C284.65 142.098 284.523 142.398 284.268 142.645C284.021 142.882 283.721 143 283.365 143H280.781C280.426 143 280.12 142.877 279.865 142.631C279.619 142.376 279.496 142.07 279.496 141.715V136.055H274.602L271.32 141.742C270.855 142.581 270.195 143 269.338 143H265.893C265.437 143 265.209 142.74 265.209 142.221ZM272.715 127.264C271.202 127.264 270.445 128.066 270.445 129.67C270.445 131.274 271.202 132.076 272.715 132.076H279.496V127.264H272.715ZM288.561 141.715V124.693C288.561 124.338 288.688 124.033 288.943 123.777C289.199 123.522 289.513 123.395 289.887 123.395H292.43C292.785 123.395 293.086 123.522 293.332 123.777C293.587 124.033 293.715 124.338 293.715 124.693V130.846H303.121V124.693C303.121 124.338 303.249 124.033 303.504 123.777C303.759 123.522 304.064 123.395 304.42 123.395H306.963C307.337 123.395 307.646 123.522 307.893 123.777C308.148 124.033 308.275 124.338 308.275 124.693V141.715C308.275 142.07 308.143 142.376 307.879 142.631C307.624 142.877 307.318 143 306.963 143H304.42C304.064 143 303.759 142.882 303.504 142.645C303.249 142.398 303.121 142.098 303.121 141.742V134.715H293.715V141.742C293.715 142.098 293.587 142.398 293.332 142.645C293.086 142.882 292.785 143 292.43 143H289.887C289.531 143 289.221 142.877 288.957 142.631C288.693 142.376 288.561 142.07 288.561 141.715ZM313.621 140.689C311.935 139.076 311.092 136.583 311.092 133.211C311.092 129.829 311.935 127.332 313.621 125.719C315.316 124.096 317.855 123.285 321.236 123.285H324.285C326.354 123.285 328.182 123.823 329.768 124.898C331.363 125.974 332.16 127.446 332.16 129.314C332.16 129.852 332.001 130.24 331.682 130.477C331.363 130.704 331.053 130.818 330.752 130.818H329.125C328.286 130.818 327.635 130.317 327.17 129.314C326.495 127.874 325.374 127.154 323.807 127.154H321.373C319.377 127.154 318.023 127.583 317.312 128.439C316.602 129.296 316.246 130.882 316.246 133.197C316.246 135.512 316.602 137.103 317.312 137.969C318.023 138.826 319.377 139.254 321.373 139.254H324.094C325.661 139.254 326.778 138.534 327.443 137.094C327.908 136.082 328.564 135.576 329.412 135.576H331.039C331.467 135.576 331.805 135.736 332.051 136.055C332.306 136.374 332.434 136.72 332.434 137.094C332.434 138.962 331.641 140.434 330.055 141.51C328.469 142.576 326.641 143.109 324.572 143.109H321.236C317.855 143.109 315.316 142.303 313.621 140.689Z" fill="#1965A4"/>
</svg>
