<svg width="346" height="146" viewBox="0 0 346 146" fill="none" xmlns="http://www.w3.org/2000/svg">
<path d="M176.582 0.0706747C176.558 0.306255 176.44 0.447603 176.369 0.612509C175.137 3.06254 173.906 5.48901 172.675 7.93904C172.225 8.81069 172.225 8.83425 171.278 8.9756C167.442 9.61166 163.749 10.7896 160.244 12.4386C156.953 13.9934 153.899 15.9488 151.128 18.3281C149.613 19.6238 148.216 20.9902 146.89 22.4743C144.759 24.8537 142.96 27.4451 141.421 30.2249C139.668 33.4288 138.366 36.7976 137.514 40.3548C137.088 42.1924 136.78 44.077 136.567 45.9617C136.306 48.2939 136.283 50.6261 136.425 52.9584C136.59 55.7382 137.04 58.4709 137.774 61.1566C138.461 63.6066 139.313 65.9859 140.426 68.2711C141.137 69.7317 141.894 71.1687 142.794 72.5115C144.025 74.4197 145.398 76.2337 146.938 77.9298C148.05 79.1549 149.234 80.3328 150.489 81.4164C151.649 82.4294 152.881 83.3953 154.159 84.267C156.29 85.7275 158.516 86.9997 160.86 88.0362C163.583 89.2377 166.4 90.1565 169.313 90.7454C170.023 90.8867 170.71 91.0045 171.42 91.1459C171.941 91.2401 171.965 91.2401 172.178 90.7454C172.888 89.167 173.598 87.5886 174.309 86.0102C175.706 82.877 177.126 79.7203 178.523 76.587C180.489 72.2288 182.43 67.8706 184.395 63.5124C184.751 62.7114 185.106 61.934 185.461 61.1566C185.532 61.0152 185.579 60.8739 185.627 60.7325C185.863 60.0258 185.437 59.4133 184.703 59.4133C184.064 59.4133 183.425 59.4839 182.785 59.5311C181.175 59.6488 179.541 59.7666 177.931 59.908C176.511 60.0258 175.066 60.12 173.646 60.2378C171.681 60.4027 169.739 60.5441 167.774 60.709C166.353 60.8032 164.956 60.9445 163.535 61.0388C161.949 61.1566 160.339 61.3215 158.753 61.4393C157.474 61.5335 156.195 61.6042 154.917 61.6984C153.591 61.7926 152.289 61.9104 150.963 62.0282C150.797 62.0518 150.631 62.0753 150.442 62.0046C150.442 61.7455 150.56 61.5335 150.679 61.3215C151.649 59.3426 152.644 57.3637 153.615 55.4084C153.757 55.1022 153.899 54.7959 154.041 54.4896C154.349 53.8771 154.822 53.5944 155.532 53.5473C156.953 53.4766 158.35 53.406 159.771 53.2882C160.884 53.194 161.996 53.1468 163.109 53.0526C164.814 52.9348 166.543 52.817 168.247 52.6992C169.384 52.6286 170.497 52.5579 171.633 52.4872C173.48 52.3694 175.327 52.1574 177.15 52.1103C178.689 52.0632 180.204 51.8747 181.72 51.804C183.59 51.7334 185.437 51.5449 187.308 51.4035C188.255 51.3329 189.202 51.3093 190.125 51.2386C191.428 51.1444 192.706 51.0031 194.008 50.9559C195.216 50.9088 196.092 51.8747 195.595 53.1468C195.524 53.3117 195.453 53.4531 195.358 53.5944C192.209 59.8609 189.036 66.1037 185.887 72.3702C183.59 76.9169 181.341 81.4635 179.021 85.9867C176.866 90.2036 174.759 94.4676 172.604 98.708C172.533 98.8258 172.486 98.9436 172.438 99.0614C172.178 99.5325 171.799 99.7446 171.278 99.6503C170.284 99.4854 169.313 99.3205 168.318 99.132C164.79 98.4489 161.381 97.3652 158.066 95.9282C155.225 94.7031 152.502 93.219 149.921 91.4757C147.695 89.968 145.588 88.2718 143.623 86.4343C141.752 84.6674 140.024 82.7828 138.437 80.7568C136.709 78.5659 135.193 76.2337 133.867 73.7601C133.133 72.4173 132.494 71.0509 131.879 69.6374C131.216 68.1297 130.671 66.5513 130.15 64.9729C129.582 63.2061 129.132 61.3921 128.777 59.5782C128.493 58.0705 128.256 56.5392 128.114 55.0079C127.995 53.6651 127.948 52.2987 127.877 50.9559C127.806 49.5425 127.877 48.129 127.948 46.7391C128.043 44.878 128.303 43.0169 128.635 41.1558C129.061 38.7529 129.677 36.3735 130.458 34.0649C131.097 32.1567 131.879 30.2956 132.731 28.4816C134.27 25.2306 136.164 22.1916 138.366 19.3647C139.361 18.0925 140.426 16.8675 141.539 15.6896C143.41 13.7108 145.422 11.8968 147.577 10.2477C149.021 9.1405 150.513 8.12751 152.076 7.20875C154.301 5.86594 156.598 4.7116 158.989 3.72216C161.689 2.61494 164.459 1.74329 167.3 1.13078C169.431 0.659625 171.61 0.329813 173.788 0.141349C174.569 0.0706754 175.327 0 176.108 0C176.321 0.047116 176.44 0.0706747 176.582 0.0706747Z" fill="#1965A4"/>
<path d="M203.148 38.1877C202.935 38.6353 202.77 39.0122 202.58 39.3656C201.562 41.4151 200.52 43.4882 199.526 45.5613C199.171 46.3152 198.602 46.645 197.797 46.6686C196.353 46.6921 194.932 46.857 193.512 46.9277C192.375 46.9748 191.262 47.069 190.126 47.1633C188.847 47.2575 187.569 47.3282 186.29 47.446C185.438 47.5166 184.585 47.5402 183.756 47.6109C182.336 47.7051 180.939 47.7758 179.518 47.8936C178.784 47.9407 178.05 47.9878 177.316 48.0349C175.777 48.1527 174.238 48.2234 172.699 48.3412C171.799 48.4119 170.9 48.459 169.976 48.5061C168.65 48.6003 167.348 48.671 166.022 48.7888C165.217 48.8595 164.412 48.9066 163.583 48.9301C162.139 49.0008 160.718 49.1422 159.298 49.1893C158.564 49.2128 158.09 48.7652 157.853 48.1998C157.687 47.7758 157.782 47.3753 157.948 46.9984C158.114 46.6214 158.303 46.2445 158.493 45.8911C161.973 38.9651 165.43 32.039 168.958 25.1366C172.983 17.2446 176.937 9.30558 180.939 1.41365C181.318 0.659796 181.673 0.518448 182.549 0.636238C184.609 0.942492 186.645 1.34298 188.634 1.90837C190.173 2.33242 191.665 2.80357 193.156 3.36897C194.956 4.05215 196.684 4.80601 198.389 5.67765C200.804 6.92622 203.077 8.3397 205.256 9.94165C207.765 11.8027 210.086 13.8758 212.217 16.1374C213.661 17.6687 214.987 19.3177 216.218 21.0375C217.971 23.4875 219.486 26.0553 220.788 28.7645C222.114 31.5208 223.156 34.3948 223.937 37.3396C224.411 39.1064 224.766 40.8733 225.05 42.6873C225.263 44.1479 225.382 45.632 225.524 47.1162C225.689 48.9772 225.666 50.8383 225.571 52.6994C225.476 54.7961 225.216 56.8927 224.837 58.9658C224.34 61.6514 223.653 64.2899 222.753 66.8578C221.996 69.0251 221.072 71.1453 220.007 73.1713C218.776 75.5507 217.355 77.8122 215.745 79.956C214.679 81.3695 213.543 82.7359 212.359 84.0315C210.512 86.0575 208.476 87.8951 206.345 89.5912C204.451 91.0754 202.462 92.4182 200.378 93.5961C197.963 94.9624 195.453 96.1404 192.849 97.1062C191.12 97.7423 189.344 98.2841 187.545 98.7553C185.485 99.2736 183.425 99.6505 181.318 99.9096C180.11 100.075 178.879 100.216 177.648 100.192C177.435 100.192 177.198 100.216 176.985 100.239C176.914 100.027 177.032 99.8861 177.127 99.7447C178.453 97.1062 179.779 94.4913 181.081 91.8528C181.247 91.523 181.436 91.3816 181.815 91.3345C184.443 90.934 186.977 90.2509 189.486 89.3792C192.375 88.3427 195.122 86.9998 197.726 85.3743C199.384 84.3378 200.946 83.1363 202.462 81.8878C203.29 81.2046 204.048 80.4743 204.806 79.744C206.795 77.7887 208.547 75.6684 210.11 73.3598C212.501 69.8025 214.3 65.9626 215.532 61.8399C216.147 59.8139 216.574 57.7644 216.834 55.6677C216.976 54.4898 217.094 53.3119 217.142 52.134C217.165 51.1917 217.213 50.2494 217.213 49.3071C217.189 47.87 217.071 46.4565 216.929 45.0431C216.716 42.7815 216.218 40.5906 215.603 38.4233C215.2 36.9391 214.656 35.4785 214.064 34.065C212.761 30.9083 211.08 27.9871 209.044 25.2308C208.121 23.9822 207.126 22.8043 206.061 21.6735C205.185 20.7312 204.238 19.8596 203.314 18.9879C202.438 18.1634 201.467 17.4331 200.52 16.7028C199.005 15.572 197.418 14.559 195.761 13.6403C194.34 12.8628 192.896 12.2032 191.404 11.5907C189.226 10.6955 186.977 10.0359 184.704 9.5176C183.827 9.30558 182.928 9.18779 182.028 9.02289C181.72 8.95221 181.554 9.07 181.436 9.37626C180.442 11.6143 179.447 13.8523 178.453 16.0903C177.766 17.6216 177.079 19.1528 176.393 20.6605C174.996 23.7702 173.599 26.8798 172.202 29.9895C171.326 31.9448 170.426 33.9001 169.55 35.8554C169.029 36.9862 168.508 38.117 168.011 39.2478C167.608 40.1666 168.2 40.8733 169.053 40.8026C170.355 40.6848 171.634 40.567 172.936 40.4728C173.622 40.4257 174.333 40.3786 175.019 40.3315C176.251 40.2372 177.506 40.1194 178.737 40.0252C179.329 39.9781 179.897 39.9545 180.489 39.9074C181.815 39.8132 183.117 39.719 184.443 39.6012C185.153 39.5305 185.864 39.4834 186.598 39.4363C187.829 39.342 189.037 39.2242 190.268 39.13C191.002 39.0829 191.736 39.0358 192.47 38.9887C193.654 38.8944 194.838 38.7766 196.021 38.6824C196.684 38.6353 197.347 38.5882 197.987 38.5411C199.431 38.4233 200.875 38.3055 202.32 38.2112C202.533 38.1641 202.793 38.1877 203.148 38.1877Z" fill="#8AB5DC"/>
<path d="M10.0723 141.688V124.666C10.0723 124.311 10.1999 124.01 10.4551 123.764C10.7103 123.518 11.0156 123.395 11.3711 123.395H27.1348C27.4902 123.395 27.791 123.522 28.0371 123.777C28.2923 124.033 28.4199 124.338 28.4199 124.693V125.979C28.4199 126.334 28.2923 126.639 28.0371 126.895C27.791 127.141 27.4902 127.264 27.1348 127.264H15.2266V131.242H25.4805C25.8359 131.242 26.1367 131.37 26.3828 131.625C26.638 131.871 26.7656 132.172 26.7656 132.527V133.812C26.7656 134.168 26.638 134.473 26.3828 134.729C26.1367 134.975 25.8359 135.098 25.4805 135.098H15.2266V139.131H27.1074C27.4538 139.131 27.75 139.254 27.9961 139.5C28.2422 139.746 28.3652 140.047 28.3652 140.402V141.715C28.3652 142.07 28.2376 142.376 27.9824 142.631C27.7272 142.877 27.4219 143 27.0664 143H11.3711C11.0156 143 10.7103 142.877 10.4551 142.631C10.1999 142.376 10.0723 142.061 10.0723 141.688ZM30.9355 141.715V124.693C30.9355 124.338 31.0632 124.033 31.3184 123.777C31.5736 123.522 31.888 123.395 32.2617 123.395H34.8047C35.1602 123.395 35.4609 123.522 35.707 123.777C35.9622 124.033 36.0898 124.338 36.0898 124.693V130.846H45.4961V124.693C45.4961 124.338 45.6237 124.033 45.8789 123.777C46.1341 123.522 46.4395 123.395 46.7949 123.395H49.3379C49.7116 123.395 50.0215 123.522 50.2676 123.777C50.5228 124.033 50.6504 124.338 50.6504 124.693V141.715C50.6504 142.07 50.5182 142.376 50.2539 142.631C49.9987 142.877 49.6934 143 49.3379 143H46.7949C46.4395 143 46.1341 142.882 45.8789 142.645C45.6237 142.398 45.4961 142.098 45.4961 141.742V134.715H36.0898V141.742C36.0898 142.098 35.9622 142.398 35.707 142.645C35.4609 142.882 35.1602 143 34.8047 143H32.2617C31.9062 143 31.5964 142.877 31.332 142.631C31.0677 142.376 30.9355 142.07 30.9355 141.715ZM54.5879 141.688V124.666C54.5879 124.311 54.7155 124.01 54.9707 123.764C55.2259 123.518 55.5312 123.395 55.8867 123.395H71.6504C72.0059 123.395 72.3066 123.522 72.5527 123.777C72.8079 124.033 72.9355 124.338 72.9355 124.693V125.979C72.9355 126.334 72.8079 126.639 72.5527 126.895C72.3066 127.141 72.0059 127.264 71.6504 127.264H59.7422V131.242H69.9961C70.3516 131.242 70.6523 131.37 70.8984 131.625C71.1536 131.871 71.2812 132.172 71.2812 132.527V133.812C71.2812 134.168 71.1536 134.473 70.8984 134.729C70.6523 134.975 70.3516 135.098 69.9961 135.098H59.7422V139.131H71.623C71.9694 139.131 72.2656 139.254 72.5117 139.5C72.7578 139.746 72.8809 140.047 72.8809 140.402V141.715C72.8809 142.07 72.7533 142.376 72.498 142.631C72.2428 142.877 71.9375 143 71.582 143H55.8867C55.5312 143 55.2259 142.877 54.9707 142.631C54.7155 142.376 54.5879 142.061 54.5879 141.688ZM75.4512 141.715V124.693C75.4512 124.338 75.5742 124.033 75.8203 123.777C76.0664 123.522 76.3672 123.395 76.7227 123.395H87.1543C92.6686 123.395 95.4258 125.938 95.4258 131.023C95.4258 136.1 92.6686 138.639 87.1543 138.639H80.6055V141.715C80.6055 142.07 80.4779 142.376 80.2227 142.631C79.9766 142.877 79.6758 143 79.3203 143H76.75C76.3945 143 76.0892 142.877 75.834 142.631C75.5788 142.376 75.4512 142.07 75.4512 141.715ZM80.6055 134.77H85.5957C87.127 134.77 88.2891 134.514 89.082 134.004C89.875 133.484 90.2715 132.491 90.2715 131.023C90.2715 129.547 89.875 128.553 89.082 128.043C88.2891 127.523 87.127 127.264 85.5957 127.264H80.6055V134.77ZM97.9551 141.742V124.693C97.9551 124.32 98.0781 124.01 98.3242 123.764C98.5703 123.518 98.8802 123.395 99.2539 123.395H112.461C112.835 123.395 113.14 123.518 113.377 123.764C113.623 124.01 113.746 124.32 113.746 124.693V125.979C113.746 126.352 113.623 126.662 113.377 126.908C113.14 127.145 112.835 127.264 112.461 127.264H103.109V141.742C103.109 142.098 102.982 142.398 102.727 142.645C102.48 142.882 102.18 143 101.824 143H99.2539C98.8984 143 98.5931 142.882 98.3379 142.645C98.0827 142.398 97.9551 142.098 97.9551 141.742ZM133.68 140.977C131.82 142.608 129.086 143.424 125.477 143.424C121.876 143.424 119.142 142.608 117.273 140.977C115.405 139.336 114.471 136.743 114.471 133.197C114.471 129.652 115.405 127.063 117.273 125.432C119.142 123.8 121.876 122.984 125.477 122.984C129.086 122.984 131.82 123.8 133.68 125.432C135.548 127.063 136.482 129.652 136.482 133.197C136.482 136.743 135.548 139.336 133.68 140.977ZM129.947 128.316C129.027 127.223 127.536 126.676 125.477 126.676C123.426 126.676 121.936 127.223 121.006 128.316C120.085 129.41 119.625 131.042 119.625 133.211C119.625 135.371 120.085 136.998 121.006 138.092C121.936 139.176 123.426 139.719 125.477 139.719C127.536 139.719 129.027 139.176 129.947 138.092C130.868 136.998 131.328 135.371 131.328 133.211C131.328 131.042 130.868 129.41 129.947 128.316ZM149.115 141.715V124.693C149.115 124.338 149.243 124.033 149.498 123.777C149.753 123.522 150.068 123.395 150.441 123.395H153.039C153.395 123.395 153.695 123.522 153.941 123.777C154.197 124.033 154.324 124.338 154.324 124.693V130.818H156.881C157.646 125.596 161.06 122.984 167.121 122.984C174.048 122.984 177.512 126.393 177.512 133.211C177.512 140.02 174.048 143.424 167.121 143.424C160.741 143.424 157.3 140.521 156.799 134.715H154.324V141.742C154.324 142.098 154.197 142.398 153.941 142.645C153.695 142.882 153.395 143 153.039 143H150.441C150.086 143 149.776 142.877 149.512 142.631C149.247 142.376 149.115 142.07 149.115 141.715ZM167.121 126.676C163.63 126.676 161.885 128.85 161.885 133.197C161.885 137.545 163.63 139.719 167.121 139.719C170.612 139.719 172.357 137.545 172.357 133.197C172.357 128.85 170.612 126.676 167.121 126.676ZM180.314 141.742V124.693C180.314 124.32 180.438 124.01 180.684 123.764C180.93 123.518 181.24 123.395 181.613 123.395H194.82C195.194 123.395 195.499 123.518 195.736 123.764C195.982 124.01 196.105 124.32 196.105 124.693V125.979C196.105 126.352 195.982 126.662 195.736 126.908C195.499 127.145 195.194 127.264 194.82 127.264H185.469V141.742C185.469 142.098 185.341 142.398 185.086 142.645C184.84 142.882 184.539 143 184.184 143H181.613C181.258 143 180.952 142.882 180.697 142.645C180.442 142.398 180.314 142.098 180.314 141.742ZM206.564 141.742L209.996 128.727C210.926 125.181 213.952 123.404 219.074 123.395H226.443C226.781 123.395 227.059 123.522 227.277 123.777C227.505 124.033 227.619 124.329 227.619 124.666V141.742C227.619 142.098 227.492 142.398 227.236 142.645C226.981 142.882 226.676 143 226.32 143H223.75C223.376 143 223.066 142.882 222.82 142.645C222.583 142.398 222.465 142.089 222.465 141.715V138.27H212.744L211.828 141.715C211.737 142.089 211.532 142.398 211.213 142.645C210.894 142.882 210.557 143 210.201 143H207.508C207.152 143 206.897 142.9 206.742 142.699C206.587 142.49 206.51 142.307 206.51 142.152C206.519 141.997 206.537 141.861 206.564 141.742ZM213.756 134.4H222.465V127.264H218.568C217.693 127.264 216.928 127.514 216.271 128.016C215.624 128.508 215.187 129.173 214.959 130.012L213.756 134.4ZM229.916 141.852L233.389 128.727C234.318 125.181 237.34 123.404 242.453 123.395H249.289C249.608 123.395 249.877 123.527 250.096 123.791C250.324 124.055 250.438 124.356 250.438 124.693V141.715C250.438 142.07 250.314 142.376 250.068 142.631C249.831 142.877 249.535 143 249.18 143H246.568C246.213 143 245.908 142.877 245.652 142.631C245.406 142.376 245.283 142.07 245.283 141.715V127.264H241.947C241.072 127.264 240.307 127.514 239.65 128.016C239.003 128.508 238.566 129.173 238.338 130.012L235.207 141.715C235.116 142.089 234.911 142.398 234.592 142.645C234.273 142.882 233.936 143 233.58 143H230.805C230.486 143 230.249 142.9 230.094 142.699C229.948 142.499 229.875 142.33 229.875 142.193C229.884 142.057 229.898 141.943 229.916 141.852ZM254.361 141.688V124.693C254.361 124.32 254.484 124.01 254.73 123.764C254.977 123.518 255.286 123.395 255.66 123.395H258.23C258.586 123.395 258.887 123.522 259.133 123.777C259.388 124.033 259.516 124.338 259.516 124.693V130.066H266.27C268.421 130.066 270.198 130.636 271.602 131.775C273.014 132.915 273.721 134.501 273.721 136.533C273.721 138.566 273.014 140.152 271.602 141.291C270.189 142.43 268.411 143 266.27 143H255.592C255.255 143 254.963 142.872 254.717 142.617C254.48 142.353 254.361 142.043 254.361 141.688ZM259.516 139.131H266.27C267.801 139.131 268.566 138.265 268.566 136.533C268.566 134.792 267.801 133.922 266.27 133.922H259.516V139.131ZM275.143 142.221C275.143 142.075 275.202 141.906 275.32 141.715L279.094 135.494C276.514 134.373 275.229 132.468 275.238 129.779C275.238 127.747 275.94 126.174 277.344 125.062C278.757 123.951 280.525 123.395 282.648 123.395H293.354C293.691 123.395 293.978 123.518 294.215 123.764C294.461 124.01 294.584 124.311 294.584 124.666V141.742C294.584 142.098 294.456 142.398 294.201 142.645C293.955 142.882 293.654 143 293.299 143H290.715C290.359 143 290.054 142.877 289.799 142.631C289.553 142.376 289.43 142.07 289.43 141.715V136.055H284.535L281.254 141.742C280.789 142.581 280.128 143 279.271 143H275.826C275.37 143 275.143 142.74 275.143 142.221ZM282.648 127.264C281.135 127.264 280.379 128.066 280.379 129.67C280.379 131.274 281.135 132.076 282.648 132.076H289.43V127.264H282.648ZM298.494 141.715V124.693C298.494 124.338 298.622 124.033 298.877 123.777C299.132 123.522 299.447 123.395 299.82 123.395H302.363C302.719 123.395 303.02 123.522 303.266 123.777C303.521 124.033 303.648 124.338 303.648 124.693V130.846H313.055V124.693C313.055 124.338 313.182 124.033 313.438 123.777C313.693 123.522 313.998 123.395 314.354 123.395H316.896C317.27 123.395 317.58 123.522 317.826 123.777C318.081 124.033 318.209 124.338 318.209 124.693V141.715C318.209 142.07 318.077 142.376 317.812 142.631C317.557 142.877 317.252 143 316.896 143H314.354C313.998 143 313.693 142.882 313.438 142.645C313.182 142.398 313.055 142.098 313.055 141.742V134.715H303.648V141.742C303.648 142.098 303.521 142.398 303.266 142.645C303.02 142.882 302.719 143 302.363 143H299.82C299.465 143 299.155 142.877 298.891 142.631C298.626 142.376 298.494 142.07 298.494 141.715ZM323.555 140.689C321.868 139.076 321.025 136.583 321.025 133.211C321.025 129.829 321.868 127.332 323.555 125.719C325.25 124.096 327.788 123.285 331.17 123.285H334.219C336.288 123.285 338.115 123.823 339.701 124.898C341.296 125.974 342.094 127.446 342.094 129.314C342.094 129.852 341.934 130.24 341.615 130.477C341.296 130.704 340.986 130.818 340.686 130.818H339.059C338.22 130.818 337.568 130.317 337.104 129.314C336.429 127.874 335.308 127.154 333.74 127.154H331.307C329.311 127.154 327.957 127.583 327.246 128.439C326.535 129.296 326.18 130.882 326.18 133.197C326.18 135.512 326.535 137.103 327.246 137.969C327.957 138.826 329.311 139.254 331.307 139.254H334.027C335.595 139.254 336.712 138.534 337.377 137.094C337.842 136.082 338.498 135.576 339.346 135.576H340.973C341.401 135.576 341.738 135.736 341.984 136.055C342.24 136.374 342.367 136.72 342.367 137.094C342.367 138.962 341.574 140.434 339.988 141.51C338.402 142.576 336.575 143.109 334.506 143.109H331.17C327.788 143.109 325.25 142.303 323.555 140.689Z" fill="#1965A4"/>
</svg>
