<svg width="447" height="72" viewBox="0 0 447 72" fill="none" xmlns="http://www.w3.org/2000/svg">
<path d="M31.8923 0.0469286C31.8768 0.203356 31.7993 0.297213 31.7528 0.406712C30.9471 2.03356 30.1414 3.64475 29.3356 5.2716C29.0412 5.85038 29.0412 5.86602 28.4214 5.95988C25.9112 6.38223 23.494 7.16437 21.2008 8.25936C19.047 9.29178 17.0482 10.5901 15.2353 12.17C14.2436 13.0304 13.3294 13.9377 12.4617 14.9232C11.0671 16.5031 9.88951 18.2238 8.88234 20.0696C7.73572 22.197 6.8835 24.4339 6.32568 26.796C6.04677 28.0161 5.84534 29.2675 5.70589 30.519C5.53544 32.0676 5.51995 33.6162 5.61292 35.1648C5.72138 37.0107 6.01578 38.8252 6.49613 40.6085C6.94548 42.2354 7.5033 43.8153 8.23156 45.3326C8.6964 46.3025 9.19224 47.2567 9.78105 48.1483C10.5868 49.4154 11.4855 50.6199 12.4927 51.7461C13.2209 52.5596 13.9957 53.3417 14.8169 54.0613C15.5761 54.7339 16.3819 55.3752 17.2186 55.954C18.6131 56.9239 20.0697 57.7686 21.6037 58.4569C23.3856 59.2546 25.2295 59.8647 27.1353 60.2558C27.6002 60.3496 28.0495 60.4278 28.5144 60.5217C28.8553 60.5843 28.8708 60.5843 29.0102 60.2558C29.4751 59.2077 29.9399 58.1596 30.4048 57.1116C31.319 55.0311 32.2487 52.935 33.1629 50.8545C34.4489 47.9606 35.7195 45.0667 37.0056 42.1728C37.238 41.6409 37.4705 41.1247 37.7029 40.6085C37.7494 40.5147 37.7803 40.4208 37.8113 40.3269C37.9663 39.8577 37.6874 39.451 37.207 39.451C36.7887 39.451 36.3703 39.4979 35.952 39.5292C34.8983 39.6074 33.8291 39.6856 32.7755 39.7794C31.8458 39.8577 30.9006 39.9202 29.9709 39.9984C28.6848 40.1079 27.4143 40.2018 26.1282 40.3113C25.1985 40.3739 24.2843 40.4677 23.3546 40.5303C22.3164 40.6085 21.2628 40.718 20.2246 40.7962C19.3879 40.8588 18.5512 40.9057 17.7144 40.9683C16.8467 41.0309 15.9945 41.1091 15.1268 41.1873C15.0183 41.2029 14.9099 41.2186 14.7859 41.1716C14.7859 40.9996 14.8634 40.8588 14.9409 40.718C15.5761 39.404 16.2269 38.09 16.8622 36.7917C16.9552 36.5883 17.0482 36.385 17.1411 36.1816C17.3426 35.7749 17.6525 35.5872 18.1173 35.5559C19.047 35.509 19.9612 35.4621 20.8909 35.3838C21.6192 35.3213 22.3474 35.29 23.0757 35.2274C24.1913 35.1492 25.3224 35.071 26.4381 34.9928C27.1818 34.9458 27.9101 34.8989 28.6538 34.852C29.8624 34.7738 31.0711 34.633 32.2642 34.6017C33.2713 34.5704 34.263 34.4453 35.2547 34.3983C36.4788 34.3514 37.6874 34.2263 38.9115 34.1324C39.5313 34.0855 40.1511 34.0699 40.7554 34.0229C41.6076 33.9604 42.4443 33.8665 43.2965 33.8352C44.0868 33.8039 44.6601 34.4453 44.3347 35.29C44.2882 35.3995 44.2417 35.4933 44.1797 35.5872C42.1189 39.7482 40.0426 43.8935 37.9818 48.0545C36.4788 51.0735 35.0068 54.0925 33.4883 57.0959C32.0782 59.896 30.6992 62.7273 29.2891 65.543C29.2427 65.6212 29.2117 65.6994 29.1807 65.7776C29.0102 66.0905 28.7623 66.2313 28.4214 66.1687C27.7706 66.0592 27.1353 65.9497 26.4846 65.8246C24.1758 65.3709 21.9446 64.6514 19.7753 63.6972C17.9159 62.8838 16.134 61.8983 14.445 60.7407C12.9885 59.7396 11.6094 58.6133 10.3234 57.3932C9.09927 56.2199 7.96814 54.9685 6.92998 53.6233C5.79885 52.1685 4.80718 50.6199 3.93947 48.9774C3.45912 48.0857 3.04076 47.1785 2.63789 46.2399C2.20404 45.2388 1.84765 44.1907 1.50677 43.1426C1.13489 41.9694 0.840484 40.7649 0.608061 39.5604C0.422122 38.5593 0.267173 37.5425 0.174204 36.5258C0.0967293 35.6341 0.0657395 34.7268 0.0192548 33.8352C-0.02723 32.8966 0.019254 31.9581 0.0657388 31.0352C0.127718 29.7994 0.298163 28.5636 0.515091 27.3278C0.794 25.7323 1.19687 24.1524 1.7082 22.6194C2.12656 21.3523 2.63789 20.1165 3.19571 18.9121C4.20288 16.7534 5.44247 14.7354 6.8835 12.8583C7.53429 12.0136 8.23156 11.2002 8.95982 10.4181C10.1839 9.10407 11.501 7.89958 12.911 6.80458C13.8562 6.06938 14.8324 5.39674 15.8551 4.78667C17.3116 3.89504 18.8146 3.12855 20.3796 2.47155C22.146 1.73634 23.9589 1.15756 25.8183 0.750851C27.2128 0.437997 28.6384 0.218999 30.0639 0.0938573C30.5752 0.0469291 31.0711 0 31.5824 0C31.7218 0.0312854 31.7993 0.0469286 31.8923 0.0469286Z" fill="#1965A4"/>
<path d="M49.278 25.357C49.1386 25.6542 49.0301 25.9045 48.9061 26.1391C48.2399 27.5 47.5581 28.8766 46.9073 30.2531C46.6749 30.7537 46.303 30.9727 45.7762 30.9884C44.831 31.004 43.9013 31.1135 42.9716 31.1604C42.2278 31.1917 41.4996 31.2543 40.7558 31.3169C39.9191 31.3794 39.0824 31.4264 38.2457 31.5046C37.6878 31.5515 37.13 31.5671 36.5877 31.6141C35.658 31.6766 34.7438 31.7236 33.8141 31.8018C33.3338 31.8331 32.8534 31.8643 32.3731 31.8956C31.3659 31.9738 30.3587 32.0208 29.3516 32.099C28.7628 32.1459 28.174 32.1772 27.5697 32.2085C26.7019 32.2711 25.8497 32.318 24.982 32.3962C24.4552 32.4431 23.9284 32.4744 23.386 32.4901C22.4408 32.537 21.5112 32.6308 20.5815 32.6621C20.1011 32.6778 19.7912 32.3806 19.6363 32.0051C19.5278 31.7236 19.5898 31.4576 19.6982 31.2074C19.8067 30.9571 19.9307 30.7068 20.0546 30.4721C22.3324 25.8732 24.5946 21.2742 26.9034 16.6909C29.5375 11.4506 32.1252 6.179 34.7438 0.938684C34.9917 0.438117 35.2241 0.34426 35.7975 0.422474C37.1455 0.625829 38.4781 0.891757 39.7796 1.26718C40.7868 1.54875 41.763 1.86161 42.7392 2.23703C43.9168 2.69067 45.0479 3.19124 46.1636 3.77002C47.744 4.59908 49.2315 5.53764 50.6571 6.60135C52.2995 7.83712 53.818 9.21369 55.2126 10.7154C56.1578 11.7322 57.0255 12.8272 57.8312 13.9691C58.9778 15.5959 59.9695 17.301 60.8217 19.0999C61.6894 20.9301 62.3712 22.8385 62.8826 24.7938C63.1925 25.967 63.4249 27.1402 63.6108 28.3447C63.7503 29.3146 63.8277 30.3001 63.9207 31.2856C64.0292 32.5213 64.0137 33.7571 63.9517 34.9929C63.8897 36.3851 63.7193 37.7773 63.4714 39.1539C63.146 40.9371 62.6966 42.6891 62.1078 44.3942C61.612 45.8333 61.0077 47.2411 60.3104 48.5864C59.5047 50.1663 58.575 51.668 57.5213 53.0915C56.8241 54.0301 56.0803 54.9374 55.3055 55.7977C54.0969 57.143 52.7644 58.3631 51.3698 59.4894C50.1303 60.4749 48.8287 61.3665 47.4651 62.1487C45.8846 63.0559 44.2422 63.8381 42.5377 64.4794C41.4066 64.9018 40.2445 65.2616 39.0669 65.5744C37.7188 65.9186 36.3708 66.1688 34.9917 66.3409C34.2015 66.4504 33.3957 66.5443 32.59 66.5286C32.4506 66.5286 32.2956 66.5443 32.1562 66.5599C32.1097 66.4191 32.1871 66.3253 32.2491 66.2314C33.1168 64.4794 33.9846 62.7431 34.8368 60.9911C34.9452 60.7721 35.0692 60.6782 35.3171 60.647C37.0371 60.381 38.695 59.9274 40.3375 59.3486C42.2278 58.6603 44.0253 57.7687 45.7297 56.6893C46.8143 56.0011 47.837 55.2033 48.8287 54.3742C49.371 53.9206 49.8668 53.4357 50.3627 52.9507C51.6642 51.6524 52.8109 50.2445 53.8335 48.7116C55.3985 46.3495 56.5761 43.7997 57.3819 41.0623C57.7847 39.717 58.0636 38.3561 58.2341 36.9639C58.3271 36.1817 58.4045 35.3996 58.4355 34.6175C58.451 33.9918 58.482 33.3661 58.482 32.7403C58.4665 31.7861 58.389 30.8476 58.2961 29.909C58.1566 28.4073 57.8312 26.9525 57.4283 25.5134C57.1649 24.5279 56.8086 23.5581 56.4212 22.6195C55.569 20.5234 54.4688 18.5837 53.1363 16.7535C52.532 15.9244 51.8812 15.1423 51.1839 14.3914C50.6106 13.7657 49.9908 13.1869 49.3865 12.6082C48.8132 12.0607 48.1779 11.5757 47.5581 11.0908C46.5664 10.34 45.5283 9.66732 44.4436 9.05726C43.5139 8.54105 42.5687 8.10305 41.5926 7.69634C40.167 7.10192 38.695 6.66392 37.2075 6.31978C36.6342 6.179 36.0454 6.10078 35.4566 5.99128C35.2551 5.94436 35.1467 6.02257 35.0692 6.22592C34.4184 7.71198 33.7676 9.19804 33.1168 10.6841C32.6675 11.7009 32.2181 12.7177 31.7688 13.7188C30.8546 15.7836 29.9404 17.8485 29.0262 19.9133C28.4529 21.2117 27.8641 22.51 27.2908 23.8083C26.9499 24.5592 26.609 25.31 26.2836 26.0609C26.0202 26.671 26.4075 27.1402 26.9654 27.0933C27.8176 27.0151 28.6543 26.9369 29.5065 26.8743C29.9559 26.843 30.4207 26.8118 30.8701 26.7805C31.6758 26.7179 32.497 26.6397 33.3028 26.5771C33.6902 26.5458 34.062 26.5302 34.4494 26.4989C35.3171 26.4363 36.1693 26.3738 37.0371 26.2955C37.5019 26.2486 37.9667 26.2173 38.4471 26.186C39.2528 26.1235 40.0431 26.0453 40.8488 25.9827C41.3291 25.9514 41.8095 25.9201 42.2898 25.8888C43.0646 25.8263 43.8393 25.748 44.6141 25.6855C45.0479 25.6542 45.4818 25.6229 45.9001 25.5916C46.8453 25.5134 47.7905 25.4352 48.7357 25.3726C48.8752 25.3413 49.0456 25.357 49.278 25.357Z" fill="#8AB5DC"/>
<path d="M73.9551 44.6875V27.666C73.9551 27.3105 74.0827 27.0098 74.3379 26.7637C74.5931 26.5176 74.8984 26.3945 75.2539 26.3945H91.0176C91.373 26.3945 91.6738 26.5221 91.9199 26.7773C92.1751 27.0326 92.3027 27.3379 92.3027 27.6934V28.9785C92.3027 29.334 92.1751 29.6393 91.9199 29.8945C91.6738 30.1406 91.373 30.2637 91.0176 30.2637H79.1094V34.2422H89.3633C89.7188 34.2422 90.0195 34.3698 90.2656 34.625C90.5208 34.8711 90.6484 35.1719 90.6484 35.5273V36.8125C90.6484 37.168 90.5208 37.4733 90.2656 37.7285C90.0195 37.9746 89.7188 38.0977 89.3633 38.0977H79.1094V42.1309H90.9902C91.3366 42.1309 91.6328 42.2539 91.8789 42.5C92.125 42.7461 92.248 43.0469 92.248 43.4023V44.7148C92.248 45.0703 92.1204 45.3757 91.8652 45.6309C91.61 45.877 91.3047 46 90.9492 46H75.2539C74.8984 46 74.5931 45.877 74.3379 45.6309C74.0827 45.3757 73.9551 45.0612 73.9551 44.6875ZM94.8184 44.7148V27.6934C94.8184 27.3379 94.946 27.0326 95.2012 26.7773C95.4564 26.5221 95.7708 26.3945 96.1445 26.3945H98.6875C99.043 26.3945 99.3438 26.5221 99.5898 26.7773C99.8451 27.0326 99.9727 27.3379 99.9727 27.6934V33.8457H109.379V27.6934C109.379 27.3379 109.507 27.0326 109.762 26.7773C110.017 26.5221 110.322 26.3945 110.678 26.3945H113.221C113.594 26.3945 113.904 26.5221 114.15 26.7773C114.406 27.0326 114.533 27.3379 114.533 27.6934V44.7148C114.533 45.0703 114.401 45.3757 114.137 45.6309C113.882 45.877 113.576 46 113.221 46H110.678C110.322 46 110.017 45.8815 109.762 45.6445C109.507 45.3984 109.379 45.0977 109.379 44.7422V37.7148H99.9727V44.7422C99.9727 45.0977 99.8451 45.3984 99.5898 45.6445C99.3438 45.8815 99.043 46 98.6875 46H96.1445C95.7891 46 95.4792 45.877 95.2148 45.6309C94.9505 45.3757 94.8184 45.0703 94.8184 44.7148ZM118.471 44.6875V27.666C118.471 27.3105 118.598 27.0098 118.854 26.7637C119.109 26.5176 119.414 26.3945 119.77 26.3945H135.533C135.889 26.3945 136.189 26.5221 136.436 26.7773C136.691 27.0326 136.818 27.3379 136.818 27.6934V28.9785C136.818 29.334 136.691 29.6393 136.436 29.8945C136.189 30.1406 135.889 30.2637 135.533 30.2637H123.625V34.2422H133.879C134.234 34.2422 134.535 34.3698 134.781 34.625C135.036 34.8711 135.164 35.1719 135.164 35.5273V36.8125C135.164 37.168 135.036 37.4733 134.781 37.7285C134.535 37.9746 134.234 38.0977 133.879 38.0977H123.625V42.1309H135.506C135.852 42.1309 136.148 42.2539 136.395 42.5C136.641 42.7461 136.764 43.0469 136.764 43.4023V44.7148C136.764 45.0703 136.636 45.3757 136.381 45.6309C136.126 45.877 135.82 46 135.465 46H119.77C119.414 46 119.109 45.877 118.854 45.6309C118.598 45.3757 118.471 45.0612 118.471 44.6875ZM139.334 44.7148V27.6934C139.334 27.3379 139.457 27.0326 139.703 26.7773C139.949 26.5221 140.25 26.3945 140.605 26.3945H151.037C156.551 26.3945 159.309 28.9375 159.309 34.0234C159.309 39.1003 156.551 41.6387 151.037 41.6387H144.488V44.7148C144.488 45.0703 144.361 45.3757 144.105 45.6309C143.859 45.877 143.559 46 143.203 46H140.633C140.277 46 139.972 45.877 139.717 45.6309C139.462 45.3757 139.334 45.0703 139.334 44.7148ZM144.488 37.7695H149.479C151.01 37.7695 152.172 37.5143 152.965 37.0039C153.758 36.4844 154.154 35.4909 154.154 34.0234C154.154 32.5469 153.758 31.5534 152.965 31.043C152.172 30.5234 151.01 30.2637 149.479 30.2637H144.488V37.7695ZM161.838 44.7422V27.6934C161.838 27.3197 161.961 27.0098 162.207 26.7637C162.453 26.5176 162.763 26.3945 163.137 26.3945H176.344C176.717 26.3945 177.023 26.5176 177.26 26.7637C177.506 27.0098 177.629 27.3197 177.629 27.6934V28.9785C177.629 29.3522 177.506 29.6621 177.26 29.9082C177.023 30.1452 176.717 30.2637 176.344 30.2637H166.992V44.7422C166.992 45.0977 166.865 45.3984 166.609 45.6445C166.363 45.8815 166.062 46 165.707 46H163.137C162.781 46 162.476 45.8815 162.221 45.6445C161.965 45.3984 161.838 45.0977 161.838 44.7422ZM197.562 43.9766C195.703 45.6081 192.969 46.4238 189.359 46.4238C185.759 46.4238 183.025 45.6081 181.156 43.9766C179.288 42.3359 178.354 39.7428 178.354 36.1973C178.354 32.6517 179.288 30.0632 181.156 28.4316C183.025 26.8001 185.759 25.9844 189.359 25.9844C192.969 25.9844 195.703 26.8001 197.562 28.4316C199.431 30.0632 200.365 32.6517 200.365 36.1973C200.365 39.7428 199.431 42.3359 197.562 43.9766ZM193.83 31.3164C192.91 30.2227 191.419 29.6758 189.359 29.6758C187.309 29.6758 185.818 30.2227 184.889 31.3164C183.968 32.4102 183.508 34.0417 183.508 36.2109C183.508 38.3711 183.968 39.998 184.889 41.0918C185.818 42.1764 187.309 42.7188 189.359 42.7188C191.419 42.7188 192.91 42.1764 193.83 41.0918C194.751 39.998 195.211 38.3711 195.211 36.2109C195.211 34.0417 194.751 32.4102 193.83 31.3164ZM212.998 44.7148V27.6934C212.998 27.3379 213.126 27.0326 213.381 26.7773C213.636 26.5221 213.951 26.3945 214.324 26.3945H216.922C217.277 26.3945 217.578 26.5221 217.824 26.7773C218.079 27.0326 218.207 27.3379 218.207 27.6934V33.8184H220.764C221.529 28.5957 224.943 25.9844 231.004 25.9844C237.931 25.9844 241.395 29.3932 241.395 36.2109C241.395 43.0195 237.931 46.4238 231.004 46.4238C224.624 46.4238 221.183 43.5208 220.682 37.7148H218.207V44.7422C218.207 45.0977 218.079 45.3984 217.824 45.6445C217.578 45.8815 217.277 46 216.922 46H214.324C213.969 46 213.659 45.877 213.395 45.6309C213.13 45.3757 212.998 45.0703 212.998 44.7148ZM231.004 29.6758C227.513 29.6758 225.768 31.8496 225.768 36.1973C225.768 40.5449 227.513 42.7188 231.004 42.7188C234.495 42.7188 236.24 40.5449 236.24 36.1973C236.24 31.8496 234.495 29.6758 231.004 29.6758ZM244.197 44.7422V27.6934C244.197 27.3197 244.32 27.0098 244.566 26.7637C244.812 26.5176 245.122 26.3945 245.496 26.3945H258.703C259.077 26.3945 259.382 26.5176 259.619 26.7637C259.865 27.0098 259.988 27.3197 259.988 27.6934V28.9785C259.988 29.3522 259.865 29.6621 259.619 29.9082C259.382 30.1452 259.077 30.2637 258.703 30.2637H249.352V44.7422C249.352 45.0977 249.224 45.3984 248.969 45.6445C248.723 45.8815 248.422 46 248.066 46H245.496C245.141 46 244.835 45.8815 244.58 45.6445C244.325 45.3984 244.197 45.0977 244.197 44.7422ZM270.447 44.7422L273.879 31.7266C274.809 28.181 277.835 26.4036 282.957 26.3945H290.326C290.663 26.3945 290.941 26.5221 291.16 26.7773C291.388 27.0326 291.502 27.3288 291.502 27.666V44.7422C291.502 45.0977 291.374 45.3984 291.119 45.6445C290.864 45.8815 290.559 46 290.203 46H287.633C287.259 46 286.949 45.8815 286.703 45.6445C286.466 45.3984 286.348 45.0885 286.348 44.7148V41.2695H276.627L275.711 44.7148C275.62 45.0885 275.415 45.3984 275.096 45.6445C274.777 45.8815 274.439 46 274.084 46H271.391C271.035 46 270.78 45.8997 270.625 45.6992C270.47 45.4896 270.393 45.3073 270.393 45.1523C270.402 44.9974 270.42 44.8607 270.447 44.7422ZM277.639 37.4004H286.348V30.2637H282.451C281.576 30.2637 280.811 30.5143 280.154 31.0156C279.507 31.5078 279.07 32.1732 278.842 33.0117L277.639 37.4004ZM293.799 44.8516L297.271 31.7266C298.201 28.181 301.223 26.4036 306.336 26.3945H313.172C313.491 26.3945 313.76 26.5267 313.979 26.791C314.206 27.0553 314.32 27.3561 314.32 27.6934V44.7148C314.32 45.0703 314.197 45.3757 313.951 45.6309C313.714 45.877 313.418 46 313.062 46H310.451C310.096 46 309.79 45.877 309.535 45.6309C309.289 45.3757 309.166 45.0703 309.166 44.7148V30.2637H305.83C304.955 30.2637 304.189 30.5143 303.533 31.0156C302.886 31.5078 302.449 32.1732 302.221 33.0117L299.09 44.7148C298.999 45.0885 298.794 45.3984 298.475 45.6445C298.156 45.8815 297.818 46 297.463 46H294.688C294.368 46 294.132 45.8997 293.977 45.6992C293.831 45.4987 293.758 45.3301 293.758 45.1934C293.767 45.0566 293.781 44.9427 293.799 44.8516ZM318.244 44.6875V27.6934C318.244 27.3197 318.367 27.0098 318.613 26.7637C318.859 26.5176 319.169 26.3945 319.543 26.3945H322.113C322.469 26.3945 322.77 26.5221 323.016 26.7773C323.271 27.0326 323.398 27.3379 323.398 27.6934V33.0664H330.152C332.303 33.0664 334.081 33.6361 335.484 34.7754C336.897 35.9147 337.604 37.5007 337.604 39.5332C337.604 41.5658 336.897 43.1517 335.484 44.291C334.072 45.4303 332.294 46 330.152 46H319.475C319.137 46 318.846 45.8724 318.6 45.6172C318.363 45.3529 318.244 45.043 318.244 44.6875ZM323.398 42.1309H330.152C331.684 42.1309 332.449 41.265 332.449 39.5332C332.449 37.7923 331.684 36.9219 330.152 36.9219H323.398V42.1309ZM339.025 45.2207C339.025 45.0749 339.085 44.9062 339.203 44.7148L342.977 38.4941C340.397 37.373 339.112 35.4681 339.121 32.7793C339.121 30.7467 339.823 29.1745 341.227 28.0625C342.639 26.9505 344.408 26.3945 346.531 26.3945H357.236C357.574 26.3945 357.861 26.5176 358.098 26.7637C358.344 27.0098 358.467 27.3105 358.467 27.666V44.7422C358.467 45.0977 358.339 45.3984 358.084 45.6445C357.838 45.8815 357.537 46 357.182 46H354.598C354.242 46 353.937 45.877 353.682 45.6309C353.436 45.3757 353.312 45.0703 353.312 44.7148V39.0547H348.418L345.137 44.7422C344.672 45.5807 344.011 46 343.154 46H339.709C339.253 46 339.025 45.7402 339.025 45.2207ZM346.531 30.2637C345.018 30.2637 344.262 31.0658 344.262 32.6699C344.262 34.2741 345.018 35.0762 346.531 35.0762H353.312V30.2637H346.531ZM362.377 44.7148V27.6934C362.377 27.3379 362.505 27.0326 362.76 26.7773C363.015 26.5221 363.329 26.3945 363.703 26.3945H366.246C366.602 26.3945 366.902 26.5221 367.148 26.7773C367.404 27.0326 367.531 27.3379 367.531 27.6934V33.8457H376.938V27.6934C376.938 27.3379 377.065 27.0326 377.32 26.7773C377.576 26.5221 377.881 26.3945 378.236 26.3945H380.779C381.153 26.3945 381.463 26.5221 381.709 26.7773C381.964 27.0326 382.092 27.3379 382.092 27.6934V44.7148C382.092 45.0703 381.96 45.3757 381.695 45.6309C381.44 45.877 381.135 46 380.779 46H378.236C377.881 46 377.576 45.8815 377.32 45.6445C377.065 45.3984 376.938 45.0977 376.938 44.7422V37.7148H367.531V44.7422C367.531 45.0977 367.404 45.3984 367.148 45.6445C366.902 45.8815 366.602 46 366.246 46H363.703C363.348 46 363.038 45.877 362.773 45.6309C362.509 45.3757 362.377 45.0703 362.377 44.7148ZM387.438 43.6895C385.751 42.0762 384.908 39.5833 384.908 36.2109C384.908 32.8294 385.751 30.332 387.438 28.7188C389.133 27.0964 391.671 26.2852 395.053 26.2852H398.102C400.171 26.2852 401.998 26.8229 403.584 27.8984C405.179 28.974 405.977 30.446 405.977 32.3145C405.977 32.8522 405.817 33.2396 405.498 33.4766C405.179 33.7044 404.869 33.8184 404.568 33.8184H402.941C402.103 33.8184 401.451 33.3171 400.986 32.3145C400.312 30.8743 399.191 30.1543 397.623 30.1543H395.189C393.193 30.1543 391.84 30.5827 391.129 31.4395C390.418 32.2962 390.062 33.8822 390.062 36.1973C390.062 38.5124 390.418 40.1029 391.129 40.9688C391.84 41.8255 393.193 42.2539 395.189 42.2539H397.91C399.478 42.2539 400.594 41.5339 401.26 40.0938C401.725 39.082 402.381 38.5762 403.229 38.5762H404.855C405.284 38.5762 405.621 38.7357 405.867 39.0547C406.122 39.3737 406.25 39.7201 406.25 40.0938C406.25 41.9622 405.457 43.4342 403.871 44.5098C402.285 45.5762 400.458 46.1094 398.389 46.1094H395.053C391.671 46.1094 389.133 45.3027 387.438 43.6895Z" fill="#1965A4"/>
</svg>
