<svg width="145" height="79" viewBox="0 0 145 79" fill="none" xmlns="http://www.w3.org/2000/svg">
<path d="M73.994 0.0338939C73.9829 0.146872 73.9275 0.21466 73.8943 0.293745C73.3183 1.46872 72.7423 2.6324 72.1663 3.80738C71.9558 4.2254 71.9558 4.2367 71.5127 4.30448C69.7182 4.60953 67.9902 5.17442 66.3508 5.96527C64.811 6.71093 63.3821 7.64865 62.0861 8.78973C61.3771 9.41111 60.7236 10.0664 60.1032 10.7782C59.1063 11.9192 58.2644 13.162 57.5444 14.4951C56.7247 16.0317 56.1155 17.6472 55.7167 19.3532C55.5173 20.2345 55.3733 21.1383 55.2736 22.0421C55.1518 23.1606 55.1407 24.2791 55.2071 25.3976C55.2847 26.7307 55.4951 28.0413 55.8385 29.3292C56.1598 30.5042 56.5585 31.6453 57.0792 32.7412C57.4115 33.4417 57.766 34.1308 58.1869 34.7748C58.7629 35.6899 59.4054 36.5599 60.1254 37.3733C60.646 37.9608 61.1999 38.5257 61.787 39.0454C62.3297 39.5312 62.9058 39.9944 63.5039 40.4124C64.5009 41.1129 65.5421 41.723 66.6388 42.2201C67.9126 42.7963 69.2308 43.2369 70.5933 43.5193C70.9256 43.5871 71.2469 43.6436 71.5792 43.7114C71.8229 43.7566 71.8339 43.7566 71.9336 43.5193C72.266 42.7624 72.5983 42.0054 72.9306 41.2485C73.5841 39.7459 74.2488 38.2319 74.9023 36.7293C75.8217 34.6392 76.73 32.5491 77.6495 30.459C77.8156 30.0749 77.9818 29.7021 78.1479 29.3292C78.1812 29.2614 78.2033 29.1937 78.2255 29.1259C78.3362 28.7869 78.1368 28.4932 77.7935 28.4932C77.4944 28.4932 77.1953 28.5271 76.8962 28.5497C76.143 28.6062 75.3786 28.6627 74.6254 28.7304C73.9608 28.7869 73.2851 28.8321 72.6204 28.8886C71.701 28.9677 70.7927 29.0355 69.8733 29.1146C69.2087 29.1598 68.5551 29.2276 67.8905 29.2727C67.1483 29.3292 66.3951 29.4083 65.6529 29.4648C65.0547 29.51 64.4566 29.5439 63.8584 29.5891C63.2381 29.6343 62.6288 29.6908 62.0085 29.7472C61.931 29.7585 61.8534 29.7698 61.7648 29.736C61.7648 29.6117 61.8202 29.51 61.8756 29.4083C62.3297 28.4593 62.795 27.5103 63.2492 26.5726C63.3156 26.4257 63.3821 26.2788 63.4485 26.1319C63.5925 25.8382 63.8141 25.7026 64.1464 25.68C64.811 25.6461 65.4646 25.6122 66.1292 25.5557C66.6498 25.5106 67.1705 25.488 67.6911 25.4428C68.4886 25.3863 69.2973 25.3298 70.0948 25.2733C70.6265 25.2394 71.1472 25.2055 71.6789 25.1716C72.5429 25.1151 73.4069 25.0135 74.2598 24.9909C74.9799 24.9683 75.6888 24.8779 76.3977 24.844C77.2728 24.8101 78.1368 24.7197 79.0119 24.6519C79.455 24.618 79.8981 24.6067 80.3301 24.5728C80.9394 24.5276 81.5375 24.4599 82.1468 24.4373C82.7117 24.4147 83.1216 24.8779 82.8889 25.488C82.8557 25.567 82.8225 25.6348 82.7782 25.7026C81.3049 28.7078 79.8206 31.7018 78.3473 34.707C77.2728 36.8875 76.2205 39.068 75.1349 41.2372C74.1269 43.2595 73.1411 45.3044 72.133 47.338C72.0998 47.3945 72.0776 47.451 72.0555 47.5075C71.9336 47.7334 71.7564 47.8351 71.5127 47.7899C71.0475 47.7108 70.5933 47.6318 70.1281 47.5414C68.4776 47.2137 66.8825 46.694 65.3317 46.0049C64.0024 45.4174 62.7285 44.7056 61.5211 43.8696C60.4799 43.1465 59.494 42.3331 58.5746 41.4518C57.6995 40.6045 56.8909 39.7007 56.1487 38.729C55.3401 37.6783 54.6311 36.5599 54.0108 35.3736C53.6674 34.7296 53.3683 34.0743 53.0803 33.3965C52.7702 32.6734 52.5154 31.9164 52.2717 31.1595C52.0058 30.3121 51.7954 29.4422 51.6292 28.5723C51.4963 27.8492 51.3855 27.1149 51.3191 26.3805C51.2637 25.7365 51.2415 25.0812 51.2083 24.4373C51.1751 23.7594 51.2083 23.0815 51.2415 22.4149C51.2858 21.5224 51.4077 20.6299 51.5628 19.7374C51.7621 18.585 52.0501 17.4439 52.4157 16.3367C52.7148 15.4216 53.0803 14.529 53.4791 13.6591C54.1991 12.1 55.0853 10.6426 56.1155 9.28684C56.5807 8.67675 57.0792 8.08926 57.5998 7.52437C58.4749 6.57535 59.4165 5.70542 60.4245 4.91457C61.1002 4.38357 61.798 3.89776 62.5291 3.45714C63.5704 2.81317 64.6449 2.25957 65.7637 1.78506C67.0265 1.25406 68.3225 0.836042 69.6517 0.542297C70.6487 0.31634 71.6678 0.158171 72.6869 0.0677878C73.0524 0.0338943 73.4069 0 73.7724 0C73.8721 0.0225957 73.9275 0.0338939 73.994 0.0338939Z" fill="white"/>
<path d="M86.4226 18.3139C86.323 18.5285 86.2454 18.7093 86.1568 18.8788C85.6805 19.8617 85.1931 20.8559 84.7278 21.8501C84.5617 22.2116 84.2958 22.3698 83.9192 22.3811C83.2435 22.3924 82.5789 22.4715 81.9142 22.5054C81.3825 22.528 80.8619 22.5732 80.3302 22.6184C79.732 22.6636 79.1339 22.6975 78.5357 22.7539C78.1369 22.7878 77.7382 22.7991 77.3505 22.833C76.6858 22.8782 76.0323 22.9121 75.3676 22.9686C75.0243 22.9912 74.6809 23.0138 74.3375 23.0364C73.6175 23.0929 72.8974 23.1268 72.1774 23.1833C71.7565 23.2172 71.3356 23.2397 70.9035 23.2623C70.2832 23.3075 69.674 23.3414 69.0537 23.3979C68.677 23.4318 68.3004 23.4544 67.9127 23.4657C67.237 23.4996 66.5724 23.5674 65.9078 23.59C65.5644 23.6013 65.3428 23.3866 65.232 23.1155C65.1545 22.9121 65.1988 22.72 65.2764 22.5393C65.3539 22.3585 65.4425 22.1777 65.5311 22.0083C67.1595 18.6867 68.7767 15.3651 70.4272 12.0549C72.3103 8.27009 74.1602 4.46271 76.0323 0.67793C76.2095 0.316398 76.3757 0.248611 76.7855 0.3051C77.7492 0.451972 78.7019 0.644037 79.6323 0.915185C80.3524 1.11855 81.0502 1.3445 81.7481 1.61565C82.5899 1.94329 83.3986 2.30482 84.1961 2.72284C85.326 3.32163 86.3894 3.9995 87.4085 4.76775C88.5827 5.66028 89.6682 6.6545 90.6652 7.73909C91.3409 8.47345 91.9612 9.2643 92.5372 10.089C93.3569 11.264 94.0659 12.4955 94.6751 13.7947C95.2954 15.1166 95.7828 16.4949 96.1484 17.9072C96.3699 18.7545 96.5361 19.6018 96.669 20.4718C96.7687 21.1722 96.8241 21.884 96.8906 22.5958C96.9681 23.4883 96.957 24.3808 96.9127 25.2734C96.8684 26.2789 96.7465 27.2844 96.5693 28.2786C96.3367 29.5665 96.0155 30.8319 95.5945 32.0634C95.2401 33.1028 94.808 34.1196 94.3096 35.0912C93.7336 36.2323 93.0689 37.3169 92.3157 38.345C91.8172 39.0229 91.2855 39.6781 90.7317 40.2995C89.8676 41.2711 88.915 42.1524 87.9181 42.9658C87.0319 43.6776 86.1014 44.3215 85.1266 44.8864C83.9967 45.5417 82.8226 46.1066 81.6041 46.5698C80.7955 46.8749 79.9647 47.1347 79.1228 47.3607C78.1591 47.6092 77.1954 47.79 76.2095 47.9143C75.6446 47.9933 75.0686 48.0611 74.4925 48.0498C74.3929 48.0498 74.2821 48.0611 74.1824 48.0724C74.1492 47.9708 74.2045 47.903 74.2488 47.8352C74.8692 46.5698 75.4895 45.3158 76.0987 44.0504C76.1763 43.8922 76.2649 43.8244 76.4421 43.8018C77.6717 43.6098 78.8569 43.2821 80.0311 42.8641C81.3825 42.367 82.6675 41.723 83.886 40.9435C84.6614 40.4464 85.3925 39.8702 86.1014 39.2714C86.4891 38.9438 86.8436 38.5935 87.198 38.2433C88.1285 37.3056 88.9482 36.2888 89.6793 35.1816C90.7981 33.4756 91.64 31.6341 92.216 29.6569C92.504 28.6853 92.7034 27.7024 92.8252 26.6969C92.8917 26.132 92.9471 25.5671 92.9692 25.0022C92.9803 24.5503 93.0025 24.0984 93.0025 23.6465C92.9914 22.9573 92.936 22.2794 92.8695 21.6016C92.7699 20.517 92.5372 19.4663 92.2492 18.4269C92.0609 17.7151 91.8061 17.0146 91.5292 16.3368C90.92 14.8228 90.1335 13.4219 89.1809 12.1001C88.7488 11.5013 88.2836 10.9364 87.7851 10.3941C87.3753 9.94217 86.9322 9.52415 86.5002 9.10613C86.0903 8.71071 85.6362 8.36047 85.1931 8.01024C84.4841 7.46794 83.742 6.98213 82.9666 6.54152C82.3019 6.16869 81.6262 5.85235 80.9284 5.5586C79.9093 5.12928 78.8569 4.81294 77.7935 4.56439C77.3837 4.46271 76.9628 4.40622 76.5418 4.32714C76.3978 4.29324 76.3203 4.34973 76.2649 4.4966C75.7997 5.5699 75.3344 6.6432 74.8692 7.71649C74.5479 8.45085 74.2267 9.18521 73.9055 9.90828C73.2519 11.3996 72.5984 12.8909 71.9448 14.3822C71.5349 15.3199 71.114 16.2577 70.7042 17.1954C70.4605 17.7377 70.2168 18.28 69.9841 18.8223C69.7958 19.2629 70.0728 19.6018 70.4715 19.5679C71.0808 19.5115 71.679 19.455 72.2882 19.4098C72.6094 19.3872 72.9417 19.3646 73.263 19.342C73.839 19.2968 74.4261 19.2403 75.0021 19.1951C75.279 19.1725 75.5449 19.1612 75.8218 19.1386C76.4421 19.0934 77.0514 19.0482 77.6717 18.9918C78.004 18.9579 78.3363 18.9353 78.6797 18.9127C79.2557 18.8675 79.8207 18.811 80.3967 18.7658C80.7401 18.7432 81.0835 18.7206 81.4268 18.698C81.9807 18.6528 82.5346 18.5963 83.0884 18.5511C83.3986 18.5285 83.7087 18.5059 84.0078 18.4834C84.6835 18.4269 85.3592 18.3704 86.0349 18.3252C86.1346 18.3026 86.2565 18.3139 86.4226 18.3139Z" fill="white"/>
<path d="M0.837891 62.4375V55.1426C0.837891 54.9902 0.892578 54.8613 1.00195 54.7559C1.11133 54.6504 1.24219 54.5977 1.39453 54.5977H8.15039C8.30273 54.5977 8.43164 54.6523 8.53711 54.7617C8.64648 54.8711 8.70117 55.002 8.70117 55.1543V55.7051C8.70117 55.8574 8.64648 55.9883 8.53711 56.0977C8.43164 56.2031 8.30273 56.2559 8.15039 56.2559H3.04688V57.9609H7.44141C7.59375 57.9609 7.72266 58.0156 7.82812 58.125C7.9375 58.2305 7.99219 58.3594 7.99219 58.5117V59.0625C7.99219 59.2148 7.9375 59.3457 7.82812 59.4551C7.72266 59.5605 7.59375 59.6133 7.44141 59.6133H3.04688V61.3418H8.13867C8.28711 61.3418 8.41406 61.3945 8.51953 61.5C8.625 61.6055 8.67773 61.7344 8.67773 61.8867V62.4492C8.67773 62.6016 8.62305 62.7324 8.51367 62.8418C8.4043 62.9473 8.27344 63 8.12109 63H1.39453C1.24219 63 1.11133 62.9473 1.00195 62.8418C0.892578 62.7324 0.837891 62.5977 0.837891 62.4375ZM9.7793 62.4492V55.1543C9.7793 55.002 9.83398 54.8711 9.94336 54.7617C10.0527 54.6523 10.1875 54.5977 10.3477 54.5977H11.4375C11.5898 54.5977 11.7188 54.6523 11.8242 54.7617C11.9336 54.8711 11.9883 55.002 11.9883 55.1543V57.791H16.0195V55.1543C16.0195 55.002 16.0742 54.8711 16.1836 54.7617C16.293 54.6523 16.4238 54.5977 16.5762 54.5977H17.666C17.8262 54.5977 17.959 54.6523 18.0645 54.7617C18.1738 54.8711 18.2285 55.002 18.2285 55.1543V62.4492C18.2285 62.6016 18.1719 62.7324 18.0586 62.8418C17.9492 62.9473 17.8184 63 17.666 63H16.5762C16.4238 63 16.293 62.9492 16.1836 62.8477C16.0742 62.7422 16.0195 62.6133 16.0195 62.4609V59.4492H11.9883V62.4609C11.9883 62.6133 11.9336 62.7422 11.8242 62.8477C11.7188 62.9492 11.5898 63 11.4375 63H10.3477C10.1953 63 10.0625 62.9473 9.94922 62.8418C9.83594 62.7324 9.7793 62.6016 9.7793 62.4492ZM19.916 62.4375V55.1426C19.916 54.9902 19.9707 54.8613 20.0801 54.7559C20.1895 54.6504 20.3203 54.5977 20.4727 54.5977H27.2285C27.3809 54.5977 27.5098 54.6523 27.6152 54.7617C27.7246 54.8711 27.7793 55.002 27.7793 55.1543V55.7051C27.7793 55.8574 27.7246 55.9883 27.6152 56.0977C27.5098 56.2031 27.3809 56.2559 27.2285 56.2559H22.125V57.9609H26.5195C26.6719 57.9609 26.8008 58.0156 26.9062 58.125C27.0156 58.2305 27.0703 58.3594 27.0703 58.5117V59.0625C27.0703 59.2148 27.0156 59.3457 26.9062 59.4551C26.8008 59.5605 26.6719 59.6133 26.5195 59.6133H22.125V61.3418H27.2168C27.3652 61.3418 27.4922 61.3945 27.5977 61.5C27.7031 61.6055 27.7559 61.7344 27.7559 61.8867V62.4492C27.7559 62.6016 27.7012 62.7324 27.5918 62.8418C27.4824 62.9473 27.3516 63 27.1992 63H20.4727C20.3203 63 20.1895 62.9473 20.0801 62.8418C19.9707 62.7324 19.916 62.5977 19.916 62.4375ZM28.8574 62.4492V55.1543C28.8574 55.002 28.9102 54.8711 29.0156 54.7617C29.1211 54.6523 29.25 54.5977 29.4023 54.5977H33.873C36.2363 54.5977 37.418 55.6875 37.418 57.8672C37.418 60.043 36.2363 61.1309 33.873 61.1309H31.0664V62.4492C31.0664 62.6016 31.0117 62.7324 30.9023 62.8418C30.7969 62.9473 30.668 63 30.5156 63H29.4141C29.2617 63 29.1309 62.9473 29.0215 62.8418C28.9121 62.7324 28.8574 62.6016 28.8574 62.4492ZM31.0664 59.4727H33.2051C33.8613 59.4727 34.3594 59.3633 34.6992 59.1445C35.0391 58.9219 35.209 58.4961 35.209 57.8672C35.209 57.2344 35.0391 56.8086 34.6992 56.5898C34.3594 56.3672 33.8613 56.2559 33.2051 56.2559H31.0664V59.4727ZM38.502 62.4609V55.1543C38.502 54.9941 38.5547 54.8613 38.6602 54.7559C38.7656 54.6504 38.8984 54.5977 39.0586 54.5977H44.7188C44.8789 54.5977 45.0098 54.6504 45.1113 54.7559C45.2168 54.8613 45.2695 54.9941 45.2695 55.1543V55.7051C45.2695 55.8652 45.2168 55.998 45.1113 56.1035C45.0098 56.2051 44.8789 56.2559 44.7188 56.2559H40.7109V62.4609C40.7109 62.6133 40.6562 62.7422 40.5469 62.8477C40.4414 62.9492 40.3125 63 40.1602 63H39.0586C38.9062 63 38.7754 62.9492 38.666 62.8477C38.5566 62.7422 38.502 62.6133 38.502 62.4609ZM53.8125 62.1328C53.0156 62.832 51.8438 63.1816 50.2969 63.1816C48.7539 63.1816 47.582 62.832 46.7812 62.1328C45.9805 61.4297 45.5801 60.3184 45.5801 58.7988C45.5801 57.2793 45.9805 56.1699 46.7812 55.4707C47.582 54.7715 48.7539 54.4219 50.2969 54.4219C51.8438 54.4219 53.0156 54.7715 53.8125 55.4707C54.6133 56.1699 55.0137 57.2793 55.0137 58.7988C55.0137 60.3184 54.6133 61.4297 53.8125 62.1328ZM52.2129 56.707C51.8184 56.2383 51.1797 56.0039 50.2969 56.0039C49.418 56.0039 48.7793 56.2383 48.3809 56.707C47.9863 57.1758 47.7891 57.875 47.7891 58.8047C47.7891 59.7305 47.9863 60.4277 48.3809 60.8965C48.7793 61.3613 49.418 61.5938 50.2969 61.5938C51.1797 61.5938 51.8184 61.3613 52.2129 60.8965C52.6074 60.4277 52.8047 59.7305 52.8047 58.8047C52.8047 57.875 52.6074 57.1758 52.2129 56.707ZM60.4277 62.4492V55.1543C60.4277 55.002 60.4824 54.8711 60.5918 54.7617C60.7012 54.6523 60.8359 54.5977 60.9961 54.5977H62.1094C62.2617 54.5977 62.3906 54.6523 62.4961 54.7617C62.6055 54.8711 62.6602 55.002 62.6602 55.1543V57.7793H63.7559C64.084 55.541 65.5469 54.4219 68.1445 54.4219C71.1133 54.4219 72.5977 55.8828 72.5977 58.8047C72.5977 61.7227 71.1133 63.1816 68.1445 63.1816C65.4102 63.1816 63.9355 61.9375 63.7207 59.4492H62.6602V62.4609C62.6602 62.6133 62.6055 62.7422 62.4961 62.8477C62.3906 62.9492 62.2617 63 62.1094 63H60.9961C60.8438 63 60.7109 62.9473 60.5977 62.8418C60.4844 62.7324 60.4277 62.6016 60.4277 62.4492ZM68.1445 56.0039C66.6484 56.0039 65.9004 56.9355 65.9004 58.7988C65.9004 60.6621 66.6484 61.5938 68.1445 61.5938C69.6406 61.5938 70.3887 60.6621 70.3887 58.7988C70.3887 56.9355 69.6406 56.0039 68.1445 56.0039ZM73.7988 62.4609V55.1543C73.7988 54.9941 73.8516 54.8613 73.957 54.7559C74.0625 54.6504 74.1953 54.5977 74.3555 54.5977H80.0156C80.1758 54.5977 80.3066 54.6504 80.4082 54.7559C80.5137 54.8613 80.5664 54.9941 80.5664 55.1543V55.7051C80.5664 55.8652 80.5137 55.998 80.4082 56.1035C80.3066 56.2051 80.1758 56.2559 80.0156 56.2559H76.0078V62.4609C76.0078 62.6133 75.9531 62.7422 75.8438 62.8477C75.7383 62.9492 75.6094 63 75.457 63H74.3555C74.2031 63 74.0723 62.9492 73.9629 62.8477C73.8535 62.7422 73.7988 62.6133 73.7988 62.4609ZM85.0488 62.4609L86.5195 56.8828C86.918 55.3633 88.2148 54.6016 90.4102 54.5977H93.5684C93.7129 54.5977 93.832 54.6523 93.9258 54.7617C94.0234 54.8711 94.0723 54.998 94.0723 55.1426V62.4609C94.0723 62.6133 94.0176 62.7422 93.9082 62.8477C93.7988 62.9492 93.668 63 93.5156 63H92.4141C92.2539 63 92.1211 62.9492 92.0156 62.8477C91.9141 62.7422 91.8633 62.6094 91.8633 62.4492V60.9727H87.6973L87.3047 62.4492C87.2656 62.6094 87.1777 62.7422 87.041 62.8477C86.9043 62.9492 86.7598 63 86.6074 63H85.4531C85.3008 63 85.1914 62.957 85.125 62.8711C85.0586 62.7812 85.0254 62.7031 85.0254 62.6367C85.0293 62.5703 85.0371 62.5117 85.0488 62.4609ZM88.1309 59.3145H91.8633V56.2559H90.1934C89.8184 56.2559 89.4902 56.3633 89.209 56.5781C88.9316 56.7891 88.7441 57.0742 88.6465 57.4336L88.1309 59.3145ZM95.0566 62.5078L96.5449 56.8828C96.9434 55.3633 98.2383 54.6016 100.43 54.5977H103.359C103.496 54.5977 103.611 54.6543 103.705 54.7676C103.803 54.8809 103.852 55.0098 103.852 55.1543V62.4492C103.852 62.6016 103.799 62.7324 103.693 62.8418C103.592 62.9473 103.465 63 103.312 63H102.193C102.041 63 101.91 62.9473 101.801 62.8418C101.695 62.7324 101.643 62.6016 101.643 62.4492V56.2559H100.213C99.8379 56.2559 99.5098 56.3633 99.2285 56.5781C98.9512 56.7891 98.7637 57.0742 98.666 57.4336L97.3242 62.4492C97.2852 62.6094 97.1973 62.7422 97.0605 62.8477C96.9238 62.9492 96.7793 63 96.627 63H95.4375C95.3008 63 95.1992 62.957 95.1328 62.8711C95.0703 62.7852 95.0391 62.7129 95.0391 62.6543C95.043 62.5957 95.0488 62.5469 95.0566 62.5078ZM105.533 62.4375V55.1543C105.533 54.9941 105.586 54.8613 105.691 54.7559C105.797 54.6504 105.93 54.5977 106.09 54.5977H107.191C107.344 54.5977 107.473 54.6523 107.578 54.7617C107.688 54.8711 107.742 55.002 107.742 55.1543V57.457H110.637C111.559 57.457 112.32 57.7012 112.922 58.1895C113.527 58.6777 113.83 59.3574 113.83 60.2285C113.83 61.0996 113.527 61.7793 112.922 62.2676C112.316 62.7559 111.555 63 110.637 63H106.061C105.916 63 105.791 62.9453 105.686 62.8359C105.584 62.7227 105.533 62.5898 105.533 62.4375ZM107.742 61.3418H110.637C111.293 61.3418 111.621 60.9707 111.621 60.2285C111.621 59.4824 111.293 59.1094 110.637 59.1094H107.742V61.3418ZM114.439 62.666C114.439 62.6035 114.465 62.5312 114.516 62.4492L116.133 59.7832C115.027 59.3027 114.477 58.4863 114.48 57.334C114.48 56.4629 114.781 55.7891 115.383 55.3125C115.988 54.8359 116.746 54.5977 117.656 54.5977H122.244C122.389 54.5977 122.512 54.6504 122.613 54.7559C122.719 54.8613 122.771 54.9902 122.771 55.1426V62.4609C122.771 62.6133 122.717 62.7422 122.607 62.8477C122.502 62.9492 122.373 63 122.221 63H121.113C120.961 63 120.83 62.9473 120.721 62.8418C120.615 62.7324 120.562 62.6016 120.562 62.4492V60.0234H118.465L117.059 62.4609C116.859 62.8203 116.576 63 116.209 63H114.732C114.537 63 114.439 62.8887 114.439 62.666ZM117.656 56.2559C117.008 56.2559 116.684 56.5996 116.684 57.2871C116.684 57.9746 117.008 58.3184 117.656 58.3184H120.562V56.2559H117.656ZM124.447 62.4492V55.1543C124.447 55.002 124.502 54.8711 124.611 54.7617C124.721 54.6523 124.855 54.5977 125.016 54.5977H126.105C126.258 54.5977 126.387 54.6523 126.492 54.7617C126.602 54.8711 126.656 55.002 126.656 55.1543V57.791H130.688V55.1543C130.688 55.002 130.742 54.8711 130.852 54.7617C130.961 54.6523 131.092 54.5977 131.244 54.5977H132.334C132.494 54.5977 132.627 54.6523 132.732 54.7617C132.842 54.8711 132.896 55.002 132.896 55.1543V62.4492C132.896 62.6016 132.84 62.7324 132.727 62.8418C132.617 62.9473 132.486 63 132.334 63H131.244C131.092 63 130.961 62.9492 130.852 62.8477C130.742 62.7422 130.688 62.6133 130.688 62.4609V59.4492H126.656V62.4609C126.656 62.6133 126.602 62.7422 126.492 62.8477C126.387 62.9492 126.258 63 126.105 63H125.016C124.863 63 124.73 62.9473 124.617 62.8418C124.504 62.7324 124.447 62.6016 124.447 62.4492ZM135.188 62.0098C134.465 61.3184 134.104 60.25 134.104 58.8047C134.104 57.3555 134.465 56.2852 135.188 55.5938C135.914 54.8984 137.002 54.5508 138.451 54.5508H139.758C140.645 54.5508 141.428 54.7812 142.107 55.2422C142.791 55.7031 143.133 56.334 143.133 57.1348C143.133 57.3652 143.064 57.5312 142.928 57.6328C142.791 57.7305 142.658 57.7793 142.529 57.7793H141.832C141.473 57.7793 141.193 57.5645 140.994 57.1348C140.705 56.5176 140.225 56.209 139.553 56.209H138.51C137.654 56.209 137.074 56.3926 136.77 56.7598C136.465 57.127 136.312 57.8066 136.312 58.7988C136.312 59.791 136.465 60.4727 136.77 60.8438C137.074 61.2109 137.654 61.3945 138.51 61.3945H139.676C140.348 61.3945 140.826 61.0859 141.111 60.4688C141.311 60.0352 141.592 59.8184 141.955 59.8184H142.652C142.836 59.8184 142.98 59.8867 143.086 60.0234C143.195 60.1602 143.25 60.3086 143.25 60.4688C143.25 61.2695 142.91 61.9004 142.23 62.3613C141.551 62.8184 140.768 63.0469 139.881 63.0469H138.451C137.002 63.0469 135.914 62.7012 135.188 62.0098Z" fill="white"/>
</svg>
