<svg width="302" height="52" viewBox="0 0 302 52" fill="none" xmlns="http://www.w3.org/2000/svg">
<path d="M24.9159 0.0366631C24.9038 0.158872 24.8433 0.232198 24.807 0.317745C24.1775 1.58872 23.548 2.84747 22.9185 4.11845C22.6885 4.57062 22.6885 4.58284 22.2043 4.65617C20.2432 4.98613 18.3548 5.59718 16.5632 6.45264C14.8805 7.25922 13.3189 8.27356 11.9026 9.50787C11.1278 10.18 10.4136 10.8888 9.73571 11.6588C8.64622 12.8931 7.72621 14.2374 6.93935 15.6794C6.04355 17.3415 5.37775 19.0891 4.94196 20.9344C4.72406 21.8877 4.56669 22.8653 4.45774 23.843C4.32458 25.0529 4.31247 26.2627 4.3851 27.4726C4.46984 28.9147 4.69985 30.3323 5.07512 31.7255C5.42617 32.9965 5.86197 34.2308 6.43092 35.4162C6.79409 36.1739 7.18146 36.9194 7.64147 37.616C8.27095 38.6059 8.97307 39.5469 9.75992 40.4268C10.3289 41.0623 10.9341 41.6733 11.5757 42.2355C12.1689 42.761 12.7984 43.262 13.4521 43.7142C14.5416 44.4719 15.6795 45.1318 16.8779 45.6696C18.27 46.2928 19.7106 46.7695 21.1996 47.075C21.5627 47.1483 21.9138 47.2094 22.2769 47.2827C22.5433 47.3316 22.5554 47.3316 22.6643 47.075C23.0275 46.2562 23.3906 45.4374 23.7538 44.6186C24.468 42.9932 25.1944 41.3556 25.9086 39.7302C26.9133 37.4693 27.906 35.2085 28.9107 32.9476C29.0923 32.5321 29.2739 32.1288 29.4555 31.7255C29.4918 31.6522 29.516 31.5788 29.5402 31.5055C29.6613 31.1389 29.4434 30.8212 29.0681 30.8212C28.7412 30.8212 28.4144 30.8578 28.0876 30.8823C27.2644 30.9434 26.4291 31.0045 25.6059 31.0778C24.8796 31.1389 24.1412 31.1878 23.4149 31.2489C22.4101 31.3344 21.4175 31.4078 20.4127 31.4933C19.6864 31.5422 18.9722 31.6155 18.2458 31.6644C17.4348 31.7255 16.6116 31.811 15.8005 31.8722C15.1468 31.921 14.4931 31.9577 13.8395 32.0066C13.1615 32.0555 12.4957 32.1166 11.8178 32.1777C11.7331 32.1899 11.6484 32.2021 11.5515 32.1655C11.5515 32.031 11.6121 31.921 11.6726 31.811C12.1689 30.7845 12.6773 29.7579 13.1737 28.7436C13.2463 28.5847 13.3189 28.4259 13.3916 28.267C13.5489 27.9492 13.791 27.8026 14.1542 27.7781C14.8805 27.7415 15.5947 27.7048 16.3211 27.6437C16.89 27.5948 17.459 27.5704 18.0279 27.5215C18.8995 27.4604 19.7832 27.3993 20.6548 27.3382C21.2359 27.3015 21.8048 27.2649 22.3859 27.2282C23.3301 27.1671 24.2743 27.0571 25.2065 27.0327C25.9933 27.0082 26.7681 26.9105 27.5428 26.8738C28.4991 26.8371 29.4434 26.7394 30.3997 26.666C30.8839 26.6294 31.3681 26.6172 31.8402 26.5805C32.506 26.5316 33.1597 26.4583 33.8255 26.4338C34.4429 26.4094 34.8908 26.9105 34.6366 27.5704C34.6003 27.6559 34.564 27.7293 34.5155 27.8026C32.9055 31.0533 31.2834 34.2919 29.6734 37.5427C28.4991 39.9013 27.3491 42.2599 26.1628 44.6063C25.0612 46.7939 23.9838 49.0059 22.8822 51.2056C22.8459 51.2667 22.8217 51.3279 22.7975 51.389C22.6643 51.6334 22.4706 51.7434 22.2043 51.6945C21.6959 51.6089 21.1996 51.5234 20.6911 51.4256C18.8874 51.0712 17.1442 50.5091 15.4495 49.7636C13.9968 49.1281 12.6047 48.3582 11.2852 47.4538C10.1473 46.6717 9.06991 45.7918 8.06516 44.8385C7.10883 43.922 6.22513 42.9443 5.41407 41.8933C4.53037 40.7568 3.75562 39.5469 3.07772 38.2637C2.70245 37.5671 2.3756 36.8583 2.06086 36.125C1.72191 35.3429 1.44348 34.5241 1.17716 33.7053C0.886634 32.7887 0.65663 31.8477 0.475049 30.9067C0.329784 30.1246 0.20873 29.3302 0.136097 28.5358C0.07557 27.8392 0.0513591 27.1304 0.0150428 26.4338C-0.0212735 25.7006 0.0150423 24.9673 0.0513586 24.2463C0.0997803 23.2808 0.23294 22.3154 0.402416 21.3499C0.620314 20.1034 0.935055 18.8691 1.33453 17.6714C1.66138 16.6816 2.06086 15.7161 2.49666 14.7751C3.28351 13.0886 4.25195 11.5121 5.37775 10.0456C5.88618 9.38566 6.43092 8.75018 6.99988 8.13913C7.95621 7.11257 8.98517 6.17156 10.0868 5.3161C10.8252 4.74172 11.5878 4.21622 12.3868 3.7396C13.5247 3.04301 14.6989 2.44418 15.9216 1.93091C17.3016 1.35652 18.7179 0.904348 20.1706 0.586604C21.2601 0.342186 22.3738 0.171094 23.4875 0.0733262C23.887 0.0366635 24.2743 0 24.6738 0C24.7828 0.0244418 24.8433 0.0366631 24.9159 0.0366631Z" fill="#1965A4"/>
<path d="M38.4981 19.8101C38.3892 20.0423 38.3044 20.2379 38.2076 20.4212C37.6871 21.4844 37.1544 22.5598 36.646 23.6353C36.4644 24.0263 36.1739 24.1974 35.7623 24.2097C35.0239 24.2219 34.2975 24.3074 33.5712 24.3441C32.9901 24.3685 32.4212 24.4174 31.8401 24.4663C31.1864 24.5152 30.5327 24.5518 29.8791 24.6129C29.4433 24.6496 29.0075 24.6618 28.5838 24.6985C27.8574 24.7474 27.1432 24.784 26.4169 24.8451C26.0416 24.8696 25.6664 24.894 25.2911 24.9185C24.5042 24.9796 23.7174 25.0162 22.9305 25.0773C22.4705 25.114 22.0105 25.1384 21.5384 25.1629C20.8605 25.2118 20.1947 25.2484 19.5168 25.3095C19.1052 25.3462 18.6936 25.3706 18.2699 25.3829C17.5315 25.4195 16.8052 25.4928 16.0789 25.5173C15.7036 25.5295 15.4615 25.2973 15.3404 25.004C15.2557 24.784 15.3041 24.5763 15.3888 24.3807C15.4736 24.1852 15.5704 23.9897 15.6673 23.8064C17.4468 20.2134 19.2142 16.6205 21.0179 13.0397C23.0758 8.94572 25.0974 4.82728 27.1432 0.733268C27.3369 0.342199 27.5185 0.268873 27.9664 0.329978C29.0196 0.48885 30.0606 0.696606 31.0775 0.989908C31.8643 1.20988 32.627 1.4543 33.3896 1.7476C34.3096 2.10201 35.1933 2.49308 36.0649 2.94525C37.2997 3.59296 38.4618 4.32622 39.5755 5.15724C40.8587 6.12269 42.045 7.19813 43.1345 8.37134C43.8729 9.1657 44.5508 10.0212 45.1803 10.9133C46.0761 12.1843 46.8509 13.5163 47.5167 14.9218C48.1946 16.3516 48.7272 17.8426 49.1267 19.3702C49.3688 20.2867 49.5504 21.2033 49.6956 22.1443C49.8046 22.902 49.8651 23.6719 49.9378 24.4418C50.0225 25.4073 50.0104 26.3728 49.962 27.3382C49.9135 28.4259 49.7804 29.5135 49.5867 30.589C49.3325 31.9822 48.9814 33.3509 48.5214 34.683C48.134 35.8073 47.6619 36.9072 47.1172 37.9582C46.4877 39.1925 45.7614 40.3657 44.9382 41.4778C44.3935 42.2111 43.8124 42.9199 43.2071 43.592C42.2629 44.643 41.2218 45.5962 40.1324 46.4762C39.1639 47.2461 38.1471 47.9427 37.0818 48.5537C35.847 49.2625 34.5639 49.8736 33.2323 50.3746C32.3486 50.7046 31.4407 50.9857 30.5206 51.2301C29.4675 51.499 28.4143 51.6945 27.3369 51.8289C26.7195 51.9145 26.09 51.9878 25.4606 51.9756C25.3516 51.9756 25.2306 51.9878 25.1216 52C25.0853 51.89 25.1458 51.8167 25.1942 51.7434C25.8721 50.3746 26.5501 49.0181 27.2159 47.6494C27.3006 47.4783 27.3974 47.4049 27.5911 47.3805C28.9348 47.1727 30.2301 46.8183 31.5133 46.3662C32.9901 45.8284 34.3944 45.1319 35.726 44.2886C36.5734 43.7509 37.3723 43.1276 38.1471 42.4799C38.5708 42.1255 38.9581 41.7467 39.3455 41.3678C40.3624 40.3535 41.2582 39.2536 42.0571 38.0559C43.2798 36.2106 44.1998 34.2186 44.8293 32.0799C45.144 31.0289 45.3619 29.9657 45.4951 28.878C45.5677 28.267 45.6282 27.6559 45.6524 27.0449C45.6645 26.5561 45.6888 26.0672 45.6888 25.5784C45.6766 24.8329 45.6161 24.0997 45.5435 23.3664C45.4345 22.1932 45.1803 21.0567 44.8656 19.9323C44.6598 19.1624 44.3814 18.4047 44.0787 17.6715C43.4129 16.0339 42.5534 14.5185 41.5124 13.0886C41.0403 12.4409 40.5318 11.8299 39.9871 11.2433C39.5392 10.7544 39.055 10.3022 38.5829 9.85007C38.135 9.42234 37.6386 9.04349 37.1544 8.66464C36.3797 8.07804 35.5686 7.55254 34.7212 7.07592C33.9949 6.67263 33.2565 6.33045 32.4938 6.0127C31.3801 5.54831 30.2301 5.20612 29.068 4.93726C28.6201 4.82727 28.1601 4.76617 27.7001 4.68062C27.5427 4.64396 27.458 4.70507 27.3974 4.86394C26.889 6.02493 26.3806 7.18591 25.8722 8.3469C25.5211 9.14126 25.17 9.93562 24.819 10.7178C24.1048 12.3309 23.3905 13.9441 22.6763 15.5572C22.2284 16.5716 21.7684 17.5859 21.3205 18.6003C21.0542 19.1869 20.7879 19.7735 20.5337 20.3601C20.3279 20.8367 20.6305 21.2033 21.0663 21.1666C21.7321 21.1055 22.3858 21.0444 23.0516 20.9955C23.4026 20.9711 23.7658 20.9467 24.1169 20.9222C24.7463 20.8733 25.3879 20.8122 26.0174 20.7633C26.3201 20.7389 26.6106 20.7267 26.9132 20.7022C27.5911 20.6534 28.2569 20.6045 28.9348 20.5434C29.298 20.5067 29.6612 20.4823 30.0364 20.4578C30.6659 20.4089 31.2833 20.3478 31.9128 20.299C32.288 20.2745 32.6633 20.2501 33.0386 20.2256C33.6438 20.1767 34.2491 20.1156 34.8544 20.0668C35.1933 20.0423 35.5323 20.0179 35.8591 19.9934C36.5976 19.9323 37.336 19.8712 38.0744 19.8223C38.1834 19.7979 38.3165 19.8101 38.4981 19.8101Z" fill="#8AB5DC"/>
<path d="M55.3965 33.0625V20.9043C55.3965 20.6504 55.4876 20.4355 55.6699 20.2598C55.8522 20.084 56.0703 19.9961 56.3242 19.9961H67.584C67.8379 19.9961 68.0527 20.0872 68.2285 20.2695C68.4108 20.4518 68.502 20.6699 68.502 20.9238V21.8418C68.502 22.0957 68.4108 22.3138 68.2285 22.4961C68.0527 22.6719 67.8379 22.7598 67.584 22.7598H59.0781V25.6016H66.4023C66.6562 25.6016 66.8711 25.6927 67.0469 25.875C67.2292 26.0508 67.3203 26.2656 67.3203 26.5195V27.4375C67.3203 27.6914 67.2292 27.9095 67.0469 28.0918C66.8711 28.2676 66.6562 28.3555 66.4023 28.3555H59.0781V31.2363H67.5645C67.8118 31.2363 68.0234 31.3242 68.1992 31.5C68.375 31.6758 68.4629 31.8906 68.4629 32.1445V33.082C68.4629 33.3359 68.3717 33.554 68.1895 33.7363C68.0072 33.9121 67.7891 34 67.5352 34H56.3242C56.0703 34 55.8522 33.9121 55.6699 33.7363C55.4876 33.554 55.3965 33.3294 55.3965 33.0625ZM70.2988 33.082V20.9238C70.2988 20.6699 70.39 20.4518 70.5723 20.2695C70.7546 20.0872 70.9792 19.9961 71.2461 19.9961H73.0625C73.3164 19.9961 73.5312 20.0872 73.707 20.2695C73.8893 20.4518 73.9805 20.6699 73.9805 20.9238V25.3184H80.6992V20.9238C80.6992 20.6699 80.7904 20.4518 80.9727 20.2695C81.1549 20.0872 81.373 19.9961 81.627 19.9961H83.4434C83.7103 19.9961 83.9316 20.0872 84.1074 20.2695C84.2897 20.4518 84.3809 20.6699 84.3809 20.9238V33.082C84.3809 33.3359 84.2865 33.554 84.0977 33.7363C83.9154 33.9121 83.6973 34 83.4434 34H81.627C81.373 34 81.1549 33.9154 80.9727 33.7461C80.7904 33.5703 80.6992 33.3555 80.6992 33.1016V28.082H73.9805V33.1016C73.9805 33.3555 73.8893 33.5703 73.707 33.7461C73.5312 33.9154 73.3164 34 73.0625 34H71.2461C70.9922 34 70.7708 33.9121 70.582 33.7363C70.3932 33.554 70.2988 33.3359 70.2988 33.082ZM87.1934 33.0625V20.9043C87.1934 20.6504 87.2845 20.4355 87.4668 20.2598C87.6491 20.084 87.8672 19.9961 88.1211 19.9961H99.3809C99.6348 19.9961 99.8496 20.0872 100.025 20.2695C100.208 20.4518 100.299 20.6699 100.299 20.9238V21.8418C100.299 22.0957 100.208 22.3138 100.025 22.4961C99.8496 22.6719 99.6348 22.7598 99.3809 22.7598H90.875V25.6016H98.1992C98.4531 25.6016 98.668 25.6927 98.8438 25.875C99.026 26.0508 99.1172 26.2656 99.1172 26.5195V27.4375C99.1172 27.6914 99.026 27.9095 98.8438 28.0918C98.668 28.2676 98.4531 28.3555 98.1992 28.3555H90.875V31.2363H99.3613C99.6087 31.2363 99.8203 31.3242 99.9961 31.5C100.172 31.6758 100.26 31.8906 100.26 32.1445V33.082C100.26 33.3359 100.169 33.554 99.9863 33.7363C99.804 33.9121 99.5859 34 99.332 34H88.1211C87.8672 34 87.6491 33.9121 87.4668 33.7363C87.2845 33.554 87.1934 33.3294 87.1934 33.0625ZM102.096 33.082V20.9238C102.096 20.6699 102.184 20.4518 102.359 20.2695C102.535 20.0872 102.75 19.9961 103.004 19.9961H110.455C114.394 19.9961 116.363 21.8125 116.363 25.4453C116.363 29.0716 114.394 30.8848 110.455 30.8848H105.777V33.082C105.777 33.3359 105.686 33.554 105.504 33.7363C105.328 33.9121 105.113 34 104.859 34H103.023C102.77 34 102.551 33.9121 102.369 33.7363C102.187 33.554 102.096 33.3359 102.096 33.082ZM105.777 28.1211H109.342C110.436 28.1211 111.266 27.9388 111.832 27.5742C112.398 27.2031 112.682 26.4935 112.682 25.4453C112.682 24.3906 112.398 23.681 111.832 23.3164C111.266 22.9453 110.436 22.7598 109.342 22.7598H105.777V28.1211ZM118.17 33.1016V20.9238C118.17 20.6569 118.258 20.4355 118.434 20.2598C118.609 20.084 118.831 19.9961 119.098 19.9961H128.531C128.798 19.9961 129.016 20.084 129.186 20.2598C129.361 20.4355 129.449 20.6569 129.449 20.9238V21.8418C129.449 22.1087 129.361 22.3301 129.186 22.5059C129.016 22.6751 128.798 22.7598 128.531 22.7598H121.852V33.1016C121.852 33.3555 121.76 33.5703 121.578 33.7461C121.402 33.9154 121.188 34 120.934 34H119.098C118.844 34 118.626 33.9154 118.443 33.7461C118.261 33.5703 118.17 33.3555 118.17 33.1016ZM143.688 32.5547C142.359 33.7201 140.406 34.3027 137.828 34.3027C135.257 34.3027 133.303 33.7201 131.969 32.5547C130.634 31.3828 129.967 29.5306 129.967 26.998C129.967 24.4655 130.634 22.6165 131.969 21.4512C133.303 20.2858 135.257 19.7031 137.828 19.7031C140.406 19.7031 142.359 20.2858 143.688 21.4512C145.022 22.6165 145.689 24.4655 145.689 26.998C145.689 29.5306 145.022 31.3828 143.688 32.5547ZM141.021 23.5117C140.364 22.7305 139.299 22.3398 137.828 22.3398C136.363 22.3398 135.299 22.7305 134.635 23.5117C133.977 24.293 133.648 25.4583 133.648 27.0078C133.648 28.5508 133.977 29.7129 134.635 30.4941C135.299 31.2689 136.363 31.6562 137.828 31.6562C139.299 31.6562 140.364 31.2689 141.021 30.4941C141.679 29.7129 142.008 28.5508 142.008 27.0078C142.008 25.4583 141.679 24.293 141.021 23.5117ZM147.701 33.082V20.9238C147.701 20.6699 147.792 20.4518 147.975 20.2695C148.157 20.0872 148.382 19.9961 148.648 19.9961H150.504C150.758 19.9961 150.973 20.0872 151.148 20.2695C151.331 20.4518 151.422 20.6699 151.422 20.9238V25.2988H153.248C153.795 21.5684 156.233 19.7031 160.562 19.7031C165.51 19.7031 167.984 22.138 167.984 27.0078C167.984 31.8711 165.51 34.3027 160.562 34.3027C156.005 34.3027 153.548 32.2292 153.189 28.082H151.422V33.1016C151.422 33.3555 151.331 33.5703 151.148 33.7461C150.973 33.9154 150.758 34 150.504 34H148.648C148.395 34 148.173 33.9121 147.984 33.7363C147.796 33.554 147.701 33.3359 147.701 33.082ZM160.562 22.3398C158.069 22.3398 156.822 23.8926 156.822 26.998C156.822 30.1035 158.069 31.6562 160.562 31.6562C163.056 31.6562 164.303 30.1035 164.303 26.998C164.303 23.8926 163.056 22.3398 160.562 22.3398ZM169.986 33.1016V20.9238C169.986 20.6569 170.074 20.4355 170.25 20.2598C170.426 20.084 170.647 19.9961 170.914 19.9961H180.348C180.615 19.9961 180.833 20.084 181.002 20.2598C181.178 20.4355 181.266 20.6569 181.266 20.9238V21.8418C181.266 22.1087 181.178 22.3301 181.002 22.5059C180.833 22.6751 180.615 22.7598 180.348 22.7598H173.668V33.1016C173.668 33.3555 173.577 33.5703 173.395 33.7461C173.219 33.9154 173.004 34 172.75 34H170.914C170.66 34 170.442 33.9154 170.26 33.7461C170.077 33.5703 169.986 33.3555 169.986 33.1016ZM188.736 33.1016L191.188 23.8047C191.852 21.2721 194.013 20.0026 197.672 19.9961H202.936C203.176 19.9961 203.375 20.0872 203.531 20.2695C203.694 20.4518 203.775 20.6634 203.775 20.9043V33.1016C203.775 33.3555 203.684 33.5703 203.502 33.7461C203.32 33.9154 203.102 34 202.848 34H201.012C200.745 34 200.523 33.9154 200.348 33.7461C200.178 33.5703 200.094 33.349 200.094 33.082V30.6211H193.15L192.496 33.082C192.431 33.349 192.285 33.5703 192.057 33.7461C191.829 33.9154 191.588 34 191.334 34H189.41C189.156 34 188.974 33.9284 188.863 33.7852C188.753 33.6354 188.697 33.5052 188.697 33.3945C188.704 33.2839 188.717 33.1862 188.736 33.1016ZM193.873 27.8574H200.094V22.7598H197.311C196.686 22.7598 196.139 22.9388 195.67 23.2969C195.208 23.6484 194.895 24.1237 194.732 24.7227L193.873 27.8574ZM205.416 33.1797L207.896 23.8047C208.561 21.2721 210.719 20.0026 214.371 19.9961H219.254C219.482 19.9961 219.674 20.0905 219.83 20.2793C219.993 20.4681 220.074 20.6829 220.074 20.9238V33.082C220.074 33.3359 219.986 33.554 219.811 33.7363C219.641 33.9121 219.43 34 219.176 34H217.311C217.057 34 216.839 33.9121 216.656 33.7363C216.48 33.554 216.393 33.3359 216.393 33.082V22.7598H214.01C213.385 22.7598 212.838 22.9388 212.369 23.2969C211.907 23.6484 211.594 24.1237 211.432 24.7227L209.195 33.082C209.13 33.349 208.984 33.5703 208.756 33.7461C208.528 33.9154 208.287 34 208.033 34H206.051C205.823 34 205.654 33.9284 205.543 33.7852C205.439 33.6419 205.387 33.5215 205.387 33.4238C205.393 33.3262 205.403 33.2448 205.416 33.1797ZM222.877 33.0625V20.9238C222.877 20.6569 222.965 20.4355 223.141 20.2598C223.316 20.084 223.538 19.9961 223.805 19.9961H225.641C225.895 19.9961 226.109 20.0872 226.285 20.2695C226.467 20.4518 226.559 20.6699 226.559 20.9238V24.7617H231.383C232.919 24.7617 234.189 25.1686 235.191 25.9824C236.201 26.7962 236.705 27.929 236.705 29.3809C236.705 30.8327 236.201 31.9655 235.191 32.7793C234.182 33.5931 232.913 34 231.383 34H223.756C223.515 34 223.307 33.9089 223.131 33.7266C222.962 33.5378 222.877 33.3164 222.877 33.0625ZM226.559 31.2363H231.383C232.477 31.2363 233.023 30.6178 233.023 29.3809C233.023 28.1374 232.477 27.5156 231.383 27.5156H226.559V31.2363ZM237.721 33.4434C237.721 33.3392 237.763 33.2188 237.848 33.082L240.543 28.6387C238.701 27.8379 237.783 26.4772 237.789 24.5566C237.789 23.1048 238.29 21.9818 239.293 21.1875C240.302 20.3932 241.565 19.9961 243.082 19.9961H250.729C250.969 19.9961 251.174 20.084 251.344 20.2598C251.52 20.4355 251.607 20.6504 251.607 20.9043V33.1016C251.607 33.3555 251.516 33.5703 251.334 33.7461C251.158 33.9154 250.943 34 250.689 34H248.844C248.59 34 248.372 33.9121 248.189 33.7363C248.014 33.554 247.926 33.3359 247.926 33.082V29.0391H244.43L242.086 33.1016C241.754 33.7005 241.282 34 240.67 34H238.209C237.883 34 237.721 33.8145 237.721 33.4434ZM243.082 22.7598C242.001 22.7598 241.461 23.3327 241.461 24.4785C241.461 25.6243 242.001 26.1973 243.082 26.1973H247.926V22.7598H243.082ZM254.4 33.082V20.9238C254.4 20.6699 254.492 20.4518 254.674 20.2695C254.856 20.0872 255.081 19.9961 255.348 19.9961H257.164C257.418 19.9961 257.633 20.0872 257.809 20.2695C257.991 20.4518 258.082 20.6699 258.082 20.9238V25.3184H264.801V20.9238C264.801 20.6699 264.892 20.4518 265.074 20.2695C265.257 20.0872 265.475 19.9961 265.729 19.9961H267.545C267.812 19.9961 268.033 20.0872 268.209 20.2695C268.391 20.4518 268.482 20.6699 268.482 20.9238V33.082C268.482 33.3359 268.388 33.554 268.199 33.7363C268.017 33.9121 267.799 34 267.545 34H265.729C265.475 34 265.257 33.9154 265.074 33.7461C264.892 33.5703 264.801 33.3555 264.801 33.1016V28.082H258.082V33.1016C258.082 33.3555 257.991 33.5703 257.809 33.7461C257.633 33.9154 257.418 34 257.164 34H255.348C255.094 34 254.872 33.9121 254.684 33.7363C254.495 33.554 254.4 33.3359 254.4 33.082ZM272.301 32.3496C271.096 31.1973 270.494 29.4167 270.494 27.0078C270.494 24.5924 271.096 22.8086 272.301 21.6562C273.512 20.4974 275.325 19.918 277.74 19.918H279.918C281.396 19.918 282.701 20.3021 283.834 21.0703C284.973 21.8385 285.543 22.89 285.543 24.2246C285.543 24.6087 285.429 24.8854 285.201 25.0547C284.973 25.2174 284.752 25.2988 284.537 25.2988H283.375C282.776 25.2988 282.311 24.9408 281.979 24.2246C281.497 23.196 280.696 22.6816 279.576 22.6816H277.838C276.412 22.6816 275.445 22.9876 274.938 23.5996C274.43 24.2116 274.176 25.3444 274.176 26.998C274.176 28.6517 274.43 29.7878 274.938 30.4062C275.445 31.0182 276.412 31.3242 277.838 31.3242H279.781C280.901 31.3242 281.699 30.8099 282.174 29.7812C282.506 29.0586 282.975 28.6973 283.58 28.6973H284.742C285.048 28.6973 285.289 28.8112 285.465 29.0391C285.647 29.2669 285.738 29.5143 285.738 29.7812C285.738 31.1159 285.172 32.1673 284.039 32.9355C282.906 33.6973 281.601 34.0781 280.123 34.0781H277.74C275.325 34.0781 273.512 33.502 272.301 32.3496Z" fill="#1965A4"/>
</svg>
