<svg width="42" height="31" viewBox="0 0 42 31" fill="none" xmlns="http://www.w3.org/2000/svg">
<path d="M41.7598 9.95489L32.0508 0.24038C31.7305 -0.0801676 31.2115 -0.0800855 30.8912 0.24038L24.307 6.82819C24.0342 6.70982 23.738 6.64484 23.4306 6.63933C22.8021 6.63005 22.2071 6.86771 21.7611 7.31411L19.9699 9.10628L11.1091 0.24038C10.7888 -0.0800033 10.2698 -0.0800855 9.94948 0.24038L0.240517 9.95489C0.0865436 10.109 0 10.318 0 10.536C0 10.754 0.0865436 10.963 0.240517 11.1171C0.240517 11.1171 4.94677 15.826 4.94792 15.8272C5.25619 16.1356 5.78686 16.148 6.10752 15.8272L6.70455 15.2298C6.70455 15.2298 8.47316 16.9994 8.47849 17.0047C8.78061 17.307 9.3253 17.3176 9.63809 17.0047L10.2351 16.4073L11.4509 17.6239L11.2739 17.801C10.7847 18.2905 10.4988 18.9297 10.4687 19.601C10.4375 20.3 10.6842 20.949 11.1636 21.4287C11.6155 21.8809 12.2103 22.1105 12.8209 22.1232C12.833 22.758 13.0765 23.3427 13.5173 23.7838C13.9691 24.2359 14.5639 24.4656 15.1746 24.4783C15.1866 25.113 15.4301 25.6977 15.871 26.1388C16.3229 26.591 16.9176 26.8207 17.5282 26.8333C17.5403 27.4681 17.7838 28.0527 18.2246 28.4938C18.6896 28.959 19.3059 29.1895 19.935 29.1895C20.2409 29.1895 20.5497 29.1346 20.8458 29.026C20.8458 29.026 22.042 30.2228 22.0427 30.2236C22.9634 31.1449 24.5482 31.2194 25.5196 30.3143C25.8735 29.9845 26.1162 29.5664 26.2285 29.1038C26.9965 29.2605 27.8219 29.0637 28.42 28.5065C28.7555 28.1938 28.9906 27.8011 29.1091 27.3656C29.919 27.5776 30.8051 27.3972 31.4336 26.8116C31.9581 26.3228 32.2604 25.5732 32.2227 24.8554C32.7284 24.803 33.2098 24.6039 33.585 24.2543C34.0738 23.7988 34.3497 23.1732 34.3618 22.4928C34.374 21.8024 34.1034 21.1285 33.6191 20.644L30.5749 17.5982L31.7649 16.4075C31.7649 16.4075 32.3614 17.0044 32.3619 17.0049C32.6781 17.3211 33.2063 17.3202 33.5215 17.0049L35.2955 15.2299C35.2955 15.2299 35.8913 15.8262 35.8925 15.8273C36.1944 16.1294 36.7385 16.1411 37.0521 15.8273L41.7595 11.1173C41.9135 10.9632 42 10.7541 42 10.5362C42 10.3182 41.9138 10.109 41.7598 9.95489ZM5.52772 14.0848L1.98099 10.536L10.5293 1.98277L14.0761 5.53155L5.52772 14.0848ZM9.05829 15.2623L7.86522 14.0686L15.2368 6.69281L16.4298 7.88661L9.05829 15.2623ZM13.6276 20.156C13.2376 20.5463 12.6524 20.5958 12.3232 20.2665C11.9557 19.8988 12.1002 19.2968 12.4335 18.9632L13.2131 18.1831C13.5353 17.8607 14.1514 17.7065 14.5174 18.0726C14.8798 18.4349 14.7346 19.0483 14.4072 19.3759L13.6276 20.156ZM15.9814 22.511C15.5913 22.9014 15.0063 22.9507 14.6771 22.6215C14.3183 22.2628 14.4618 21.6439 14.7873 21.3183C14.7873 21.3183 15.5667 20.5385 15.5669 20.5382C15.8891 20.2159 16.5052 20.0617 16.8713 20.4277C17.2351 20.7915 17.0898 21.402 16.7611 21.7309L15.9814 22.511ZM18.335 24.866C17.945 25.2564 17.3598 25.3057 17.0306 24.9765C16.6791 24.6248 16.8086 24.0059 17.1409 23.6734L17.9206 22.8933C18.2555 22.5581 18.8574 22.4151 19.225 22.7829C19.593 23.1511 19.4482 23.752 19.1147 24.086L18.335 24.866ZM21.4684 26.441L20.6888 27.2211C20.2988 27.6114 19.7137 27.661 19.3844 27.3316C19.0202 26.9671 19.1653 26.3579 19.4946 26.0283C19.4946 26.0283 20.2738 25.2487 20.2743 25.2482C20.5961 24.9263 21.2131 24.772 21.5786 25.1378C21.9398 25.4992 21.7964 26.1129 21.4684 26.441ZM24.4021 29.1114C24.0739 29.4173 23.5358 29.3948 23.2025 29.0613L22.1867 28.0449L22.628 27.6033C22.8856 27.3456 23.0861 27.0462 23.2233 26.7227C23.2233 26.7227 24.4645 27.9443 24.4649 27.9448C24.7682 28.2432 24.6964 28.8371 24.4021 29.1114ZM32.4599 21.8061C32.7915 22.1377 32.8196 22.7232 32.4676 23.0513C32.1926 23.3077 31.6603 23.2793 31.2978 23.0131L27.4467 19.1598C27.1263 18.8391 26.6069 18.8394 26.2866 19.1603C25.9665 19.4813 25.9666 20.0014 26.2871 20.3221C26.2871 20.3221 30.3375 24.3927 30.3388 24.394C30.667 24.7223 30.6533 25.2944 30.3162 25.6086C29.9991 25.9043 29.4207 25.8629 29.0785 25.5204L25.3247 21.6993C25.0043 21.3786 24.4849 21.3789 24.1646 21.6998C23.8445 22.0208 23.8446 22.5409 24.1651 22.8616C24.1651 22.8616 27.228 25.9914 27.2964 26.0599C27.6297 26.3856 27.6489 26.9809 27.3026 27.3035C26.9743 27.6095 26.4351 27.5859 26.0958 27.2464C26.0958 27.2464 22.6664 23.8865 22.6028 23.8514C22.1708 23.4817 21.6325 23.2921 21.081 23.2807C21.0688 22.6461 20.8254 22.0616 20.3846 21.6206C19.9327 21.1685 19.3379 20.9383 18.7272 20.9257C18.7151 20.291 18.4716 19.7066 18.0309 19.2656C17.5789 18.8136 16.9841 18.5833 16.3735 18.5707C16.3613 17.9361 16.118 17.3516 15.6771 16.9106C14.8912 16.1244 13.6731 16.0087 12.6916 16.5429L11.3956 15.2462L17.5903 9.04804L18.8093 10.2678C18.8093 10.2678 17.7337 11.344 17.7328 11.3449C16.7667 12.3115 16.6266 13.976 17.6225 14.9726C18.5911 15.9418 20.2168 15.8922 21.2461 14.8622L23.3797 12.7273C23.3797 12.7272 32.4526 21.7988 32.4599 21.8061ZM29.4115 16.4398C29.4115 16.4398 23.965 10.9902 23.9596 10.9848C23.6515 10.6765 23.1113 10.6734 22.8 10.9848L20.0867 13.6998C19.6966 14.09 19.1115 14.1394 18.7823 13.8102C18.415 13.4429 18.5596 12.8401 18.8926 12.5069C18.8926 12.5069 22.9172 8.48005 22.9209 8.47644C23.1711 8.22605 23.5829 8.22022 23.8302 8.46781L30.6047 15.2461L29.4115 16.4398ZM32.942 15.2623L25.5793 7.87774L26.7636 6.69273L34.1351 14.0685L32.942 15.2623ZM36.4726 14.0848L27.9242 5.53155L31.471 1.98277L40.0194 10.536L36.4726 14.0848Z" fill="white"/>
</svg>
