<svg width="52" height="58" viewBox="0 0 52 58" fill="none" xmlns="http://www.w3.org/2000/svg">
<path d="M51.9964 27.5405C51.9961 26.915 51.4878 26.4081 50.861 26.4081H47.845C47.3199 24.3754 46.5168 22.4401 45.4489 20.6344L47.5818 18.5064C48.0252 18.064 48.0252 17.3467 47.5818 16.9042L41.1898 10.5268C40.7464 10.0845 40.0275 10.0845 39.584 10.5268L38.941 11.1684C38.8807 6.6371 36.415 2.42768 32.4726 0.15242C32.1213 -0.0504666 31.6883 -0.0505798 31.3369 0.151627C30.9853 0.353948 30.7687 0.728003 30.7687 1.13298V10.0369L25.9999 12.784L21.2311 10.0369V1.13287C21.2311 0.728003 21.0144 0.353948 20.6629 0.151514C20.3114 -0.0508064 19.8783 -0.0504666 19.5272 0.152307C15.59 2.42473 13.1257 6.62588 13.0591 11.1502L12.4233 10.5159C11.9799 10.0735 11.261 10.0735 10.8175 10.5159L4.42547 16.8933C3.9821 17.3356 3.9821 18.0529 4.42547 18.4954L6.56912 20.634C5.50138 22.4397 4.69808 24.3751 4.17296 26.408H1.1387C0.511841 26.408 0.00351976 26.9149 0.00329268 27.5403L8.07955e-08 36.5593C-0.00011346 36.8599 0.119445 37.1481 0.332447 37.3606C0.545335 37.5732 0.834183 37.6926 1.13541 37.6926H4.17273C4.69785 39.7253 5.50093 41.6609 6.56878 43.4667L4.41786 45.6127C3.97449 46.055 3.97449 46.7723 4.41786 47.2148L10.8099 53.5922C11.2532 54.0345 11.9722 54.0345 12.4157 53.5922L14.5666 51.4462C16.3764 52.5115 18.3165 53.313 20.354 53.8369V56.8672C20.354 57.1676 20.4736 57.4559 20.6866 57.6683C20.8995 57.8807 21.1883 58 21.4894 58C21.4895 58 21.4896 58 21.4898 58L30.5295 57.9967C31.1563 57.9965 31.6644 57.4893 31.6644 56.8639V53.8367C33.7018 53.3128 35.6418 52.5115 37.4517 51.446L39.5952 53.5847C39.8081 53.7971 40.097 53.9165 40.3981 53.9165C40.3982 53.9165 40.3983 53.9165 40.3984 53.9165C40.6996 53.9164 40.9885 53.7969 41.2014 53.5843L47.5899 47.2034C48.0328 46.7609 48.0326 46.0441 47.5894 45.6017L45.4493 43.4663C46.517 41.6606 47.3202 39.7253 47.8453 37.6925H50.8646C51.1658 37.6925 51.4547 37.5731 51.6676 37.3605C51.8804 37.148 52.0001 36.8598 52 36.5592L51.9964 27.5405ZM18.9601 3.33597V10.6908C18.9601 11.0955 19.1765 11.4695 19.5278 11.6718L25.4322 15.0728C25.7835 15.2751 26.2163 15.2751 26.5676 15.0728L32.4719 11.6718C32.8232 11.4695 33.0396 11.0955 33.0396 10.6908V3.33597C35.3186 5.33878 36.673 8.25385 36.673 11.338C36.673 17.2099 31.8851 21.9868 25.9999 21.9868C20.1146 21.9868 15.3267 17.2099 15.3267 11.338C15.3267 8.25385 16.6812 5.33867 18.9601 3.33597ZM46.9469 35.4271V35.427C46.4118 35.427 45.9492 35.7998 45.8368 36.3218C45.3217 38.7141 44.3867 40.9672 43.0575 43.0189C42.767 43.4672 42.8299 44.0572 43.2082 44.4348L45.1811 46.4032L40.3976 51.181L38.4222 49.2102C38.0438 48.8328 37.4526 48.7698 37.003 49.0598C34.9467 50.3857 32.6883 51.3188 30.2904 51.8329C29.7672 51.945 29.3935 52.4065 29.3935 52.9404V55.7314L22.6248 55.7338V52.9405C22.6248 52.4066 22.2511 51.9451 21.7279 51.8331C19.3299 51.319 17.0716 50.386 15.0153 49.0599C14.5658 48.7701 13.9745 48.8328 13.596 49.2103L11.6128 51.189L6.8264 46.4138L8.80961 44.4351C9.18804 44.0576 9.25083 43.4676 8.96028 43.0192C7.6314 40.9676 6.69628 38.7143 6.18092 36.3219C6.06852 35.7999 5.60607 35.4271 5.07084 35.4271H2.27138L2.27376 28.6738H5.07118C5.60629 28.6738 6.06886 28.301 6.18126 27.779C6.69651 25.3865 7.63152 23.1334 8.96062 21.0818C9.25117 20.6335 9.18827 20.0434 8.80995 19.6658L6.83401 17.6945L11.6202 12.9192L13.5376 14.8322C14.399 17.8868 16.3611 20.486 18.9677 22.1754V43.9697C18.9377 43.952 18.9072 43.9354 18.8773 43.9175C18.3399 43.5954 17.6422 43.7691 17.3194 44.3056C16.9966 44.8419 17.1707 45.5379 17.7084 45.86C20.2858 47.404 23.1508 48.1571 25.9964 48.157C30.1617 48.1569 34.2851 46.5431 37.4008 43.4345C40.161 40.6805 41.8252 37.0263 42.0868 33.1447C42.3458 29.3008 41.2194 25.4944 38.9151 22.4266C38.539 21.9261 37.8275 21.8244 37.3256 22.1995C36.8238 22.5747 36.7219 23.2847 37.0979 23.7854C41.1972 29.2431 40.6371 37.0016 35.7951 41.8325C34.9557 42.67 34.0312 43.3812 33.0472 43.9631V31.0022C33.0472 30.3767 32.5389 29.8694 31.9118 29.8694C31.2847 29.8694 30.7764 30.3767 30.7764 31.0022V45.0393C29.2424 45.6028 27.6232 45.8903 25.9961 45.8902C24.3928 45.8901 22.7823 45.6097 21.2388 45.0438V23.3471C22.7132 23.9311 24.3198 24.2525 26.0001 24.2525C31.9152 24.2525 36.9161 20.2733 38.4556 14.8571L40.3873 12.9299L45.1735 17.7051L43.2083 19.6657C42.8299 20.0433 42.7671 20.6332 43.0577 21.0817C44.3865 23.1332 45.3217 25.3864 45.8369 27.7788C45.9493 28.3008 46.4118 28.6736 46.947 28.6736H49.7262L49.7287 35.4269H46.9469V35.4271Z" fill="#fff"/>
<path d="M14.6469 22.2302C14.1441 21.8564 13.4327 21.9602 13.058 22.4618C9.68403 26.9797 8.9375 33.0256 11.1099 38.2403C11.2913 38.676 11.7137 38.9387 12.1588 38.9387C12.304 38.9387 12.4517 38.9107 12.5941 38.8515C13.1731 38.6115 13.4474 37.9486 13.2067 37.3708C11.3401 32.8902 11.981 27.6962 14.8788 23.8156C15.2538 23.3139 15.1498 22.6042 14.6469 22.2302Z" fill="#fff"/>
<path d="M15.1486 40.7752C15.1479 40.7745 15.1473 40.7738 15.1466 40.7731C14.7033 40.3312 13.9817 40.3276 13.5381 40.7695C13.0945 41.2114 13.0971 41.9314 13.5398 42.3744C13.7623 42.597 14.0555 42.7087 14.3484 42.7087C14.6379 42.7087 14.9275 42.5995 15.1482 42.38C15.5923 41.9387 15.5906 41.2187 15.1486 40.7752Z" fill="#fff"/>
<path d="M32.715 25.5184C32.5038 25.3077 32.2109 25.1865 31.9123 25.1865C31.6125 25.1865 31.3196 25.3077 31.1095 25.5184C30.8972 25.7291 30.7769 26.0213 30.7769 26.3193C30.7769 26.6183 30.8972 26.9095 31.1095 27.1202C31.3207 27.332 31.6125 27.4521 31.9123 27.4521C32.2109 27.4521 32.5038 27.332 32.715 27.1202C32.9262 26.9095 33.0477 26.6183 33.0477 26.3193C33.0477 26.0213 32.9262 25.7291 32.715 25.5184Z" fill="#fff"/>
</svg>
