<svg width="48" height="57" viewBox="0 0 48 57" fill="none" xmlns="http://www.w3.org/2000/svg">
<path d="M47.1289 9.84264C39.3848 7.69379 31.5952 4.34783 24.6022 0.166574C24.2307 -0.0555248 23.7698 -0.0555248 23.3985 0.166574C16.2037 4.46795 8.83504 7.63289 0.871092 9.84264C0.356616 9.98525 0 10.4588 0 10.9991V23.2503C0 35.8663 5.74708 44.2172 10.5684 49.0011C15.7589 54.1517 21.8051 57 24.0003 57C26.1953 57 32.2415 54.1517 37.432 49.0011C42.2533 44.2173 48 35.8664 48 23.2503V10.999C48 10.4588 47.6434 9.98525 47.1289 9.84264ZM45.6321 23.2502C45.6321 35.0335 40.2717 42.8259 35.7747 47.2881C30.6705 52.353 25.2132 54.6018 24.0003 54.6018C22.7875 54.6018 17.3298 52.353 12.2255 47.2881C7.72858 42.8257 2.36802 35.0335 2.36802 23.2502V11.9092C9.98381 9.71939 17.0763 6.66333 24.0005 2.5884C30.7518 6.55523 38.1982 9.76326 45.6321 11.9088V23.2502Z" fill="white"/>
<path d="M47.1289 9.84264C39.3848 7.69379 31.5952 4.34783 24.6022 0.166574C24.2307 -0.0555248 23.7698 -0.0555248 23.3985 0.166574C16.2037 4.46795 8.83504 7.63289 0.871092 9.84264C0.356616 9.98525 0 10.4588 0 10.9991V23.2503C0 35.8663 5.74708 44.2172 10.5684 49.0011C15.7589 54.1517 21.8051 57 24.0003 57C26.1953 57 32.2415 54.1517 37.432 49.0011C42.2533 44.2173 48 35.8664 48 23.2503V10.999C48 10.4588 47.6434 9.98525 47.1289 9.84264ZM45.6321 23.2502C45.6321 35.0335 40.2717 42.8259 35.7747 47.2881C30.6705 52.353 25.2132 54.6018 24.0003 54.6018C22.7875 54.6018 17.3298 52.353 12.2255 47.2881C7.72858 42.8257 2.36802 35.0335 2.36802 23.2502V11.9092C9.98381 9.71939 17.0763 6.66333 24.0005 2.5884C30.7518 6.55523 38.1982 9.76326 45.6321 11.9088V23.2502Z" fill="url(#paint0_linear)"/>
<path d="M13.5059 11.775C13.2662 11.1588 12.5789 10.8561 11.9703 11.099C9.8552 11.9429 7.68429 12.7198 5.51788 13.408C5.02418 13.565 4.68823 14.0281 4.68823 14.552V19.1822C4.68823 19.8444 5.21843 20.3812 5.87219 20.3812C6.52595 20.3812 7.05614 19.8444 7.05614 19.1822V15.4283C8.99961 14.7915 10.941 14.0871 12.8383 13.33C13.4468 13.0874 13.7457 12.3912 13.5059 11.775Z" fill="white"/>
<path d="M13.5059 11.775C13.2662 11.1588 12.5789 10.8561 11.9703 11.099C9.8552 11.9429 7.68429 12.7198 5.51788 13.408C5.02418 13.565 4.68823 14.0281 4.68823 14.552V19.1822C4.68823 19.8444 5.21843 20.3812 5.87219 20.3812C6.52595 20.3812 7.05614 19.8444 7.05614 19.1822V15.4283C8.99961 14.7915 10.941 14.0871 12.8383 13.33C13.4468 13.0874 13.7457 12.3912 13.5059 11.775Z" fill="url(#paint1_linear)"/>
<path d="M15.7548 12.0024C15.9136 12.0024 16.0749 11.97 16.2296 11.9016L16.2513 11.8921C16.8503 11.6262 17.1201 10.9201 16.8576 10.3137C16.5949 9.70704 15.8936 9.43262 15.2953 9.69825L15.2761 9.7066C14.6768 9.97167 14.4061 10.6773 14.6679 11.284C14.8621 11.7344 15.298 12.0024 15.7548 12.0024Z" fill="white"/>
<path d="M15.7548 12.0024C15.9136 12.0024 16.0749 11.97 16.2296 11.9016L16.2513 11.8921C16.8503 11.6262 17.1201 10.9201 16.8576 10.3137C16.5949 9.70704 15.8936 9.43262 15.2953 9.69825L15.2761 9.7066C14.6768 9.97167 14.4061 10.6773 14.6679 11.284C14.8621 11.7344 15.298 12.0024 15.7548 12.0024Z" fill="url(#paint2_linear)"/>
<path d="M38.1066 38.6624C37.5594 38.3003 36.8258 38.456 36.4677 39.0103C35.4921 40.5226 34.3475 41.9707 33.0652 43.3141C32.0108 44.4187 30.8682 45.4483 29.6692 46.374C29.1493 46.7754 29.0493 47.5278 29.4456 48.0545C29.6787 48.3639 30.0313 48.5266 30.3879 48.5266C30.6383 48.5266 30.8906 48.4466 31.105 48.2809C32.3983 47.2822 33.6306 46.1719 34.7675 44.9809C36.1539 43.5288 37.3928 41.9613 38.4501 40.322C38.8079 39.7676 38.6539 39.0246 38.1066 38.6624Z" fill="white"/>
<path d="M38.1066 38.6624C37.5594 38.3003 36.8258 38.456 36.4677 39.0103C35.4921 40.5226 34.3475 41.9707 33.0652 43.3141C32.0108 44.4187 30.8682 45.4483 29.6692 46.374C29.1493 46.7754 29.0493 47.5278 29.4456 48.0545C29.6787 48.3639 30.0313 48.5266 30.3879 48.5266C30.6383 48.5266 30.8906 48.4466 31.105 48.2809C32.3983 47.2822 33.6306 46.1719 34.7675 44.9809C36.1539 43.5288 37.3928 41.9613 38.4501 40.322C38.8079 39.7676 38.6539 39.0246 38.1066 38.6624Z" fill="url(#paint3_linear)"/>
<path d="M26.9195 48.2545L26.8515 48.295C26.2857 48.6269 26.0924 49.3603 26.42 49.9333C26.6395 50.3174 27.0369 50.5318 27.4457 50.5318C27.6469 50.5318 27.8511 50.4799 28.0377 50.3702L28.1161 50.3236C28.6804 49.9889 28.8699 49.2545 28.5394 48.683C28.2088 48.1118 27.4834 47.9202 26.9195 48.2545Z" fill="white"/>
<path d="M26.9195 48.2545L26.8515 48.295C26.2857 48.6269 26.0924 49.3603 26.42 49.9333C26.6395 50.3174 27.0369 50.5318 27.4457 50.5318C27.6469 50.5318 27.8511 50.4799 28.0377 50.3702L28.1161 50.3236C28.6804 49.9889 28.8699 49.2545 28.5394 48.683C28.2088 48.1118 27.4834 47.9202 26.9195 48.2545Z" fill="url(#paint4_linear)"/>
<path d="M15.9299 26.0528C15.203 25.3165 14.2361 24.9113 13.2078 24.9113C12.1795 24.9113 11.2126 25.3166 10.4853 26.0528C8.9844 27.5731 8.9844 30.0468 10.4853 31.567L17.4764 38.6468C18.2035 39.3829 19.1704 39.7882 20.1988 39.7882C21.2272 39.7882 22.194 39.3829 22.9212 38.6466L37.5157 23.8665C39.0165 22.3458 39.0165 19.8725 37.5155 18.3527C36.7884 17.6164 35.8216 17.2112 34.7931 17.2112C33.7647 17.2112 32.7978 17.6165 32.0707 18.3527L20.1987 30.3756L15.9299 26.0528ZM33.7451 20.0485C34.0249 19.7652 34.3972 19.6092 34.7932 19.6092C35.1894 19.6092 35.5614 19.7652 35.8414 20.0485C36.4191 20.6335 36.4191 21.5858 35.8412 22.1711L21.2469 36.9509C20.9671 37.2343 20.5947 37.3902 20.1988 37.3902C19.8028 37.3902 19.4305 37.2343 19.1506 36.9509L12.1596 29.8714C11.5817 29.2861 11.5817 28.3338 12.1594 27.7488C12.4393 27.4655 12.8116 27.3093 13.2077 27.3093C13.6038 27.3093 13.9759 27.4653 14.2557 27.7486L19.3614 32.9193C19.5836 33.1441 19.8846 33.2705 20.1987 33.2705C20.5127 33.2705 20.8137 33.1442 21.0357 32.9193L33.7451 20.0485Z" fill="white"/>
<path d="M15.9299 26.0528C15.203 25.3165 14.2361 24.9113 13.2078 24.9113C12.1795 24.9113 11.2126 25.3166 10.4853 26.0528C8.9844 27.5731 8.9844 30.0468 10.4853 31.567L17.4764 38.6468C18.2035 39.3829 19.1704 39.7882 20.1988 39.7882C21.2272 39.7882 22.194 39.3829 22.9212 38.6466L37.5157 23.8665C39.0165 22.3458 39.0165 19.8725 37.5155 18.3527C36.7884 17.6164 35.8216 17.2112 34.7931 17.2112C33.7647 17.2112 32.7978 17.6165 32.0707 18.3527L20.1987 30.3756L15.9299 26.0528ZM33.7451 20.0485C34.0249 19.7652 34.3972 19.6092 34.7932 19.6092C35.1894 19.6092 35.5614 19.7652 35.8414 20.0485C36.4191 20.6335 36.4191 21.5858 35.8412 22.1711L21.2469 36.9509C20.9671 37.2343 20.5947 37.3902 20.1988 37.3902C19.8028 37.3902 19.4305 37.2343 19.1506 36.9509L12.1596 29.8714C11.5817 29.2861 11.5817 28.3338 12.1594 27.7488C12.4393 27.4655 12.8116 27.3093 13.2077 27.3093C13.6038 27.3093 13.9759 27.4653 14.2557 27.7486L19.3614 32.9193C19.5836 33.1441 19.8846 33.2705 20.1987 33.2705C20.5127 33.2705 20.8137 33.1442 21.0357 32.9193L33.7451 20.0485Z" fill="url(#paint5_linear)"/>
<defs>
<linearGradient id="paint0_linear" x1="24" y1="0" x2="24" y2="57" gradientUnits="userSpaceOnUse">
<stop stop-color="#5791BE"/>
<stop offset="1" stop-color="#366E9A"/>
</linearGradient>
<linearGradient id="paint1_linear" x1="9.13845" y1="11.0151" x2="9.13845" y2="20.3812" gradientUnits="userSpaceOnUse">
<stop stop-color="#5791BE"/>
<stop offset="1" stop-color="#366E9A"/>
</linearGradient>
<linearGradient id="paint2_linear" x1="15.7631" y1="9.59692" x2="15.7631" y2="12.0024" gradientUnits="userSpaceOnUse">
<stop stop-color="#5791BE"/>
<stop offset="1" stop-color="#366E9A"/>
</linearGradient>
<linearGradient id="paint3_linear" x1="33.9231" y1="38.467" x2="33.9231" y2="48.5266" gradientUnits="userSpaceOnUse">
<stop stop-color="#5791BE"/>
<stop offset="1" stop-color="#366E9A"/>
</linearGradient>
<linearGradient id="paint4_linear" x1="27.4812" y1="48.0901" x2="27.4812" y2="50.5318" gradientUnits="userSpaceOnUse">
<stop stop-color="#5791BE"/>
<stop offset="1" stop-color="#366E9A"/>
</linearGradient>
<linearGradient id="paint5_linear" x1="24.0005" y1="17.2112" x2="24.0005" y2="39.7882" gradientUnits="userSpaceOnUse">
<stop stop-color="#5791BE"/>
<stop offset="1" stop-color="#366E9A"/>
</linearGradient>
</defs>
</svg>
