<svg width="35" height="41" viewBox="0 0 35 41" fill="none" xmlns="http://www.w3.org/2000/svg">
<path d="M34.3648 7.07979C28.7181 5.53413 23.0382 3.12738 17.9391 0.119817C17.6683 -0.0399389 17.3321 -0.0399389 17.0614 0.119817C11.8152 3.21379 6.44221 5.49032 0.635171 7.07979C0.260032 7.18237 0 7.52302 0 7.91164V16.7239C0 25.7986 4.19058 31.8054 7.70614 35.2464C11.4909 38.9512 15.8996 41 17.5002 41C19.1008 41 23.5094 38.9512 27.2942 35.2464C30.8097 31.8055 35 25.7986 35 16.7239V7.91156C35 7.52302 34.74 7.18237 34.3648 7.07979ZM33.2734 16.7238C33.2734 25.1995 29.3648 30.8046 26.0857 34.0142C22.3639 37.6574 18.3846 39.275 17.5002 39.275C16.6159 39.275 12.6363 37.6574 8.91444 34.0142C5.63542 30.8045 1.72668 25.1995 1.72668 16.7238V8.56628C7.27986 6.99114 12.4515 4.79292 17.5004 1.86183C22.4232 4.71517 27.8529 7.02269 33.2734 8.56596V16.7238Z" fill="white"/>
<path d="M9.848 8.46982C9.67326 8.02659 9.17203 7.80885 8.72828 7.9835C7.18604 8.59058 5.60308 9.14936 4.02341 9.6444C3.66342 9.75731 3.41846 10.0904 3.41846 10.4673V13.7978C3.41846 14.2741 3.80506 14.6602 4.28176 14.6602C4.75846 14.6602 5.14506 14.2741 5.14506 13.7978V11.0976C6.56217 10.6395 7.97776 10.1329 9.36121 9.58827C9.80488 9.41378 10.0228 8.91305 9.848 8.46982Z" fill="white"/>
<path d="M11.488 8.63333C11.6038 8.63333 11.7214 8.61003 11.8342 8.56086L11.85 8.55397C12.2868 8.36275 12.4835 7.85481 12.2921 7.41863C12.1005 6.98228 11.5892 6.78489 11.1529 6.97596L11.1389 6.98196C10.7019 7.17263 10.5046 7.68016 10.6954 8.11659C10.8371 8.44058 11.1549 8.63333 11.488 8.63333Z" fill="white"/>
<path d="M27.786 27.8097C27.3871 27.5492 26.8521 27.6613 26.591 28.06C25.8796 29.1477 25.045 30.1894 24.1101 31.1557C23.3412 31.9502 22.508 32.6908 21.6338 33.3566C21.2547 33.6454 21.1817 34.1866 21.4707 34.5654C21.6407 34.7879 21.8978 34.905 22.1578 34.905C22.3404 34.905 22.5244 34.8474 22.6807 34.7283C23.6238 34.0099 24.5223 33.2113 25.3513 32.3546C26.3622 31.3101 27.2656 30.1826 28.0365 29.0034C28.2974 28.6047 28.1851 28.0702 27.786 27.8097Z" fill="white"/>
<path d="M19.6288 34.7092L19.5793 34.7384C19.1667 34.9771 19.0257 35.5046 19.2646 35.9168C19.4247 36.1931 19.7144 36.3473 20.0125 36.3473C20.1592 36.3473 20.3082 36.3099 20.4442 36.231L20.5013 36.1975C20.9128 35.9568 21.051 35.4285 20.81 35.0174C20.5689 34.6066 20.04 34.4687 19.6288 34.7092Z" fill="white"/>
<path d="M11.6156 18.7398C11.0855 18.2102 10.3805 17.9187 9.63069 17.9187C8.8809 17.9187 8.17583 18.2102 7.6455 18.7398C6.55111 19.8333 6.55111 21.6127 7.6455 22.7061L12.7432 27.7986C13.2734 28.3281 13.9784 28.6196 14.7283 28.6196C15.4781 28.6196 16.1831 28.3281 16.7134 27.7984L27.3552 17.1671C28.4495 16.0734 28.4495 14.2943 27.3551 13.2011C26.8249 12.6715 26.1199 12.38 25.3699 12.38C24.6201 12.38 23.9151 12.6716 23.3848 13.2011L14.7282 21.8491L11.6156 18.7398ZM24.6058 14.4209C24.8098 14.2171 25.0813 14.1049 25.37 14.1049C25.6589 14.1049 25.9302 14.2171 26.1343 14.4209C26.5556 14.8417 26.5556 15.5267 26.1342 15.9476L15.4925 26.5788C15.2885 26.7826 15.017 26.8948 14.7283 26.8948C14.4395 26.8948 14.168 26.7826 13.964 26.5788L8.86639 21.4865C8.445 21.0655 8.445 20.3805 8.86623 19.9597C9.07031 19.7559 9.34181 19.6436 9.63062 19.6436C9.91942 19.6436 10.1908 19.7557 10.3948 19.9595L14.1177 23.6788C14.2797 23.8405 14.4992 23.9314 14.7282 23.9314C14.9572 23.9314 15.1767 23.8406 15.3385 23.6788L24.6058 14.4209Z" fill="white"/>
</svg>
