<svg width="42" height="42" viewBox="0 0 42 42" fill="none" xmlns="http://www.w3.org/2000/svg">
<path d="M39.6114 15.6539C38.1984 10.7259 34.8002 6.48196 30.288 4.01019C29.8906 3.79281 29.3921 3.93825 29.1744 4.33553C28.9568 4.73281 29.1024 5.23139 29.4997 5.4491C33.6305 7.71194 36.7412 11.5963 38.0344 16.106C38.1376 16.4661 38.4658 16.7005 38.8225 16.7005C38.8973 16.7005 38.9735 16.6902 39.049 16.6684C39.4846 16.5437 39.7363 16.0893 39.6114 15.6539Z" fill="white"/>
<path d="M27.0124 2.59272L26.9758 2.58074C26.5442 2.44227 26.0824 2.67967 25.9439 3.11099C25.8054 3.54231 26.0428 4.00423 26.4741 4.14286L26.5036 4.15238C26.5881 4.17994 26.6738 4.19306 26.7581 4.19306C27.1036 4.19306 27.425 3.97306 27.5379 3.62688C27.6784 3.19614 27.443 2.73307 27.0124 2.59272Z" fill="white"/>
<path d="M3.75418 14.1342C3.32598 13.9855 2.85873 14.2117 2.71001 14.6396C2.55103 15.0969 2.40764 15.5656 2.2841 16.0327C2.16819 16.4706 2.42921 16.9196 2.86718 17.0356C2.93748 17.0543 3.00811 17.0631 3.07759 17.0631C3.44074 17.0631 3.7728 16.8201 3.87001 16.4525C3.98313 16.0253 4.11422 15.5966 4.25958 15.1784C4.4083 14.7504 4.18214 14.2829 3.75418 14.1342Z" fill="white"/>
<path d="M6.56682 9.3347C6.20268 9.06548 5.68892 9.1425 5.41969 9.50713C5.13217 9.89621 4.85614 10.3008 4.59913 10.7096C4.35796 11.0931 4.47338 11.5995 4.85696 11.8407C4.99255 11.926 5.14357 11.9666 5.29279 11.9666C5.56546 11.9666 5.83223 11.8307 5.98809 11.5828C6.22335 11.2085 6.47609 10.8382 6.73925 10.4818C7.00847 10.1175 6.93128 9.60385 6.56682 9.3347Z" fill="white"/>
<path d="M15.7014 3.20993C15.5531 2.78189 15.0858 2.55516 14.6577 2.70355C14.2008 2.86196 13.7444 3.03972 13.3012 3.232C12.8856 3.4123 12.6948 3.89539 12.8751 4.31096C13.0093 4.62038 13.3111 4.8052 13.628 4.8052C13.737 4.8052 13.8478 4.78329 13.9541 4.73719C14.3596 4.56123 14.7771 4.39865 15.1951 4.2537C15.6231 4.1053 15.8498 3.63797 15.7014 3.20993Z" fill="white"/>
<path d="M10.6711 5.58079C10.4023 5.21608 9.88874 5.13823 9.52403 5.40721C9.1352 5.69391 8.7522 5.99898 8.38568 6.31407C8.04214 6.60938 8.00301 7.12732 8.2984 7.47087C8.46058 7.65946 8.69002 7.75634 8.92077 7.75634C9.1101 7.75634 9.30033 7.69112 9.45512 7.55807C9.79071 7.26957 10.1414 6.99025 10.4975 6.72783C10.8621 6.45901 10.9399 5.9455 10.6711 5.58079Z" fill="white"/>
<path d="M2.46094 18.5391C1.10398 18.5391 0 19.643 0 21C0 22.357 1.10398 23.4609 2.46094 23.4609C3.8179 23.4609 4.92188 22.357 4.92188 21C4.92188 19.643 3.8179 18.5391 2.46094 18.5391ZM2.46094 21.8203C2.00862 21.8203 1.64062 21.4523 1.64062 21C1.64062 20.5477 2.00862 20.1797 2.46094 20.1797C2.91326 20.1797 3.28125 20.5477 3.28125 21C3.28125 21.4523 2.91326 21.8203 2.46094 21.8203Z" fill="white"/>
<path d="M39.5391 18.5391C38.1821 18.5391 37.0781 19.643 37.0781 21C37.0781 22.357 38.1821 23.4609 39.5391 23.4609C40.896 23.4609 42 22.357 42 21C42 19.643 40.896 18.5391 39.5391 18.5391ZM39.5391 21.8203C39.0867 21.8203 38.7188 21.4523 38.7188 21C38.7188 20.5477 39.0867 20.1797 39.5391 20.1797C39.9914 20.1797 40.3594 20.5477 40.3594 21C40.3594 21.4523 39.9914 21.8203 39.5391 21.8203Z" fill="white"/>
<path d="M21 0C19.643 0 18.5391 1.10398 18.5391 2.46094C18.5391 3.8179 19.643 4.92188 21 4.92188C22.357 4.92188 23.4609 3.8179 23.4609 2.46094C23.4609 1.10398 22.357 0 21 0ZM21 3.28125C20.5477 3.28125 20.1797 2.91326 20.1797 2.46094C20.1797 2.00862 20.5477 1.64062 21 1.64062C21.4523 1.64062 21.8203 2.00862 21.8203 2.46094C21.8203 2.91326 21.4523 3.28125 21 3.28125Z" fill="white"/>
<path d="M12.6009 36.6058C8.41809 34.3496 5.27063 30.4453 3.96543 25.894C3.84066 25.4586 3.38654 25.2064 2.95079 25.3317C2.51528 25.4565 2.26353 25.9108 2.38846 26.3463C3.81449 31.3195 7.253 35.5853 11.8221 38.0499C11.946 38.1166 12.0794 38.1483 12.2108 38.1483C12.5027 38.1483 12.7853 37.9922 12.9336 37.7173C13.1486 37.3186 12.9998 36.8209 12.6009 36.6058Z" fill="white"/>
<path d="M15.5291 37.8581L15.5057 37.8505C15.0741 37.7119 14.6122 37.9489 14.4735 38.3801C14.3348 38.8113 14.5717 39.2735 15.0031 39.4123L15.0212 39.4181C15.1055 39.4456 15.1911 39.4587 15.2753 39.4587C15.6209 39.4587 15.9424 39.2384 16.0552 38.8921C16.1954 38.4613 15.9599 37.9984 15.5291 37.8581Z" fill="white"/>
<path d="M29.1249 37.6889C28.9445 37.2734 28.4615 37.0822 28.046 37.2627C27.6405 37.4387 27.223 37.6013 26.805 37.7462C26.377 37.8946 26.1503 38.3619 26.2986 38.79C26.4162 39.1291 26.7339 39.3419 27.0737 39.3419C27.1628 39.3419 27.2534 39.3272 27.3423 39.2963C27.7992 39.1379 28.2556 38.9602 28.6988 38.7679C29.1145 38.5876 29.3053 38.1045 29.1249 37.6889Z" fill="white"/>
<path d="M37.1431 30.1593C36.7596 29.9181 36.2531 30.0337 36.0121 30.4172C35.7768 30.7915 35.5241 31.1618 35.2609 31.5182C34.9917 31.8825 35.0689 32.3962 35.4334 32.6653C35.5799 32.7737 35.7507 32.8259 35.9201 32.8259C36.1715 32.8259 36.4197 32.7107 36.5806 32.4929C36.8681 32.1038 37.1441 31.6992 37.4011 31.2904C37.6421 30.9069 37.5267 30.4005 37.1431 30.1593Z" fill="white"/>
<path d="M33.7016 34.5289C33.4063 34.1854 32.8884 34.1464 32.5448 34.4417C32.2092 34.7302 31.8585 35.0095 31.5024 35.2719C31.1378 35.5407 31.0601 36.0542 31.3289 36.4189C31.4897 36.6371 31.738 36.7526 31.9899 36.7526C32.1589 36.7526 32.3295 36.7005 32.476 36.5925C32.8648 36.3058 33.2478 36.0007 33.6143 35.6857C33.9579 35.3903 33.997 34.8724 33.7016 34.5289Z" fill="white"/>
<path d="M39.1329 24.9645C38.6951 24.8483 38.2459 25.1096 38.13 25.5476C38.0169 25.9747 37.8858 26.4035 37.7404 26.8217C37.5917 27.2496 37.8178 27.7171 38.2458 27.8658C38.3351 27.8969 38.4258 27.9116 38.5152 27.9116C38.8547 27.9116 39.1723 27.6992 39.29 27.3605C39.449 26.9031 39.5923 26.4344 39.7159 25.9673C39.8319 25.5294 39.5709 25.0804 39.1329 24.9645Z" fill="white"/>
<path d="M21 37.0781C19.643 37.0781 18.5391 38.1821 18.5391 39.5391C18.5391 40.896 19.643 42 21 42C22.357 42 23.4609 40.896 23.4609 39.5391C23.4609 38.1821 22.357 37.0781 21 37.0781ZM21 40.3594C20.5477 40.3594 20.1797 39.9914 20.1797 39.5391C20.1797 39.0867 20.5477 38.7188 21 38.7188C21.4523 38.7188 21.8203 39.0867 21.8203 39.5391C21.8203 39.9914 21.4523 40.3594 21 40.3594Z" fill="white"/>
<path d="M24.9848 20.1797H24.6472C25.4155 19.3166 25.8836 18.1806 25.8836 16.9368V15.2109V14.4125V14.2328C25.8836 11.54 23.6928 9.34924 21 9.34924C18.3072 9.34924 16.1164 11.54 16.1164 14.2328V14.4125V15.2109V16.9368C16.1164 18.1806 16.5845 19.3166 17.3528 20.1797H17.0153C13.6681 20.1797 10.9449 22.9029 10.9449 26.2501V30.3492C10.9449 30.8021 11.3123 31.1695 11.7653 31.1695H30.2348C30.6877 31.1695 31.0551 30.8021 31.0551 30.3492V26.2501C31.0551 22.9029 28.332 20.1797 24.9848 20.1797ZM21 10.9898C22.6266 10.9898 23.9774 12.1937 24.2082 13.7571L22.7606 12.9067C22.4153 12.7037 21.9737 12.78 21.7164 13.0871C21.0222 13.9155 20.0043 14.3906 18.9235 14.3906H17.7571V14.2327C17.7571 12.4445 19.2118 10.9898 21 10.9898ZM17.7571 16.0313H18.9235C20.2544 16.0313 21.5197 15.5344 22.4875 14.649L24.2429 15.6803V16.9367C24.2429 18.725 22.7882 20.1797 21 20.1797C19.2118 20.1797 17.7571 18.725 17.7571 16.9368V16.0313ZM29.4144 29.5288H12.5856V26.2501C12.5856 23.8076 14.5728 21.8204 17.0153 21.8204H20.1797V25.2657C20.1797 25.7187 20.547 26.086 21 26.086C21.453 26.086 21.8203 25.7187 21.8203 25.2657V21.8204H24.9848C27.4272 21.8204 29.4144 23.8076 29.4144 26.2501V29.5288Z" fill="white"/>
<path d="M14.9464 16.3893L13.8582 15.301C13.7044 15.1471 13.4957 15.0607 13.2781 15.0607C13.0606 15.0607 12.852 15.1471 12.6981 15.3009L7.60109 20.3979C7.28076 20.7182 7.28076 21.2376 7.60109 21.558C7.76138 21.7183 7.9713 21.7984 8.18121 21.7984C8.39113 21.7984 8.60105 21.7182 8.76126 21.5581L13.2781 17.0412L13.7862 17.5494C14.1067 17.8697 14.6259 17.8698 14.9464 17.5494C15.2667 17.2291 15.2667 16.7097 14.9464 16.3893Z" fill="white"/>
<path d="M32.1978 9.74792H29.8939C29.441 9.74792 29.0736 10.1153 29.0736 10.5682C29.0736 11.0212 29.441 11.3885 29.8939 11.3885H30.2159L27.1922 14.4123C26.8718 14.7326 26.8718 15.2521 27.1922 15.5725C27.3524 15.7326 27.5623 15.8127 27.7722 15.8127C27.9821 15.8127 28.192 15.7326 28.3522 15.5725L31.3775 12.5472V12.8722C31.3775 13.3251 31.7447 13.6925 32.1978 13.6925C32.6508 13.6925 33.0181 13.3251 33.0181 12.8722V10.5682C33.0181 10.1153 32.6508 9.74792 32.1978 9.74792Z" fill="white"/>
</svg>
