<svg width="50" height="50" viewBox="0 0 50 50" fill="none" xmlns="http://www.w3.org/2000/svg">
<path d="M47.1051 0H10.2631C9.82705 0 9.47363 0.353418 9.47363 0.789453C9.47363 1.22549 9.82715 1.57891 10.2631 1.57891H47.1051C47.8307 1.57891 48.4209 2.16914 48.4209 2.89473V28.421H43.9473C43.5113 28.421 43.1578 28.7744 43.1578 29.2104C43.1578 29.6466 43.5114 29.9999 43.9473 29.9999H48.4209V37.6314C48.4209 38.0998 48.1686 38.5368 47.7625 38.7717C47.3852 38.99 47.2561 39.4729 47.4744 39.8504C47.6207 40.1032 47.8859 40.2446 48.1585 40.2446C48.2926 40.2446 48.4286 40.2104 48.5531 40.1384C49.4454 39.6222 49.9999 38.6615 49.9999 37.6314V2.89473C49.9998 1.29863 48.7013 0 47.1051 0Z" fill="black"/>
<path d="M47.1051 0H10.2631C9.82705 0 9.47363 0.353418 9.47363 0.789453C9.47363 1.22549 9.82715 1.57891 10.2631 1.57891H47.1051C47.8307 1.57891 48.4209 2.16914 48.4209 2.89473V28.421H43.9473C43.5113 28.421 43.1578 28.7744 43.1578 29.2104C43.1578 29.6466 43.5114 29.9999 43.9473 29.9999H48.4209V37.6314C48.4209 38.0998 48.1686 38.5368 47.7625 38.7717C47.3852 38.99 47.2561 39.4729 47.4744 39.8504C47.6207 40.1032 47.8859 40.2446 48.1585 40.2446C48.2926 40.2446 48.4286 40.2104 48.5531 40.1384C49.4454 39.6222 49.9999 38.6615 49.9999 37.6314V2.89473C49.9998 1.29863 48.7013 0 47.1051 0Z" fill="url(#paint0_linear)"/>
<path d="M41.0525 34.4738C41.0525 36.0699 42.351 37.3686 43.9472 37.3686C45.5434 37.3686 46.8419 36.0699 46.8419 34.4738C46.8419 32.8777 45.5434 31.5791 43.9472 31.5791C42.351 31.5791 41.0525 32.8777 41.0525 34.4738ZM43.9472 33.1581C44.6728 33.1581 45.263 33.7483 45.263 34.4739C45.263 35.1995 44.6728 35.7897 43.9472 35.7897C43.2216 35.7897 42.6314 35.1995 42.6314 34.4739C42.6314 33.7483 43.2216 33.1581 43.9472 33.1581Z" fill="black"/>
<path d="M41.0525 34.4738C41.0525 36.0699 42.351 37.3686 43.9472 37.3686C45.5434 37.3686 46.8419 36.0699 46.8419 34.4738C46.8419 32.8777 45.5434 31.5791 43.9472 31.5791C42.351 31.5791 41.0525 32.8777 41.0525 34.4738ZM43.9472 33.1581C44.6728 33.1581 45.263 33.7483 45.263 34.4739C45.263 35.1995 44.6728 35.7897 43.9472 35.7897C43.2216 35.7897 42.6314 35.1995 42.6314 34.4739C42.6314 33.7483 43.2216 33.1581 43.9472 33.1581Z" fill="url(#paint1_linear)"/>
<path d="M17.3684 39.7368C17.3684 39.3007 17.0149 38.9474 16.579 38.9474H2.89472C2.16914 38.9474 1.5789 38.3571 1.5789 37.6315V30H20.7894C21.2254 30 21.5789 29.6467 21.5789 29.2105C21.5789 28.7744 21.2253 28.4211 20.7894 28.4211H1.5789V2.89473C1.5789 2.16914 2.16914 1.57891 2.89472 1.57891H7.10526C7.54129 1.57891 7.89471 1.22549 7.89471 0.789453C7.89471 0.353418 7.54129 0 7.10526 0H2.89472C1.29853 0 0 1.29863 0 2.89473V37.6315C0 39.2276 1.29853 40.5263 2.89472 40.5263H16.5789C17.0149 40.5263 17.3684 40.173 17.3684 39.7368Z" fill="black"/>
<path d="M17.3684 39.7368C17.3684 39.3007 17.0149 38.9474 16.579 38.9474H2.89472C2.16914 38.9474 1.5789 38.3571 1.5789 37.6315V30H20.7894C21.2254 30 21.5789 29.6467 21.5789 29.2105C21.5789 28.7744 21.2253 28.4211 20.7894 28.4211H1.5789V2.89473C1.5789 2.16914 2.16914 1.57891 2.89472 1.57891H7.10526C7.54129 1.57891 7.89471 1.22549 7.89471 0.789453C7.89471 0.353418 7.54129 0 7.10526 0H2.89472C1.29853 0 0 1.29863 0 2.89473V37.6315C0 39.2276 1.29853 40.5263 2.89472 40.5263H16.5789C17.0149 40.5263 17.3684 40.173 17.3684 39.7368Z" fill="url(#paint2_linear)"/>
<path d="M44.3313 39.1332L37.3683 37.0442V34.575C37.9329 34.3068 38.4637 33.9634 38.9447 33.5507C40.2321 32.4463 41.083 30.9147 41.3409 29.2384L42.2184 23.5346C43.0746 23.2065 43.6841 22.3762 43.6841 21.4061C43.6841 20.7976 43.4472 20.2255 43.0169 19.7952C43.0169 19.7952 43.0169 19.7952 43.0169 19.7951L41.4794 18.2577L40.3928 14.9978C39.7644 13.1127 38.0951 11.7978 36.1494 11.6037C35.8585 10.9687 35.2167 10.5264 34.4736 10.5264H30.2631C29.52 10.5264 28.8783 10.9687 28.5873 11.6037C26.6416 11.7978 24.9724 13.1127 24.344 14.9978L23.2574 18.2577L21.7199 19.7951C21.2896 20.2254 21.0526 20.7976 21.0526 21.4061C21.0526 22.3762 21.6621 23.2066 22.5183 23.5346L23.3957 29.2384C23.6536 30.9148 24.5047 32.4463 25.7919 33.5507C26.273 33.9633 26.8037 34.3066 27.3684 34.575V37.0442L20.4053 39.1332C18.2741 39.7726 16.842 41.6972 16.842 43.9224V48.1579C16.842 49.1736 17.6685 50 18.6841 50H37.6315C38.0675 50 38.4209 49.6467 38.4209 49.2105C38.4209 48.7744 38.0674 48.4211 37.6315 48.4211H25.2632V46.0526C25.2632 45.6165 24.9097 45.2632 24.4738 45.2632C24.0378 45.2632 23.6843 45.6165 23.6843 46.0526V48.4211H18.6843C18.5393 48.4211 18.4211 48.3031 18.4211 48.1579V43.9224C18.4211 42.3999 19.4009 41.083 20.8591 40.6455L28.2738 38.4211H36.4631L43.8778 40.6455C45.336 41.083 46.3158 42.3999 46.3158 43.9224V48.1579C46.3158 48.303 46.1977 48.4211 46.0526 48.4211H41.0526V46.0526C41.0526 45.6165 40.6991 45.2632 40.2632 45.2632C39.8273 45.2632 39.4737 45.6165 39.4737 46.0526V49.2105C39.4737 49.6467 39.8273 50 40.2632 50H46.0526C47.0684 50 47.8947 49.1735 47.8947 48.1579V43.9224C47.8947 41.6972 46.4627 39.7726 44.3313 39.1332ZM23.3309 22.1052C22.9453 22.1052 22.6318 21.7915 22.6318 21.406C22.6318 21.2192 22.7045 21.0437 22.8365 20.9116L24.5057 19.2425C24.5923 19.1558 24.6577 19.0501 24.6964 18.9339L25.842 15.4972C26.2367 14.3133 27.2311 13.4581 28.4212 13.223V16.579C28.4212 17.0151 28.7747 17.3685 29.2107 17.3685C29.6467 17.3685 30.0001 17.015 30.0001 16.579V12.3685C30.0001 12.2233 30.1182 12.1053 30.2633 12.1053H34.4738C34.6189 12.1053 34.737 12.2232 34.737 12.3685V16.579C34.737 17.0151 35.0905 17.3685 35.5265 17.3685C35.9624 17.3685 36.3159 17.015 36.3159 16.579V13.2231C37.5061 13.4582 38.5003 14.3134 38.8949 15.4973L40.0405 18.934C40.0793 19.0503 40.1446 19.156 40.2313 19.2426L41.9004 20.9116C42.0306 21.0418 42.1053 21.2221 42.1053 21.4061C42.1053 21.7917 41.7917 22.1053 41.4062 22.1053V22.1052H23.3309ZM34.3186 35.2632C34.8159 35.2632 35.309 35.2108 35.7897 35.1091V36.8421H28.9476V35.1091C29.4282 35.2108 29.9211 35.2632 30.4187 35.2632H31.316C31.7521 35.2632 32.1055 34.9099 32.1055 34.4737C32.1055 34.0376 31.752 33.6843 31.316 33.6843H30.4187C27.6714 33.6843 25.3743 31.7135 24.9566 28.9981L24.139 23.6843H40.5981L39.7807 28.9981C39.3629 31.7134 37.0658 33.6843 34.3186 33.6843C33.8825 33.6843 33.5291 34.0376 33.5291 34.4737C33.5289 34.9098 33.8824 35.2632 34.3186 35.2632Z" fill="black"/>
<path d="M44.3313 39.1332L37.3683 37.0442V34.575C37.9329 34.3068 38.4637 33.9634 38.9447 33.5507C40.2321 32.4463 41.083 30.9147 41.3409 29.2384L42.2184 23.5346C43.0746 23.2065 43.6841 22.3762 43.6841 21.4061C43.6841 20.7976 43.4472 20.2255 43.0169 19.7952C43.0169 19.7952 43.0169 19.7952 43.0169 19.7951L41.4794 18.2577L40.3928 14.9978C39.7644 13.1127 38.0951 11.7978 36.1494 11.6037C35.8585 10.9687 35.2167 10.5264 34.4736 10.5264H30.2631C29.52 10.5264 28.8783 10.9687 28.5873 11.6037C26.6416 11.7978 24.9724 13.1127 24.344 14.9978L23.2574 18.2577L21.7199 19.7951C21.2896 20.2254 21.0526 20.7976 21.0526 21.4061C21.0526 22.3762 21.6621 23.2066 22.5183 23.5346L23.3957 29.2384C23.6536 30.9148 24.5047 32.4463 25.7919 33.5507C26.273 33.9633 26.8037 34.3066 27.3684 34.575V37.0442L20.4053 39.1332C18.2741 39.7726 16.842 41.6972 16.842 43.9224V48.1579C16.842 49.1736 17.6685 50 18.6841 50H37.6315C38.0675 50 38.4209 49.6467 38.4209 49.2105C38.4209 48.7744 38.0674 48.4211 37.6315 48.4211H25.2632V46.0526C25.2632 45.6165 24.9097 45.2632 24.4738 45.2632C24.0378 45.2632 23.6843 45.6165 23.6843 46.0526V48.4211H18.6843C18.5393 48.4211 18.4211 48.3031 18.4211 48.1579V43.9224C18.4211 42.3999 19.4009 41.083 20.8591 40.6455L28.2738 38.4211H36.4631L43.8778 40.6455C45.336 41.083 46.3158 42.3999 46.3158 43.9224V48.1579C46.3158 48.303 46.1977 48.4211 46.0526 48.4211H41.0526V46.0526C41.0526 45.6165 40.6991 45.2632 40.2632 45.2632C39.8273 45.2632 39.4737 45.6165 39.4737 46.0526V49.2105C39.4737 49.6467 39.8273 50 40.2632 50H46.0526C47.0684 50 47.8947 49.1735 47.8947 48.1579V43.9224C47.8947 41.6972 46.4627 39.7726 44.3313 39.1332ZM23.3309 22.1052C22.9453 22.1052 22.6318 21.7915 22.6318 21.406C22.6318 21.2192 22.7045 21.0437 22.8365 20.9116L24.5057 19.2425C24.5923 19.1558 24.6577 19.0501 24.6964 18.9339L25.842 15.4972C26.2367 14.3133 27.2311 13.4581 28.4212 13.223V16.579C28.4212 17.0151 28.7747 17.3685 29.2107 17.3685C29.6467 17.3685 30.0001 17.015 30.0001 16.579V12.3685C30.0001 12.2233 30.1182 12.1053 30.2633 12.1053H34.4738C34.6189 12.1053 34.737 12.2232 34.737 12.3685V16.579C34.737 17.0151 35.0905 17.3685 35.5265 17.3685C35.9624 17.3685 36.3159 17.015 36.3159 16.579V13.2231C37.5061 13.4582 38.5003 14.3134 38.8949 15.4973L40.0405 18.934C40.0793 19.0503 40.1446 19.156 40.2313 19.2426L41.9004 20.9116C42.0306 21.0418 42.1053 21.2221 42.1053 21.4061C42.1053 21.7917 41.7917 22.1053 41.4062 22.1053V22.1052H23.3309ZM34.3186 35.2632C34.8159 35.2632 35.309 35.2108 35.7897 35.1091V36.8421H28.9476V35.1091C29.4282 35.2108 29.9211 35.2632 30.4187 35.2632H31.316C31.7521 35.2632 32.1055 34.9099 32.1055 34.4737C32.1055 34.0376 31.752 33.6843 31.316 33.6843H30.4187C27.6714 33.6843 25.3743 31.7135 24.9566 28.9981L24.139 23.6843H40.5981L39.7807 28.9981C39.3629 31.7134 37.0658 33.6843 34.3186 33.6843C33.8825 33.6843 33.5291 34.0376 33.5291 34.4737C33.5289 34.9098 33.8824 35.2632 34.3186 35.2632Z" fill="url(#paint3_linear)"/>
<path d="M6.05268 31.5791C4.45649 31.5791 3.15796 32.8777 3.15796 34.4738C3.15796 36.0699 4.45649 37.3686 6.05268 37.3686H13.4211C15.0173 37.3686 16.3158 36.0699 16.3158 34.4738C16.3158 32.8777 15.0173 31.5791 13.4211 31.5791H6.05268ZM14.7368 34.4738C14.7368 35.1994 14.1466 35.7896 13.421 35.7896H6.05268C5.3271 35.7896 4.73686 35.1994 4.73686 34.4738C4.73686 33.7482 5.3271 33.158 6.05268 33.158H13.4211C14.1466 33.1581 14.7368 33.7483 14.7368 34.4738Z" fill="black"/>
<path d="M6.05268 31.5791C4.45649 31.5791 3.15796 32.8777 3.15796 34.4738C3.15796 36.0699 4.45649 37.3686 6.05268 37.3686H13.4211C15.0173 37.3686 16.3158 36.0699 16.3158 34.4738C16.3158 32.8777 15.0173 31.5791 13.4211 31.5791H6.05268ZM14.7368 34.4738C14.7368 35.1994 14.1466 35.7896 13.421 35.7896H6.05268C5.3271 35.7896 4.73686 35.1994 4.73686 34.4738C4.73686 33.7482 5.3271 33.158 6.05268 33.158H13.4211C14.1466 33.1581 14.7368 33.7483 14.7368 34.4738Z" fill="url(#paint4_linear)"/>
<path d="M14.9999 4.21069H7.63149C6.90591 4.21069 6.31567 4.80093 6.31567 5.52651V8.68442C6.31567 9.41001 6.90591 10.0002 7.63149 10.0002H10.5262V11.8808L7.04331 13.6223C6.59448 13.8465 6.31577 14.2976 6.31577 14.7993V15.2014C6.31577 15.7031 6.59448 16.1542 7.04311 16.3783L10.5263 18.1199V20.0001H7.63149C6.90591 20.0001 6.31567 20.5904 6.31567 21.316V24.4739C6.31567 25.1995 6.90591 25.7897 7.63149 25.7897H14.9999C15.7255 25.7897 16.3158 25.1995 16.3158 24.4739V23.6844H18.6842C19.1202 23.6844 19.4737 23.3311 19.4737 22.895C19.4737 22.4588 19.1201 22.1055 18.6842 22.1055H16.3158V21.3161C16.3158 20.5905 15.7255 20.0002 14.9999 20.0002H12.1052V18.1197L15.5881 16.3782C16.0369 16.154 16.3157 15.7029 16.3157 15.2012V14.7991C16.3157 14.2974 16.0369 13.8463 15.5883 13.6222L12.1051 11.8806V10.0001H14.9999C15.7255 10.0001 16.3158 9.40991 16.3158 8.68433V7.89487H42.1052V15.5264C42.1052 15.9626 42.4587 16.3159 42.8946 16.3159C43.3306 16.3159 43.6841 15.9626 43.6841 15.5264V7.10542C43.6841 6.66929 43.3305 6.31597 42.8946 6.31597H16.3158V5.52651C16.3158 4.80093 15.7255 4.21069 14.9999 4.21069ZM14.7368 21.5791V24.2106H7.89468V21.5791H14.7368ZM14.7368 14.9619V15.0386L11.3157 16.7492L7.89458 15.0386V14.9619L11.3157 13.2513L14.7368 14.9619ZM14.7368 8.42124H11.3157H7.89468V5.7896H14.7368V8.42124Z" fill="black"/>
<path d="M14.9999 4.21069H7.63149C6.90591 4.21069 6.31567 4.80093 6.31567 5.52651V8.68442C6.31567 9.41001 6.90591 10.0002 7.63149 10.0002H10.5262V11.8808L7.04331 13.6223C6.59448 13.8465 6.31577 14.2976 6.31577 14.7993V15.2014C6.31577 15.7031 6.59448 16.1542 7.04311 16.3783L10.5263 18.1199V20.0001H7.63149C6.90591 20.0001 6.31567 20.5904 6.31567 21.316V24.4739C6.31567 25.1995 6.90591 25.7897 7.63149 25.7897H14.9999C15.7255 25.7897 16.3158 25.1995 16.3158 24.4739V23.6844H18.6842C19.1202 23.6844 19.4737 23.3311 19.4737 22.895C19.4737 22.4588 19.1201 22.1055 18.6842 22.1055H16.3158V21.3161C16.3158 20.5905 15.7255 20.0002 14.9999 20.0002H12.1052V18.1197L15.5881 16.3782C16.0369 16.154 16.3157 15.7029 16.3157 15.2012V14.7991C16.3157 14.2974 16.0369 13.8463 15.5883 13.6222L12.1051 11.8806V10.0001H14.9999C15.7255 10.0001 16.3158 9.40991 16.3158 8.68433V7.89487H42.1052V15.5264C42.1052 15.9626 42.4587 16.3159 42.8946 16.3159C43.3306 16.3159 43.6841 15.9626 43.6841 15.5264V7.10542C43.6841 6.66929 43.3305 6.31597 42.8946 6.31597H16.3158V5.52651C16.3158 4.80093 15.7255 4.21069 14.9999 4.21069ZM14.7368 21.5791V24.2106H7.89468V21.5791H14.7368ZM14.7368 14.9619V15.0386L11.3157 16.7492L7.89458 15.0386V14.9619L11.3157 13.2513L14.7368 14.9619ZM14.7368 8.42124H11.3157H7.89468V5.7896H14.7368V8.42124Z" fill="url(#paint5_linear)"/>
<path d="M17.8948 34.4738C17.8948 36.0699 19.1933 37.3686 20.7895 37.3686C22.3857 37.3686 23.6842 36.0699 23.6842 34.4738C23.6842 32.8777 22.3857 31.5791 20.7895 31.5791C19.1933 31.5791 17.8948 32.8777 17.8948 34.4738ZM22.1053 34.4738C22.1053 35.1994 21.5151 35.7896 20.7895 35.7896C20.0639 35.7896 19.4737 35.1994 19.4737 34.4738C19.4737 33.7482 20.0639 33.158 20.7895 33.158C21.5151 33.158 22.1053 33.7483 22.1053 34.4738Z" fill="black"/>
<path d="M17.8948 34.4738C17.8948 36.0699 19.1933 37.3686 20.7895 37.3686C22.3857 37.3686 23.6842 36.0699 23.6842 34.4738C23.6842 32.8777 22.3857 31.5791 20.7895 31.5791C19.1933 31.5791 17.8948 32.8777 17.8948 34.4738ZM22.1053 34.4738C22.1053 35.1994 21.5151 35.7896 20.7895 35.7896C20.0639 35.7896 19.4737 35.1994 19.4737 34.4738C19.4737 33.7482 20.0639 33.158 20.7895 33.158C21.5151 33.158 22.1053 33.7483 22.1053 34.4738Z" fill="url(#paint6_linear)"/>
<defs>
<linearGradient id="paint0_linear" x1="29.7368" y1="0" x2="29.7368" y2="40.2446" gradientUnits="userSpaceOnUse">
<stop stop-color="#5791BE"/>
<stop offset="1" stop-color="#366E9A"/>
</linearGradient>
<linearGradient id="paint1_linear" x1="43.9472" y1="31.5791" x2="43.9472" y2="37.3686" gradientUnits="userSpaceOnUse">
<stop stop-color="#5791BE"/>
<stop offset="1" stop-color="#366E9A"/>
</linearGradient>
<linearGradient id="paint2_linear" x1="10.7894" y1="0" x2="10.7894" y2="40.5263" gradientUnits="userSpaceOnUse">
<stop stop-color="#5791BE"/>
<stop offset="1" stop-color="#366E9A"/>
</linearGradient>
<linearGradient id="paint3_linear" x1="32.3684" y1="10.5264" x2="32.3684" y2="50" gradientUnits="userSpaceOnUse">
<stop stop-color="#5791BE"/>
<stop offset="1" stop-color="#366E9A"/>
</linearGradient>
<linearGradient id="paint4_linear" x1="9.7369" y1="31.5791" x2="9.7369" y2="37.3686" gradientUnits="userSpaceOnUse">
<stop stop-color="#5791BE"/>
<stop offset="1" stop-color="#366E9A"/>
</linearGradient>
<linearGradient id="paint5_linear" x1="24.9999" y1="4.21069" x2="24.9999" y2="25.7897" gradientUnits="userSpaceOnUse">
<stop stop-color="#5791BE"/>
<stop offset="1" stop-color="#366E9A"/>
</linearGradient>
<linearGradient id="paint6_linear" x1="20.7895" y1="31.5791" x2="20.7895" y2="37.3686" gradientUnits="userSpaceOnUse">
<stop stop-color="#5791BE"/>
<stop offset="1" stop-color="#366E9A"/>
</linearGradient>
</defs>
</svg>
