<svg width="55" height="55" viewBox="0 0 55 55" fill="none" xmlns="http://www.w3.org/2000/svg">
<path d="M33.9165 40.3333C33.9165 40.8393 34.3262 41.25 34.8331 41.25C35.0082 41.25 35.9157 41.2077 37.5831 40.4341C39.2497 41.2077 40.1572 41.25 40.3331 41.25C40.8318 41.25 41.2297 40.8502 41.2397 40.3516C41.2498 39.8529 40.8501 39.4377 40.3524 39.4166C40.3441 39.4166 39.5502 39.3753 37.9928 38.5962C37.7352 38.4678 37.4309 38.4678 37.1725 38.5962C35.6159 39.3753 34.8212 39.4166 34.8331 39.4166C34.3263 39.4166 33.9165 39.8273 33.9165 40.3333Z" fill="#fff"/>
<path d="M14.6668 11.9167V48.2039L14.3983 47.9354C14.0398 47.5769 13.4596 47.5769 13.1011 47.9354C12.7436 48.2929 12.7436 48.8731 13.1011 49.2315L14.9345 51.0639C15.0188 51.1492 15.1206 51.2161 15.2324 51.2629C15.3452 51.3087 15.4633 51.3334 15.5834 51.3334C15.7026 51.3334 15.8208 51.3087 15.9336 51.2629C16.0455 51.2161 16.1472 51.1492 16.2315 51.0639L18.0649 49.2315C18.4224 48.873 18.4224 48.2929 18.0649 47.9354C17.7065 47.5769 17.1262 47.5769 16.7678 47.9354L16.5001 48.2039V12.8334H48.203L47.9353 13.102C47.5769 13.4595 47.5769 14.0398 47.9353 14.3981C48.114 14.5769 48.3487 14.6667 48.5834 14.6667C48.8171 14.6667 49.0518 14.5769 49.2314 14.3981L51.0638 12.5648C51.1482 12.4804 51.2161 12.3787 51.2618 12.2669C51.3544 12.0423 51.3544 11.7903 51.2618 11.5656C51.2159 11.4538 51.1482 11.3529 51.0638 11.2678L49.2316 9.43535C48.8733 9.07689 48.293 9.07689 47.9355 9.43535C47.5771 9.79285 47.5771 10.3731 47.9355 10.7315L48.2032 11.0001H15.5835C15.0766 11.0001 14.6668 11.4107 14.6668 11.9167Z" fill="#fff"/>
<path d="M33.0001 34.8334C33.0001 35.3394 33.4098 35.7501 33.9168 35.7501C34.4227 35.7501 34.8334 35.3394 34.8334 34.8334C35.3393 34.8334 35.75 34.4228 35.75 33.9168C35.75 33.4109 35.3393 33.0002 34.8334 33.0002H33.0001C32.4932 33.0002 32.0835 33.4109 32.0835 33.9168C32.0835 34.4228 32.4932 34.8334 33.0001 34.8334Z" fill="#fff"/>
<path d="M38.5 42.1666H36.6666C36.1597 42.1666 35.75 42.5773 35.75 43.0833C35.75 43.5892 36.1597 43.9999 36.6666 43.9999H38.5C39.006 43.9999 39.4166 43.5892 39.4166 43.0833C39.4166 42.5773 39.006 42.1666 38.5 42.1666Z" fill="#fff"/>
<path d="M40.3332 34.8334C40.3332 35.3394 40.7429 35.7501 41.2499 35.7501C41.7558 35.7501 42.1665 35.3394 42.1665 34.8334C42.6725 34.8334 43.0831 34.4228 43.0831 33.9168C43.0831 33.4109 42.6725 33.0002 42.1665 33.0002H40.3331C39.8262 33.0002 39.4165 33.4109 39.4165 33.9168C39.4165 34.4228 39.8263 34.8334 40.3332 34.8334Z" fill="#fff"/>
<path d="M43.0832 48.6209C42.5763 48.6209 42.1666 49.0316 42.1666 49.5375C42.1666 49.686 42.1144 53.1666 37.5832 53.1666C33.1749 53.1666 33.0045 49.8702 32.9998 49.4999C32.9998 48.994 32.5892 48.5833 32.0832 48.5833C21.371 48.5833 20.227 53.6864 20.184 53.9027C20.0859 54.3923 20.3994 54.8606 20.887 54.9688C21.3766 55.0806 21.8605 54.7644 21.9779 54.2803C21.9852 54.25 22.6526 51.82 27.4999 50.8309V54.0832C27.4999 54.5892 27.9096 54.9998 28.4166 54.9998C28.9225 54.9998 29.3332 54.5892 29.3332 54.0832V50.5586C29.9318 50.4963 30.5606 50.4458 31.26 50.4266C31.6386 52.3783 33.2501 54.9999 37.5832 54.9999C41.9108 54.9999 43.5232 52.4022 43.9046 50.4652C44.604 50.4836 45.2337 50.533 45.8332 50.5954V54.0833C45.8332 54.5893 46.2429 54.9999 46.7498 54.9999C47.2558 54.9999 47.6665 54.5893 47.6665 54.0833V50.8648C52.512 51.8439 53.1802 54.2483 53.1839 54.2647C53.2719 54.6993 53.6542 54.9999 54.0823 54.9999C54.1419 54.9999 54.2024 54.9935 54.2638 54.9816C54.7606 54.8817 55.0815 54.3986 54.9816 53.9018C54.9375 53.6864 53.7935 48.6209 43.0832 48.6209Z" fill="#fff"/>
<path d="M50.4168 5.5H13.7501C13.2432 5.5 12.8335 5.91067 12.8335 6.41663C12.8335 6.92259 13.2432 7.33326 13.7501 7.33326H50.4168C51.9073 7.33326 53.1668 8.59278 53.1668 10.0833V48.5833C53.1668 49.0892 53.5765 49.4999 54.0834 49.4999C54.5894 49.4999 55 49.0892 55 48.5833V10.0833C55.0002 7.55605 52.9431 5.5 50.4168 5.5Z" fill="#fff"/>
<path d="M27.5258 35.6024C27.612 37.091 27.9722 40.4029 29.4874 42.6745L29.6827 42.9724C30.8368 44.7277 32.7664 47.6666 37.5835 47.6666C42.3997 47.6666 44.3293 44.7277 45.4833 42.9724L45.6795 42.6745C47.1938 40.4029 47.5541 37.091 47.6402 35.6024C48.72 35.2311 49.5001 34.2045 49.5001 33V31.1666H50.4168C50.9227 31.1666 51.3334 30.7559 51.3334 30.25V26.5833C51.3334 26.4568 51.3077 26.3368 51.261 26.2268C51.2491 26.1983 51.2252 26.1782 51.2106 26.1516C51.1684 26.0746 51.1263 25.9976 51.0658 25.9362C51.0355 25.9059 50.9952 25.8913 50.9623 25.8656C50.9018 25.8198 50.845 25.7694 50.7752 25.7401C50.7312 25.7208 50.68 25.7217 50.6331 25.7107C50.5634 25.6933 50.4966 25.6667 50.4223 25.6667C49.2929 22.5555 46.9994 19.0823 40.3334 17.7989V17.4167C40.3334 16.9107 39.9227 16.5001 39.4168 16.5001H35.7501C35.2432 16.5001 34.8335 16.9107 34.8335 17.4167V17.7797C29.3078 18.7569 26.0325 22.4537 24.7557 25.6667H24.7501C24.2432 25.6667 23.8335 26.0774 23.8335 26.5833C23.8335 26.6649 23.8592 26.7382 23.8794 26.8134V30.25C23.8794 30.7559 24.29 31.1666 24.796 31.1666H25.6669V33C25.6668 34.2045 26.446 35.2311 27.5258 35.6024ZM47.6668 33C47.6668 33.5051 47.2552 33.9166 46.7501 33.9166C46.2442 33.9166 45.8344 34.3273 45.8335 34.8324C45.8335 34.8754 45.8078 39.1765 44.1532 41.6578L43.9506 41.9658C42.8781 43.5974 41.4105 45.8332 37.5834 45.8332C33.7554 45.8332 32.2878 43.5974 31.2153 41.9658L31.0127 41.6578C29.3581 39.1764 29.3334 34.8754 29.3334 34.8324C29.3325 34.3273 28.9219 33.9166 28.4168 33.9166C27.9108 33.9166 27.5001 33.5051 27.5001 33V31.1666H47.6668V33ZM25.7126 27.5H29.3335C29.8395 27.5 30.2501 27.0893 30.2501 26.5833C30.2501 26.0774 29.8395 25.6667 29.3335 25.6667H26.7604C27.9878 23.1632 30.6214 20.4985 34.8335 19.646V22C34.8335 22.5059 35.2432 22.9166 35.7501 22.9166C36.2561 22.9166 36.6668 22.5059 36.6668 22V18.5689V18.3333H38.5001V18.5689V22C38.5001 22.5059 38.9098 22.9166 39.4168 22.9166C39.9227 22.9166 40.3334 22.5059 40.3334 22V19.6734C45.3879 20.7358 47.3981 23.1659 48.4524 25.6666H45.8334C45.3265 25.6666 44.9168 26.0773 44.9168 26.5832C44.9168 27.0892 45.3265 27.4998 45.8334 27.4998H49.5001V29.3332H25.7126V27.5Z" fill="#fff"/>
<path d="M17.4166 53.1666H5.5C3.47779 53.1666 1.83337 51.5212 1.83337 49.5C1.83337 47.4779 3.47789 45.8334 5.5 45.8334C7.52126 45.8334 9.16664 47.4779 9.16664 49.5C9.16664 50.006 9.57634 50.4166 10.0833 50.4166C10.5892 50.4166 10.9999 50.006 10.9999 49.5V5.5C11 2.46673 8.53231 0 5.5 0C2.46673 0 0 2.46673 0 5.5V49.5C0 52.5323 2.46673 55 5.5 55H17.4166C17.9226 55 18.3333 54.5893 18.3333 54.0834C18.3334 53.5773 17.9227 53.1666 17.4166 53.1666ZM1.83337 5.5C1.83337 3.47778 3.47789 1.83337 5.5 1.83337C7.52126 1.83337 9.16664 3.47789 9.16664 5.5V45.4116C8.19221 44.5372 6.90895 44 5.5 44C4.0902 44 2.80779 44.5372 1.83337 45.4116V5.5Z" fill="#fff"/>
</svg>
