<svg width="42" height="42" viewBox="0 0 42 42" fill="none" xmlns="http://www.w3.org/2000/svg">
<path d="M7.38281 36.9728C6.93459 36.9728 6.56258 37.3439 6.5625 37.7907C6.56242 38.2379 6.93443 38.6087 7.38281 38.6087C7.83087 38.6087 8.20304 38.2375 8.20312 37.7908C8.20321 37.3438 7.83079 36.9728 7.38281 36.9728Z" fill="white"/>
<path d="M41.1797 33.7008H40.3594V31.2469C40.3594 28.9917 38.5194 27.157 36.2578 27.157H30.4479L27.3704 19.3131C26.9374 18.1332 25.8051 17.3412 24.5489 17.3412H6.29483C5.04033 17.3412 3.9092 18.1311 3.47501 19.3085L0.160453 27.4904C0.0600469 27.6261 0 27.7933 0 27.9749V37.7907C0 38.2425 0.367254 38.6087 0.820312 38.6087H3.36377C3.74489 40.4733 5.402 41.8806 7.38281 41.8806C9.36362 41.8806 11.0207 40.4733 11.4019 38.6087H28.9575C29.3386 40.4733 30.9958 41.8806 32.9766 41.8806C34.9574 41.8806 36.6145 40.4733 36.9956 38.6087H41.1797C41.6327 38.6087 42 38.2425 42 37.7907V34.5188C42 34.067 41.6327 33.7008 41.1797 33.7008ZM35.4375 28.7929C35.4375 28.7929 36.2577 28.7929 36.2578 28.7929C37.267 28.7929 38.2331 29.4721 38.5745 30.4195C38.5755 30.4227 38.5765 30.4258 38.5777 30.4289H36.2578C35.8055 30.4289 35.4375 30.0619 35.4375 29.6109V28.7929ZM16.2422 18.9771H24.5489C25.1202 18.9771 25.6357 19.34 25.8315 19.88C25.8339 19.8867 25.8364 19.8934 25.839 19.9L28.6862 27.157H16.2422V18.9771ZM1.64062 28.7929H3.28125V30.4289H1.64062V28.7929ZM3.36377 36.9727H1.64062V35.3368H4.10378C3.74481 35.8126 3.48723 36.3686 3.36377 36.9727ZM7.38281 40.2446C6.02585 40.2446 4.92188 39.1438 4.92188 37.7907C4.92188 36.4376 6.02585 35.3368 7.38281 35.3368C8.73977 35.3368 9.84375 36.4376 9.84375 37.7907C9.84375 39.1438 8.73977 40.2446 7.38281 40.2446ZM14.6016 36.9727H11.4019C11.0207 35.1081 9.36362 33.7008 7.38281 33.7008H1.64062V32.0648H4.10156C4.55462 32.0648 4.92188 31.6986 4.92188 31.2469V28.7929H14.6016V36.9727ZM14.6016 27.157H2.06497L5.00145 19.9083C5.00522 19.899 5.00883 19.8896 5.01227 19.88C5.20816 19.34 5.72357 18.9771 6.29483 18.9771H14.6016V27.157ZM32.9766 40.2446C31.6196 40.2446 30.5156 39.1438 30.5156 37.7907C30.5156 36.4376 31.6196 35.3368 32.9766 35.3368C34.3335 35.3368 35.4375 36.4376 35.4375 37.7907C35.4375 39.1438 34.3335 40.2446 32.9766 40.2446ZM32.9766 33.7008C30.9958 33.7008 29.3386 35.1081 28.9575 36.9727H16.2422V28.7929H33.7969V29.6109C33.7969 30.964 34.9009 32.0648 36.2578 32.0648H38.7188V33.7008H32.9766ZM40.3594 36.9727H36.9956C36.8721 36.3686 36.6146 35.8126 36.2556 35.3368H40.3594V36.9727Z" fill="white"/>
<path d="M32.9766 36.9728C32.5449 36.9728 32.1563 37.3348 32.1563 37.7907C32.1562 38.2179 32.524 38.6087 32.9764 38.6087C33.4023 38.6088 33.7967 38.2394 33.7969 37.7909C33.797 37.3661 33.4278 36.9728 32.9766 36.9728Z" fill="white"/>
<path d="M23.625 30.4288C23.173 30.4288 22.8047 30.7961 22.8047 31.2468C22.8047 31.6975 23.173 32.0648 23.625 32.0648C24.077 32.0648 24.4453 31.6975 24.4453 31.2468C24.4453 30.7961 24.077 30.4288 23.625 30.4288Z" fill="white"/>
<path d="M20.3438 30.4288H18.7031C18.2511 30.4288 17.8828 30.7961 17.8828 31.2468C17.8828 31.6975 18.2511 32.0648 18.7031 32.0648H20.3438C20.7957 32.0648 21.1641 31.6975 21.1641 31.2468C21.1641 30.7961 20.7957 30.4288 20.3438 30.4288Z" fill="white"/>
<path d="M41.7596 0.239668C41.6046 0.08507 41.3987 0 41.1797 0C40.9606 0 40.7547 0.08507 40.5997 0.239668C40.5997 0.239668 30.7563 10.0551 30.7387 10.0726C30.5818 10.229 30.5037 10.44 30.5038 10.6509C30.5039 10.8621 30.5823 11.0732 30.7387 11.2292C31.0553 11.5451 31.5822 11.5448 31.8986 11.2292L41.7596 1.39629C42.0795 1.07728 42.0795 0.558681 41.7596 0.239668Z" fill="white"/>
<path d="M41.7596 10.3826C41.6013 10.2248 41.3905 10.146 41.1796 10.146C40.9687 10.146 40.7578 10.225 40.5997 10.3826C40.5997 10.3826 33.0679 17.8922 33.0586 17.9015C32.7421 18.217 32.7439 18.7435 33.0586 19.059C33.3735 19.3746 33.9047 19.3711 34.2193 19.059L41.7596 11.5393C42.0796 11.2203 42.0796 10.7017 41.7596 10.3826Z" fill="white"/>
<path d="M31.3187 19.9758C30.8712 19.9758 30.4984 20.3477 30.4984 20.7938C30.4984 21.2384 30.874 21.6118 31.3187 21.6118C31.7572 21.6118 32.139 21.2438 32.139 20.7939C32.139 20.3527 31.7595 19.9758 31.3187 19.9758Z" fill="white"/>
<path d="M31.9159 0.239668C31.7608 0.08507 31.5549 0 31.3359 0C31.1169 0 30.911 0.08507 30.7559 0.239668L20.895 10.0726C20.575 10.3916 20.575 10.9101 20.895 11.2292C21.2105 11.5439 21.7406 11.5426 22.0549 11.2292L31.9159 1.39629C32.2358 1.07728 32.2358 0.558681 31.9159 0.239668Z" fill="white"/>
<path d="M22.9745 0.239668C22.8194 0.08507 22.6136 0 22.3945 0C22.1755 0 21.9696 0.08507 21.8146 0.239668L8.24414 13.7715C8.24414 13.7715 5.5773 11.1123 5.5732 11.1082C5.25599 10.7919 4.73025 10.7921 4.41328 11.1081C4.09582 11.4247 4.09549 11.948 4.4132 12.2648C4.41328 12.2648 7.66245 15.5047 7.66418 15.5065C7.969 15.8104 8.49958 15.8301 8.8241 15.5065L22.9745 1.39629C23.2944 1.07728 23.2944 0.558681 22.9745 0.239668Z" fill="white"/>
<path d="M28.9956 13.7822C29.4487 13.7822 29.8159 13.416 29.8159 12.9642C29.8159 12.5125 29.4487 12.1462 28.9956 12.1462C28.5426 12.1462 28.1753 12.5125 28.1753 12.9642C28.1753 13.416 28.5426 13.7822 28.9956 13.7822Z" fill="white"/>
<path d="M19.1552 13.7822C19.6082 13.7822 19.9755 13.416 19.9755 12.9642C19.9755 12.5125 19.6082 12.1462 19.1552 12.1462C18.7021 12.1462 18.3348 12.5125 18.3348 12.9642C18.3348 13.416 18.7021 13.7822 19.1552 13.7822Z" fill="white"/>
<path d="M2.67273 10.1903C3.12578 10.1903 3.49304 9.82406 3.49304 9.3723C3.49304 8.92054 3.12578 8.55432 2.67273 8.55432C2.21968 8.55432 1.85242 8.92054 1.85242 9.3723C1.85242 9.82406 2.21968 10.1903 2.67273 10.1903Z" fill="white"/>
</svg>
