<svg width="39" height="42" viewBox="0 0 39 42" fill="none" xmlns="http://www.w3.org/2000/svg">
<path d="M28.8232 25.6666C28.8232 25.2579 28.4943 24.925 28.0876 24.925H24.1235C23.7168 24.925 23.3879 25.2579 23.3879 25.6666C23.3879 26.0754 23.7168 26.4083 24.1235 26.4083H28.0875C28.0875 26.4083 28.0876 26.4083 28.0876 26.4083C28.4943 26.4084 28.8232 26.0755 28.8232 25.6666Z" fill="white" stroke="white" stroke-width="0.15"/>
<path d="M26.1805 8.33337V5.00001C26.1805 4.59126 25.8515 4.25837 25.4448 4.25837C25.0381 4.25837 24.7092 4.59126 24.7092 5.00001V8.33337C24.7092 10.2121 26.224 11.7417 28.0876 11.7417H33.9586V24.3333C33.9586 24.7421 34.2875 25.075 34.6942 25.075C35.101 25.075 35.4299 24.7421 35.4299 24.3333V11C35.4299 10.5913 35.101 10.2584 34.6942 10.2584H28.0876C27.0368 10.2584 26.1805 9.39524 26.1805 8.33337Z" fill="white" stroke="white" stroke-width="0.15"/>
<path d="M22.802 16.925H28.0874C28.4942 16.925 28.8231 17.2579 28.823 17.6666L22.802 16.925ZM22.802 16.925C22.3953 16.925 22.0664 17.2579 22.0664 17.6666M22.802 16.925L22.0664 17.6666M22.0664 17.6666C22.0664 18.0754 22.3953 18.4083 22.802 18.4083M22.0664 17.6666L22.802 18.4083M22.802 18.4083H28.0874M22.802 18.4083H28.0874M28.0874 18.4083C28.4941 18.4083 28.823 18.0754 28.823 17.6667L28.0874 18.4083Z" fill="white" stroke="white" stroke-width="0.15"/>
<path d="M20.8951 17.6666C20.8951 17.2579 20.5662 16.925 20.1595 16.925H16.1954C15.7887 16.925 15.4598 17.2579 15.4598 17.6666C15.4598 18.0754 15.7887 18.4083 16.1954 18.4083H20.1594C20.1594 18.4083 20.1595 18.4083 20.1595 18.4083C20.5662 18.4084 20.8951 18.0755 20.8951 17.6666Z" fill="white" stroke="white" stroke-width="0.15"/>
<path d="M16.1953 20.925C15.7886 20.925 15.4597 21.2579 15.4597 21.6666C15.4597 22.0754 15.7886 22.4083 16.1953 22.4083H17.5167C17.9234 22.4083 18.2523 22.0754 18.2523 21.6666C18.2523 21.2579 17.9234 20.925 17.5167 20.925H16.1953Z" fill="white" stroke="white" stroke-width="0.15"/>
<path d="M16.1953 14.4084H22.802C23.2087 14.4084 23.5376 14.0755 23.5376 13.6668C23.5376 13.258 23.2087 12.9251 22.802 12.9251H16.1953C15.7886 12.9251 15.4597 13.258 15.4597 13.6668C15.4597 14.0755 15.7886 14.4084 16.1953 14.4084Z" fill="white" stroke="white" stroke-width="0.15"/>
<path d="M20.1594 22.4083H26.7661C27.1728 22.4083 27.5017 22.0754 27.5017 21.6666C27.5017 21.2579 27.1728 20.925 26.7661 20.925H20.1594C19.7527 20.925 19.4238 21.2579 19.4238 21.6666C19.4238 22.0754 19.7527 22.4083 20.1594 22.4083Z" fill="white" stroke="white" stroke-width="0.15"/>
<path d="M24.1234 28.9249C23.7167 28.9249 23.3878 29.2578 23.3878 29.6665C23.3878 30.0753 23.7167 30.4082 24.1234 30.4082H25.4448C25.8515 30.4082 26.1804 30.0753 26.1804 29.6665C26.1804 29.2578 25.8515 28.9249 25.4448 28.9249H24.1234Z" fill="white" stroke="white" stroke-width="0.15"/>
<path d="M21.4807 24.925H16.1953C15.7886 24.925 15.4597 25.2579 15.4597 25.6666C15.4597 26.0754 15.7886 26.4083 16.1953 26.4083H21.4807C21.8874 26.4083 22.2163 26.0754 22.2163 25.6666C22.2163 25.2579 21.8874 24.925 21.4807 24.925Z" fill="white" stroke="white" stroke-width="0.15"/>
<path d="M21.4807 28.9249H16.1953C15.7886 28.9249 15.4597 29.2578 15.4597 29.6665C15.4597 30.0753 15.7886 30.4082 16.1953 30.4082H21.4807C21.8874 30.4082 22.2163 30.0753 22.2163 29.6665C22.2163 29.2578 21.8874 28.9249 21.4807 28.9249Z" fill="white" stroke="white" stroke-width="0.15"/>
<path d="M35.4222 31.8827L36.2232 31.0745C36.4799 30.8154 36.6023 30.5375 36.6023 30.2655C36.6023 29.9935 36.4799 29.7154 36.2232 29.4561L35.4222 31.8827ZM35.4222 31.8827L32.4979 28.9319L33.2999 28.1227L35.4222 31.8827ZM34.9018 28.1227L34.9019 28.1227L36.2232 29.456L34.9551 28.0699L34.9018 28.1227ZM34.9018 28.1227C34.6509 27.8698 34.3726 27.7491 34.1 27.7494C33.8273 27.7497 33.5496 27.8711 33.2999 28.1227H34.9018ZM37.2639 28.4078L37.2639 28.4078L35.9426 27.0745C34.8977 26.0201 33.3026 26.0222 32.2592 27.0744L32.2592 27.0745L23.6031 35.8091C23.4655 35.9479 23.3878 36.1369 23.3878 36.3332V40.3332C23.3878 40.742 23.7167 41.0749 24.1234 41.0749H28.0874C28.2826 41.0749 28.4702 40.9962 28.6078 40.8574L37.2639 32.1227C37.8028 31.5789 38.075 30.9238 38.075 30.2655C38.075 29.6072 37.8028 28.9519 37.2639 28.4078ZM25.8238 35.6666L31.4582 29.9811L32.4004 30.9319L26.7661 36.6174L25.8238 35.6666ZM24.8591 39.5915V36.7914L27.6341 39.5915H24.8591ZM34.3825 32.9318L28.7482 38.6173L27.8059 37.6665L33.4403 31.9811L34.3825 32.9318Z" fill="white" stroke="white" stroke-width="0.15"/>
<path d="M21.4808 39.5916H4.3033C3.25262 39.5916 2.39629 38.7284 2.39629 37.6666V4.33335C2.39629 3.27148 3.25262 2.40836 4.3033 2.40836H25.14L31.5311 8.85747C31.8187 9.14777 32.2842 9.14778 32.5718 8.85747C32.8591 8.56761 32.8591 8.09908 32.5718 7.80922L25.9653 1.14265C25.8275 1.00299 25.6398 0.925 25.4448 0.925H4.3033C2.4398 0.925 0.925 2.45453 0.925 4.33335V37.6666C0.925 39.5454 2.4398 41.075 4.30338 41.075H21.4808C21.8875 41.075 22.2165 40.7421 22.2165 40.3334C22.2165 39.9246 21.8875 39.5916 21.4808 39.5916Z" fill="white" stroke="white" stroke-width="0.15"/>
<path d="M21.4807 32.9249H16.1953C15.7886 32.9249 15.4597 33.2578 15.4597 33.6665C15.4597 34.0753 15.7886 34.4082 16.1953 34.4082H21.4807C21.8874 34.4082 22.2163 34.0753 22.2163 33.6665C22.2163 33.2578 21.8874 32.9249 21.4807 32.9249Z" fill="white" stroke="white" stroke-width="0.15"/>
<path d="M12.967 13.6665C12.967 13.2578 12.6381 12.9249 12.2314 12.9249H8.26733C7.86062 12.9249 7.53169 13.2578 7.53169 13.6665V17.6665C7.53169 18.0753 7.86062 18.4081 8.26733 18.4081H12.2314C12.6381 18.4081 12.967 18.0753 12.967 17.6665V13.6665ZM11.4956 16.9249H9.00298V14.4082H11.4956V16.9249Z" fill="white" stroke="white" stroke-width="0.15"/>
<path d="M8.26733 34.4081H12.2314C12.6381 34.4081 12.967 34.0753 12.967 33.6665V29.6665C12.967 29.2578 12.6381 28.9249 12.2314 28.9249H8.26733C7.86062 28.9249 7.53169 29.2578 7.53169 29.6665V33.6665C7.53169 34.0753 7.86062 34.4081 8.26733 34.4081ZM9.00306 30.4082H11.4957V32.9248H9.00306V30.4082Z" fill="white" stroke="white" stroke-width="0.15"/>
<path d="M10.2009 26.0777L10.2009 26.0778C10.0791 26.2621 9.8816 26.3826 9.66226 26.4043C9.66196 26.4043 9.66167 26.4044 9.66138 26.4044L9.65406 26.3298L10.2009 26.0777ZM10.2009 26.0777L12.8436 22.0778L12.8436 22.0777M10.2009 26.0777L12.8436 22.0777M12.8436 22.0777C13.0682 21.737 12.9775 21.2766 12.6398 21.0495L12.6398 21.0495M12.8436 22.0777L12.6398 21.0495M12.6398 21.0495C12.3004 20.8214 11.8447 20.9146 11.6191 21.255L11.619 21.2551M12.6398 21.0495L11.619 21.2551M11.619 21.2551L9.47448 24.5014M11.619 21.2551L9.47448 24.5014M9.47448 24.5014L8.78764 23.809L8.78761 23.809L8.73436 23.8618L9.47448 24.5014ZM7.74691 24.8572C7.74692 24.8572 7.74692 24.8573 7.74692 24.8573L7.74691 24.8572Z" fill="white" stroke="white" stroke-width="0.15"/>
</svg>
