<svg width="96" height="101" viewBox="0 0 96 101" fill="none" xmlns="http://www.w3.org/2000/svg">
<path d="M43.3707 91.5L56.3715 60L21.8715 62L26.3715 53.5L66.3715 51.5L44.1184 99.5C-14.5139 92.5 -16.0138 5 47.486 0L44 9C23.5 12 11.5 24.5 8.5 45C5.5 65.5 19.2002 86.1439 43.3707 91.5Z" fill="#1965A4"/>
<path d="M52.0008 9L39 40.5L73.5001 38.5L69.0001 47L29.0001 49L51.2531 1C109.885 8 111.385 95.5 47.8856 100.5L51.3716 91.5C71.8716 88.5 83.8716 76 86.8716 55.5C89.8716 35 76.1713 14.3561 52.0008 9Z" fill="#8AB5DC"/>
</svg>
