<svg width="54" height="54" viewBox="0 0 54 54" fill="none" xmlns="http://www.w3.org/2000/svg">
<path d="M53.9968 22.2736C53.9966 21.6913 53.5244 21.2193 52.942 21.2193H49.694C49.1417 19.0371 48.2823 16.9616 47.1315 15.0301L49.4283 12.7335C49.6261 12.5357 49.7373 12.2674 49.7373 11.9877C49.7373 11.708 49.6261 11.4398 49.4283 11.2419L42.7586 4.57207C42.5607 4.37432 42.2925 4.26315 42.0128 4.26315C41.7331 4.26315 41.4648 4.37432 41.267 4.57207L38.9701 6.86897C37.0387 5.7182 34.9632 4.85895 32.781 4.3065V1.05827C32.781 0.475981 32.309 0.00369141 31.7266 0.00348047L22.2939 0H22.2934C22.0138 0 21.7456 0.111059 21.5479 0.308812C21.3499 0.506566 21.2387 0.774879 21.2387 1.05469V4.30629C19.0564 4.85863 16.9809 5.71799 15.0495 6.86865L12.7413 4.56047C12.3293 4.14872 11.6616 4.14872 11.2496 4.56047L4.57979 11.2302C4.16793 11.6421 4.16793 12.31 4.57979 12.722L6.88798 15.0301C5.73721 16.9616 4.87784 19.037 4.3254 21.2194H1.05828C0.475983 21.2194 0.0036915 21.6913 0.00348056 22.2737L7.50518e-08 31.7063C-0.000105394 31.9861 0.110954 32.2545 0.308814 32.4523C0.506568 32.6503 0.774882 32.7614 1.05469 32.7614H4.32497C4.87742 34.9438 5.73689 37.0194 6.88766 38.9509L4.57188 41.2668C4.37412 41.4646 4.26296 41.7328 4.26296 42.0125C4.26296 42.2922 4.37412 42.5604 4.57188 42.7583L11.2417 49.428C11.4396 49.6258 11.7078 49.7369 11.9876 49.7369C12.2673 49.7369 12.5356 49.6258 12.7334 49.428L15.0491 47.1123C16.9805 48.263 19.0561 49.1224 21.2385 49.6749V52.9452C21.2385 53.2249 21.3497 53.4933 21.5477 53.6912C21.7454 53.8889 22.0136 54 22.2933 54H22.2938L31.7264 53.9966C32.3087 53.9964 32.7808 53.5242 32.7808 52.9418V49.6747C34.963 49.1224 37.0386 48.2629 38.97 47.1122L41.2782 49.4202C41.4761 49.618 41.7443 49.7291 42.0241 49.7291H42.0244C42.3042 49.729 42.5725 49.6178 42.7703 49.4198L49.4364 42.7463C49.8478 42.3343 49.8476 41.6668 49.4359 41.2549L47.1314 38.9505C48.2822 37.0189 49.1415 34.9435 49.6939 32.7612H52.9453C53.2251 32.7612 53.4934 32.6501 53.6912 32.4521C53.889 32.2542 54.0001 31.9859 54 31.7061L53.9968 22.2736ZM48.8576 30.6519C48.3605 30.6519 47.9308 30.999 47.8264 31.4851C47.2856 34.0025 46.3038 36.3736 44.9086 38.5326C44.6387 38.95 44.697 39.4994 45.0485 39.8509L47.1989 42.0013L42.0238 47.1824L39.8705 45.0291C39.5189 44.6777 38.9694 44.6194 38.5521 44.8892C36.3932 46.2845 34.022 47.2663 31.5046 47.8072C31.0186 47.9116 30.6715 48.3413 30.6715 48.8385V51.8875L23.3483 51.89V48.8387C23.3483 48.3416 23.0012 47.9118 22.5151 47.8075C19.9974 47.2665 17.6262 46.2846 15.4674 44.8894C15.2919 44.7759 15.093 44.7204 14.8952 44.7204C14.6229 44.7204 14.3528 44.8257 14.149 45.0294L11.9878 47.1906L6.80972 42.0124L8.971 39.8512C9.32253 39.4996 9.38085 38.9502 9.11095 38.5328C7.7156 36.374 6.73389 34.0028 6.19283 31.4851C6.08852 30.9991 5.65884 30.6519 5.16166 30.6519H2.11002L2.11265 23.3287H5.16156C5.65863 23.3287 6.08842 22.9816 6.19283 22.4955C6.73368 19.9781 7.7156 17.607 9.11085 15.448C9.38074 15.0306 9.32242 14.4812 8.97089 14.1296L6.81721 11.976L11.9954 6.79788L14.1491 8.95155C14.5007 9.30308 15.0502 9.3613 15.4675 9.09151C17.6262 7.69637 19.9974 6.71467 22.515 6.17361C23.001 6.0693 23.3482 5.63963 23.3482 5.14245V2.1099L30.6714 2.11254V5.14255C30.6714 5.63963 31.0185 6.0693 31.5046 6.17372C34.022 6.71467 36.3932 7.69658 38.552 9.09172C38.9695 9.36151 39.5188 9.30329 39.8704 8.95177L42.0128 6.80938L47.1909 11.9876L45.0485 14.1299C44.697 14.4814 44.6387 15.0308 44.9086 15.4482C46.3038 17.6071 47.2856 19.9782 47.8266 22.4956C47.931 22.9816 48.3606 23.3288 48.8577 23.3288H51.8878L51.8904 30.652H48.8576V30.6519Z" fill="#fff"/>
<path d="M42.2116 17.4992C41.9026 17.0055 41.2519 16.8558 40.758 17.1645C40.2642 17.4735 40.1144 18.1245 40.4233 18.6182C44.3515 24.8958 43.432 32.9428 38.1876 38.1873C35.1993 41.1756 31.2263 42.8214 27.0003 42.8214C22.7742 42.8214 18.8012 41.1756 15.8129 38.1873C12.8246 35.199 11.1788 31.2259 11.1788 27C11.1788 22.7741 12.8246 18.801 15.8129 15.8127C21.0539 10.5717 29.0976 9.65017 35.3737 13.5716C35.8677 13.8806 36.5185 13.7301 36.827 13.236C37.1357 12.742 36.9854 12.0912 36.4914 11.7826C33.1105 9.67021 29.0533 8.74367 25.0677 9.17303C21.0211 9.60935 17.2046 11.4376 14.3212 14.3211C10.9346 17.7077 9.06934 22.2106 9.06934 27.0001C9.06934 31.7896 10.9346 36.2925 14.3212 39.6791C17.7078 43.0657 22.2107 44.9309 27.0003 44.9309C31.7898 44.9309 36.2927 43.0657 39.6793 39.6791C42.5642 36.7942 44.3926 32.9759 44.8279 28.9271C45.2565 24.939 44.3275 20.8806 42.2116 17.4992Z" fill="#fff"/>
<path d="M39.7164 14.3582L39.6791 14.3208C39.2671 13.9091 38.5994 13.9091 38.1873 14.3208C37.7755 14.7327 37.7755 15.4006 38.1873 15.8126L38.2248 15.8499C38.4307 16.0558 38.7006 16.1588 38.9705 16.1588C39.2404 16.1588 39.5103 16.0558 39.7164 15.8499C40.1284 15.4381 40.1284 14.7702 39.7164 14.3582Z" fill="#fff"/>
<path d="M27.0002 13.3576C25.0228 13.3576 23.4141 14.9663 23.4141 16.9438C23.4141 18.5543 24.4813 19.92 25.9455 20.3714V36.2819C25.9455 36.8643 26.4178 37.3367 27.0003 37.3367C27.5828 37.3367 28.0551 36.8644 28.0551 36.2819V20.3714C29.5194 19.92 30.5866 18.5543 30.5866 16.9438C30.5864 14.9663 28.9777 13.3576 27.0002 13.3576ZM27.0002 18.4204C26.1859 18.4204 25.5236 17.7581 25.5236 16.9438C25.5236 16.1294 26.186 15.4671 27.0002 15.4671C27.8146 15.4671 28.4769 16.1294 28.4769 16.9438C28.4769 17.7581 27.8146 18.4204 27.0002 18.4204Z" fill="#fff"/>
<path d="M27.7456 39.1086C27.5495 38.9124 27.2774 38.8006 27 38.8006C26.7226 38.8006 26.4505 38.9124 26.2543 39.1086C26.0582 39.3047 25.9453 39.5768 25.9453 39.8554C25.9453 40.1328 26.0581 40.4038 26.2543 40.6C26.4505 40.7972 26.7226 40.9091 27 40.9091C27.2774 40.9091 27.5495 40.7972 27.7456 40.6C27.9417 40.4039 28.0547 40.1328 28.0547 39.8554C28.0548 39.577 27.9419 39.3058 27.7456 39.1086Z" fill="#fff"/>
<path d="M22.7946 25.9452H19.3424C18.9061 24.7192 17.7345 23.8389 16.3606 23.8389C14.6158 23.8389 13.1963 25.2584 13.1963 27.0031C13.1963 28.7479 14.6158 30.1674 16.3606 30.1674C17.7368 30.1674 18.91 29.284 19.3445 28.0548H21.7399V35.5436C21.7399 36.1261 22.2122 36.5984 22.7947 36.5984C23.3771 36.5984 23.8495 36.1261 23.8495 35.5436V27C23.8494 26.4175 23.3771 25.9452 22.7946 25.9452ZM16.3606 28.0579C15.779 28.0579 15.3058 27.5848 15.3058 27.0031C15.3058 26.4215 15.7789 25.9483 16.3606 25.9483C16.9421 25.9483 17.4154 26.4215 17.4154 27.0031C17.4154 27.5848 16.9421 28.0579 16.3606 28.0579Z" fill="#fff"/>
<path d="M37.6397 23.8387C36.2658 23.8389 35.0942 24.7192 34.6579 25.9451H31.2057C30.6233 25.9451 30.1509 26.4174 30.1509 26.9999V38.9114C30.1509 39.4938 30.6232 39.9662 31.2057 39.9662C31.7882 39.9662 32.2605 39.4939 32.2605 38.9114V28.0546H34.6559C35.0904 29.284 36.2636 30.1673 37.6398 30.1673C39.3846 30.1673 40.8041 28.7478 40.8041 27.003C40.804 25.2582 39.3845 23.8387 37.6397 23.8387ZM37.6396 28.0579C37.0581 28.0579 36.5848 27.5848 36.5848 27.0031C36.5848 26.4215 37.0581 25.9483 37.6396 25.9483C38.2212 25.9483 38.6944 26.4215 38.6944 27.0031C38.6944 27.5848 38.2212 28.0579 37.6396 28.0579Z" fill="#fff"/>
</svg>
