<svg width="52" height="60" viewBox="0 0 52 60" fill="none" xmlns="http://www.w3.org/2000/svg">
<path d="M51.0003 32H49.0003V30H51.0003C51.4964 30 51.9173 29.636 51.9894 29.145C52.0624 28.654 51.7633 28.185 51.2874 28.042L32.0005 22.256V12.3441L44.1875 16.0001H34.0005C33.4475 16.0001 33.0006 16.4481 33.0006 17C33.0006 17.552 33.4475 18 34.0005 18H47.0005V20H45.0004C44.4474 20 44.0005 20.448 44.0005 21C44.0005 21.552 44.4474 22 45.0004 22H51.0004C51.5535 22 52.0004 21.552 52.0004 21C52.0004 20.448 51.5535 20 51.0004 20H49.0004V18H51.0004C51.4965 18 51.9174 17.636 51.9895 17.145C52.0625 16.654 51.7635 16.185 51.2876 16.042L31.7055 10.1671L26.9813 0.558984C26.8144 0.219023 26.4694 0.00199219 26.0904 0H26.0833C25.7073 0 25.3623 0.211055 25.1913 0.547031L20.1083 10.547C20.1033 10.558 20.1052 10.569 20.1003 10.58C20.0714 10.64 20.0633 10.706 20.0463 10.7711C20.0302 10.8361 20.0093 10.9001 20.0073 10.9661C20.0073 10.978 20.0002 10.9881 20.0002 11V16.0001H7.94423L18.2823 12.9591C18.8123 12.804 19.1152 12.2481 18.9593 11.718C18.8042 11.1891 18.2512 10.884 17.7183 11.04L0.718334 16.04C0.241381 16.181 -0.0606116 16.65 0.0102869 17.143C0.0813025 17.635 0.503294 18 1.00029 18H3.00033V20H1.00029C0.447279 20 0.000325605 20.448 0.000325605 21C0.000325605 21.552 0.447279 22 1.00029 22H7.00029C7.55329 22 8.00025 21.552 8.00025 21C8.00025 20.448 7.55329 20 7.00029 20H5.00025V18H20.0002V28H7.94423L18.2823 24.9589C18.8123 24.8039 19.1152 24.248 18.9593 23.7179C18.8042 23.1889 18.2512 22.885 17.7183 23.0399L0.718334 28.04C0.241381 28.181 -0.0606116 28.65 0.0102869 29.143C0.0813025 29.635 0.503294 30 1.00029 30H3.00033V32H1.00029C0.447279 32 0.000325605 32.448 0.000325605 33C0.000325605 33.552 0.447279 34 1.00029 34H7.00029C7.55329 34 8.00025 33.552 8.00025 33C8.00025 32.448 7.55329 32 7.00029 32H5.00025V30H19.6744L12.2454 56H9.00033C8.44732 56 8.00037 56.448 8.00037 57V59C8.00037 59.552 8.44732 60 9.00033 60C9.55333 60 10.0003 59.552 10.0003 59V58.0001H12.9983H13.0013H38.9963H38.9994H42.0004V59C42.0004 59.552 42.4474 60 43.0004 60C43.5534 60 44.0004 59.552 44.0004 59V57C44.0004 56.448 43.5534 56 43.0004 56H39.7554L32.0004 28.86V24.3439L44.1874 28H34.0004C33.4474 28 33.0004 28.448 33.0004 28.9999C33.0004 29.5519 33.4474 29.9999 34.0004 29.9999H47.0004V31.9999H45.0003C44.4473 31.9999 44.0004 32.4479 44.0004 32.9999C44.0004 33.5518 44.4473 33.9998 45.0003 33.9998H51.0003C51.5533 33.9998 52.0003 33.5518 52.0003 32.9999C52.0003 32.4479 51.5533 32 51.0003 32ZM14.3263 56L17.5943 44.5641L24.1383 48.727L17.1633 53.166C16.6972 53.462 16.5602 54.081 16.8562 54.547C17.0472 54.846 17.3702 55.01 17.7013 55.01C17.8852 55.01 18.0703 54.96 18.2373 54.853L26.0002 49.913L35.5652 55.9999H14.3263V56ZM37.3153 54.742L18.1673 42.557L20.4443 34.586L24.1863 37.057L20.4493 39.5241C19.9883 39.828 19.8613 40.449 20.1663 40.91C20.3573 41.201 20.6763 41.358 21.0013 41.358C21.1903 41.358 21.3822 41.3051 21.5512 41.193L26.0002 38.255L33.1623 42.984L28.4423 45.988C27.9773 46.285 27.8393 46.902 28.1363 47.3689C28.3263 47.668 28.6503 47.832 28.9814 47.832C29.1644 47.832 29.3504 47.781 29.5174 47.6749L34.4063 44.5639L37.3153 54.742ZM33.2963 40.676L26.5563 36.2261C26.5553 36.225 26.5543 36.2241 26.5523 36.223L21.0213 32.57L21.7552 30H28.0003C28.5533 30 29.0003 29.552 29.0003 29C29.0003 28.4481 28.5533 28.0001 28.0003 28.0001H22.0003V24H28.0003C28.5533 24 29.0003 23.552 29.0003 23C29.0003 22.4481 28.5533 22.0001 28.0003 22.0001H22.0003V18H28.0003C28.5533 18 29.0003 17.552 29.0003 17C29.0003 16.4481 28.5533 16.0001 28.0003 16.0001H22.0003V12H27.0003C27.5533 12 28.0003 11.552 28.0003 11C28.0003 10.4481 27.5533 10.0001 27.0003 10.0001H22.6303L26.0683 3.23613L30.0003 11.2331V29.0002C30.0003 29.0932 30.0133 29.1852 30.0383 29.2752L30.9802 32.5702L28.4843 34.2182C28.0233 34.5221 27.8973 35.1431 28.2013 35.6032C28.3932 35.8952 28.7123 36.0521 29.0362 36.0521C29.2262 36.0521 29.4172 35.9992 29.5862 35.8871L31.5562 34.5861L33.2963 40.676Z" fill="#fff"/>
</svg>
