<svg width="54" height="54" viewBox="0 0 54 54" fill="none" xmlns="http://www.w3.org/2000/svg">
<path d="M51.6675 11.6182L50.3574 11.2091C50.0298 11.1273 49.7023 11.0455 49.2929 11.0455C47.819 11.0455 46.5089 12.0273 46.0176 13.4182L45.2807 15.6272V13.9908V13.9091C45.2807 13.6636 45.1169 13.4182 44.9532 13.2545L31.5245 0.245474C31.3608 0.0818248 31.1151 0 30.9513 0H4.66721C4.17588 0 3.84843 0.327299 3.84843 0.818139V3.35449H0.818776C0.327445 3.35449 0 3.68179 0 4.17263V53.1819C0 53.6728 0.327554 54 0.818776 54H40.6134C41.1047 54 41.4322 53.6727 41.4322 53.1819V50.6455H44.4618C44.9532 50.6455 45.2806 50.3182 45.2806 49.8274V38.7819L47.5733 35.6728L47.6552 35.4273L53.7964 15.8727C54.4515 14.0728 53.4689 12.1909 51.6675 11.6182ZM31.7701 2.78182L42.4966 13.091H31.7701V2.78182ZM39.7946 52.3637H1.63755V4.99088H3.84832V49.8274C3.84832 50.3183 4.17588 50.6455 4.6671 50.6455H39.7945V52.3637H39.7946ZM43.7249 49.0092H43.6431H5.48598V1.63639H30.1324V13.9091C30.1324 14.4001 30.46 14.7273 30.9512 14.7273H43.7248V20.8637L39.8764 32.9728V33.2182L40.0402 43.6092C40.0402 43.9365 40.2859 44.2638 40.6134 44.3455C40.941 44.4274 41.3503 44.3455 41.5141 44.0182L43.7248 41.0728V49.0092H43.7249ZM41.596 41.0728L41.4322 34.2819L45.5263 35.5909L41.596 41.0728ZM52.3226 15.3819L46.427 34.1183L41.6778 32.5638L47.5734 13.9091C47.9009 13.0092 48.8835 12.4364 49.7841 12.7637L51.0943 13.1728C52.0769 13.4182 52.65 14.4819 52.3226 15.3819Z" fill="black"/>
<path d="M51.6675 11.6182L50.3574 11.2091C50.0298 11.1273 49.7023 11.0455 49.2929 11.0455C47.819 11.0455 46.5089 12.0273 46.0176 13.4182L45.2807 15.6272V13.9908V13.9091C45.2807 13.6636 45.1169 13.4182 44.9532 13.2545L31.5245 0.245474C31.3608 0.0818248 31.1151 0 30.9513 0H4.66721C4.17588 0 3.84843 0.327299 3.84843 0.818139V3.35449H0.818776C0.327445 3.35449 0 3.68179 0 4.17263V53.1819C0 53.6728 0.327554 54 0.818776 54H40.6134C41.1047 54 41.4322 53.6727 41.4322 53.1819V50.6455H44.4618C44.9532 50.6455 45.2806 50.3182 45.2806 49.8274V38.7819L47.5733 35.6728L47.6552 35.4273L53.7964 15.8727C54.4515 14.0728 53.4689 12.1909 51.6675 11.6182ZM31.7701 2.78182L42.4966 13.091H31.7701V2.78182ZM39.7946 52.3637H1.63755V4.99088H3.84832V49.8274C3.84832 50.3183 4.17588 50.6455 4.6671 50.6455H39.7945V52.3637H39.7946ZM43.7249 49.0092H43.6431H5.48598V1.63639H30.1324V13.9091C30.1324 14.4001 30.46 14.7273 30.9512 14.7273H43.7248V20.8637L39.8764 32.9728V33.2182L40.0402 43.6092C40.0402 43.9365 40.2859 44.2638 40.6134 44.3455C40.941 44.4274 41.3503 44.3455 41.5141 44.0182L43.7248 41.0728V49.0092H43.7249ZM41.596 41.0728L41.4322 34.2819L45.5263 35.5909L41.596 41.0728ZM52.3226 15.3819L46.427 34.1183L41.6778 32.5638L47.5734 13.9091C47.9009 13.0092 48.8835 12.4364 49.7841 12.7637L51.0943 13.1728C52.0769 13.4182 52.65 14.4819 52.3226 15.3819Z" fill="url(#paint0_linear)"/>
<path d="M11.0539 14.7272H22.8449C23.3363 14.7272 23.6637 14.3999 23.6637 13.9091V5.56362C23.6637 5.07267 23.3362 4.74548 22.8449 4.74548H11.0539C10.5626 4.74548 10.2351 5.07278 10.2351 5.56362V13.9091C10.2351 14.3182 10.6445 14.7272 11.0539 14.7272ZM11.8728 6.38176H22.0262V13.0908H11.8728V6.38176Z" fill="black"/>
<path d="M11.0539 14.7272H22.8449C23.3363 14.7272 23.6637 14.3999 23.6637 13.9091V5.56362C23.6637 5.07267 23.3362 4.74548 22.8449 4.74548H11.0539C10.5626 4.74548 10.2351 5.07278 10.2351 5.56362V13.9091C10.2351 14.3182 10.6445 14.7272 11.0539 14.7272ZM11.8728 6.38176H22.0262V13.0908H11.8728V6.38176Z" fill="url(#paint1_linear)"/>
<path d="M9.41643 22.4183H34.3086C34.7999 22.4183 35.1273 22.091 35.1273 21.6001C35.1273 21.1092 34.7998 20.782 34.3086 20.782H9.41643C8.9251 20.782 8.59766 21.1093 8.59766 21.6001C8.59755 22.091 8.9251 22.4183 9.41643 22.4183Z" fill="black"/>
<path d="M9.41643 22.4183H34.3086C34.7999 22.4183 35.1273 22.091 35.1273 21.6001C35.1273 21.1092 34.7998 20.782 34.3086 20.782H9.41643C8.9251 20.782 8.59766 21.1093 8.59766 21.6001C8.59755 22.091 8.9251 22.4183 9.41643 22.4183Z" fill="url(#paint2_linear)"/>
<path d="M9.41643 28.391H34.3086C34.7999 28.391 35.1273 28.0637 35.1273 27.5729C35.1273 27.0821 34.7998 26.7548 34.3086 26.7548H9.41643C8.9251 26.7548 8.59766 27.0821 8.59766 27.5729C8.59766 28.0637 8.9251 28.391 9.41643 28.391Z" fill="black"/>
<path d="M9.41643 28.391H34.3086C34.7999 28.391 35.1273 28.0637 35.1273 27.5729C35.1273 27.0821 34.7998 26.7548 34.3086 26.7548H9.41643C8.9251 26.7548 8.59766 27.0821 8.59766 27.5729C8.59766 28.0637 8.9251 28.391 9.41643 28.391Z" fill="url(#paint3_linear)"/>
<path d="M9.41643 34.3637H34.3086C34.7999 34.3637 35.1273 34.0364 35.1273 33.5456C35.1273 33.0547 34.7998 32.7274 34.3086 32.7274H9.41643C8.9251 32.7274 8.59766 33.0547 8.59766 33.5456C8.59766 34.0364 8.9251 34.3637 9.41643 34.3637Z" fill="black"/>
<path d="M9.41643 34.3637H34.3086C34.7999 34.3637 35.1273 34.0364 35.1273 33.5456C35.1273 33.0547 34.7998 32.7274 34.3086 32.7274H9.41643C8.9251 32.7274 8.59766 33.0547 8.59766 33.5456C8.59766 34.0364 8.9251 34.3637 9.41643 34.3637Z" fill="url(#paint4_linear)"/>
<path d="M35.0455 39.5183C35.0455 39.0274 34.7179 38.7002 34.2267 38.7002H9.41643C8.9251 38.7002 8.59766 39.0275 8.59766 39.5183C8.59766 40.0092 8.92521 40.3365 9.41643 40.3365H34.3086C34.7179 40.3365 35.0455 39.9273 35.0455 39.5183Z" fill="black"/>
<path d="M35.0455 39.5183C35.0455 39.0274 34.7179 38.7002 34.2267 38.7002H9.41643C8.9251 38.7002 8.59766 39.0275 8.59766 39.5183C8.59766 40.0092 8.92521 40.3365 9.41643 40.3365H34.3086C34.7179 40.3365 35.0455 39.9273 35.0455 39.5183Z" fill="url(#paint5_linear)"/>
<path d="M37.7474 44.6729H25.3832C24.8919 44.6729 24.5645 45.0002 24.5645 45.491C24.5645 45.9818 24.892 46.3091 25.3832 46.3091H37.6655C38.1568 46.3091 38.4843 45.9818 38.4843 45.491C38.4843 45.0002 38.1568 44.6729 37.7474 44.6729Z" fill="black"/>
<path d="M37.7474 44.6729H25.3832C24.8919 44.6729 24.5645 45.0002 24.5645 45.491C24.5645 45.9818 24.892 46.3091 25.3832 46.3091H37.6655C38.1568 46.3091 38.4843 45.9818 38.4843 45.491C38.4843 45.0002 38.1568 44.6729 37.7474 44.6729Z" fill="url(#paint6_linear)"/>
<defs>
<linearGradient id="paint0_linear" x1="27" y1="0" x2="27" y2="54" gradientUnits="userSpaceOnUse">
<stop stop-color="#5791BE"/>
<stop offset="1" stop-color="#366E9A"/>
</linearGradient>
<linearGradient id="paint1_linear" x1="16.9494" y1="4.74548" x2="16.9494" y2="14.7272" gradientUnits="userSpaceOnUse">
<stop stop-color="#5791BE"/>
<stop offset="1" stop-color="#366E9A"/>
</linearGradient>
<linearGradient id="paint2_linear" x1="21.8625" y1="20.782" x2="21.8625" y2="22.4183" gradientUnits="userSpaceOnUse">
<stop stop-color="#5791BE"/>
<stop offset="1" stop-color="#366E9A"/>
</linearGradient>
<linearGradient id="paint3_linear" x1="21.8625" y1="26.7548" x2="21.8625" y2="28.391" gradientUnits="userSpaceOnUse">
<stop stop-color="#5791BE"/>
<stop offset="1" stop-color="#366E9A"/>
</linearGradient>
<linearGradient id="paint4_linear" x1="21.8625" y1="32.7274" x2="21.8625" y2="34.3637" gradientUnits="userSpaceOnUse">
<stop stop-color="#5791BE"/>
<stop offset="1" stop-color="#366E9A"/>
</linearGradient>
<linearGradient id="paint5_linear" x1="21.8216" y1="38.7002" x2="21.8216" y2="40.3365" gradientUnits="userSpaceOnUse">
<stop stop-color="#5791BE"/>
<stop offset="1" stop-color="#366E9A"/>
</linearGradient>
<linearGradient id="paint6_linear" x1="31.5244" y1="44.6729" x2="31.5244" y2="46.3091" gradientUnits="userSpaceOnUse">
<stop stop-color="#5791BE"/>
<stop offset="1" stop-color="#366E9A"/>
</linearGradient>
</defs>
</svg>
