<svg width="45" height="60" viewBox="0 0 45 60" fill="none" xmlns="http://www.w3.org/2000/svg">
<path d="M26.7185 27.9992C26.3794 27.6559 25.8297 27.6558 25.4904 27.9992C24.684 28.8156 23.6115 29.2652 22.4709 29.2652C21.3303 29.2652 20.2578 28.8156 19.4514 27.9992C19.1121 27.6559 18.5624 27.6558 18.2233 27.9992C17.8842 28.3424 17.8842 28.8988 18.2233 29.2421C19.3579 30.3905 20.8664 31.023 22.4709 31.023C24.0754 31.023 25.584 30.3905 26.7185 29.2421C27.0575 28.8989 27.0575 28.3424 26.7185 27.9992Z" fill="black"/>
<path d="M26.7185 27.9992C26.3794 27.6559 25.8297 27.6558 25.4904 27.9992C24.684 28.8156 23.6115 29.2652 22.4709 29.2652C21.3303 29.2652 20.2578 28.8156 19.4514 27.9992C19.1121 27.6559 18.5624 27.6558 18.2233 27.9992C17.8842 28.3424 17.8842 28.8988 18.2233 29.2421C19.3579 30.3905 20.8664 31.023 22.4709 31.023C24.0754 31.023 25.584 30.3905 26.7185 29.2421C27.0575 28.8989 27.0575 28.3424 26.7185 27.9992Z" fill="url(#paint0_linear)"/>
<path d="M36.7809 43.4886L31.9976 42.3558C30.2368 41.9387 29.007 40.3691 29.007 38.5387V36.6788C30.3243 35.8694 31.482 34.8195 32.4212 33.5905H32.4904C35.1461 33.5905 37.3068 31.4035 37.3068 28.7152C37.3068 28.6848 37.3052 28.6547 37.3022 28.625C38.6133 28.3047 39.5905 27.108 39.5905 25.684V19.325C39.5905 17.6565 38.2494 16.2991 36.601 16.2991H35.023V16.2937C35.023 15.804 34.6307 15.4068 34.1468 15.4068C33.9769 15.4068 33.8188 15.4565 33.6846 15.5413C33.6783 15.5452 33.6724 15.5479 33.6661 15.5521C32.2385 16.5004 29.0201 17.0248 27.3411 17.0248C23.1593 17.0248 19.1338 15.5134 15.7215 12.7524L11.6006 8.25593C11.9975 7.63167 12.4225 7.04949 12.8696 6.52167C13.1847 6.14995 13.1423 5.59003 12.775 5.27116C12.4074 4.95206 11.8544 4.99519 11.5395 5.36691C10.8958 6.12663 10.2945 6.98152 9.75248 7.90788C8.84341 9.3855 8.20583 10.9957 7.8577 12.6943C7.60415 13.9311 7.51245 15.1914 7.57833 16.4516C6.38653 16.8499 5.52377 17.9871 5.52377 19.3251V19.3722C3.16716 17.5691 1.75238 14.7467 1.75238 11.6961C1.75238 6.38913 6.01802 2.07147 11.261 2.07147C12.3842 2.07147 13.4954 2.27315 14.5398 2.66058C14.3243 2.80753 14.109 2.96011 13.8946 3.1237C13.5082 3.41843 13.4309 3.97448 13.7221 4.36566C14.0134 4.75683 14.5627 4.83499 14.9492 4.54026C18.7931 1.60858 23.031 1.77475 23.0719 1.77698C26.043 1.93225 28.8533 3.28753 31.4246 5.80507C33.7059 8.03867 35.4065 11.2107 36.4794 15.2333C36.5849 15.6288 36.9386 15.8892 37.3248 15.8892C37.4004 15.8892 37.4773 15.8792 37.5538 15.8582C38.021 15.7306 38.2974 15.2437 38.1714 14.771C37.0148 10.4349 35.1549 6.98949 32.6431 4.53007C29.7584 1.70597 26.5687 0.183699 23.1623 0.00557346C23.0024 -0.00262968 19.9089 -0.136575 16.4234 1.56511C14.8351 0.735418 13.0609 0.297722 11.261 0.297722C5.05164 0.297722 0 5.41097 0 11.696C0 15.7447 2.10376 19.4538 5.52377 21.5043V25.684C5.52377 27.3525 6.8648 28.7099 8.5131 28.7099H10.4064C11.2095 32.2501 13.4884 35.2261 16.5497 36.9376V38.5386C16.5497 40.3691 15.32 41.9387 13.5592 42.3556L8.77591 43.4885C4.43664 44.5162 1.40586 48.3845 1.40586 52.8954V59.1131C1.40586 59.6029 1.79811 60 2.28206 60H43.2748C43.7587 60 44.1509 59.603 44.1509 59.1131V52.8953C44.1509 48.3846 41.1203 44.5164 36.7809 43.4886ZM35.0232 25.8846V18.0729H36.6012C37.2835 18.0729 37.8384 18.6347 37.8384 19.3251V25.6841C37.8384 26.3745 37.2834 26.9363 36.6012 26.9363H35.0232V25.8846ZM34.7078 28.71H35.5548C35.5548 28.7117 35.5546 28.7135 35.5546 28.7154C35.5546 29.9977 34.7818 31.1007 33.6829 31.5724C34.1328 30.6743 34.4799 29.7149 34.7078 28.71ZM10.0912 25.8846V26.9362H8.51322C7.83118 26.9362 7.27615 26.3744 7.27615 25.684V19.325C7.27615 18.6345 7.83118 18.0727 8.51322 18.0727H10.0912V25.8846ZM10.8023 15.4232C10.6627 15.4502 10.5352 15.5108 10.4277 15.5962C10.0638 15.757 9.69205 15.9025 9.31242 16.03C9.28521 15.0315 9.37251 14.0346 9.57349 13.0546C9.79115 11.9923 10.1393 10.9696 10.6091 9.99968C11.5881 11.2714 12.6557 12.4175 13.7947 13.4314C12.7225 14.355 11.7772 14.9129 11.3714 15.1336C11.1846 15.2352 10.9944 15.3309 10.8023 15.4232ZM11.8435 25.8846V17.186V16.8829C11.9634 16.822 12.0828 16.7601 12.2008 16.6959C12.6908 16.4294 13.8747 15.731 15.1752 14.5675C18.7759 17.305 22.9753 18.7987 27.3414 18.7987C28.8141 18.7987 31.3683 18.4498 33.2708 17.7126V25.8846C33.2708 28.0727 32.6266 30.1111 31.5211 31.8169H23.756C23.2721 31.8169 22.8798 32.2139 22.8798 32.7037C22.8798 33.1936 23.2721 33.5906 23.756 33.5906H30.0874C28.1509 35.5297 25.49 36.729 22.5572 36.729C16.6497 36.7289 11.8435 31.8642 11.8435 25.8846ZM42.3987 58.2265H36.447V56.2171C36.447 55.7273 36.0548 55.3302 35.5708 55.3302C35.0869 55.3302 34.6946 55.7272 34.6946 56.2171V58.2265H10.8628V56.2171C10.8628 55.7273 10.4705 55.3302 9.98658 55.3302C9.50264 55.3302 9.11039 55.7272 9.11039 56.2171V58.2265H3.15824V52.8956C3.15824 49.2129 5.6326 46.0547 9.17522 45.2157L10.0641 45.0051C10.7697 46.2572 11.6483 47.3961 12.685 48.3968C12.8546 48.5605 13.0721 48.6418 13.2894 48.6418C13.5206 48.6418 13.7515 48.5497 13.9236 48.367C14.2575 48.0125 14.2445 47.4512 13.8942 47.1131C13.1084 46.3544 12.4254 45.5058 11.8543 44.5812L13.9586 44.0828C16.516 43.477 18.3022 41.1973 18.3022 38.5387V37.7453C19.6306 38.2351 21.0637 38.5026 22.5573 38.5026C24.2184 38.5026 25.8042 38.1712 27.2548 37.5717V38.5387C27.2548 41.1974 29.0409 43.4771 31.5983 44.0828L33.7024 44.581C31.356 48.3902 27.267 50.7139 22.7785 50.7139C20.6619 50.7139 18.5637 50.183 16.7107 49.1785C16.2844 48.9472 15.7531 49.1099 15.5247 49.5416C15.2962 49.9733 15.4569 50.5108 15.8834 50.7421C17.9899 51.8841 20.3741 52.4877 22.7785 52.4877C28.0777 52.4877 32.8867 49.6376 35.4923 45.005L36.3817 45.2157C39.9243 46.0548 42.3987 49.2128 42.3987 52.8956V58.2265Z" fill="black"/>
<path d="M36.7809 43.4886L31.9976 42.3558C30.2368 41.9387 29.007 40.3691 29.007 38.5387V36.6788C30.3243 35.8694 31.482 34.8195 32.4212 33.5905H32.4904C35.1461 33.5905 37.3068 31.4035 37.3068 28.7152C37.3068 28.6848 37.3052 28.6547 37.3022 28.625C38.6133 28.3047 39.5905 27.108 39.5905 25.684V19.325C39.5905 17.6565 38.2494 16.2991 36.601 16.2991H35.023V16.2937C35.023 15.804 34.6307 15.4068 34.1468 15.4068C33.9769 15.4068 33.8188 15.4565 33.6846 15.5413C33.6783 15.5452 33.6724 15.5479 33.6661 15.5521C32.2385 16.5004 29.0201 17.0248 27.3411 17.0248C23.1593 17.0248 19.1338 15.5134 15.7215 12.7524L11.6006 8.25593C11.9975 7.63167 12.4225 7.04949 12.8696 6.52167C13.1847 6.14995 13.1423 5.59003 12.775 5.27116C12.4074 4.95206 11.8544 4.99519 11.5395 5.36691C10.8958 6.12663 10.2945 6.98152 9.75248 7.90788C8.84341 9.3855 8.20583 10.9957 7.8577 12.6943C7.60415 13.9311 7.51245 15.1914 7.57833 16.4516C6.38653 16.8499 5.52377 17.9871 5.52377 19.3251V19.3722C3.16716 17.5691 1.75238 14.7467 1.75238 11.6961C1.75238 6.38913 6.01802 2.07147 11.261 2.07147C12.3842 2.07147 13.4954 2.27315 14.5398 2.66058C14.3243 2.80753 14.109 2.96011 13.8946 3.1237C13.5082 3.41843 13.4309 3.97448 13.7221 4.36566C14.0134 4.75683 14.5627 4.83499 14.9492 4.54026C18.7931 1.60858 23.031 1.77475 23.0719 1.77698C26.043 1.93225 28.8533 3.28753 31.4246 5.80507C33.7059 8.03867 35.4065 11.2107 36.4794 15.2333C36.5849 15.6288 36.9386 15.8892 37.3248 15.8892C37.4004 15.8892 37.4773 15.8792 37.5538 15.8582C38.021 15.7306 38.2974 15.2437 38.1714 14.771C37.0148 10.4349 35.1549 6.98949 32.6431 4.53007C29.7584 1.70597 26.5687 0.183699 23.1623 0.00557346C23.0024 -0.00262968 19.9089 -0.136575 16.4234 1.56511C14.8351 0.735418 13.0609 0.297722 11.261 0.297722C5.05164 0.297722 0 5.41097 0 11.696C0 15.7447 2.10376 19.4538 5.52377 21.5043V25.684C5.52377 27.3525 6.8648 28.7099 8.5131 28.7099H10.4064C11.2095 32.2501 13.4884 35.2261 16.5497 36.9376V38.5386C16.5497 40.3691 15.32 41.9387 13.5592 42.3556L8.77591 43.4885C4.43664 44.5162 1.40586 48.3845 1.40586 52.8954V59.1131C1.40586 59.6029 1.79811 60 2.28206 60H43.2748C43.7587 60 44.1509 59.603 44.1509 59.1131V52.8953C44.1509 48.3846 41.1203 44.5164 36.7809 43.4886ZM35.0232 25.8846V18.0729H36.6012C37.2835 18.0729 37.8384 18.6347 37.8384 19.3251V25.6841C37.8384 26.3745 37.2834 26.9363 36.6012 26.9363H35.0232V25.8846ZM34.7078 28.71H35.5548C35.5548 28.7117 35.5546 28.7135 35.5546 28.7154C35.5546 29.9977 34.7818 31.1007 33.6829 31.5724C34.1328 30.6743 34.4799 29.7149 34.7078 28.71ZM10.0912 25.8846V26.9362H8.51322C7.83118 26.9362 7.27615 26.3744 7.27615 25.684V19.325C7.27615 18.6345 7.83118 18.0727 8.51322 18.0727H10.0912V25.8846ZM10.8023 15.4232C10.6627 15.4502 10.5352 15.5108 10.4277 15.5962C10.0638 15.757 9.69205 15.9025 9.31242 16.03C9.28521 15.0315 9.37251 14.0346 9.57349 13.0546C9.79115 11.9923 10.1393 10.9696 10.6091 9.99968C11.5881 11.2714 12.6557 12.4175 13.7947 13.4314C12.7225 14.355 11.7772 14.9129 11.3714 15.1336C11.1846 15.2352 10.9944 15.3309 10.8023 15.4232ZM11.8435 25.8846V17.186V16.8829C11.9634 16.822 12.0828 16.7601 12.2008 16.6959C12.6908 16.4294 13.8747 15.731 15.1752 14.5675C18.7759 17.305 22.9753 18.7987 27.3414 18.7987C28.8141 18.7987 31.3683 18.4498 33.2708 17.7126V25.8846C33.2708 28.0727 32.6266 30.1111 31.5211 31.8169H23.756C23.2721 31.8169 22.8798 32.2139 22.8798 32.7037C22.8798 33.1936 23.2721 33.5906 23.756 33.5906H30.0874C28.1509 35.5297 25.49 36.729 22.5572 36.729C16.6497 36.7289 11.8435 31.8642 11.8435 25.8846ZM42.3987 58.2265H36.447V56.2171C36.447 55.7273 36.0548 55.3302 35.5708 55.3302C35.0869 55.3302 34.6946 55.7272 34.6946 56.2171V58.2265H10.8628V56.2171C10.8628 55.7273 10.4705 55.3302 9.98658 55.3302C9.50264 55.3302 9.11039 55.7272 9.11039 56.2171V58.2265H3.15824V52.8956C3.15824 49.2129 5.6326 46.0547 9.17522 45.2157L10.0641 45.0051C10.7697 46.2572 11.6483 47.3961 12.685 48.3968C12.8546 48.5605 13.0721 48.6418 13.2894 48.6418C13.5206 48.6418 13.7515 48.5497 13.9236 48.367C14.2575 48.0125 14.2445 47.4512 13.8942 47.1131C13.1084 46.3544 12.4254 45.5058 11.8543 44.5812L13.9586 44.0828C16.516 43.477 18.3022 41.1973 18.3022 38.5387V37.7453C19.6306 38.2351 21.0637 38.5026 22.5573 38.5026C24.2184 38.5026 25.8042 38.1712 27.2548 37.5717V38.5387C27.2548 41.1974 29.0409 43.4771 31.5983 44.0828L33.7024 44.581C31.356 48.3902 27.267 50.7139 22.7785 50.7139C20.6619 50.7139 18.5637 50.183 16.7107 49.1785C16.2844 48.9472 15.7531 49.1099 15.5247 49.5416C15.2962 49.9733 15.4569 50.5108 15.8834 50.7421C17.9899 51.8841 20.3741 52.4877 22.7785 52.4877C28.0777 52.4877 32.8867 49.6376 35.4923 45.005L36.3817 45.2157C39.9243 46.0548 42.3987 49.2128 42.3987 52.8956V58.2265Z" fill="url(#paint1_linear)"/>
<path d="M17.9608 21.75C18.4404 21.75 18.8292 21.3565 18.8292 20.8711C18.8292 20.3857 18.4404 19.9922 17.9608 19.9922C17.4813 19.9922 17.0925 20.3857 17.0925 20.8711C17.0925 21.3565 17.4813 21.75 17.9608 21.75Z" fill="black"/>
<path d="M17.9608 21.75C18.4404 21.75 18.8292 21.3565 18.8292 20.8711C18.8292 20.3857 18.4404 19.9922 17.9608 19.9922C17.4813 19.9922 17.0925 20.3857 17.0925 20.8711C17.0925 21.3565 17.4813 21.75 17.9608 21.75Z" fill="url(#paint2_linear)"/>
<path d="M26.6962 21.75C27.1758 21.75 27.5645 21.3565 27.5645 20.8711C27.5645 20.3857 27.1758 19.9922 26.6962 19.9922C26.2166 19.9922 25.8279 20.3857 25.8279 20.8711C25.8279 21.3565 26.2166 21.75 26.6962 21.75Z" fill="black"/>
<path d="M26.6962 21.75C27.1758 21.75 27.5645 21.3565 27.5645 20.8711C27.5645 20.3857 27.1758 19.9922 26.6962 19.9922C26.2166 19.9922 25.8279 20.3857 25.8279 20.8711C25.8279 21.3565 26.2166 21.75 26.6962 21.75Z" fill="url(#paint3_linear)"/>
<defs>
<linearGradient id="paint0_linear" x1="22.4709" y1="27.7417" x2="22.4709" y2="31.023" gradientUnits="userSpaceOnUse">
<stop stop-color="#ACDAFE"/>
<stop offset="1" stop-color="#3CA7FA"/>
</linearGradient>
<linearGradient id="paint1_linear" x1="22.0755" y1="0" x2="22.0755" y2="60" gradientUnits="userSpaceOnUse">
<stop stop-color="#5791BE"/>
<stop offset="1" stop-color="#366E9A"/>
</linearGradient>
<linearGradient id="paint2_linear" x1="17.9608" y1="19.9922" x2="17.9608" y2="21.75" gradientUnits="userSpaceOnUse">
<stop stop-color="#ACDAFE"/>
<stop offset="1" stop-color="#3CA7FA"/>
</linearGradient>
<linearGradient id="paint3_linear" x1="26.6962" y1="19.9922" x2="26.6962" y2="21.75" gradientUnits="userSpaceOnUse">
<stop stop-color="#ACDAFE"/>
<stop offset="1" stop-color="#3CA7FA"/>
</linearGradient>
</defs>
</svg>
