<svg width="62" height="41" viewBox="0 0 62 41" fill="none" xmlns="http://www.w3.org/2000/svg">
<path d="M61.4489 2.79408C61.1045 2.55385 60.663 2.49499 60.267 2.64021L49.7369 6.43891C48.4314 6.90941 47.3919 7.85785 46.8105 9.10899C46.7015 9.34357 46.6299 9.58729 46.5582 9.83065C44.75 9.32075 41.3897 8.2558 38.0502 6.54906C33.0038 3.96979 29.1485 5.24375 25.8419 7.74554C24.1665 7.77821 21.8572 7.97472 19.5872 8.17316C18.1392 8.29988 16.7707 8.41651 15.661 8.48366C15.6337 7.82253 15.4777 7.16646 15.19 6.54665C14.6085 5.2954 13.5692 4.34695 12.2636 3.87658L1.73322 0.0776418C1.33845 -0.0662582 0.8944 -0.00740024 0.551341 0.231512C0.205618 0.471866 0 0.863446 0 1.28133V26.9062C0 27.6144 0.577739 28.1875 1.29171 28.1875H5.06451C6.66913 28.1875 8.16198 27.4368 9.12698 26.2246C9.64102 26.6123 10.2499 27.0663 10.8884 27.5419C12.3958 28.6668 14.0457 29.8941 14.7697 30.496C19.5794 34.4899 25.3617 38.8028 26.5133 39.5536C27.5892 40.2542 29.5267 41 31.0001 41C31.5765 41 33.0284 41 34.0476 40.1454C35.0984 40.5545 36.2311 40.5345 37.2844 40.074C38.3351 39.6148 39.1853 38.749 39.6797 37.6967C40.6888 37.9018 41.848 37.7517 42.8988 37.2287C43.8839 36.7395 44.6092 35.9987 44.9977 35.1329C45.9311 35.2179 46.9277 34.9164 47.8194 34.2395C49.0936 33.2734 49.677 31.8466 49.5119 30.4391L52.7884 28.6411C53.7479 29.9312 55.273 30.7498 56.9355 30.7498H60.7083C61.4223 30.7498 62 30.1768 62 29.4685V3.84391C62.0001 3.4259 61.7945 3.03432 61.4489 2.79408ZM7.48385 23.9622C7.10797 24.9568 6.13547 25.625 5.06451 25.625H2.5833V3.11059L11.3803 6.28372C12.0337 6.52023 12.5534 6.99445 12.8435 7.62002C13.1348 8.24559 13.1601 8.94635 12.9166 9.59065L7.48385 23.9622ZM46.2516 32.204C45.8139 32.5368 45.2009 32.722 44.9284 32.4518C44.9145 32.438 44.8929 32.4393 44.8786 32.4261C44.8539 32.4034 44.8417 32.3727 44.8149 32.3516C43.8916 31.6284 39.7542 27.4293 37.1974 24.7842C36.7042 24.2725 35.8856 24.2537 35.3722 24.7454C34.8563 25.2347 34.8386 26.0455 35.333 26.556C35.9332 27.1773 40.7508 32.1544 42.679 33.895C42.535 34.4576 42.0092 34.805 41.7422 34.9378C40.9148 35.3495 40.052 35.2806 39.729 34.9829C39.7194 34.974 39.7051 34.9745 39.6952 34.9658C39.6795 34.9519 39.6725 34.9323 39.6557 34.9191C38.1067 33.6916 34.2204 29.5951 33.3412 28.6467C32.858 28.1249 32.042 28.0924 31.5159 28.5704C30.9912 29.0497 30.9559 29.8605 31.439 30.381C31.4814 30.4265 35.2901 34.5017 37.4292 36.3946C37.219 36.9937 36.7907 37.4899 36.2411 37.7305C35.8356 37.9093 35.2013 38.0009 34.4766 37.4697C32.6216 35.9096 28.8991 31.979 28.1669 31.2017C27.6814 30.6836 26.8614 30.6575 26.3417 31.1405C25.8208 31.6234 25.793 32.4342 26.2799 32.951C27.1479 33.8725 29.7136 36.5699 31.6639 38.3962C31.446 38.4225 31.2173 38.4376 31.0001 38.4376C30.1448 38.4376 28.6753 37.8958 27.9324 37.4115C27.0267 36.8209 21.3403 32.6119 16.4297 28.5328C15.6868 27.9147 13.9914 26.6498 12.4399 25.4936C11.6083 24.8744 10.8422 24.3035 10.2775 23.8727L15.1137 11.0783C16.3691 11.0239 18.0428 10.8803 19.814 10.7254C20.8158 10.6378 21.8187 10.5524 22.7771 10.4784C21.3041 11.9783 19.1141 14.6647 19.4028 17.1829C19.5352 18.329 20.1672 19.2837 21.2331 19.9444C23.3434 21.2544 27.25 20.1558 29.1319 17.8599C30.3466 17.6859 31.1679 17.3782 32.0634 16.9377C33.5771 18.3491 35.6066 20.0083 37.7385 21.7512C41.4495 24.7841 45.6562 28.2225 46.7688 30.1506C47.3881 31.223 46.5292 31.9938 46.2516 32.204ZM48.4675 28.0835C46.7465 25.7998 43.0159 22.7444 39.3807 19.7731C36.9576 17.7924 34.6695 15.9218 33.2049 14.4692C32.8013 14.0713 32.1819 13.9812 31.6824 14.2452C30.3667 14.9446 29.774 15.2336 28.288 15.3812C27.8919 15.4212 27.5363 15.639 27.3244 15.9731C26.3114 17.5671 23.496 18.3253 22.6029 17.7723C22.0958 17.457 21.9974 17.1366 21.9697 16.8927C21.8449 15.8029 22.9574 13.9161 24.8028 12.0843C29.3729 7.55107 32.6399 6.66401 36.8668 8.82611C40.8828 10.88 44.8463 12.0413 46.5101 12.4799C46.5582 12.6719 46.5931 12.8658 46.6641 13.054L51.6794 26.321L48.4675 28.0835ZM59.4168 28.1875H56.9356C55.8647 28.1875 54.8921 27.5193 54.5163 26.5246L49.0834 12.1544C48.84 11.5088 48.8652 10.8082 49.1565 10.1825C49.4467 9.5569 49.9664 9.08268 50.6197 8.84617L59.4167 5.67304V28.1875H59.4168Z" fill="black"/>
<path d="M61.4489 2.79408C61.1045 2.55385 60.663 2.49499 60.267 2.64021L49.7369 6.43891C48.4314 6.90941 47.3919 7.85785 46.8105 9.10899C46.7015 9.34357 46.6299 9.58729 46.5582 9.83065C44.75 9.32075 41.3897 8.2558 38.0502 6.54906C33.0038 3.96979 29.1485 5.24375 25.8419 7.74554C24.1665 7.77821 21.8572 7.97472 19.5872 8.17316C18.1392 8.29988 16.7707 8.41651 15.661 8.48366C15.6337 7.82253 15.4777 7.16646 15.19 6.54665C14.6085 5.2954 13.5692 4.34695 12.2636 3.87658L1.73322 0.0776418C1.33845 -0.0662582 0.8944 -0.00740024 0.551341 0.231512C0.205618 0.471866 0 0.863446 0 1.28133V26.9062C0 27.6144 0.577739 28.1875 1.29171 28.1875H5.06451C6.66913 28.1875 8.16198 27.4368 9.12698 26.2246C9.64102 26.6123 10.2499 27.0663 10.8884 27.5419C12.3958 28.6668 14.0457 29.8941 14.7697 30.496C19.5794 34.4899 25.3617 38.8028 26.5133 39.5536C27.5892 40.2542 29.5267 41 31.0001 41C31.5765 41 33.0284 41 34.0476 40.1454C35.0984 40.5545 36.2311 40.5345 37.2844 40.074C38.3351 39.6148 39.1853 38.749 39.6797 37.6967C40.6888 37.9018 41.848 37.7517 42.8988 37.2287C43.8839 36.7395 44.6092 35.9987 44.9977 35.1329C45.9311 35.2179 46.9277 34.9164 47.8194 34.2395C49.0936 33.2734 49.677 31.8466 49.5119 30.4391L52.7884 28.6411C53.7479 29.9312 55.273 30.7498 56.9355 30.7498H60.7083C61.4223 30.7498 62 30.1768 62 29.4685V3.84391C62.0001 3.4259 61.7945 3.03432 61.4489 2.79408ZM7.48385 23.9622C7.10797 24.9568 6.13547 25.625 5.06451 25.625H2.5833V3.11059L11.3803 6.28372C12.0337 6.52023 12.5534 6.99445 12.8435 7.62002C13.1348 8.24559 13.1601 8.94635 12.9166 9.59065L7.48385 23.9622ZM46.2516 32.204C45.8139 32.5368 45.2009 32.722 44.9284 32.4518C44.9145 32.438 44.8929 32.4393 44.8786 32.4261C44.8539 32.4034 44.8417 32.3727 44.8149 32.3516C43.8916 31.6284 39.7542 27.4293 37.1974 24.7842C36.7042 24.2725 35.8856 24.2537 35.3722 24.7454C34.8563 25.2347 34.8386 26.0455 35.333 26.556C35.9332 27.1773 40.7508 32.1544 42.679 33.895C42.535 34.4576 42.0092 34.805 41.7422 34.9378C40.9148 35.3495 40.052 35.2806 39.729 34.9829C39.7194 34.974 39.7051 34.9745 39.6952 34.9658C39.6795 34.9519 39.6725 34.9323 39.6557 34.9191C38.1067 33.6916 34.2204 29.5951 33.3412 28.6467C32.858 28.1249 32.042 28.0924 31.5159 28.5704C30.9912 29.0497 30.9559 29.8605 31.439 30.381C31.4814 30.4265 35.2901 34.5017 37.4292 36.3946C37.219 36.9937 36.7907 37.4899 36.2411 37.7305C35.8356 37.9093 35.2013 38.0009 34.4766 37.4697C32.6216 35.9096 28.8991 31.979 28.1669 31.2017C27.6814 30.6836 26.8614 30.6575 26.3417 31.1405C25.8208 31.6234 25.793 32.4342 26.2799 32.951C27.1479 33.8725 29.7136 36.5699 31.6639 38.3962C31.446 38.4225 31.2173 38.4376 31.0001 38.4376C30.1448 38.4376 28.6753 37.8958 27.9324 37.4115C27.0267 36.8209 21.3403 32.6119 16.4297 28.5328C15.6868 27.9147 13.9914 26.6498 12.4399 25.4936C11.6083 24.8744 10.8422 24.3035 10.2775 23.8727L15.1137 11.0783C16.3691 11.0239 18.0428 10.8803 19.814 10.7254C20.8158 10.6378 21.8187 10.5524 22.7771 10.4784C21.3041 11.9783 19.1141 14.6647 19.4028 17.1829C19.5352 18.329 20.1672 19.2837 21.2331 19.9444C23.3434 21.2544 27.25 20.1558 29.1319 17.8599C30.3466 17.6859 31.1679 17.3782 32.0634 16.9377C33.5771 18.3491 35.6066 20.0083 37.7385 21.7512C41.4495 24.7841 45.6562 28.2225 46.7688 30.1506C47.3881 31.223 46.5292 31.9938 46.2516 32.204ZM48.4675 28.0835C46.7465 25.7998 43.0159 22.7444 39.3807 19.7731C36.9576 17.7924 34.6695 15.9218 33.2049 14.4692C32.8013 14.0713 32.1819 13.9812 31.6824 14.2452C30.3667 14.9446 29.774 15.2336 28.288 15.3812C27.8919 15.4212 27.5363 15.639 27.3244 15.9731C26.3114 17.5671 23.496 18.3253 22.6029 17.7723C22.0958 17.457 21.9974 17.1366 21.9697 16.8927C21.8449 15.8029 22.9574 13.9161 24.8028 12.0843C29.3729 7.55107 32.6399 6.66401 36.8668 8.82611C40.8828 10.88 44.8463 12.0413 46.5101 12.4799C46.5582 12.6719 46.5931 12.8658 46.6641 13.054L51.6794 26.321L48.4675 28.0835ZM59.4168 28.1875H56.9356C55.8647 28.1875 54.8921 27.5193 54.5163 26.5246L49.0834 12.1544C48.84 11.5088 48.8652 10.8082 49.1565 10.1825C49.4467 9.5569 49.9664 9.08268 50.6197 8.84617L59.4167 5.67304V28.1875H59.4168Z" fill="url(#paint0_linear)"/>
<defs>
<linearGradient id="paint0_linear" x1="31" y1="0" x2="31" y2="41" gradientUnits="userSpaceOnUse">
<stop stop-color="#5791BE"/>
<stop offset="1" stop-color="#366E9A"/>
</linearGradient>
</defs>
</svg>
