<svg width="31" height="39" viewBox="0 0 31 39" fill="none" xmlns="http://www.w3.org/2000/svg">
<path d="M25.0476 36.543C24.5482 36.543 24.1428 36.9455 24.1428 37.4414C24.1428 37.9373 24.5482 38.3398 25.0476 38.3398C25.547 38.3398 25.9523 37.9373 25.9523 37.4414C25.9523 36.9455 25.547 36.543 25.0476 36.543Z" fill="white"/>
<path d="M6.95237 36.543C6.45294 36.543 6.04761 36.9455 6.04761 37.4414C6.04761 37.9373 6.45294 38.3398 6.95237 38.3398C7.4518 38.3398 7.85713 37.9373 7.85713 37.4414C7.85713 36.9455 7.4518 36.543 6.95237 36.543Z" fill="white"/>
<path d="M29.6452 27.9961C28.8144 26.7029 27.6726 25.6753 26.3351 25.0117C26.2223 24.9064 26.0773 24.8358 25.916 24.8178C24.9486 24.4048 23.9288 24.1953 22.881 24.1953H20.6667V22.2372C21.9481 21.1316 22.8693 19.6673 23.316 18.0352H23.619C25.247 18.0352 26.5714 16.7034 26.5714 15.0664C26.5714 14.2907 26.2737 13.5838 25.7874 13.0543C25.8339 13.0147 25.8792 12.9734 25.9227 12.9297C26.3411 12.5091 26.5714 11.95 26.5714 11.3555C26.5714 10.3785 25.9421 9.54705 25.0699 9.24795C24.8092 5.83508 22.4271 2.91858 19.1474 2.0045C18.953 0.983844 18.1154 0 16.9762 0H14.0238C12.8846 0 12.047 0.983844 11.8526 2.0045C8.5732 2.9185 6.19136 5.83448 5.93015 9.24691C5.61262 9.3552 5.32145 9.53577 5.07728 9.78121C4.65893 10.2019 4.42857 10.761 4.42857 11.3555C4.42857 12.0355 4.7337 12.645 5.21317 13.0537C4.72661 13.5832 4.42857 14.2904 4.42857 15.0664C4.42857 16.7034 5.75301 18.0352 7.38095 18.0352H7.68195C8.05483 19.3976 8.76186 20.6484 9.74817 21.6816C9.93351 21.8759 10.13 22.061 10.3333 22.2366V24.1953H8.11905C7.0711 24.1953 6.05135 24.4048 5.084 24.8177C4.9228 24.8358 4.77769 24.9063 4.66498 25.0116C3.32733 25.6753 2.18565 26.7029 1.35477 27.996C0.468469 29.3755 0 30.9613 0 32.582V37.2578C0 37.6676 0.330445 38 0.738095 38H30.2619C30.6696 38 31 37.6676 31 37.2578V32.582C31 30.9613 30.5315 29.3755 29.6452 27.9961ZM4.42857 36.5156H1.47619V32.582C1.47619 30.3245 2.62629 28.1607 4.42857 26.8762V36.5156ZM23.619 16.5508H23.5854C23.6074 16.3039 23.619 16.056 23.619 15.8086V13.582C24.433 13.582 25.0952 14.2479 25.0952 15.0664C25.0952 15.8849 24.433 16.5508 23.619 16.5508ZM11.8095 3.57282V6.90234C11.8095 7.31225 12.14 7.64453 12.5476 7.64453C12.9553 7.64453 13.2857 7.31225 13.2857 6.90234V2.60233C13.2857 2.6004 13.2857 2.59847 13.2857 2.59654V2.44922C13.2857 1.98936 13.672 1.48438 14.0238 1.48438H16.9762C17.328 1.48438 17.7143 1.98936 17.7143 2.44922V2.59654C17.7143 2.59847 17.7143 2.6004 17.7143 2.60233V6.90234C17.7143 7.31225 18.0447 7.64453 18.4524 7.64453C18.86 7.64453 19.1905 7.31225 19.1905 6.90234V3.57282C21.5738 4.42091 23.2943 6.58959 23.5778 9.12891H7.42221C7.70572 6.58959 9.42621 4.42091 11.8095 3.57282ZM7.38095 16.5508C6.56698 16.5508 5.90476 15.8849 5.90476 15.0664C5.90476 14.2479 6.56698 13.582 7.38095 13.582V15.8086C7.38095 16.056 7.39261 16.3039 7.41461 16.5508H7.38095ZM7.38095 12.0977H6.64286C6.23587 12.0977 5.90476 11.7647 5.90476 11.3555C5.90476 11.1575 5.9816 10.9711 6.1211 10.8309C6.26067 10.6905 6.44593 10.6133 6.64286 10.6133H24.3571C24.7641 10.6133 25.0952 10.9462 25.0952 11.3555C25.0952 11.5535 25.0184 11.7398 24.8789 11.88C24.7394 12.0204 24.5541 12.0977 24.3571 12.0977H23.619H22.881H8.11905H7.38095ZM8.99125 17.1581C8.98978 17.15 8.98838 17.142 8.9866 17.1341C8.90091 16.6985 8.85714 16.2526 8.85714 15.8086V13.582H22.1429V15.8086C22.1429 16.2523 22.0991 16.6978 22.0134 17.1338C22.0116 17.1418 22.0102 17.1499 22.0087 17.158C21.6789 18.8136 20.766 20.2956 19.4367 21.3321C18.2819 22.2342 16.9206 22.7109 15.5 22.7109C14.0794 22.7109 12.7181 22.2342 11.5622 21.3313C11.2976 21.1254 11.0457 20.8976 10.8134 20.654C9.88228 19.6786 9.25254 18.4702 8.99125 17.1581ZM14.7619 36.5156H8.85714V34.8086C8.85714 34.3987 8.5267 34.0664 8.11905 34.0664C7.7114 34.0664 7.38095 34.3987 7.38095 34.8086V36.5156H5.90476V26.086C6.38379 25.9043 6.87728 25.7833 7.38095 25.7236V30.3555C7.38095 30.7654 7.7114 31.0977 8.11905 31.0977C8.5267 31.0977 8.85714 30.7654 8.85714 30.3555V25.6797H10.7552L14.7619 29.9102V36.5156ZM11.8095 24.6406V23.2582C12.9485 23.8739 14.2029 24.1953 15.5 24.1953C16.7971 24.1953 18.0517 23.8738 19.1905 23.2583V24.6406L15.5 28.5371L11.8095 24.6406ZM25.0952 36.5156H23.619V34.8086C23.619 34.3987 23.2886 34.0664 22.881 34.0664C22.4733 34.0664 22.1429 34.3987 22.1429 34.8086V36.5156H16.2381V29.9102L20.2448 25.6797H22.1429V30.3555C22.1429 30.7654 22.4733 31.0977 22.881 31.0977C23.2886 31.0977 23.619 30.7654 23.619 30.3555V25.7236C24.1227 25.7833 24.6161 25.9044 25.0952 26.086V36.5156ZM29.5238 36.5156H26.5714V26.8762C28.3737 28.1607 29.5238 30.3244 29.5238 32.582V36.5156Z" fill="white"/>
</svg>
