<svg height="512" viewBox="0 0 64 64" width="512" xmlns="http://www.w3.org/2000/svg"><g id="Filled_outline" data-name="Filled outline"><circle cx="15" cy="54" fill="#394d5c" r="7"/><circle cx="15" cy="54" fill="#fcf05a" r="3"/><circle cx="49" cy="54" fill="#394d5c" r="7"/><circle cx="49" cy="54" fill="#fcf05a" r="3"/><path d="m4 25v26h56v-26zm52 22h-48v-18h48z" fill="#dd3e46"/><path d="m8 29h16v18h-16z" fill="#f9bb4b"/><path d="m24 29h16v18h-16z" fill="#ffd782"/><path d="m40 29h16v18h-16z" fill="#f9bb4b"/><path d="m8 32v-3h3l13 13v5h-1z" fill="#ad6327"/><path d="m56 32v-3h-3l-13 13v5h1z" fill="#ad6327"/><path d="m24 43h16v4h-16z" fill="#d3843d"/><path d="m8 25 2-3-1-4h6l3 1 3 3 3 3z" fill="#5a6470"/><path d="m24 25-4-4 3-2 2-2 2-1 3 3 3-1 2 3 2 4z" fill="#aabece"/><path d="m37 25-2-4 5-1 3-2 3 2 4 1 2 4z" fill="#394d5c"/><path d="m52 25-2-4 3-3 4-2 1 9z" fill="#5a6470"/><path d="m30 19-3-3 1-3 3-2 5 1v4l-3 2z" fill="#7d8d9c"/><path d="m35 21-2-3 3-2v-4l3 1h3l1 5-3 2z" fill="#5a6470"/><path d="m43 18-1-5 6-1 3 2h4l2 2-4 2-3 3-4-1z" fill="#7d8d9c"/><path d="m20 21 3-2 2-2 2-1 1-3-6-1-1 2-3 2v3z" fill="#394d5c"/><path d="m18 19-3-1h-6l1-3 1-3 4-1 3 5z" fill="#aabece"/><path d="m15 11 3 5 3-2 1-2-3-4z" fill="#cfdfe8"/><path d="m19 8 3 4 6 1 3-2-2-3-5-2z" fill="#5a6470"/><path d="m31 11-2-3 5-3 2-2h4l2 3 1 3 5 3-6 1h-3l-3-1z" fill="#aabece"/><path d="m57.994 15.89a2.059 2.059 0 0 0 -.051-.217 1.86 1.86 0 0 0 -.1-.211 2.031 2.031 0 0 0 -.133-.169l-2-2a1 1 0 0 0 -.71-.293h-3.7l-2.748-1.832c-.006 0-.014 0-.02-.008s-.012-.013-.02-.017l-4.683-2.81-.883-2.649a1.06 1.06 0 0 0 -.117-.239l-2-3a1 1 0 0 0 -.829-.445h-4a1 1 0 0 0 -.707.293l-1.913 1.913-4.469 2.681-4.539-1.816a1.017 1.017 0 0 0 -.744 0l-5 2a1.871 1.871 0 0 0 -.228.129l-3.838 2.879-3.8.951a1 1 0 0 0 -.706.654l-2 6c-.009.026-.025.12-.029.14a1.975 1.975 0 0 0 .008.419l.892 3.57-1.462 2.187h-4.465v28h4.262a7.921 7.921 0 0 0 -.262 2 7.995 7.995 0 0 0 15.737 2h18.526a7.995 7.995 0 0 0 15.737-2 7.921 7.921 0 0 0 -.262-2h4.262v-28h-2.1zm-1.829 1.646.718 6.464h-4.265l-1.4-2.8 2.375-2.375zm-5.72-2.7a1.006 1.006 0 0 0 .555.164h3.586l.726.726-2.759 1.379a1.028 1.028 0 0 0 -.26.188l-2.6 2.6-3.282-.82-2.511-1.673-.716-3.581 4.592-.766zm-26.89 5a1.011 1.011 0 0 0 .152-.125l1.885-1.885 1.211-.605 2.49 2.49a.976.976 0 0 0 .292.2 1.909 1.909 0 0 0 .366.088 1.835 1.835 0 0 0 .365-.041l2.276-.759 1.541 2.301 1.249 2.5h-10.968l-2.844-2.845zm-3.428-.119-1.127-1.131v-2.051l2.555-1.7a1.01 1.01 0 0 0 .34-.385l.669-1.339 4.117.686-.5 1.5-1.629.814a1.028 1.028 0 0 0 -.26.188l-1.93 1.93zm8.017-3.983.7-2.088 2.37-1.58 3.786.754v2.645l-2.443 1.628-2.287.763zm6.243 2.547 2.168-1.445a1 1 0 0 0 .445-.836v-2.613l1.684.562a1 1 0 0 0 .316.051h2.18l.708 3.539-2.278 1.519-4.149.83zm5.809 2.7a1 1 0 0 0 .359-.148l2.445-1.633 2.445 1.63a1 1 0 0 0 .312.138l3.554.889 1.071 2.143h-12.764l-1.138-2.276zm-5.681-15.124a1.025 1.025 0 0 0 .192-.15l1.707-1.707h3.051l1.629 2.443.957 2.873a1 1 0 0 0 .434.541l2.672 1.6-3.24.54h-2.755l-2.846-.949a.813.813 0 0 0 -.12-.031l-4.596-.917-1.186-1.782zm-10.515 1.22 4.34 1.736 1.273 1.91-1.839 1.226-5.214-.87-1.977-2.635zm-5.2 2.323 2.029 2.705-.605 1.21-1.906 1.271-2-3.327zm-7.025 3.437 2.749-.687 2.476 4.127v1.335l-1.684-.561a1 1 0 0 0 -.316-.051h-4.613zm-.943 9.718a1 1 0 0 0 .138-.8l-.689-2.755h4.557l2.622.874 1.833 1.833 2.293 2.293h-11.717zm4.168 37.445a6.006 6.006 0 0 1 -6-6 5.89 5.89 0 0 1 .346-2h2.21a3.959 3.959 0 0 0 -.556 2 4 4 0 0 0 8 0 3.959 3.959 0 0 0 -.556-2h2.21a5.89 5.89 0 0 1 .346 2 6.006 6.006 0 0 1 -6 6zm-2-6a2 2 0 1 1 2 2 2 2 0 0 1 -2-2zm28 0h-18a7.921 7.921 0 0 0 -.262-2h18.524a7.921 7.921 0 0 0 -.262 2zm8 6a6.006 6.006 0 0 1 -6-6 5.89 5.89 0 0 1 .346-2h2.21a3.959 3.959 0 0 0 -.556 2 4 4 0 0 0 8 0 3.959 3.959 0 0 0 -.556-2h2.21a5.89 5.89 0 0 1 .346 2 6.006 6.006 0 0 1 -6 6zm-2-6a2 2 0 1 1 2 2 2 2 0 0 1 -2-2zm12-4h-54v-24h54z"/><path d="m7 28v20h50v-20zm2 6.414 5.586 5.586h-5.586zm0 11.586v-4h7.586l4 4zm14-.414-14-14v-1.586h1.586l12.414 12.414zm0-6-4.586-4.586h4.586zm0-6.586h-6.586l-3-3h9.586zm16 13h-14v-2h14zm0-4h-14v-12h14zm2-12h9.586l-3 3h-6.586zm0 5h4.586l-4.586 4.586zm14 11h-11.586l4-4h7.586zm0-6h-5.586l5.586-5.586zm0-10v1.586l-14 14v-3.172l12.414-12.414z"/><path d="m27 32h2v2h-2z"/><path d="m31 32h2v2h-2z"/><path d="m35 32h2v2h-2z"/><path d="m36 7h2v2h-2z"/><path d="m26 20h2v2h-2z"/><path d="m47 15h2v2h-2z"/></g></svg>