<?xml version="1.0" encoding="iso-8859-1"?>
<!-- Generator: Adobe Illustrator 19.0.0, SVG Export Plug-In . SVG Version: 6.00 Build 0)  -->
<svg version="1.1" id="Capa_1" xmlns="http://www.w3.org/2000/svg" xmlns:xlink="http://www.w3.org/1999/xlink" x="0px" y="0px"
	 viewBox="0 0 512 512" style="enable-background:new 0 0 512 512;" xml:space="preserve">
<polygon style="fill:#FFF082;" points="183.855,272.033 336.161,175.839 488.468,272.033 488.468,448.388 183.855,448.388 "/>
<rect x="183.85" y="384.26" style="fill:#FFDC64;" width="304.61" height="64.13"/>
<g>
	<rect x="223.94" y="288.06" style="fill:#6F6571;" width="96.19" height="96.19"/>
	<rect x="352.19" y="288.06" style="fill:#6F6571;" width="96.19" height="96.19"/>
</g>
<polygon style="fill:#FFDC64;" points="183.855,272.033 183.855,298.41 336.161,204.12 488.468,298.41 488.468,272.033 
	336.161,175.839 "/>
<rect x="63.61" y="95.68" style="fill:#AA8778;" width="32.06" height="352.71"/>
<rect x="63.61" y="384.26" style="fill:#B7B2B8;" width="32.06" height="64.13"/>
<rect x="223.94" y="288.06" style="fill:#5D5360;" width="224.45" height="56.11"/>
<rect x="320.13" y="288.06" style="fill:#DBD9DC;" width="32.06" height="96.19"/>
<rect x="63.61" y="95.68" style="fill:#9B7369;" width="32.06" height="24.05"/>
<path d="M504.5,440.888h-8.532v-157.3l4.584,2.838c1.23,0.761,2.593,1.124,3.94,1.124c2.511,0,4.965-1.261,6.384-3.553
	c2.18-3.522,1.093-8.145-2.429-10.325l-168.338-104.21c-2.419-1.497-5.477-1.497-7.896,0l-92.762,57.424v-59.579H256
	c4.142,0,7.5-3.358,7.5-7.5s-3.358-7.5-7.5-7.5h-56.113c-4.142,0-7.5,3.358-7.5,7.5c0,19.184-6.124,36.964-16.518,51.491
	c-10.519-14.747-16.579-32.663-16.579-51.491v-32.065c0-4.142-3.358-7.5-7.5-7.5s-7.5,3.358-7.5,7.5v24.565h-41.113v-49.129h24.564
	c4.142,0,7.5-3.358,7.5-7.5V63.613c0-4.142-3.358-7.5-7.5-7.5s-7.5,3.358-7.5,7.5v24.564H87.145V63.613c0-4.142-3.358-7.5-7.5-7.5
	s-7.5,3.358-7.5,7.5v24.564H39.048V63.613c0-4.142-3.358-7.5-7.5-7.5s-7.5,3.358-7.5,7.5v32.064c0,4.142,3.358,7.5,7.5,7.5h24.564
	v49.129H15v-24.565c0-4.142-3.358-7.5-7.5-7.5S0,123.6,0,127.742v32.065c0,40.036,22.809,74.841,56.113,92.114v188.967h-8.532
	c-4.142,0-7.5,3.358-7.5,7.5s3.358,7.5,7.5,7.5H504.5c4.142,0,7.5-3.358,7.5-7.5S508.642,440.888,504.5,440.888z M103.177,263.494
	c0.172,0.001,0.344,0.007,0.516,0.007c28.018,0,53.473-11.174,72.153-29.295c6.998,6.817,14.989,12.674,23.788,17.33l-35.759,22.136
	c-3.522,2.18-4.609,6.803-2.429,10.325c2.18,3.521,6.802,4.61,10.325,2.429l4.584-2.838v157.3h-73.178
	C103.177,440.887,103.177,263.494,103.177,263.494z M191.355,391.759h208.933c4.142,0,7.5-3.358,7.5-7.5s-3.358-7.5-7.5-7.5h-40.594
	V327.63h81.194v49.129h-8.534c-4.142,0-7.5,3.358-7.5,7.5s3.358,7.5,7.5,7.5h48.615v49.129H191.355V391.759z M344.693,295.565
	v81.194h-17.064v-81.194H344.693z M440.887,295.565v17.064h-81.194v-17.064H440.887z M312.629,312.629h-81.193v-17.064h81.193
	V312.629z M231.436,327.629h81.193v49.129h-81.193V327.629z M336.161,184.66l144.807,89.642v102.457h-25.081v-88.694
	c0-4.142-3.358-7.5-7.5-7.5H223.936c-4.142,0-7.5,3.358-7.5,7.5v88.694h-25.081V274.302L336.161,184.66z M207.119,167.307h17.333
	v68.865l-9.577,5.928c-11.026-4.442-20.844-10.989-29.038-19.083C197.91,207.365,205.619,188.182,207.119,167.307z M144.574,167.307
	c1.503,20.519,9.125,39.818,21.304,55.676c-16.019,15.77-37.984,25.517-62.185,25.517c-0.173,0-0.344-0.006-0.516-0.007v-81.187
	h41.397V167.307z M88.177,103.178V247.14c-5.909-1.047-11.618-2.68-17.064-4.839V103.178H88.177z M15.32,167.307h40.793v67.32
	C33.4,220.132,17.7,195.586,15.32,167.307z M88.177,262.339v114.42H71.113V258.252C76.613,260.077,82.315,261.456,88.177,262.339z
	 M71.113,391.759h17.064v49.129H71.113V391.759z"/>
<g>
</g>
<g>
</g>
<g>
</g>
<g>
</g>
<g>
</g>
<g>
</g>
<g>
</g>
<g>
</g>
<g>
</g>
<g>
</g>
<g>
</g>
<g>
</g>
<g>
</g>
<g>
</g>
<g>
</g>
</svg>
