<svg width="51" height="51" viewBox="0 0 51 51" fill="none" xmlns="http://www.w3.org/2000/svg">
<path d="M50.1499 45.9H47.5999V29.75C47.5996 29.2806 47.2186 28.9003 46.7492 28.9006C46.4722 28.9008 46.2127 29.036 46.0537 29.2629L34.1537 46.2629C33.8847 46.6477 33.9785 47.1777 34.3633 47.4466C34.5059 47.5463 34.6757 47.5999 34.8499 47.6H45.8999V50.15C45.8999 50.6194 46.2805 51 46.7499 51C47.2193 51 47.5999 50.6194 47.5999 50.15V47.6H50.1499C50.6193 47.6 50.9999 47.2194 50.9999 46.75C50.9999 46.2806 50.6193 45.9 50.1499 45.9ZM45.8999 45.9H36.4819L45.8999 32.4462V45.9Z" fill="black"/>
<path d="M50.1499 45.9H47.5999V29.75C47.5996 29.2806 47.2186 28.9003 46.7492 28.9006C46.4722 28.9008 46.2127 29.036 46.0537 29.2629L34.1537 46.2629C33.8847 46.6477 33.9785 47.1777 34.3633 47.4466C34.5059 47.5463 34.6757 47.5999 34.8499 47.6H45.8999V50.15C45.8999 50.6194 46.2805 51 46.7499 51C47.2193 51 47.5999 50.6194 47.5999 50.15V47.6H50.1499C50.6193 47.6 50.9999 47.2194 50.9999 46.75C50.9999 46.2806 50.6193 45.9 50.1499 45.9ZM45.8999 45.9H36.4819L45.8999 32.4462V45.9Z" fill="url(#paint0_linear)"/>
<path d="M34.8501 49.2999H24.7869L34.1429 38.2831C34.1641 38.2578 34.184 38.2314 34.2024 38.204C35.9625 35.599 35.3762 32.072 32.8679 30.1766C29.818 27.9852 25.5691 28.6812 23.3778 31.7312C22.5468 32.8877 22.0999 34.2758 22.1001 35.6999C22.1001 36.1693 22.4807 36.5499 22.9501 36.5499C23.4195 36.5499 23.8001 36.1693 23.8001 35.6999C23.7998 32.8832 26.083 30.5997 28.8996 30.5994C29.9672 30.5993 31.0079 30.9342 31.8751 31.557C33.6322 32.9033 34.0413 35.3828 32.8101 37.2223L22.3024 49.6C21.9986 49.9579 22.0426 50.4943 22.4006 50.798C22.5541 50.9283 22.7488 50.9998 22.9501 50.9999H34.8501C35.3195 50.9999 35.7001 50.6193 35.7001 50.1499C35.7001 49.6805 35.3195 49.2999 34.8501 49.2999Z" fill="black"/>
<path d="M34.8501 49.2999H24.7869L34.1429 38.2831C34.1641 38.2578 34.184 38.2314 34.2024 38.204C35.9625 35.599 35.3762 32.072 32.8679 30.1766C29.818 27.9852 25.5691 28.6812 23.3778 31.7312C22.5468 32.8877 22.0999 34.2758 22.1001 35.6999C22.1001 36.1693 22.4807 36.5499 22.9501 36.5499C23.4195 36.5499 23.8001 36.1693 23.8001 35.6999C23.7998 32.8832 26.083 30.5997 28.8996 30.5994C29.9672 30.5993 31.0079 30.9342 31.8751 31.557C33.6322 32.9033 34.0413 35.3828 32.8101 37.2223L22.3024 49.6C21.9986 49.9579 22.0426 50.4943 22.4006 50.798C22.5541 50.9283 22.7488 50.9998 22.9501 50.9999H34.8501C35.3195 50.9999 35.7001 50.6193 35.7001 50.1499C35.7001 49.6805 35.3195 49.2999 34.8501 49.2999Z" fill="url(#paint1_linear)"/>
<path d="M22.9687 45.0662C22.9864 44.5971 22.6204 44.2024 22.1513 44.1847C22.1512 44.1847 22.1511 44.1847 22.151 44.1847C11.0617 43.7731 2.16123 34.8886 1.72975 23.8H5.1C5.56941 23.8 5.95 23.4194 5.95 22.95C5.95 22.4806 5.56941 22.1 5.1 22.1H1.72975C2.15507 11.031 11.0309 2.15549 22.1 1.7306V4.25C22.1 4.71941 22.4806 5.1 22.95 5.1C23.4194 5.1 23.8 4.71941 23.8 4.25V1.7306C34.7176 2.15284 43.5291 10.798 44.1592 21.7056L40.8442 18.3906C40.5065 18.0644 39.9685 18.0738 39.6423 18.4114C39.3242 18.7408 39.3242 19.263 39.6423 19.5925L44.387 24.3372C44.4764 24.4454 44.5915 24.5292 44.7219 24.5812C44.7552 24.5911 44.7889 24.5994 44.8231 24.6058C44.8814 24.6268 44.9417 24.6414 45.0033 24.6492C45.0117 24.6492 45.0194 24.6492 45.0279 24.6492C45.0364 24.6492 45.0441 24.6492 45.0517 24.6492C45.1164 24.6443 45.1804 24.6317 45.2421 24.6118C45.2771 24.6075 45.3117 24.601 45.3458 24.5922C45.4609 24.5513 45.5656 24.4857 45.6527 24.4001L50.462 19.5925C50.788 19.2548 50.7788 18.7168 50.4411 18.3906C50.1118 18.0725 49.5895 18.0725 49.2601 18.3906L45.8626 21.7855C45.2554 9.60181 35.2091 0.0298563 23.0103 0.0119C22.9891 0.01105 22.9713 0 22.95 0C22.9288 0 22.9109 0.01105 22.8897 0.0119C10.2618 0.0292188 0.0292188 10.2618 0.0119 22.8897C0.0119 22.9109 0 22.9288 0 22.95C0 22.9713 0.01105 22.9891 0.0119 23.0103C0.0330437 35.3265 9.78042 45.4259 22.0881 45.8839H22.1196C22.5763 45.8837 22.9514 45.5226 22.9687 45.0662Z" fill="black"/>
<path d="M22.9687 45.0662C22.9864 44.5971 22.6204 44.2024 22.1513 44.1847C22.1512 44.1847 22.1511 44.1847 22.151 44.1847C11.0617 43.7731 2.16123 34.8886 1.72975 23.8H5.1C5.56941 23.8 5.95 23.4194 5.95 22.95C5.95 22.4806 5.56941 22.1 5.1 22.1H1.72975C2.15507 11.031 11.0309 2.15549 22.1 1.7306V4.25C22.1 4.71941 22.4806 5.1 22.95 5.1C23.4194 5.1 23.8 4.71941 23.8 4.25V1.7306C34.7176 2.15284 43.5291 10.798 44.1592 21.7056L40.8442 18.3906C40.5065 18.0644 39.9685 18.0738 39.6423 18.4114C39.3242 18.7408 39.3242 19.263 39.6423 19.5925L44.387 24.3372C44.4764 24.4454 44.5915 24.5292 44.7219 24.5812C44.7552 24.5911 44.7889 24.5994 44.8231 24.6058C44.8814 24.6268 44.9417 24.6414 45.0033 24.6492C45.0117 24.6492 45.0194 24.6492 45.0279 24.6492C45.0364 24.6492 45.0441 24.6492 45.0517 24.6492C45.1164 24.6443 45.1804 24.6317 45.2421 24.6118C45.2771 24.6075 45.3117 24.601 45.3458 24.5922C45.4609 24.5513 45.5656 24.4857 45.6527 24.4001L50.462 19.5925C50.788 19.2548 50.7788 18.7168 50.4411 18.3906C50.1118 18.0725 49.5895 18.0725 49.2601 18.3906L45.8626 21.7855C45.2554 9.60181 35.2091 0.0298563 23.0103 0.0119C22.9891 0.01105 22.9713 0 22.95 0C22.9288 0 22.9109 0.01105 22.8897 0.0119C10.2618 0.0292188 0.0292188 10.2618 0.0119 22.8897C0.0119 22.9109 0 22.9288 0 22.95C0 22.9713 0.01105 22.9891 0.0119 23.0103C0.0330437 35.3265 9.78042 45.4259 22.0881 45.8839H22.1196C22.5763 45.8837 22.9514 45.5226 22.9687 45.0662Z" fill="url(#paint2_linear)"/>
<path d="M34.3697 11.5304C34.0378 11.1985 33.4998 11.1985 33.1678 11.5304L24.0337 20.6636C23.3436 20.3559 22.5554 20.3559 21.8654 20.6636L17.5406 16.3388C17.2029 16.0127 16.6648 16.0221 16.3387 16.3597C16.0206 16.6891 16.0206 17.2113 16.3387 17.5407L20.655 21.857C20.0489 23.1256 20.5861 24.6454 21.8549 25.2514C22.8286 25.7165 23.99 25.5171 24.7528 24.7538C25.5199 23.9933 25.7174 22.8288 25.2441 21.8579L34.3697 12.7323C34.7016 12.4003 34.7016 11.8623 34.3697 11.5304ZM23.5511 23.5508C23.551 23.551 23.551 23.551 23.5509 23.5511C23.2148 23.8725 22.6852 23.8725 22.349 23.5511C22.017 23.2191 22.017 22.681 22.3488 22.3489C22.6807 22.0169 23.2189 22.0169 23.5509 22.3487C23.883 22.6807 23.883 23.2189 23.5511 23.5508Z" fill="black"/>
<path d="M34.3697 11.5304C34.0378 11.1985 33.4998 11.1985 33.1678 11.5304L24.0337 20.6636C23.3436 20.3559 22.5554 20.3559 21.8654 20.6636L17.5406 16.3388C17.2029 16.0127 16.6648 16.0221 16.3387 16.3597C16.0206 16.6891 16.0206 17.2113 16.3387 17.5407L20.655 21.857C20.0489 23.1256 20.5861 24.6454 21.8549 25.2514C22.8286 25.7165 23.99 25.5171 24.7528 24.7538C25.5199 23.9933 25.7174 22.8288 25.2441 21.8579L34.3697 12.7323C34.7016 12.4003 34.7016 11.8623 34.3697 11.5304ZM23.5511 23.5508C23.551 23.551 23.551 23.551 23.5509 23.5511C23.2148 23.8725 22.6852 23.8725 22.349 23.5511C22.017 23.2191 22.017 22.681 22.3488 22.3489C22.6807 22.0169 23.2189 22.0169 23.5509 22.3487C23.883 22.6807 23.883 23.2189 23.5511 23.5508Z" fill="url(#paint3_linear)"/>
<defs>
<linearGradient id="paint0_linear" x1="42.5001" y1="28.9006" x2="42.5001" y2="51" gradientUnits="userSpaceOnUse">
<stop stop-color="#5791BE"/>
<stop offset="1" stop-color="#366E9A"/>
</linearGradient>
<linearGradient id="paint1_linear" x1="28.9001" y1="28.8984" x2="28.9001" y2="50.9999" gradientUnits="userSpaceOnUse">
<stop stop-color="#5791BE"/>
<stop offset="1" stop-color="#366E9A"/>
</linearGradient>
<linearGradient id="paint2_linear" x1="25.3503" y1="0" x2="25.3503" y2="45.8839" gradientUnits="userSpaceOnUse">
<stop stop-color="#5791BE"/>
<stop offset="1" stop-color="#366E9A"/>
</linearGradient>
<linearGradient id="paint3_linear" x1="25.3593" y1="11.2815" x2="25.3593" y2="25.5001" gradientUnits="userSpaceOnUse">
<stop stop-color="#5791BE"/>
<stop offset="1" stop-color="#366E9A"/>
</linearGradient>
</defs>
</svg>
