<svg width="60" height="54" viewBox="0 0 60 54" fill="none" xmlns="http://www.w3.org/2000/svg">
<path d="M48.7127 0H3.69272C1.65657 0 0 1.64799 0 3.67359V40.9958C0 43.0214 1.65657 44.6693 3.69272 44.6693H33.1784C33.6638 44.6693 34.0574 44.2778 34.0574 43.795C34.0574 43.3121 33.6638 42.9206 33.1784 42.9206H29.8953V37.2636C29.8953 35.7758 29.0034 34.4448 27.6229 33.8727L23.0055 31.9587C22.6328 31.8042 22.392 31.4449 22.392 31.0433V29.6782C23.5752 28.481 24.2678 26.8508 24.2678 25.1339V21.4017C24.2678 18.3472 21.349 15.862 17.7614 15.862C14.1738 15.862 11.255 18.3471 11.255 21.4017V25.1339C11.255 26.8506 11.9476 28.4809 13.1308 29.6782V31.0433C13.1308 31.4449 12.89 31.8042 12.5173 31.9588L7.90001 33.8727C6.51953 34.4449 5.6275 35.7759 5.6275 37.2637V42.9207H3.69272C2.62584 42.9207 1.75782 42.0572 1.75782 40.996V11.0793H50.6475V25.6004C50.6475 26.0833 51.041 26.4747 51.5264 26.4747C52.0118 26.4747 52.4053 26.0833 52.4053 25.6004V3.67359C52.4053 1.64799 50.7488 0 48.7127 0ZM7.38532 37.2636C7.38532 36.484 7.85266 35.7867 8.57607 35.4868L13.1935 33.5729C14.2233 33.1461 14.8886 32.1532 14.8886 31.0433V30.8539C15.2113 30.8744 15.5332 30.7175 15.7063 30.4203C15.9494 30.0024 15.8061 29.4675 15.3861 29.2255C13.9223 28.3824 13.0129 26.8146 13.0129 25.1341V21.4018C13.0129 19.3115 15.1432 17.6109 17.7615 17.6109C20.3799 17.6109 22.5101 19.3114 22.5101 21.4018V25.1341C22.5101 26.8153 21.6001 28.3834 20.1354 29.2265C19.7153 29.4683 19.5717 30.0032 19.8148 30.4212C19.9777 30.7014 20.2729 30.858 20.5764 30.858C20.5957 30.858 20.615 30.8555 20.6344 30.8542V31.0436C20.6344 32.1534 21.2998 33.1463 22.3296 33.5731L26.9471 35.4872C27.6704 35.7869 28.1377 36.4844 28.1377 37.2639V42.9208H7.38532V37.2636ZM50.6475 9.33057H1.75782V3.67359C1.75782 2.61223 2.62584 1.74872 3.69272 1.74872H48.7127C49.7796 1.74872 50.6475 2.61223 50.6475 3.67359V9.33057Z" fill="black"/>
<path d="M48.7127 0H3.69272C1.65657 0 0 1.64799 0 3.67359V40.9958C0 43.0214 1.65657 44.6693 3.69272 44.6693H33.1784C33.6638 44.6693 34.0574 44.2778 34.0574 43.795C34.0574 43.3121 33.6638 42.9206 33.1784 42.9206H29.8953V37.2636C29.8953 35.7758 29.0034 34.4448 27.6229 33.8727L23.0055 31.9587C22.6328 31.8042 22.392 31.4449 22.392 31.0433V29.6782C23.5752 28.481 24.2678 26.8508 24.2678 25.1339V21.4017C24.2678 18.3472 21.349 15.862 17.7614 15.862C14.1738 15.862 11.255 18.3471 11.255 21.4017V25.1339C11.255 26.8506 11.9476 28.4809 13.1308 29.6782V31.0433C13.1308 31.4449 12.89 31.8042 12.5173 31.9588L7.90001 33.8727C6.51953 34.4449 5.6275 35.7759 5.6275 37.2637V42.9207H3.69272C2.62584 42.9207 1.75782 42.0572 1.75782 40.996V11.0793H50.6475V25.6004C50.6475 26.0833 51.041 26.4747 51.5264 26.4747C52.0118 26.4747 52.4053 26.0833 52.4053 25.6004V3.67359C52.4053 1.64799 50.7488 0 48.7127 0ZM7.38532 37.2636C7.38532 36.484 7.85266 35.7867 8.57607 35.4868L13.1935 33.5729C14.2233 33.1461 14.8886 32.1532 14.8886 31.0433V30.8539C15.2113 30.8744 15.5332 30.7175 15.7063 30.4203C15.9494 30.0024 15.8061 29.4675 15.3861 29.2255C13.9223 28.3824 13.0129 26.8146 13.0129 25.1341V21.4018C13.0129 19.3115 15.1432 17.6109 17.7615 17.6109C20.3799 17.6109 22.5101 19.3114 22.5101 21.4018V25.1341C22.5101 26.8153 21.6001 28.3834 20.1354 29.2265C19.7153 29.4683 19.5717 30.0032 19.8148 30.4212C19.9777 30.7014 20.2729 30.858 20.5764 30.858C20.5957 30.858 20.615 30.8555 20.6344 30.8542V31.0436C20.6344 32.1534 21.2998 33.1463 22.3296 33.5731L26.9471 35.4872C27.6704 35.7869 28.1377 36.4844 28.1377 37.2639V42.9208H7.38532V37.2636ZM50.6475 9.33057H1.75782V3.67359C1.75782 2.61223 2.62584 1.74872 3.69272 1.74872H48.7127C49.7796 1.74872 50.6475 2.61223 50.6475 3.67359V9.33057Z" fill="url(#paint0_linear)"/>
<path d="M4.63995 4.66528H4.63057C4.14518 4.66528 3.75635 5.05676 3.75635 5.53964C3.75635 6.02252 4.15455 6.414 4.63995 6.414C5.12534 6.414 5.51886 6.02252 5.51886 5.53964C5.51886 5.05676 5.12534 4.66528 4.63995 4.66528Z" fill="black"/>
<path d="M4.63995 4.66528H4.63057C4.14518 4.66528 3.75635 5.05676 3.75635 5.53964C3.75635 6.02252 4.15455 6.414 4.63995 6.414C5.12534 6.414 5.51886 6.02252 5.51886 5.53964C5.51886 5.05676 5.12534 4.66528 4.63995 4.66528Z" fill="url(#paint1_linear)"/>
<path d="M10.2581 4.66528H10.2487C9.76334 4.66528 9.37451 5.05676 9.37451 5.53964C9.37451 6.02252 9.77272 6.414 10.2581 6.414C10.7435 6.414 11.137 6.02252 11.137 5.53964C11.137 5.05676 10.7435 4.66528 10.2581 4.66528Z" fill="black"/>
<path d="M10.2581 4.66528H10.2487C9.76334 4.66528 9.37451 5.05676 9.37451 5.53964C9.37451 6.02252 9.77272 6.414 10.2581 6.414C10.7435 6.414 11.137 6.02252 11.137 5.53964C11.137 5.05676 10.7435 4.66528 10.2581 4.66528Z" fill="url(#paint2_linear)"/>
<path d="M7.44415 4.66528H7.43477C6.94938 4.66528 6.56055 5.05676 6.56055 5.53964C6.56055 6.02252 6.95875 6.414 7.44415 6.414C7.92954 6.414 8.32306 6.02252 8.32306 5.53964C8.32306 5.05676 7.92954 4.66528 7.44415 4.66528Z" fill="black"/>
<path d="M7.44415 4.66528H7.43477C6.94938 4.66528 6.56055 5.05676 6.56055 5.53964C6.56055 6.02252 6.95875 6.414 7.44415 6.414C7.92954 6.414 8.32306 6.02252 8.32306 5.53964C8.32306 5.05676 7.92954 4.66528 7.44415 4.66528Z" fill="url(#paint3_linear)"/>
<path d="M47.7747 4.66528H14.0098C13.5244 4.66528 13.1309 5.05676 13.1309 5.53964C13.1309 6.02252 13.5244 6.414 14.0098 6.414H47.7747C48.2601 6.414 48.6537 6.02252 48.6537 5.53964C48.6537 5.05676 48.2601 4.66528 47.7747 4.66528Z" fill="black"/>
<path d="M47.7747 4.66528H14.0098C13.5244 4.66528 13.1309 5.05676 13.1309 5.53964C13.1309 6.02252 13.5244 6.414 14.0098 6.414H47.7747C48.2601 6.414 48.6537 6.02252 48.6537 5.53964C48.6537 5.05676 48.2601 4.66528 47.7747 4.66528Z" fill="url(#paint4_linear)"/>
<path d="M59.4101 31.4886L46.7483 27.1072C46.5612 27.0424 46.3578 27.0424 46.1708 27.1072L37.0654 30.2578C36.6069 30.4165 36.3646 30.9149 36.524 31.3709C36.6834 31.827 37.1844 32.068 37.6427 31.9095L46.4594 28.8588L58.2003 32.9215C58.098 34.038 57.7537 36.5394 56.612 39.5349C55.2203 43.1865 52.3344 48.2856 46.4594 52.0892C40.6097 48.3016 37.7258 43.2301 36.3313 39.5988C34.7698 35.5325 34.6769 32.3268 34.6761 32.2948C34.6652 31.8125 34.2695 31.4313 33.7788 31.4402C33.2935 31.4504 32.9085 31.8501 32.9187 32.3328C32.9217 32.4732 33.0108 35.8193 34.663 40.1547C36.1869 44.1533 39.3899 49.7783 45.9948 53.8679C46.1369 53.9559 46.298 54 46.4592 54C46.6203 54 46.7814 53.9561 46.9236 53.8679C53.5284 49.7783 56.7314 44.1533 58.2553 40.1547C59.9077 35.8193 59.9968 32.4732 59.9997 32.3328C60.0081 31.9539 59.7699 31.6129 59.4101 31.4886Z" fill="black"/>
<path d="M59.4101 31.4886L46.7483 27.1072C46.5612 27.0424 46.3578 27.0424 46.1708 27.1072L37.0654 30.2578C36.6069 30.4165 36.3646 30.9149 36.524 31.3709C36.6834 31.827 37.1844 32.068 37.6427 31.9095L46.4594 28.8588L58.2003 32.9215C58.098 34.038 57.7537 36.5394 56.612 39.5349C55.2203 43.1865 52.3344 48.2856 46.4594 52.0892C40.6097 48.3016 37.7258 43.2301 36.3313 39.5988C34.7698 35.5325 34.6769 32.3268 34.6761 32.2948C34.6652 31.8125 34.2695 31.4313 33.7788 31.4402C33.2935 31.4504 32.9085 31.8501 32.9187 32.3328C32.9217 32.4732 33.0108 35.8193 34.663 40.1547C36.1869 44.1533 39.3899 49.7783 45.9948 53.8679C46.1369 53.9559 46.298 54 46.4592 54C46.6203 54 46.7814 53.9561 46.9236 53.8679C53.5284 49.7783 56.7314 44.1533 58.2553 40.1547C59.9077 35.8193 59.9968 32.4732 59.9997 32.3328C60.0081 31.9539 59.7699 31.6129 59.4101 31.4886Z" fill="url(#paint5_linear)"/>
<path d="M52.1733 36.4197C51.8301 36.0782 51.2736 36.0782 50.9304 36.4197L45.4962 41.8258L42.264 38.6103C41.9208 38.2689 41.3642 38.2689 41.0211 38.6103C40.6779 38.9518 40.6779 39.5055 41.0211 39.8468L44.8747 43.6805C45.0463 43.8513 45.2713 43.9366 45.4962 43.9366C45.7211 43.9366 45.9461 43.8513 46.1176 43.6805L52.1733 37.6561C52.5166 37.3147 52.5166 36.761 52.1733 36.4197Z" fill="black"/>
<path d="M52.1733 36.4197C51.8301 36.0782 51.2736 36.0782 50.9304 36.4197L45.4962 41.8258L42.264 38.6103C41.9208 38.2689 41.3642 38.2689 41.0211 38.6103C40.6779 38.9518 40.6779 39.5055 41.0211 39.8468L44.8747 43.6805C45.0463 43.8513 45.2713 43.9366 45.4962 43.9366C45.7211 43.9366 45.9461 43.8513 46.1176 43.6805L52.1733 37.6561C52.5166 37.3147 52.5166 36.761 52.1733 36.4197Z" fill="url(#paint6_linear)"/>
<path d="M44.961 14.929H29.9542C28.9524 14.929 28.1375 15.7398 28.1375 16.7363V19.5355C28.1375 20.5322 28.9525 21.3429 29.9542 21.3429H44.9609C45.9627 21.343 46.7778 20.5322 46.7778 19.5355V16.7363C46.7778 15.7397 45.9627 14.929 44.961 14.929ZM45.0198 19.5355C45.0198 19.5679 44.9933 19.5942 44.9609 19.5942H29.9542C29.9218 19.5943 29.8953 19.5679 29.8953 19.5355V16.7363C29.8953 16.7039 29.9218 16.6777 29.9542 16.6777H44.9609C44.9935 16.6777 45.0198 16.704 45.0198 16.7363V19.5355Z" fill="black"/>
<path d="M44.961 14.929H29.9542C28.9524 14.929 28.1375 15.7398 28.1375 16.7363V19.5355C28.1375 20.5322 28.9525 21.3429 29.9542 21.3429H44.9609C45.9627 21.343 46.7778 20.5322 46.7778 19.5355V16.7363C46.7778 15.7397 45.9627 14.929 44.961 14.929ZM45.0198 19.5355C45.0198 19.5679 44.9933 19.5942 44.9609 19.5942H29.9542C29.9218 19.5943 29.8953 19.5679 29.8953 19.5355V16.7363C29.8953 16.7039 29.9218 16.6777 29.9542 16.6777H44.9609C44.9935 16.6777 45.0198 16.704 45.0198 16.7363V19.5355Z" fill="url(#paint7_linear)"/>
<path d="M41.2093 23.3264H29.9544C29.469 23.3264 29.0754 23.7179 29.0754 24.2008C29.0754 24.6837 29.469 25.0751 29.9544 25.0751H41.2093C41.6947 25.0751 42.0883 24.6837 42.0883 24.2008C42.0883 23.7179 41.6947 23.3264 41.2093 23.3264Z" fill="black"/>
<path d="M41.2093 23.3264H29.9544C29.469 23.3264 29.0754 23.7179 29.0754 24.2008C29.0754 24.6837 29.469 25.0751 29.9544 25.0751H41.2093C41.6947 25.0751 42.0883 24.6837 42.0883 24.2008C42.0883 23.7179 41.6947 23.3264 41.2093 23.3264Z" fill="url(#paint8_linear)"/>
<path d="M36.5198 27.0586H29.9544C29.469 27.0586 29.0754 27.4501 29.0754 27.933C29.0754 28.4158 29.469 28.8073 29.9544 28.8073H36.5198C37.0052 28.8073 37.3987 28.4158 37.3987 27.933C37.3987 27.4501 37.0052 27.0586 36.5198 27.0586Z" fill="black"/>
<path d="M36.5198 27.0586H29.9544C29.469 27.0586 29.0754 27.4501 29.0754 27.933C29.0754 28.4158 29.469 28.8073 29.9544 28.8073H36.5198C37.0052 28.8073 37.3987 28.4158 37.3987 27.933C37.3987 27.4501 37.0052 27.0586 36.5198 27.0586Z" fill="url(#paint9_linear)"/>
<defs>
<linearGradient id="paint0_linear" x1="26.2026" y1="0" x2="26.2026" y2="44.6693" gradientUnits="userSpaceOnUse">
<stop stop-color="#5791BE"/>
<stop offset="1" stop-color="#366E9A"/>
</linearGradient>
<linearGradient id="paint1_linear" x1="4.6376" y1="4.66528" x2="4.6376" y2="6.414" gradientUnits="userSpaceOnUse">
<stop stop-color="#5791BE"/>
<stop offset="1" stop-color="#366E9A"/>
</linearGradient>
<linearGradient id="paint2_linear" x1="10.2558" y1="4.66528" x2="10.2558" y2="6.414" gradientUnits="userSpaceOnUse">
<stop stop-color="#5791BE"/>
<stop offset="1" stop-color="#366E9A"/>
</linearGradient>
<linearGradient id="paint3_linear" x1="7.4418" y1="4.66528" x2="7.4418" y2="6.414" gradientUnits="userSpaceOnUse">
<stop stop-color="#5791BE"/>
<stop offset="1" stop-color="#366E9A"/>
</linearGradient>
<linearGradient id="paint4_linear" x1="30.8923" y1="4.66528" x2="30.8923" y2="6.414" gradientUnits="userSpaceOnUse">
<stop stop-color="#5791BE"/>
<stop offset="1" stop-color="#366E9A"/>
</linearGradient>
<linearGradient id="paint5_linear" x1="46.4592" y1="27.0586" x2="46.4592" y2="54" gradientUnits="userSpaceOnUse">
<stop stop-color="#5791BE"/>
<stop offset="1" stop-color="#366E9A"/>
</linearGradient>
<linearGradient id="paint6_linear" x1="46.5972" y1="36.1636" x2="46.5972" y2="43.9366" gradientUnits="userSpaceOnUse">
<stop stop-color="#5791BE"/>
<stop offset="1" stop-color="#366E9A"/>
</linearGradient>
<linearGradient id="paint7_linear" x1="37.4576" y1="14.929" x2="37.4576" y2="21.3429" gradientUnits="userSpaceOnUse">
<stop stop-color="#5791BE"/>
<stop offset="1" stop-color="#366E9A"/>
</linearGradient>
<linearGradient id="paint8_linear" x1="35.5818" y1="23.3264" x2="35.5818" y2="25.0751" gradientUnits="userSpaceOnUse">
<stop stop-color="#5791BE"/>
<stop offset="1" stop-color="#366E9A"/>
</linearGradient>
<linearGradient id="paint9_linear" x1="33.2371" y1="27.0586" x2="33.2371" y2="28.8073" gradientUnits="userSpaceOnUse">
<stop stop-color="#5791BE"/>
<stop offset="1" stop-color="#366E9A"/>
</linearGradient>
</defs>
</svg>
