<svg width="57" height="57" viewBox="0 0 57 57" fill="none" xmlns="http://www.w3.org/2000/svg">
<path d="M55.4496 47.7758C55.0743 48.0807 54.7457 48.4104 54.4274 48.7277C53.5211 49.634 52.8058 50.3503 51.2991 50.3503C49.7925 50.3503 49.0772 49.634 48.1709 48.7277C47.2009 47.7577 45.9926 46.5503 43.6993 46.5503C41.4061 46.5503 40.1987 47.7578 39.2278 48.7277C38.3215 49.634 37.6062 50.3503 36.0995 50.3503C34.5928 50.3503 33.8776 49.634 32.9713 48.7277C32.0013 47.7577 30.7929 46.5503 28.4997 46.5503C26.2065 46.5503 24.9991 47.7578 24.0282 48.7277C23.1219 49.634 22.4066 50.3503 20.8999 50.3503C19.3932 50.3503 18.678 49.634 17.7717 48.7277C16.8017 47.7577 15.5933 46.5503 13.3001 46.5503C11.0069 46.5503 9.79901 47.7578 8.82813 48.7277C7.92182 49.634 7.20655 50.3503 5.69986 50.3503C4.19317 50.3503 3.4779 49.634 2.57159 48.7277C2.25331 48.4104 1.92467 48.0816 1.5485 47.7767C1.14194 47.4452 0.542443 47.5088 0.212806 47.9154C-0.117834 48.323 -0.0560477 48.9215 0.351518 49.252C0.651766 49.4953 0.931974 49.7755 1.22832 50.0718C2.1992 51.0418 3.40665 52.2502 5.69986 52.2502C7.99307 52.2502 9.20152 51.0418 10.1714 50.0718C11.0777 49.1655 11.793 48.4502 13.2997 48.4502C14.8064 48.4502 15.5216 49.1656 16.4279 50.0718C17.3988 51.0418 18.6063 52.2502 20.8995 52.2502C23.1927 52.2502 24.4011 51.0418 25.371 50.0718C26.2773 49.1655 26.9926 48.4502 28.4993 48.4502C30.006 48.4502 30.7212 49.1656 31.6276 50.0718C32.5984 51.0418 33.8059 52.2502 36.0991 52.2502C38.3923 52.2502 39.6007 51.0418 40.5706 50.0718C41.4769 49.1655 42.1922 48.4502 43.6989 48.4502C45.2056 48.4502 45.9209 49.1656 46.8272 50.0718C47.798 51.0418 49.0055 52.2502 51.2987 52.2502C53.5919 52.2502 54.8004 51.0418 55.7702 50.0718C56.0676 49.7745 56.3488 49.4943 56.648 49.2501C57.0556 48.9186 57.1164 48.3201 56.7858 47.9135C56.4567 47.5069 55.8591 47.4452 55.4496 47.7758Z" fill="black"/>
<path d="M55.4496 47.7758C55.0743 48.0807 54.7457 48.4104 54.4274 48.7277C53.5211 49.634 52.8058 50.3503 51.2991 50.3503C49.7925 50.3503 49.0772 49.634 48.1709 48.7277C47.2009 47.7577 45.9926 46.5503 43.6993 46.5503C41.4061 46.5503 40.1987 47.7578 39.2278 48.7277C38.3215 49.634 37.6062 50.3503 36.0995 50.3503C34.5928 50.3503 33.8776 49.634 32.9713 48.7277C32.0013 47.7577 30.7929 46.5503 28.4997 46.5503C26.2065 46.5503 24.9991 47.7578 24.0282 48.7277C23.1219 49.634 22.4066 50.3503 20.8999 50.3503C19.3932 50.3503 18.678 49.634 17.7717 48.7277C16.8017 47.7577 15.5933 46.5503 13.3001 46.5503C11.0069 46.5503 9.79901 47.7578 8.82813 48.7277C7.92182 49.634 7.20655 50.3503 5.69986 50.3503C4.19317 50.3503 3.4779 49.634 2.57159 48.7277C2.25331 48.4104 1.92467 48.0816 1.5485 47.7767C1.14194 47.4452 0.542443 47.5088 0.212806 47.9154C-0.117834 48.323 -0.0560477 48.9215 0.351518 49.252C0.651766 49.4953 0.931974 49.7755 1.22832 50.0718C2.1992 51.0418 3.40665 52.2502 5.69986 52.2502C7.99307 52.2502 9.20152 51.0418 10.1714 50.0718C11.0777 49.1655 11.793 48.4502 13.2997 48.4502C14.8064 48.4502 15.5216 49.1656 16.4279 50.0718C17.3988 51.0418 18.6063 52.2502 20.8995 52.2502C23.1927 52.2502 24.4011 51.0418 25.371 50.0718C26.2773 49.1655 26.9926 48.4502 28.4993 48.4502C30.006 48.4502 30.7212 49.1656 31.6276 50.0718C32.5984 51.0418 33.8059 52.2502 36.0991 52.2502C38.3923 52.2502 39.6007 51.0418 40.5706 50.0718C41.4769 49.1655 42.1922 48.4502 43.6989 48.4502C45.2056 48.4502 45.9209 49.1656 46.8272 50.0718C47.798 51.0418 49.0055 52.2502 51.2987 52.2502C53.5919 52.2502 54.8004 51.0418 55.7702 50.0718C56.0676 49.7745 56.3488 49.4943 56.648 49.2501C57.0556 48.9186 57.1164 48.3201 56.7858 47.9135C56.4567 47.5069 55.8591 47.4452 55.4496 47.7758Z" fill="url(#paint0_linear)"/>
<path d="M6.01719 32.2697C6.25465 33.7014 6.62804 35.1026 7.12867 36.4506L2.74074 38.9843C2.52221 39.1096 2.36268 39.3177 2.298 39.5609C2.23343 39.8042 2.26661 40.0635 2.39296 40.282C4.12197 43.2755 7.84395 44.4164 10.9238 43.0019C11.3617 43.5149 11.928 44.1305 12.6147 44.843C12.9804 45.2211 13.5827 45.2307 13.959 44.8659C14.3362 44.501 14.3466 43.8997 13.9827 43.5226C13.0498 42.5573 12.3373 41.7612 11.9213 41.2188C11.6315 40.8427 11.1061 40.7381 10.6939 40.9747L10.5277 41.0697C8.54319 42.2163 6.06183 41.7622 4.596 40.1073L8.78644 37.6886C9.20068 37.4501 9.37257 36.9419 9.19022 36.5011C8.49387 34.8244 8.02173 33.0507 7.78327 31.2267C7.72149 30.7535 7.31782 30.4002 6.8409 30.4002H6.64997C4.35576 30.4002 2.43771 28.7652 1.99597 26.6002H6.8409C7.31782 26.6002 7.72149 26.2458 7.78327 25.7727C8.02173 23.9487 8.49387 22.175 9.19022 20.4983C9.37257 20.0575 9.20068 19.5492 8.78644 19.3107L8.62869 19.2195C7.52956 18.5859 6.74293 17.5617 6.41429 16.3362C6.16915 15.4223 6.20155 14.4781 6.49601 13.6012L10.6911 16.0237C11.1034 16.2631 11.6287 16.1587 11.9204 15.7805C13.0357 14.3299 14.3343 13.0312 15.7811 11.9197C16.1591 11.6299 16.2637 11.1056 16.0252 10.6923L15.9311 10.527C15.2956 9.42875 15.1265 8.14825 15.4552 6.92274C15.7004 6.00885 16.1991 5.20706 16.8926 4.5952L19.3131 8.78761C19.5525 9.20086 20.0636 9.37186 20.4988 9.1885C22.1754 8.49314 23.9501 8.02 25.7731 7.78254C26.2462 7.72075 26.6005 7.31796 26.6005 6.84103V6.6501C26.6005 5.38184 27.0945 4.18863 27.9914 3.29087C28.6601 2.62212 29.4933 2.17748 30.3996 1.99412V6.84103C30.3996 7.31796 30.7539 7.72075 31.2269 7.78254C33.049 8.02 34.8236 8.49315 36.5013 9.18951C36.9363 9.36997 37.4474 9.20086 37.6869 8.78761L37.7799 8.62796C38.4136 7.52882 39.4377 6.74317 40.6632 6.41442C41.579 6.16927 42.5232 6.20067 43.3981 6.49513L40.9757 10.6913C40.7363 11.1046 40.8408 11.6309 41.2189 11.9206C42.6657 13.0321 43.9644 14.3308 45.0796 15.7814C45.3713 16.1605 45.8966 16.2649 46.3089 16.0246L46.4723 15.9306C47.5714 15.296 48.853 15.1269 50.0765 15.4555C50.9904 15.6997 51.7922 16.1994 52.404 16.8929L48.2136 19.3116C47.7993 19.5501 47.6274 20.0583 47.8098 20.4991C48.5061 22.1769 48.9793 23.9515 49.2167 25.7736C49.2775 26.2467 49.6813 26.6011 50.1582 26.6011H50.3491H50.351C51.6193 26.6011 52.8115 27.095 53.7083 27.9919C54.3772 28.6606 54.8217 29.4938 55.006 30.4002H50.1582C49.6813 30.4002 49.2776 30.7545 49.2167 31.2277C48.9783 33.0507 48.5052 34.8254 47.8089 36.5012C47.6265 36.9429 47.7994 37.4503 48.2127 37.6887L48.3713 37.7809C50.3577 38.9266 51.2041 41.3017 50.5031 43.3983L46.3051 40.9748C45.8937 40.7374 45.3675 40.8418 45.0777 41.219C44.5913 41.8535 44.0622 42.4654 43.5065 43.0392C43.1416 43.4164 43.1512 44.0176 43.5293 44.3825C43.9046 44.7463 44.5058 44.7387 44.8717 44.3606C45.2839 43.935 45.6839 43.4885 46.0639 43.0287L50.4585 45.5671C50.6047 45.6507 50.7691 45.6944 50.9335 45.6944C51.0161 45.6944 51.0988 45.683 51.1795 45.6621C51.4237 45.5965 51.6307 45.437 51.7571 45.2184C53.4813 42.2297 52.615 38.444 49.859 36.4803C50.3634 35.1322 50.7368 33.7319 50.9771 32.3002L56.0501 32.3012C56.3028 32.3012 56.544 32.2005 56.7217 32.0229C56.9003 31.8443 57 31.6029 57 31.3502C56.999 29.5738 56.3074 27.9036 55.0507 26.6477C53.9449 25.5419 52.519 24.874 50.9819 24.7306C50.7445 23.299 50.3721 21.8987 49.8704 20.5497L54.2584 18.0161C54.4769 17.8907 54.6364 17.6826 54.7011 17.4394C54.7667 17.1961 54.7325 16.9369 54.607 16.7183C53.7179 15.1803 52.2834 14.0792 50.5687 13.6194C49.0573 13.2156 47.4878 13.3496 46.0848 13.9947C45.1642 12.8803 44.1401 11.8553 43.0287 10.9347L45.5661 6.54089C45.8283 6.08678 45.6725 5.50542 45.2184 5.24313C43.6785 4.35484 41.8878 4.11927 40.1711 4.57906C38.6625 4.98373 37.3725 5.88249 36.4804 7.13928C35.1315 6.63574 33.7312 6.26145 32.2996 6.0221V0.949967C32.2996 0.425609 31.875 0 31.3496 0H31.3486C29.5731 0 27.9031 0.691573 26.6481 1.94747C25.5423 3.0533 24.8744 4.4802 24.73 6.01631C23.2984 6.25477 21.8972 6.62717 20.5492 7.12781L18.0165 2.74069C17.7533 2.28569 17.1701 2.13083 16.7189 2.39301C15.1809 3.2813 14.0798 4.71476 13.62 6.43145C13.2153 7.94196 13.3503 9.51236 13.9943 10.9145C12.8819 11.8332 11.8578 12.8573 10.9344 13.9707L6.54165 11.4342C6.08666 11.171 5.5062 11.3269 5.24392 11.7819C4.35565 13.3199 4.11919 15.1116 4.57986 16.8274C4.98364 18.336 5.88226 19.6261 7.14003 20.5201C6.6365 21.8682 6.26222 23.2684 6.02187 24.7001H0.949948C0.424599 24.7001 0 25.1247 0 25.6501C0 29.1033 2.64567 31.9504 6.01719 32.2697Z" fill="black"/>
<path d="M6.01719 32.2697C6.25465 33.7014 6.62804 35.1026 7.12867 36.4506L2.74074 38.9843C2.52221 39.1096 2.36268 39.3177 2.298 39.5609C2.23343 39.8042 2.26661 40.0635 2.39296 40.282C4.12197 43.2755 7.84395 44.4164 10.9238 43.0019C11.3617 43.5149 11.928 44.1305 12.6147 44.843C12.9804 45.2211 13.5827 45.2307 13.959 44.8659C14.3362 44.501 14.3466 43.8997 13.9827 43.5226C13.0498 42.5573 12.3373 41.7612 11.9213 41.2188C11.6315 40.8427 11.1061 40.7381 10.6939 40.9747L10.5277 41.0697C8.54319 42.2163 6.06183 41.7622 4.596 40.1073L8.78644 37.6886C9.20068 37.4501 9.37257 36.9419 9.19022 36.5011C8.49387 34.8244 8.02173 33.0507 7.78327 31.2267C7.72149 30.7535 7.31782 30.4002 6.8409 30.4002H6.64997C4.35576 30.4002 2.43771 28.7652 1.99597 26.6002H6.8409C7.31782 26.6002 7.72149 26.2458 7.78327 25.7727C8.02173 23.9487 8.49387 22.175 9.19022 20.4983C9.37257 20.0575 9.20068 19.5492 8.78644 19.3107L8.62869 19.2195C7.52956 18.5859 6.74293 17.5617 6.41429 16.3362C6.16915 15.4223 6.20155 14.4781 6.49601 13.6012L10.6911 16.0237C11.1034 16.2631 11.6287 16.1587 11.9204 15.7805C13.0357 14.3299 14.3343 13.0312 15.7811 11.9197C16.1591 11.6299 16.2637 11.1056 16.0252 10.6923L15.9311 10.527C15.2956 9.42875 15.1265 8.14825 15.4552 6.92274C15.7004 6.00885 16.1991 5.20706 16.8926 4.5952L19.3131 8.78761C19.5525 9.20086 20.0636 9.37186 20.4988 9.1885C22.1754 8.49314 23.9501 8.02 25.7731 7.78254C26.2462 7.72075 26.6005 7.31796 26.6005 6.84103V6.6501C26.6005 5.38184 27.0945 4.18863 27.9914 3.29087C28.6601 2.62212 29.4933 2.17748 30.3996 1.99412V6.84103C30.3996 7.31796 30.7539 7.72075 31.2269 7.78254C33.049 8.02 34.8236 8.49315 36.5013 9.18951C36.9363 9.36997 37.4474 9.20086 37.6869 8.78761L37.7799 8.62796C38.4136 7.52882 39.4377 6.74317 40.6632 6.41442C41.579 6.16927 42.5232 6.20067 43.3981 6.49513L40.9757 10.6913C40.7363 11.1046 40.8408 11.6309 41.2189 11.9206C42.6657 13.0321 43.9644 14.3308 45.0796 15.7814C45.3713 16.1605 45.8966 16.2649 46.3089 16.0246L46.4723 15.9306C47.5714 15.296 48.853 15.1269 50.0765 15.4555C50.9904 15.6997 51.7922 16.1994 52.404 16.8929L48.2136 19.3116C47.7993 19.5501 47.6274 20.0583 47.8098 20.4991C48.5061 22.1769 48.9793 23.9515 49.2167 25.7736C49.2775 26.2467 49.6813 26.6011 50.1582 26.6011H50.3491H50.351C51.6193 26.6011 52.8115 27.095 53.7083 27.9919C54.3772 28.6606 54.8217 29.4938 55.006 30.4002H50.1582C49.6813 30.4002 49.2776 30.7545 49.2167 31.2277C48.9783 33.0507 48.5052 34.8254 47.8089 36.5012C47.6265 36.9429 47.7994 37.4503 48.2127 37.6887L48.3713 37.7809C50.3577 38.9266 51.2041 41.3017 50.5031 43.3983L46.3051 40.9748C45.8937 40.7374 45.3675 40.8418 45.0777 41.219C44.5913 41.8535 44.0622 42.4654 43.5065 43.0392C43.1416 43.4164 43.1512 44.0176 43.5293 44.3825C43.9046 44.7463 44.5058 44.7387 44.8717 44.3606C45.2839 43.935 45.6839 43.4885 46.0639 43.0287L50.4585 45.5671C50.6047 45.6507 50.7691 45.6944 50.9335 45.6944C51.0161 45.6944 51.0988 45.683 51.1795 45.6621C51.4237 45.5965 51.6307 45.437 51.7571 45.2184C53.4813 42.2297 52.615 38.444 49.859 36.4803C50.3634 35.1322 50.7368 33.7319 50.9771 32.3002L56.0501 32.3012C56.3028 32.3012 56.544 32.2005 56.7217 32.0229C56.9003 31.8443 57 31.6029 57 31.3502C56.999 29.5738 56.3074 27.9036 55.0507 26.6477C53.9449 25.5419 52.519 24.874 50.9819 24.7306C50.7445 23.299 50.3721 21.8987 49.8704 20.5497L54.2584 18.0161C54.4769 17.8907 54.6364 17.6826 54.7011 17.4394C54.7667 17.1961 54.7325 16.9369 54.607 16.7183C53.7179 15.1803 52.2834 14.0792 50.5687 13.6194C49.0573 13.2156 47.4878 13.3496 46.0848 13.9947C45.1642 12.8803 44.1401 11.8553 43.0287 10.9347L45.5661 6.54089C45.8283 6.08678 45.6725 5.50542 45.2184 5.24313C43.6785 4.35484 41.8878 4.11927 40.1711 4.57906C38.6625 4.98373 37.3725 5.88249 36.4804 7.13928C35.1315 6.63574 33.7312 6.26145 32.2996 6.0221V0.949967C32.2996 0.425609 31.875 0 31.3496 0H31.3486C29.5731 0 27.9031 0.691573 26.6481 1.94747C25.5423 3.0533 24.8744 4.4802 24.73 6.01631C23.2984 6.25477 21.8972 6.62717 20.5492 7.12781L18.0165 2.74069C17.7533 2.28569 17.1701 2.13083 16.7189 2.39301C15.1809 3.2813 14.0798 4.71476 13.62 6.43145C13.2153 7.94196 13.3503 9.51236 13.9943 10.9145C12.8819 11.8332 11.8578 12.8573 10.9344 13.9707L6.54165 11.4342C6.08666 11.171 5.5062 11.3269 5.24392 11.7819C4.35565 13.3199 4.11919 15.1116 4.57986 16.8274C4.98364 18.336 5.88226 19.6261 7.14003 20.5201C6.6365 21.8682 6.26222 23.2684 6.02187 24.7001H0.949948C0.424599 24.7001 0 25.1247 0 25.6501C0 29.1033 2.64567 31.9504 6.01719 32.2697Z" fill="url(#paint1_linear)"/>
<path d="M55.4496 52.5256C55.0743 52.8305 54.7457 53.1601 54.4274 53.4784C53.5211 54.3837 52.8058 55.1 51.2991 55.1C49.7925 55.1 49.0772 54.3837 48.1709 53.4784C47.2009 52.5075 45.9926 51.3 43.6993 51.3C41.4061 51.3 40.1987 52.5075 39.2278 53.4784C38.3215 54.3837 37.6062 55.1 36.0995 55.1C34.5928 55.1 33.8776 54.3837 32.9713 53.4784C32.0013 52.5075 30.7929 51.3 28.4997 51.3C26.2065 51.3 24.9991 52.5075 24.0282 53.4784C23.1219 54.3837 22.4066 55.1 20.8999 55.1C19.3932 55.1 18.678 54.3837 17.7717 53.4784C16.8017 52.5075 15.5933 51.3 13.3001 51.3C11.0069 51.3 9.79901 52.5075 8.82813 53.4784C7.92182 54.3837 7.20655 55.1 5.69986 55.1C4.19317 55.1 3.4779 54.3837 2.57159 53.4774C2.25331 53.1601 1.92467 52.8314 1.5485 52.5264C1.14194 52.1949 0.542443 52.2595 0.212806 52.6652C-0.117834 53.0727 -0.0560477 53.6712 0.351518 54.0018C0.651766 54.245 0.931974 54.5252 1.22832 54.8216C2.1992 55.7916 3.40665 57 5.69986 57C7.99307 57 9.20152 55.7916 10.1714 54.8216C11.0777 53.9153 11.793 53.2 13.2997 53.2C14.8064 53.2 15.5216 53.9154 16.4279 54.8216C17.3988 55.7916 18.6063 57 20.8995 57C23.1927 57 24.4011 55.7916 25.371 54.8216C26.2773 53.9153 26.9926 53.2 28.4993 53.2C30.006 53.2 30.7212 53.9154 31.6276 54.8216C32.5984 55.7916 33.8059 57 36.0991 57C38.3923 57 39.6007 55.7916 40.5706 54.8216C41.4769 53.9153 42.1922 53.2 43.6989 53.2C45.2056 53.2 45.9209 53.9154 46.8272 54.8216C47.798 55.7916 49.0055 57 51.2987 57C53.5919 57 54.8004 55.7916 55.7702 54.8216C56.0676 54.5242 56.3488 54.244 56.648 53.9999C57.0556 53.6683 57.1164 53.0698 56.7858 52.6633C56.4567 52.2567 55.8591 52.194 55.4496 52.5256Z" fill="black"/>
<path d="M55.4496 52.5256C55.0743 52.8305 54.7457 53.1601 54.4274 53.4784C53.5211 54.3837 52.8058 55.1 51.2991 55.1C49.7925 55.1 49.0772 54.3837 48.1709 53.4784C47.2009 52.5075 45.9926 51.3 43.6993 51.3C41.4061 51.3 40.1987 52.5075 39.2278 53.4784C38.3215 54.3837 37.6062 55.1 36.0995 55.1C34.5928 55.1 33.8776 54.3837 32.9713 53.4784C32.0013 52.5075 30.7929 51.3 28.4997 51.3C26.2065 51.3 24.9991 52.5075 24.0282 53.4784C23.1219 54.3837 22.4066 55.1 20.8999 55.1C19.3932 55.1 18.678 54.3837 17.7717 53.4784C16.8017 52.5075 15.5933 51.3 13.3001 51.3C11.0069 51.3 9.79901 52.5075 8.82813 53.4784C7.92182 54.3837 7.20655 55.1 5.69986 55.1C4.19317 55.1 3.4779 54.3837 2.57159 53.4774C2.25331 53.1601 1.92467 52.8314 1.5485 52.5264C1.14194 52.1949 0.542443 52.2595 0.212806 52.6652C-0.117834 53.0727 -0.0560477 53.6712 0.351518 54.0018C0.651766 54.245 0.931974 54.5252 1.22832 54.8216C2.1992 55.7916 3.40665 57 5.69986 57C7.99307 57 9.20152 55.7916 10.1714 54.8216C11.0777 53.9153 11.793 53.2 13.2997 53.2C14.8064 53.2 15.5216 53.9154 16.4279 54.8216C17.3988 55.7916 18.6063 57 20.8995 57C23.1927 57 24.4011 55.7916 25.371 54.8216C26.2773 53.9153 26.9926 53.2 28.4993 53.2C30.006 53.2 30.7212 53.9154 31.6276 54.8216C32.5984 55.7916 33.8059 57 36.0991 57C38.3923 57 39.6007 55.7916 40.5706 54.8216C41.4769 53.9153 42.1922 53.2 43.6989 53.2C45.2056 53.2 45.9209 53.9154 46.8272 54.8216C47.798 55.7916 49.0055 57 51.2987 57C53.5919 57 54.8004 55.7916 55.7702 54.8216C56.0676 54.5242 56.3488 54.244 56.648 53.9999C57.0556 53.6683 57.1164 53.0698 56.7858 52.6633C56.4567 52.2567 55.8591 52.194 55.4496 52.5256Z" fill="url(#paint2_linear)"/>
<path d="M25.2193 39.7965C25.3561 39.8658 25.5033 39.9 25.6496 39.9C25.9242 39.9 26.194 39.7803 26.3802 39.558L35.88 28.158C36.1156 27.8749 36.1669 27.4807 36.0092 27.1462C35.8535 26.8128 35.5181 26.5999 35.1495 26.5999H30.6086L32.2815 18.236C32.3689 17.7962 32.138 17.3563 31.7276 17.1778C31.3173 17.0011 30.8375 17.1321 30.5772 17.4979L21.0774 30.797C20.8703 31.0868 20.8427 31.4678 21.0051 31.7841C21.1675 32.1003 21.4934 32.3 21.8496 32.3H26.3326L24.7281 38.7192C24.6208 39.1486 24.825 39.5961 25.2193 39.7965ZM23.6955 30.4L29.5503 22.2034L28.5186 27.3628C28.4626 27.6421 28.5348 27.9319 28.7152 28.1513C28.8957 28.3717 29.1646 28.5 29.4495 28.5H33.1212L27.578 35.151L28.471 31.5799C28.5422 31.2959 28.4786 30.9956 28.2981 30.7647C28.1185 30.5348 27.8421 30.3999 27.5495 30.3999H23.6955V30.4Z" fill="black"/>
<path d="M25.2193 39.7965C25.3561 39.8658 25.5033 39.9 25.6496 39.9C25.9242 39.9 26.194 39.7803 26.3802 39.558L35.88 28.158C36.1156 27.8749 36.1669 27.4807 36.0092 27.1462C35.8535 26.8128 35.5181 26.5999 35.1495 26.5999H30.6086L32.2815 18.236C32.3689 17.7962 32.138 17.3563 31.7276 17.1778C31.3173 17.0011 30.8375 17.1321 30.5772 17.4979L21.0774 30.797C20.8703 31.0868 20.8427 31.4678 21.0051 31.7841C21.1675 32.1003 21.4934 32.3 21.8496 32.3H26.3326L24.7281 38.7192C24.6208 39.1486 24.825 39.5961 25.2193 39.7965ZM23.6955 30.4L29.5503 22.2034L28.5186 27.3628C28.4626 27.6421 28.5348 27.9319 28.7152 28.1513C28.8957 28.3717 29.1646 28.5 29.4495 28.5H33.1212L27.578 35.151L28.471 31.5799C28.5422 31.2959 28.4786 30.9956 28.2981 30.7647C28.1185 30.5348 27.8421 30.3999 27.5495 30.3999H23.6955V30.4Z" fill="url(#paint3_linear)"/>
<defs>
<linearGradient id="paint0_linear" x1="28.4995" y1="46.5503" x2="28.4995" y2="52.2502" gradientUnits="userSpaceOnUse">
<stop stop-color="#5791BE"/>
<stop offset="1" stop-color="#366E9A"/>
</linearGradient>
<linearGradient id="paint1_linear" x1="28.5" y1="0" x2="28.5" y2="45.6944" gradientUnits="userSpaceOnUse">
<stop stop-color="#5791BE"/>
<stop offset="1" stop-color="#366E9A"/>
</linearGradient>
<linearGradient id="paint2_linear" x1="28.4995" y1="51.3" x2="28.4995" y2="57" gradientUnits="userSpaceOnUse">
<stop stop-color="#5791BE"/>
<stop offset="1" stop-color="#366E9A"/>
</linearGradient>
<linearGradient id="paint3_linear" x1="28.5" y1="17.0999" x2="28.5" y2="39.9" gradientUnits="userSpaceOnUse">
<stop stop-color="#5791BE"/>
<stop offset="1" stop-color="#366E9A"/>
</linearGradient>
</defs>
</svg>
