<svg width="57" height="57" viewBox="0 0 57 57" fill="none" xmlns="http://www.w3.org/2000/svg">
<path d="M51.0255 10.7236L46.2755 5.97359C45.9575 5.65522 45.4598 5.60368 45.0833 5.85009L39.8051 9.30998L34.1136 6.93498L33.2406 0.815098C33.1735 0.347224 32.7727 -0.000118719 32.3001 3.04394e-08H24.7001C24.2274 -0.000118719 23.8266 0.347224 23.7596 0.815098L22.8856 6.93498L17.1998 9.30998L11.9207 5.85199C11.5441 5.60558 11.0464 5.65712 10.7284 5.97549L5.9784 10.7255C5.65968 11.0443 5.60885 11.5432 5.8568 11.9196L9.3718 17.2586L8.7828 18.62L10.527 19.3743L11.3203 17.5427C11.4477 17.2484 11.418 16.9097 11.2414 16.6421L7.867 11.5216L11.5236 7.86503L16.5795 11.1767C16.8441 11.3481 17.1762 11.3787 17.4677 11.2584L24.1177 8.47398C24.4248 8.34383 24.6412 8.06228 24.6877 7.73203L25.5237 1.9H31.4764L32.3096 7.73488C32.3561 8.06513 32.5725 8.34668 32.8796 8.47683L39.5296 11.2594C39.8207 11.3797 40.1525 11.349 40.4169 11.1777L45.4747 7.86788L49.1569 11.5501L46.6869 15.7301C46.5398 15.9779 46.5132 16.2792 46.6147 16.549L47.6682 19.3315L49.4457 18.6589L48.5536 16.3039L51.1709 11.8788C51.3917 11.5057 51.3319 11.0303 51.0255 10.7236Z" fill="black"/>
<path d="M51.0255 10.7236L46.2755 5.97359C45.9575 5.65522 45.4598 5.60368 45.0833 5.85009L39.8051 9.30998L34.1136 6.93498L33.2406 0.815098C33.1735 0.347224 32.7727 -0.000118719 32.3001 3.04394e-08H24.7001C24.2274 -0.000118719 23.8266 0.347224 23.7596 0.815098L22.8856 6.93498L17.1998 9.30998L11.9207 5.85199C11.5441 5.60558 11.0464 5.65712 10.7284 5.97549L5.9784 10.7255C5.65968 11.0443 5.60885 11.5432 5.8568 11.9196L9.3718 17.2586L8.7828 18.62L10.527 19.3743L11.3203 17.5427C11.4477 17.2484 11.418 16.9097 11.2414 16.6421L7.867 11.5216L11.5236 7.86503L16.5795 11.1767C16.8441 11.3481 17.1762 11.3787 17.4677 11.2584L24.1177 8.47398C24.4248 8.34383 24.6412 8.06228 24.6877 7.73203L25.5237 1.9H31.4764L32.3096 7.73488C32.3561 8.06513 32.5725 8.34668 32.8796 8.47683L39.5296 11.2594C39.8207 11.3797 40.1525 11.349 40.4169 11.1777L45.4747 7.86788L49.1569 11.5501L46.6869 15.7301C46.5398 15.9779 46.5132 16.2792 46.6147 16.549L47.6682 19.3315L49.4457 18.6589L48.5536 16.3039L51.1709 11.8788C51.3917 11.5057 51.3319 11.0303 51.0255 10.7236Z" fill="url(#paint0_linear)"/>
<path d="M38.6717 36.3783L35.8217 33.5283C35.6436 33.3502 35.402 33.25 35.1501 33.25H21.85C21.5981 33.25 21.3565 33.3502 21.1784 33.5283L18.3284 36.3783C18.1503 36.5565 18.05 36.798 18.05 37.05V56.05C18.05 56.5746 18.4754 56.9999 19 56.9999H38.0001C38.5247 56.9999 38.9501 56.5746 38.9501 56.05V37.05C38.9501 36.798 38.8498 36.5565 38.6717 36.3783ZM31.7434 35.15H34.7568L31.3501 38.5567L29.8434 37.05L31.7434 35.15ZM30.0068 39.9L28.7784 41.1283C28.5997 41.3061 28.4995 41.5479 28.5001 41.8C28.4983 41.5504 28.3983 41.3114 28.2217 41.135L26.9934 39.9L28.5001 38.3933L30.0068 39.9ZM29.0568 35.15L28.5001 35.7067L27.9433 35.15H29.0568ZM25.2568 35.15L27.1568 37.05L25.6501 38.5567L22.2433 35.15H25.2568ZM24.8188 55.1H19.95V37.4433L20.9 36.4933L24.9784 40.5716L26.5459 42.1391L24.8188 55.1ZM26.7359 55.1L28.4915 41.9254C28.4972 41.8854 28.5001 41.8451 28.5001 41.8047C28.5003 41.8657 28.5066 41.9264 28.5191 41.9862L31.1411 55.1H26.7359ZM37.0501 55.1H33.0791L30.4817 42.1125L32.0217 40.5716L36.1001 36.4933L37.0501 37.4433V55.1Z" fill="black"/>
<path d="M38.6717 36.3783L35.8217 33.5283C35.6436 33.3502 35.402 33.25 35.1501 33.25H21.85C21.5981 33.25 21.3565 33.3502 21.1784 33.5283L18.3284 36.3783C18.1503 36.5565 18.05 36.798 18.05 37.05V56.05C18.05 56.5746 18.4754 56.9999 19 56.9999H38.0001C38.5247 56.9999 38.9501 56.5746 38.9501 56.05V37.05C38.9501 36.798 38.8498 36.5565 38.6717 36.3783ZM31.7434 35.15H34.7568L31.3501 38.5567L29.8434 37.05L31.7434 35.15ZM30.0068 39.9L28.7784 41.1283C28.5997 41.3061 28.4995 41.5479 28.5001 41.8C28.4983 41.5504 28.3983 41.3114 28.2217 41.135L26.9934 39.9L28.5001 38.3933L30.0068 39.9ZM29.0568 35.15L28.5001 35.7067L27.9433 35.15H29.0568ZM25.2568 35.15L27.1568 37.05L25.6501 38.5567L22.2433 35.15H25.2568ZM24.8188 55.1H19.95V37.4433L20.9 36.4933L24.9784 40.5716L26.5459 42.1391L24.8188 55.1ZM26.7359 55.1L28.4915 41.9254C28.4972 41.8854 28.5001 41.8451 28.5001 41.8047C28.5003 41.8657 28.5066 41.9264 28.5191 41.9862L31.1411 55.1H26.7359ZM37.0501 55.1H33.0791L30.4817 42.1125L32.0217 40.5716L36.1001 36.4933L37.0501 37.4433V55.1Z" fill="url(#paint1_linear)"/>
<path d="M35.1499 12.3499H26.5999C23.4531 12.3529 20.903 14.9031 20.8999 18.0498V23.7498C20.9047 27.9453 24.3045 31.3451 28.4999 31.3498C32.6953 31.3451 36.0952 27.9453 36.0999 23.7498V13.2999C36.0999 12.7752 35.6745 12.3499 35.1499 12.3499ZM34.1999 23.7498C34.1999 26.8979 31.648 29.4498 28.4999 29.4498C25.3518 29.4498 22.7999 26.8979 22.7999 23.7498V19.9498H30.3999C31.804 19.9495 33.1581 19.4282 34.1999 18.4868V23.7498ZM30.3999 18.0498H22.7999C22.7999 15.9512 24.5012 14.2498 26.5999 14.2498H34.1999C34.1999 16.3485 32.4986 18.0498 30.3999 18.0498Z" fill="black"/>
<path d="M35.1499 12.3499H26.5999C23.4531 12.3529 20.903 14.9031 20.8999 18.0498V23.7498C20.9047 27.9453 24.3045 31.3451 28.4999 31.3498C32.6953 31.3451 36.0952 27.9453 36.0999 23.7498V13.2999C36.0999 12.7752 35.6745 12.3499 35.1499 12.3499ZM34.1999 23.7498C34.1999 26.8979 31.648 29.4498 28.4999 29.4498C25.3518 29.4498 22.7999 26.8979 22.7999 23.7498V19.9498H30.3999C31.804 19.9495 33.1581 19.4282 34.1999 18.4868V23.7498ZM30.3999 18.0498H22.7999C22.7999 15.9512 24.5012 14.2498 26.5999 14.2498H34.1999C34.1999 16.3485 32.4986 18.0498 30.3999 18.0498Z" fill="url(#paint2_linear)"/>
<path d="M56.7217 40.1781L53.8717 37.3282C53.6936 37.15 53.452 37.0498 53.2001 37.0498H45.6C45.3481 37.0498 45.1065 37.15 44.9284 37.3282L42.0784 40.1781C41.9003 40.3563 41.8 40.5978 41.8 40.8498V56.0498C41.8 56.5744 42.2254 56.9998 42.75 56.9998H56.0501C56.5747 56.9998 57.0001 56.5744 57.0001 56.0498V40.8498C57.0001 40.5978 56.8998 40.3563 56.7217 40.1781ZM55.1 55.0998H50.35V40.8498H48.45V55.0998H43.7V41.2431L45.6 39.3431L47.7784 41.5214L48.45 40.8498L49.1217 40.1781L47.8934 38.9498H50.9818L49.6983 40.1572L50.35 40.8498L51.0018 41.5423L53.2666 39.4096L55.1 41.2431V55.0998Z" fill="black"/>
<path d="M56.7217 40.1781L53.8717 37.3282C53.6936 37.15 53.452 37.0498 53.2001 37.0498H45.6C45.3481 37.0498 45.1065 37.15 44.9284 37.3282L42.0784 40.1781C41.9003 40.3563 41.8 40.5978 41.8 40.8498V56.0498C41.8 56.5744 42.2254 56.9998 42.75 56.9998H56.0501C56.5747 56.9998 57.0001 56.5744 57.0001 56.0498V40.8498C57.0001 40.5978 56.8998 40.3563 56.7217 40.1781ZM55.1 55.0998H50.35V40.8498H48.45V55.0998H43.7V41.2431L45.6 39.3431L47.7784 41.5214L48.45 40.8498L49.1217 40.1781L47.8934 38.9498H50.9818L49.6983 40.1572L50.35 40.8498L51.0018 41.5423L53.2666 39.4096L55.1 41.2431V55.0998Z" fill="url(#paint3_linear)"/>
<path d="M50.3499 20.8999H48.4813C45.8664 20.9051 43.7454 23.0189 43.7313 25.6337L43.7161 30.3904C43.7056 33.5331 46.2448 36.0893 49.3876 36.0999C49.3939 36.0999 49.4003 36.0999 49.4066 36.0999C52.5484 36.0962 55.0947 33.5511 55.0999 30.4094V25.6499C55.0969 23.0279 52.9719 20.903 50.3499 20.8999ZM45.6313 25.6404C45.6364 24.0823 46.8919 22.817 48.4499 22.7999C48.4501 24.3617 47.1931 25.6327 45.6313 25.6499V25.6404ZM53.1999 30.4065C53.1963 32.4989 51.5018 34.1946 49.4094 34.1999C47.316 34.1999 45.6189 32.5028 45.6189 30.4094C45.6189 30.4062 45.6189 30.4031 45.6189 30.3999L45.6284 27.5499C47.1135 27.541 48.509 26.838 49.3999 25.6499C50.297 26.8459 51.7049 27.5499 53.1999 27.5499V30.4065ZM50.3499 22.7999C51.924 22.7999 53.1999 24.0759 53.1999 25.6499C51.6259 25.6499 50.3499 24.3739 50.3499 22.7999Z" fill="black"/>
<path d="M50.3499 20.8999H48.4813C45.8664 20.9051 43.7454 23.0189 43.7313 25.6337L43.7161 30.3904C43.7056 33.5331 46.2448 36.0893 49.3876 36.0999C49.3939 36.0999 49.4003 36.0999 49.4066 36.0999C52.5484 36.0962 55.0947 33.5511 55.0999 30.4094V25.6499C55.0969 23.0279 52.9719 20.903 50.3499 20.8999ZM45.6313 25.6404C45.6364 24.0823 46.8919 22.817 48.4499 22.7999C48.4501 24.3617 47.1931 25.6327 45.6313 25.6499V25.6404ZM53.1999 30.4065C53.1963 32.4989 51.5018 34.1946 49.4094 34.1999C47.316 34.1999 45.6189 32.5028 45.6189 30.4094C45.6189 30.4062 45.6189 30.4031 45.6189 30.3999L45.6284 27.5499C47.1135 27.541 48.509 26.838 49.3999 25.6499C50.297 26.8459 51.7049 27.5499 53.1999 27.5499V30.4065ZM50.3499 22.7999C51.924 22.7999 53.1999 24.0759 53.1999 25.6499C51.6259 25.6499 50.3499 24.3739 50.3499 22.7999Z" fill="url(#paint4_linear)"/>
<path d="M14.9217 40.1781L12.0717 37.3282C11.8935 37.15 11.652 37.0498 11.4 37.0498H3.8C3.54801 37.0498 3.30648 37.15 3.12835 37.3282L0.27835 40.1781C0.100225 40.3563 0 40.5978 0 40.8498V56.0498C0 56.5744 0.425363 56.9998 0.95 56.9998H14.25C14.7746 56.9998 15.2 56.5744 15.2 56.0498V40.8498C15.2 40.5978 15.0998 40.3563 14.9217 40.1781ZM13.3 55.0998H8.55V40.8498H6.65V55.0998H1.9V41.2431L3.8 39.3431L5.97835 41.5214L6.65 40.8498L7.32165 40.1781L6.0933 38.9498H9.18175L7.8983 40.1572L8.55 40.8498L9.2017 41.5423L11.4665 39.4096L13.3 41.2431V55.0998Z" fill="black"/>
<path d="M14.9217 40.1781L12.0717 37.3282C11.8935 37.15 11.652 37.0498 11.4 37.0498H3.8C3.54801 37.0498 3.30648 37.15 3.12835 37.3282L0.27835 40.1781C0.100225 40.3563 0 40.5978 0 40.8498V56.0498C0 56.5744 0.425363 56.9998 0.95 56.9998H14.25C14.7746 56.9998 15.2 56.5744 15.2 56.0498V40.8498C15.2 40.5978 15.0998 40.3563 14.9217 40.1781ZM13.3 55.0998H8.55V40.8498H6.65V55.0998H1.9V41.2431L3.8 39.3431L5.97835 41.5214L6.65 40.8498L7.32165 40.1781L6.0933 38.9498H9.18175L7.8983 40.1572L8.55 40.8498L9.2017 41.5423L11.4665 39.4096L13.3 41.2431V55.0998Z" fill="url(#paint5_linear)"/>
<path d="M8.55014 20.8999H6.68149C4.06662 20.9051 1.94562 23.0189 1.93149 25.6337L1.91629 30.3904C1.90584 33.5331 4.44495 36.0893 7.58779 36.0999C7.59409 36.0999 7.6005 36.0999 7.60679 36.0999C10.7486 36.0962 13.2949 33.5511 13.3001 30.4094V25.6499C13.2971 23.0279 11.1721 20.903 8.55014 20.8999ZM8.55014 22.7999C9.75356 22.8049 10.8242 23.5652 11.2253 24.6999H9.50014C8.29673 24.6949 7.22608 23.9346 6.82494 22.7999H8.55014ZM4.75014 23.5675V23.7413C4.75133 23.9942 4.65027 24.2368 4.46989 24.4139C4.34639 24.5341 4.19119 24.6165 4.02244 24.6514C4.17789 24.2387 4.42702 23.8677 4.75014 23.5675ZM11.4001 30.4094C11.3949 32.5007 9.70095 34.1946 7.60964 34.1999C5.5162 34.1999 3.81914 32.5028 3.81914 30.4094C3.81914 30.4062 3.81914 30.4031 3.81914 30.3999L3.83149 26.5923C4.57522 26.5881 5.28737 26.2908 5.81319 25.7648C5.96341 25.6127 6.09617 25.4446 6.20934 25.2632C7.09082 26.1195 8.2712 26.5989 9.50014 26.5999H11.4001V30.4094Z" fill="black"/>
<path d="M8.55014 20.8999H6.68149C4.06662 20.9051 1.94562 23.0189 1.93149 25.6337L1.91629 30.3904C1.90584 33.5331 4.44495 36.0893 7.58779 36.0999C7.59409 36.0999 7.6005 36.0999 7.60679 36.0999C10.7486 36.0962 13.2949 33.5511 13.3001 30.4094V25.6499C13.2971 23.0279 11.1721 20.903 8.55014 20.8999ZM8.55014 22.7999C9.75356 22.8049 10.8242 23.5652 11.2253 24.6999H9.50014C8.29673 24.6949 7.22608 23.9346 6.82494 22.7999H8.55014ZM4.75014 23.5675V23.7413C4.75133 23.9942 4.65027 24.2368 4.46989 24.4139C4.34639 24.5341 4.19119 24.6165 4.02244 24.6514C4.17789 24.2387 4.42702 23.8677 4.75014 23.5675ZM11.4001 30.4094C11.3949 32.5007 9.70095 34.1946 7.60964 34.1999C5.5162 34.1999 3.81914 32.5028 3.81914 30.4094C3.81914 30.4062 3.81914 30.4031 3.81914 30.3999L3.83149 26.5923C4.57522 26.5881 5.28737 26.2908 5.81319 25.7648C5.96341 25.6127 6.09617 25.4446 6.20934 25.2632C7.09082 26.1195 8.2712 26.5989 9.50014 26.5999H11.4001V30.4094Z" fill="url(#paint6_linear)"/>
<defs>
<linearGradient id="paint0_linear" x1="28.5018" y1="0" x2="28.5018" y2="19.3743" gradientUnits="userSpaceOnUse">
<stop stop-color="#A9D9FE"/>
<stop offset="0.0001" stop-color="#5791BE"/>
<stop offset="1" stop-color="#366E9A"/>
</linearGradient>
<linearGradient id="paint1_linear" x1="28.5001" y1="33.25" x2="28.5001" y2="56.9999" gradientUnits="userSpaceOnUse">
<stop stop-color="#A9D9FE"/>
<stop offset="0.0001" stop-color="#5791BE"/>
<stop offset="1" stop-color="#366E9A"/>
</linearGradient>
<linearGradient id="paint2_linear" x1="28.4999" y1="12.3499" x2="28.4999" y2="31.3498" gradientUnits="userSpaceOnUse">
<stop stop-color="#A9D9FE"/>
<stop offset="0.0001" stop-color="#5791BE"/>
<stop offset="1" stop-color="#366E9A"/>
</linearGradient>
<linearGradient id="paint3_linear" x1="49.4" y1="37.0498" x2="49.4" y2="56.9998" gradientUnits="userSpaceOnUse">
<stop stop-color="#A9D9FE"/>
<stop offset="0.0001" stop-color="#5791BE"/>
<stop offset="1" stop-color="#366E9A"/>
</linearGradient>
<linearGradient id="paint4_linear" x1="49.408" y1="20.8999" x2="49.408" y2="36.0999" gradientUnits="userSpaceOnUse">
<stop stop-color="#A9D9FE"/>
<stop offset="0.0001" stop-color="#5791BE"/>
<stop offset="1" stop-color="#366E9A"/>
</linearGradient>
<linearGradient id="paint5_linear" x1="7.6" y1="37.0498" x2="7.6" y2="56.9998" gradientUnits="userSpaceOnUse">
<stop stop-color="#A9D9FE"/>
<stop offset="0.0001" stop-color="#5791BE"/>
<stop offset="1" stop-color="#366E9A"/>
</linearGradient>
<linearGradient id="paint6_linear" x1="7.6082" y1="20.8999" x2="7.6082" y2="36.0999" gradientUnits="userSpaceOnUse">
<stop stop-color="#A9D9FE"/>
<stop offset="0.0001" stop-color="#5791BE"/>
<stop offset="1" stop-color="#366E9A"/>
</linearGradient>
</defs>
</svg>
