<svg id="Capa_1" enable-background="new 0 0 512 512" height="512" viewBox="0 0 512 512" width="512" xmlns="http://www.w3.org/2000/svg"><g><g><path d="m131.043 322.46v82.5h289.955c8.284 0 15-6.716 15-15 0-7.283 0-60.231 0-67.5l-152.478-20.002z" fill="#8b9ba9"/><path d="m405.997 318.459v56.5h-274.954v30h289.955c8.284 0 15-6.716 15-15 0-6.902 0-60.73 0-67.5z" fill="#6c7a88"/></g><g><g><path d="m449.498 54.541h-273.453c-8.285 0-15 6.716-15 15v116.992h-100.035c-14.032 0-26.19 9.728-29.269 23.418l-11.354 50.486c-2.915 12.969-4.387 26.221-4.387 39.513v105.01h145.045c0-2.441 0-39.541 0-82.5h274.953 13.5c8.284 0 15-6.716 15-15v-237.919c0-8.284-6.716-15-15-15z" fill="#ff7e40"/><path d="m464.498 77.041c0-5.045.506-10.634-2.023-15-2.595-4.479-7.428-7.5-12.977-7.5h-15v237.919h-273.453c0-52.767 0-104.502 0-105.927h-30v135.927h-22.5c-21.866 0-41.757 8.567-56.535 22.5h-36.01v60h145.045c0-2.035 0-39.305 0-82.5h92.454 195.999c5.549 0 10.382-3.021 12.977-7.5 2.529-4.366 2.023-9.955 2.023-15 0-25.825 0-196.285 0-222.919z" fill="#ff6344"/></g><path d="m15 404.96h54.896v-30h-54.896c-4.142 0-7.5 3.358-7.5 7.5v15c0 4.142 3.358 7.5 7.5 7.5z" fill="#8b9ba9"/><g fill="#9dc6fb"><path d="m131.045 216.533h-71.824l-14.261 63.417h86.085z"/><path d="m102.834 249.95h-51.128l-6.746 30h86.085v-63.417h-28.211z"/></g></g><g><circle cx="363.496" cy="404.96" fill="#4d5967" r="52.5"/><path d="m374.23 353.567c-6.154 11.369-4.433 25.873 5.177 35.482l-31.82 31.82c-9.609-9.61-24.113-11.332-35.483-5.177 4.968 23.817 26.122 41.767 51.393 41.767 28.949 0 52.5-23.551 52.5-52.5-.001-25.271-17.95-46.424-41.767-51.392z" fill="#35404a"/><circle cx="363.496" cy="404.96" fill="#fff9eb" r="22.5"/></g><g><circle cx="108.545" cy="404.96" fill="#4d5967" r="52.5"/><path d="m119.278 353.567c-6.154 11.369-4.433 25.873 5.177 35.482l-31.82 31.82c-9.609-9.61-24.113-11.332-35.483-5.177 4.968 23.817 26.122 41.767 51.393 41.767 28.949 0 52.5-23.551 52.5-52.5 0-25.271-17.949-46.424-41.767-51.392z" fill="#35404a"/><circle cx="108.545" cy="404.96" fill="#fff9eb" r="22.5"/></g><g><g><circle cx="312.771" cy="188.793" fill="#4d5967" r="104.25"/><path d="m386.487 115.077-.047.047c-10.866 10.866-13.569 27.407-6.87 41.236l-98.994 99.382c-13.941-6.717-30.559-4.195-41.501 6.747l-.019.019c19.063 19.063 45.475 30.778 74.622 30.53 56.602-.481 102.858-46.737 103.34-103.338.247-29.147-11.467-55.56-30.531-74.623z" fill="#35404a"/></g><g><circle cx="312.771" cy="188.793" fill="#fff9eb" r="74.25"/><path d="m365.25 136.315c-10.399 10.399-14.311 25.661-10.105 39.753 4.503 15.087.808 32.121-11.084 44.014-11.894 11.894-28.928 15.589-44.016 11.085-14.091-4.206-29.354-.295-39.753 10.104 14.204 14.204 34.12 22.696 55.963 21.692 38.088-1.751 68.934-32.596 70.685-70.684 1.005-21.844-7.487-41.76-21.69-55.964z" fill="#e9e3d5"/></g><g fill="#4d5967"><path d="m340.771 196.293h-28c-4.142 0-7.5-3.357-7.5-7.5v-44.25c0-4.143 3.358-7.5 7.5-7.5s7.5 3.357 7.5 7.5v36.75h20.5c4.142 0 7.5 3.357 7.5 7.5s-3.358 7.5-7.5 7.5z"/><circle cx="312.771" cy="188.793" r="15"/></g></g><g><path d="m44.96 287.45h78.585v35.009c0 4.142 3.357 7.5 7.5 7.5s7.5-3.358 7.5-7.5v-42.509-63.417c0-4.142-3.357-7.5-7.5-7.5h-71.824c-3.508 0-6.548 2.432-7.317 5.854l-14.261 63.417c-.5 2.223.038 4.552 1.461 6.331 1.423 1.78 3.578 2.815 5.856 2.815zm20.262-63.417h58.323v48.417h-69.211z"/><path d="m128.649 392.36c-4.02.97-6.5 5.04-5.52 9.06.28 1.15.42 2.34.42 3.54-.021 8.26-6.75 14.98-15 15-8.26-.02-14.99-6.74-15.01-15 .02-8.26 6.75-14.99 15.01-15 4.13 0 7.49-3.37 7.49-7.5 0-4.14-3.36-7.5-7.49-7.5-16.549 0-29.99 13.369-30.01 30 .02 16.583 13.413 30 30.01 30 16.549 0 29.99-13.391 29.99-30 0-2.39-.28-4.77-.83-7.07-.982-4.051-5.035-6.502-9.06-5.53z"/><path d="m383.6 392.36c-4.02.97-6.49 5.03-5.52 9.06.27 1.15.42 2.34.42 3.54-.021 8.26-6.75 14.98-15 15-8.261-.02-14.99-6.74-15-15 .01-8.26 6.739-14.98 15-15 4.13 0 7.5-3.36 7.5-7.5s-3.37-7.5-7.5-7.5c-16.576 0-30 13.403-30 30 0 16.577 13.403 30 30 30 16.55 0 29.989-13.391 29.989-30 0-2.39-.279-4.77-.829-7.07-.973-4.011-4.974-6.501-9.06-5.53z"/><path d="m312.771 77.043c-61.619 0-111.75 50.131-111.75 111.75s50.131 111.75 111.75 111.75 111.75-50.131 111.75-111.75-50.13-111.75-111.75-111.75zm0 208.5c-53.348 0-96.75-43.402-96.75-96.75s43.402-96.75 96.75-96.75 96.75 43.402 96.75 96.75-43.402 96.75-96.75 96.75z"/><path d="m312.771 107.043c-45.077 0-81.75 36.673-81.75 81.75s36.673 81.75 81.75 81.75c16.015 0 31.547-4.665 44.918-13.491 3.457-2.282 4.409-6.934 2.128-10.391-2.283-3.458-6.935-4.411-10.392-2.128-10.911 7.202-23.587 11.009-36.654 11.009-36.806 0-66.75-29.944-66.75-66.75s29.944-66.75 66.75-66.75 66.75 29.944 66.75 66.75c0 13.068-3.807 25.743-11.01 36.655-2.281 3.457-1.329 8.109 2.128 10.391s8.109 1.33 10.392-2.128c8.825-13.371 13.49-28.903 13.49-44.918 0-45.076-36.672-81.749-81.75-81.749z"/><path d="m312.771 137.043c-4.142 0-7.5 3.357-7.5 7.5v23.04c-8.729 3.096-15 11.432-15 21.21 0 12.407 10.094 22.5 22.5 22.5 9.777 0 18.114-6.271 21.21-15h6.79c4.142 0 7.5-3.357 7.5-7.5s-3.358-7.5-7.5-7.5h-6.79c-2.264-6.382-7.328-11.447-13.71-13.71v-23.04c0-4.143-3.358-7.5-7.5-7.5zm0 59.25c-4.136 0-7.5-3.364-7.5-7.5s3.364-7.5 7.5-7.5 7.5 3.364 7.5 7.5-3.364 7.5-7.5 7.5z"/><path d="m504.5 228.04h-32.5v-26.917h12.499c4.143 0 7.5-3.358 7.5-7.5s-3.357-7.5-7.5-7.5h-12.499v-26.918h22.499c4.143 0 7.5-3.358 7.5-7.5s-3.357-7.5-7.5-7.5h-22.499v-26.917h32.5c4.143 0 7.5-3.358 7.5-7.5s-3.357-7.5-7.5-7.5h-32.5v-32.748c0-12.378-10.012-22.5-22.5-22.5h-273.45c-12.582 0-22.49 10.199-22.51 22.5v109.493h-92.53c-17.666 0-32.711 12.038-36.586 29.272l-11.354 50.487c-3.032 13.488-4.57 27.336-4.57 41.158v69.012c-5.021 2.428-8.5 7.557-8.5 13.498v15c0 8.271 6.729 15 15 15h34.03c3.705 29.555 28.972 52.5 59.515 52.5s55.81-22.945 59.515-52.5h135.922c3.705 29.555 28.972 52.5 59.515 52.5 30.576 0 55.865-22.995 59.527-52.596 11.46-1.028 20.474-10.681 20.474-22.404v-60h6.003c6.01 0 11.66-2.34 15.91-6.59 4.239-4.25 6.59-9.9 6.59-15.91v-22.502h22.499c4.143 0 7.5-3.358 7.5-7.5s-3.357-7.5-7.5-7.5h-22.5v-26.918h32.5c4.143 0 7.5-3.358 7.5-7.5s-3.357-7.5-7.5-7.5zm-476.795 34.043 11.354-50.487c2.325-10.341 11.352-17.563 21.951-17.563h92.53v128.427c0 .032.004.064.005.096v42.781c-11.003-12.481-27.092-20.377-45-20.377-18.216 0-35.416 8.346-46.781 22.5h-38.264v-67.51c0-12.717 1.415-25.458 4.205-37.867zm-12.705 120.377h37.931c-1.952 4.8-3.263 9.834-3.911 15h-34.02zm93.545 67.5c-24.813 0-45-20.187-45-45 0-9.234 2.801-18.122 8.101-25.703 8.446-12.083 22.24-19.297 36.899-19.297 24.813 0 45 20.187 45 45s-20.187 45-45 45zm254.951 0c-24.813 0-45-20.187-45-45s20.187-45 45-45 45 20.187 45 45-20.186 45-45 45zm86.004-135h-258.45c-4.14 0-7.51 3.36-7.51 7.5s3.37 7.5 7.51 7.5h.01 237.438v60c0 3.45-2.344 6.355-5.521 7.227-3.826-29.423-29.031-52.227-59.479-52.227-30.542 0-55.81 22.945-59.515 52.5h-135.438v-75h-.005v-252.92c.01-4.13 3.38-7.49 7.51-7.5h273.45c4.13.01 7.489 3.37 7.5 7.5v207.859c0 .02-.003.038-.003.058s.003.038.003.058v29.944c-.011 4.131-3.37 7.491-7.5 7.501z"/></g></g></svg>