<?xml version="1.0" encoding="iso-8859-1"?>
<!-- Generator: Adobe Illustrator 19.0.0, SVG Export Plug-In . SVG Version: 6.00 Build 0)  -->
<svg version="1.1" id="Capa_1" xmlns="http://www.w3.org/2000/svg" xmlns:xlink="http://www.w3.org/1999/xlink" x="0px" y="0px"
	 viewBox="0 0 512 512" style="enable-background:new 0 0 512 512;" xml:space="preserve">
<path style="fill:#4B3F4E;" d="M255.999,473.373h232.057c12.629,0,20.522-13.671,14.207-24.609L386.235,247.798L270.207,46.831
	c-6.315-10.937-22.101-10.937-28.415,0L125.764,247.798L9.735,448.765c-6.315,10.937,1.579,24.609,14.207,24.609H255.999z"/>
<path style="fill:#5D5360;" d="M484.077,417.263l-97.842-169.466L290.96,82.777L171.269,290.089
	c-32.633,56.521,8.159,127.174,73.424,127.174h58.09H484.077z"/>
<polygon style="fill:#FFC850;" points="255.999,86.348 51.062,441.31 255.999,441.31 460.937,441.31 "/>
<path style="fill:#FFDC64;" d="M447.054,417.263L272.449,114.84L171.269,290.089c-32.633,56.521,8.159,127.174,73.424,127.174h58.09
	H447.054z"/>
<path d="M508.759,445.015L276.702,43.081c-4.321-7.485-12.06-11.953-20.703-11.953c-8.643,0-16.381,4.468-20.703,11.953
	L3.241,445.015c-4.321,7.485-4.321,16.421,0,23.905c4.321,7.485,12.06,11.952,20.702,11.952h464.115
	c8.643,0,16.381-4.468,20.702-11.952C513.08,461.436,513.08,452.499,508.759,445.015z M495.77,461.42
	c-0.773,1.339-3.072,4.453-7.713,4.453H23.942c-4.641,0-6.94-3.114-7.713-4.453c-0.773-1.339-2.32-4.887,0-8.906L248.287,50.581
	c2.321-4.02,6.167-4.454,7.713-4.454c1.546,0,5.393,0.434,7.713,4.454l232.057,401.934
	C498.09,456.534,496.543,460.081,495.77,461.42z"/>
<path d="M78.209,394.292c1.181,0.682,2.471,1.006,3.743,1.006c2.592,0,5.113-1.345,6.502-3.751L256,101.348l13.323,23.076
	c2.071,3.587,6.658,4.816,10.244,2.745s4.816-6.658,2.745-10.244L262.56,82.712c-0.331-0.599-0.747-1.157-1.242-1.653
	c-0.658-0.663-1.425-1.186-2.255-1.556c-0.986-0.443-2.026-0.655-3.057-0.655c-0.005,0-0.009,0-0.014,0
	c-1.041,0-2.093,0.217-3.088,0.669c-0.807,0.365-1.553,0.874-2.197,1.516c-0.506,0.503-0.931,1.07-1.268,1.68L75.464,384.047
	C73.392,387.634,74.621,392.221,78.209,394.292z"/>
<path d="M285.584,152.588l9.133,15.817c1.389,2.406,3.91,3.751,6.502,3.751c1.272,0,2.562-0.324,3.743-1.006
	c3.587-2.071,4.816-6.658,2.745-10.244l-9.106-15.77c-2.02-3.576-6.544-4.858-10.148-2.871c-3.627,2.001-4.941,6.57-2.94,10.196
	C285.536,152.504,285.559,152.546,285.584,152.588z"/>
<path d="M323.964,189.065c-2.071-3.588-6.659-4.816-10.244-2.745c-3.587,2.071-4.816,6.658-2.745,10.244L447.948,433.81H64.051
	l7.936-13.744c2.071-3.587,0.842-8.174-2.745-10.244c-3.587-2.072-8.174-0.842-10.244,2.745l-14.43,24.994
	c-1.34,2.321-1.34,5.18,0,7.5c1.34,2.321,3.815,3.75,6.495,3.75h409.874c2.68,0,5.155-1.429,6.495-3.75c1.34-2.32,1.34-5.179,0-7.5
	L323.964,189.065z"/>
<path d="M289.327,296.143c-2.901-4.143-7.652-6.615-12.708-6.615h-41.238c-0.087,0-0.269,0-0.422-0.22
	c-0.154-0.22-0.092-0.391-0.063-0.473l28.152-77.418c1.416-3.893-0.592-8.196-4.485-9.611c-3.893-1.415-8.196,0.593-9.61,4.486
	l-28.152,77.417c-1.729,4.752-1.028,10.062,1.873,14.203c2.901,4.143,7.652,6.615,12.708,6.615h41.238c0.087,0,0.269,0,0.423,0.22
	c0.154,0.22,0.092,0.39,0.063,0.472l-20.085,55.235l-0.655-4.377c-0.613-4.097-4.423-6.918-8.528-6.308
	c-4.097,0.613-6.92,4.432-6.307,8.528l5.347,35.716c0.422,2.819,2.406,5.156,5.12,6.029c0.754,0.243,1.529,0.361,2.297,0.361
	c1.994,0,3.944-0.796,5.378-2.272l25.175-25.895c2.887-2.97,2.82-7.718-0.149-10.604c-2.969-2.886-7.718-2.821-10.604,0.149
	l-2.547,2.621l19.657-54.057C292.928,305.594,292.227,300.284,289.327,296.143z"/>
<g>
</g>
<g>
</g>
<g>
</g>
<g>
</g>
<g>
</g>
<g>
</g>
<g>
</g>
<g>
</g>
<g>
</g>
<g>
</g>
<g>
</g>
<g>
</g>
<g>
</g>
<g>
</g>
<g>
</g>
</svg>
